M48
; DRILL file {KiCad (5.1.2-1)-1} date Monday, 02 September 2019 at 14:14:19
; FORMAT={-:-/ absolute / metric / decimal}
; #@! TF.CreationDate,2019-09-02T14:14:19+01:00
; #@! TF.GenerationSoftware,Kicad,Pcbnew,(5.1.2-1)-1
; #@! TF.FileFunction,Plated,1,2,PTH
FMAT,2
METRIC
T1C0.400
T2C0.800
T3C1.000
%
G90
G05
T1
X142.131Y-106.987
X149.111Y-121.749
X156.051Y-93.631
X163.847Y-89.222
X165.16Y-116.663
X165.66Y-96.793
X168.227Y-90.427
X168.291Y-102.434
X168.782Y-88.773
X169.32Y-102.208
X170.162Y-84.978
X170.344Y-87.613
X170.553Y-98.81
X172.17Y-95.68
X172.31Y-77.454
X172.481Y-99.7
X173.027Y-103.123
X173.154Y-82.243
X173.258Y-95.982
X173.546Y-106.009
X173.833Y-107.168
X176.124Y-103.034
X176.191Y-88.711
X176.257Y-87.613
X176.831Y-122.537
X176.835Y-116.778
X177.837Y-118.106
X178.067Y-122.519
X180.953Y-115.233
X182.63Y-90.428
X184.039Y-100.956
X185.912Y-108.712
X186.175Y-98.002
X186.909Y-94.786
X188.595Y-80.189
X189.566Y-91.742
T2
X129.286Y-101.346
X129.286Y-108.966
X131.826Y-101.346
X131.826Y-108.966
X134.366Y-101.346
X134.366Y-108.966
X136.906Y-101.346
X136.906Y-108.966
X139.446Y-101.346
X139.446Y-108.966
X141.986Y-101.346
X141.986Y-108.966
X144.526Y-101.346
X144.526Y-108.966
X147.066Y-101.346
X147.066Y-108.966
X149.606Y-101.346
X149.606Y-108.966
X152.146Y-101.346
X152.146Y-108.966
X154.686Y-101.346
X154.686Y-108.966
X157.226Y-101.346
X157.226Y-108.966
X159.766Y-101.346
X159.766Y-108.966
X162.306Y-101.346
X162.306Y-108.966
X164.846Y-101.346
X164.846Y-108.966
X167.386Y-101.346
X167.386Y-108.966
X129.413Y-78.867
X129.413Y-86.487
X131.953Y-78.867
X131.953Y-86.487
X134.493Y-78.867
X134.493Y-86.487
X137.033Y-78.867
X137.033Y-86.487
X139.573Y-78.867
X139.573Y-86.487
X142.113Y-78.867
X142.113Y-86.487
X144.653Y-78.867
X144.653Y-86.487
X147.193Y-78.867
X147.193Y-86.487
X149.733Y-78.867
X149.733Y-86.487
X152.273Y-78.867
X152.273Y-86.487
X154.813Y-78.867
X154.813Y-86.487
X157.353Y-78.867
X157.353Y-86.487
X159.893Y-78.867
X159.893Y-86.487
X162.433Y-78.867
X162.433Y-86.487
X164.973Y-78.867
X164.973Y-86.487
X167.513Y-78.867
X167.513Y-86.487
X134.239Y-97.79
X134.239Y-113.03
X136.779Y-97.79
X136.779Y-113.03
X139.319Y-97.79
X139.319Y-113.03
X141.859Y-97.79
X141.859Y-113.03
X144.399Y-97.79
X144.399Y-113.03
X146.939Y-97.79
X146.939Y-113.03
X149.479Y-97.79
X149.479Y-113.03
X152.019Y-97.79
X152.019Y-113.03
X154.559Y-97.79
X154.559Y-113.03
X157.099Y-97.79
X157.099Y-113.03
X159.639Y-97.79
X159.639Y-113.03
X162.179Y-97.79
X162.179Y-113.03
X134.366Y-75.565
X134.366Y-90.805
X136.906Y-75.565
X136.906Y-90.805
X139.446Y-75.565
X139.446Y-90.805
X141.986Y-75.565
X141.986Y-90.805
X144.526Y-75.565
X144.526Y-90.805
X147.066Y-75.565
X147.066Y-90.805
X149.606Y-75.565
X149.606Y-90.805
X152.146Y-75.565
X152.146Y-90.805
X154.686Y-75.565
X154.686Y-90.805
X157.226Y-75.565
X157.226Y-90.805
X159.766Y-75.565
X159.766Y-90.805
X162.306Y-75.565
X162.306Y-90.805
T3
X151.257Y-119.38
X153.797Y-119.38
X156.337Y-119.38
T0
M30
