G04 #@! TF.GenerationSoftware,KiCad,Pcbnew,(5.1.2-1)-1*
G04 #@! TF.CreationDate,2019-09-02T14:14:07+01:00*
G04 #@! TF.ProjectId,MZ80-ROMPG,4d5a3830-2d52-44f4-9d50-472e6b696361,rev?*
G04 #@! TF.SameCoordinates,Original*
G04 #@! TF.FileFunction,Paste,Top*
G04 #@! TF.FilePolarity,Positive*
%FSLAX46Y46*%
G04 Gerber Fmt 4.6, Leading zero omitted, Abs format (unit mm)*
G04 Created by KiCad (PCBNEW (5.1.2-1)-1) date 2019-09-02 14:14:07*
%MOMM*%
%LPD*%
G04 APERTURE LIST*
%ADD10C,0.100000*%
%ADD11C,0.600000*%
%ADD12C,1.150000*%
G04 APERTURE END LIST*
D10*
G36*
X167169703Y-115803722D02*
G01*
X167184264Y-115805882D01*
X167198543Y-115809459D01*
X167212403Y-115814418D01*
X167225710Y-115820712D01*
X167238336Y-115828280D01*
X167250159Y-115837048D01*
X167261066Y-115846934D01*
X167270952Y-115857841D01*
X167279720Y-115869664D01*
X167287288Y-115882290D01*
X167293582Y-115895597D01*
X167298541Y-115909457D01*
X167302118Y-115923736D01*
X167304278Y-115938297D01*
X167305000Y-115953000D01*
X167305000Y-117603000D01*
X167304278Y-117617703D01*
X167302118Y-117632264D01*
X167298541Y-117646543D01*
X167293582Y-117660403D01*
X167287288Y-117673710D01*
X167279720Y-117686336D01*
X167270952Y-117698159D01*
X167261066Y-117709066D01*
X167250159Y-117718952D01*
X167238336Y-117727720D01*
X167225710Y-117735288D01*
X167212403Y-117741582D01*
X167198543Y-117746541D01*
X167184264Y-117750118D01*
X167169703Y-117752278D01*
X167155000Y-117753000D01*
X166855000Y-117753000D01*
X166840297Y-117752278D01*
X166825736Y-117750118D01*
X166811457Y-117746541D01*
X166797597Y-117741582D01*
X166784290Y-117735288D01*
X166771664Y-117727720D01*
X166759841Y-117718952D01*
X166748934Y-117709066D01*
X166739048Y-117698159D01*
X166730280Y-117686336D01*
X166722712Y-117673710D01*
X166716418Y-117660403D01*
X166711459Y-117646543D01*
X166707882Y-117632264D01*
X166705722Y-117617703D01*
X166705000Y-117603000D01*
X166705000Y-115953000D01*
X166705722Y-115938297D01*
X166707882Y-115923736D01*
X166711459Y-115909457D01*
X166716418Y-115895597D01*
X166722712Y-115882290D01*
X166730280Y-115869664D01*
X166739048Y-115857841D01*
X166748934Y-115846934D01*
X166759841Y-115837048D01*
X166771664Y-115828280D01*
X166784290Y-115820712D01*
X166797597Y-115814418D01*
X166811457Y-115809459D01*
X166825736Y-115805882D01*
X166840297Y-115803722D01*
X166855000Y-115803000D01*
X167155000Y-115803000D01*
X167169703Y-115803722D01*
X167169703Y-115803722D01*
G37*
D11*
X167005000Y-116778000D03*
D10*
G36*
X168439703Y-115803722D02*
G01*
X168454264Y-115805882D01*
X168468543Y-115809459D01*
X168482403Y-115814418D01*
X168495710Y-115820712D01*
X168508336Y-115828280D01*
X168520159Y-115837048D01*
X168531066Y-115846934D01*
X168540952Y-115857841D01*
X168549720Y-115869664D01*
X168557288Y-115882290D01*
X168563582Y-115895597D01*
X168568541Y-115909457D01*
X168572118Y-115923736D01*
X168574278Y-115938297D01*
X168575000Y-115953000D01*
X168575000Y-117603000D01*
X168574278Y-117617703D01*
X168572118Y-117632264D01*
X168568541Y-117646543D01*
X168563582Y-117660403D01*
X168557288Y-117673710D01*
X168549720Y-117686336D01*
X168540952Y-117698159D01*
X168531066Y-117709066D01*
X168520159Y-117718952D01*
X168508336Y-117727720D01*
X168495710Y-117735288D01*
X168482403Y-117741582D01*
X168468543Y-117746541D01*
X168454264Y-117750118D01*
X168439703Y-117752278D01*
X168425000Y-117753000D01*
X168125000Y-117753000D01*
X168110297Y-117752278D01*
X168095736Y-117750118D01*
X168081457Y-117746541D01*
X168067597Y-117741582D01*
X168054290Y-117735288D01*
X168041664Y-117727720D01*
X168029841Y-117718952D01*
X168018934Y-117709066D01*
X168009048Y-117698159D01*
X168000280Y-117686336D01*
X167992712Y-117673710D01*
X167986418Y-117660403D01*
X167981459Y-117646543D01*
X167977882Y-117632264D01*
X167975722Y-117617703D01*
X167975000Y-117603000D01*
X167975000Y-115953000D01*
X167975722Y-115938297D01*
X167977882Y-115923736D01*
X167981459Y-115909457D01*
X167986418Y-115895597D01*
X167992712Y-115882290D01*
X168000280Y-115869664D01*
X168009048Y-115857841D01*
X168018934Y-115846934D01*
X168029841Y-115837048D01*
X168041664Y-115828280D01*
X168054290Y-115820712D01*
X168067597Y-115814418D01*
X168081457Y-115809459D01*
X168095736Y-115805882D01*
X168110297Y-115803722D01*
X168125000Y-115803000D01*
X168425000Y-115803000D01*
X168439703Y-115803722D01*
X168439703Y-115803722D01*
G37*
D11*
X168275000Y-116778000D03*
D10*
G36*
X169709703Y-115803722D02*
G01*
X169724264Y-115805882D01*
X169738543Y-115809459D01*
X169752403Y-115814418D01*
X169765710Y-115820712D01*
X169778336Y-115828280D01*
X169790159Y-115837048D01*
X169801066Y-115846934D01*
X169810952Y-115857841D01*
X169819720Y-115869664D01*
X169827288Y-115882290D01*
X169833582Y-115895597D01*
X169838541Y-115909457D01*
X169842118Y-115923736D01*
X169844278Y-115938297D01*
X169845000Y-115953000D01*
X169845000Y-117603000D01*
X169844278Y-117617703D01*
X169842118Y-117632264D01*
X169838541Y-117646543D01*
X169833582Y-117660403D01*
X169827288Y-117673710D01*
X169819720Y-117686336D01*
X169810952Y-117698159D01*
X169801066Y-117709066D01*
X169790159Y-117718952D01*
X169778336Y-117727720D01*
X169765710Y-117735288D01*
X169752403Y-117741582D01*
X169738543Y-117746541D01*
X169724264Y-117750118D01*
X169709703Y-117752278D01*
X169695000Y-117753000D01*
X169395000Y-117753000D01*
X169380297Y-117752278D01*
X169365736Y-117750118D01*
X169351457Y-117746541D01*
X169337597Y-117741582D01*
X169324290Y-117735288D01*
X169311664Y-117727720D01*
X169299841Y-117718952D01*
X169288934Y-117709066D01*
X169279048Y-117698159D01*
X169270280Y-117686336D01*
X169262712Y-117673710D01*
X169256418Y-117660403D01*
X169251459Y-117646543D01*
X169247882Y-117632264D01*
X169245722Y-117617703D01*
X169245000Y-117603000D01*
X169245000Y-115953000D01*
X169245722Y-115938297D01*
X169247882Y-115923736D01*
X169251459Y-115909457D01*
X169256418Y-115895597D01*
X169262712Y-115882290D01*
X169270280Y-115869664D01*
X169279048Y-115857841D01*
X169288934Y-115846934D01*
X169299841Y-115837048D01*
X169311664Y-115828280D01*
X169324290Y-115820712D01*
X169337597Y-115814418D01*
X169351457Y-115809459D01*
X169365736Y-115805882D01*
X169380297Y-115803722D01*
X169395000Y-115803000D01*
X169695000Y-115803000D01*
X169709703Y-115803722D01*
X169709703Y-115803722D01*
G37*
D11*
X169545000Y-116778000D03*
D10*
G36*
X170979703Y-115803722D02*
G01*
X170994264Y-115805882D01*
X171008543Y-115809459D01*
X171022403Y-115814418D01*
X171035710Y-115820712D01*
X171048336Y-115828280D01*
X171060159Y-115837048D01*
X171071066Y-115846934D01*
X171080952Y-115857841D01*
X171089720Y-115869664D01*
X171097288Y-115882290D01*
X171103582Y-115895597D01*
X171108541Y-115909457D01*
X171112118Y-115923736D01*
X171114278Y-115938297D01*
X171115000Y-115953000D01*
X171115000Y-117603000D01*
X171114278Y-117617703D01*
X171112118Y-117632264D01*
X171108541Y-117646543D01*
X171103582Y-117660403D01*
X171097288Y-117673710D01*
X171089720Y-117686336D01*
X171080952Y-117698159D01*
X171071066Y-117709066D01*
X171060159Y-117718952D01*
X171048336Y-117727720D01*
X171035710Y-117735288D01*
X171022403Y-117741582D01*
X171008543Y-117746541D01*
X170994264Y-117750118D01*
X170979703Y-117752278D01*
X170965000Y-117753000D01*
X170665000Y-117753000D01*
X170650297Y-117752278D01*
X170635736Y-117750118D01*
X170621457Y-117746541D01*
X170607597Y-117741582D01*
X170594290Y-117735288D01*
X170581664Y-117727720D01*
X170569841Y-117718952D01*
X170558934Y-117709066D01*
X170549048Y-117698159D01*
X170540280Y-117686336D01*
X170532712Y-117673710D01*
X170526418Y-117660403D01*
X170521459Y-117646543D01*
X170517882Y-117632264D01*
X170515722Y-117617703D01*
X170515000Y-117603000D01*
X170515000Y-115953000D01*
X170515722Y-115938297D01*
X170517882Y-115923736D01*
X170521459Y-115909457D01*
X170526418Y-115895597D01*
X170532712Y-115882290D01*
X170540280Y-115869664D01*
X170549048Y-115857841D01*
X170558934Y-115846934D01*
X170569841Y-115837048D01*
X170581664Y-115828280D01*
X170594290Y-115820712D01*
X170607597Y-115814418D01*
X170621457Y-115809459D01*
X170635736Y-115805882D01*
X170650297Y-115803722D01*
X170665000Y-115803000D01*
X170965000Y-115803000D01*
X170979703Y-115803722D01*
X170979703Y-115803722D01*
G37*
D11*
X170815000Y-116778000D03*
D10*
G36*
X172249703Y-115803722D02*
G01*
X172264264Y-115805882D01*
X172278543Y-115809459D01*
X172292403Y-115814418D01*
X172305710Y-115820712D01*
X172318336Y-115828280D01*
X172330159Y-115837048D01*
X172341066Y-115846934D01*
X172350952Y-115857841D01*
X172359720Y-115869664D01*
X172367288Y-115882290D01*
X172373582Y-115895597D01*
X172378541Y-115909457D01*
X172382118Y-115923736D01*
X172384278Y-115938297D01*
X172385000Y-115953000D01*
X172385000Y-117603000D01*
X172384278Y-117617703D01*
X172382118Y-117632264D01*
X172378541Y-117646543D01*
X172373582Y-117660403D01*
X172367288Y-117673710D01*
X172359720Y-117686336D01*
X172350952Y-117698159D01*
X172341066Y-117709066D01*
X172330159Y-117718952D01*
X172318336Y-117727720D01*
X172305710Y-117735288D01*
X172292403Y-117741582D01*
X172278543Y-117746541D01*
X172264264Y-117750118D01*
X172249703Y-117752278D01*
X172235000Y-117753000D01*
X171935000Y-117753000D01*
X171920297Y-117752278D01*
X171905736Y-117750118D01*
X171891457Y-117746541D01*
X171877597Y-117741582D01*
X171864290Y-117735288D01*
X171851664Y-117727720D01*
X171839841Y-117718952D01*
X171828934Y-117709066D01*
X171819048Y-117698159D01*
X171810280Y-117686336D01*
X171802712Y-117673710D01*
X171796418Y-117660403D01*
X171791459Y-117646543D01*
X171787882Y-117632264D01*
X171785722Y-117617703D01*
X171785000Y-117603000D01*
X171785000Y-115953000D01*
X171785722Y-115938297D01*
X171787882Y-115923736D01*
X171791459Y-115909457D01*
X171796418Y-115895597D01*
X171802712Y-115882290D01*
X171810280Y-115869664D01*
X171819048Y-115857841D01*
X171828934Y-115846934D01*
X171839841Y-115837048D01*
X171851664Y-115828280D01*
X171864290Y-115820712D01*
X171877597Y-115814418D01*
X171891457Y-115809459D01*
X171905736Y-115805882D01*
X171920297Y-115803722D01*
X171935000Y-115803000D01*
X172235000Y-115803000D01*
X172249703Y-115803722D01*
X172249703Y-115803722D01*
G37*
D11*
X172085000Y-116778000D03*
D10*
G36*
X173519703Y-115803722D02*
G01*
X173534264Y-115805882D01*
X173548543Y-115809459D01*
X173562403Y-115814418D01*
X173575710Y-115820712D01*
X173588336Y-115828280D01*
X173600159Y-115837048D01*
X173611066Y-115846934D01*
X173620952Y-115857841D01*
X173629720Y-115869664D01*
X173637288Y-115882290D01*
X173643582Y-115895597D01*
X173648541Y-115909457D01*
X173652118Y-115923736D01*
X173654278Y-115938297D01*
X173655000Y-115953000D01*
X173655000Y-117603000D01*
X173654278Y-117617703D01*
X173652118Y-117632264D01*
X173648541Y-117646543D01*
X173643582Y-117660403D01*
X173637288Y-117673710D01*
X173629720Y-117686336D01*
X173620952Y-117698159D01*
X173611066Y-117709066D01*
X173600159Y-117718952D01*
X173588336Y-117727720D01*
X173575710Y-117735288D01*
X173562403Y-117741582D01*
X173548543Y-117746541D01*
X173534264Y-117750118D01*
X173519703Y-117752278D01*
X173505000Y-117753000D01*
X173205000Y-117753000D01*
X173190297Y-117752278D01*
X173175736Y-117750118D01*
X173161457Y-117746541D01*
X173147597Y-117741582D01*
X173134290Y-117735288D01*
X173121664Y-117727720D01*
X173109841Y-117718952D01*
X173098934Y-117709066D01*
X173089048Y-117698159D01*
X173080280Y-117686336D01*
X173072712Y-117673710D01*
X173066418Y-117660403D01*
X173061459Y-117646543D01*
X173057882Y-117632264D01*
X173055722Y-117617703D01*
X173055000Y-117603000D01*
X173055000Y-115953000D01*
X173055722Y-115938297D01*
X173057882Y-115923736D01*
X173061459Y-115909457D01*
X173066418Y-115895597D01*
X173072712Y-115882290D01*
X173080280Y-115869664D01*
X173089048Y-115857841D01*
X173098934Y-115846934D01*
X173109841Y-115837048D01*
X173121664Y-115828280D01*
X173134290Y-115820712D01*
X173147597Y-115814418D01*
X173161457Y-115809459D01*
X173175736Y-115805882D01*
X173190297Y-115803722D01*
X173205000Y-115803000D01*
X173505000Y-115803000D01*
X173519703Y-115803722D01*
X173519703Y-115803722D01*
G37*
D11*
X173355000Y-116778000D03*
D10*
G36*
X174789703Y-115803722D02*
G01*
X174804264Y-115805882D01*
X174818543Y-115809459D01*
X174832403Y-115814418D01*
X174845710Y-115820712D01*
X174858336Y-115828280D01*
X174870159Y-115837048D01*
X174881066Y-115846934D01*
X174890952Y-115857841D01*
X174899720Y-115869664D01*
X174907288Y-115882290D01*
X174913582Y-115895597D01*
X174918541Y-115909457D01*
X174922118Y-115923736D01*
X174924278Y-115938297D01*
X174925000Y-115953000D01*
X174925000Y-117603000D01*
X174924278Y-117617703D01*
X174922118Y-117632264D01*
X174918541Y-117646543D01*
X174913582Y-117660403D01*
X174907288Y-117673710D01*
X174899720Y-117686336D01*
X174890952Y-117698159D01*
X174881066Y-117709066D01*
X174870159Y-117718952D01*
X174858336Y-117727720D01*
X174845710Y-117735288D01*
X174832403Y-117741582D01*
X174818543Y-117746541D01*
X174804264Y-117750118D01*
X174789703Y-117752278D01*
X174775000Y-117753000D01*
X174475000Y-117753000D01*
X174460297Y-117752278D01*
X174445736Y-117750118D01*
X174431457Y-117746541D01*
X174417597Y-117741582D01*
X174404290Y-117735288D01*
X174391664Y-117727720D01*
X174379841Y-117718952D01*
X174368934Y-117709066D01*
X174359048Y-117698159D01*
X174350280Y-117686336D01*
X174342712Y-117673710D01*
X174336418Y-117660403D01*
X174331459Y-117646543D01*
X174327882Y-117632264D01*
X174325722Y-117617703D01*
X174325000Y-117603000D01*
X174325000Y-115953000D01*
X174325722Y-115938297D01*
X174327882Y-115923736D01*
X174331459Y-115909457D01*
X174336418Y-115895597D01*
X174342712Y-115882290D01*
X174350280Y-115869664D01*
X174359048Y-115857841D01*
X174368934Y-115846934D01*
X174379841Y-115837048D01*
X174391664Y-115828280D01*
X174404290Y-115820712D01*
X174417597Y-115814418D01*
X174431457Y-115809459D01*
X174445736Y-115805882D01*
X174460297Y-115803722D01*
X174475000Y-115803000D01*
X174775000Y-115803000D01*
X174789703Y-115803722D01*
X174789703Y-115803722D01*
G37*
D11*
X174625000Y-116778000D03*
D10*
G36*
X176059703Y-115803722D02*
G01*
X176074264Y-115805882D01*
X176088543Y-115809459D01*
X176102403Y-115814418D01*
X176115710Y-115820712D01*
X176128336Y-115828280D01*
X176140159Y-115837048D01*
X176151066Y-115846934D01*
X176160952Y-115857841D01*
X176169720Y-115869664D01*
X176177288Y-115882290D01*
X176183582Y-115895597D01*
X176188541Y-115909457D01*
X176192118Y-115923736D01*
X176194278Y-115938297D01*
X176195000Y-115953000D01*
X176195000Y-117603000D01*
X176194278Y-117617703D01*
X176192118Y-117632264D01*
X176188541Y-117646543D01*
X176183582Y-117660403D01*
X176177288Y-117673710D01*
X176169720Y-117686336D01*
X176160952Y-117698159D01*
X176151066Y-117709066D01*
X176140159Y-117718952D01*
X176128336Y-117727720D01*
X176115710Y-117735288D01*
X176102403Y-117741582D01*
X176088543Y-117746541D01*
X176074264Y-117750118D01*
X176059703Y-117752278D01*
X176045000Y-117753000D01*
X175745000Y-117753000D01*
X175730297Y-117752278D01*
X175715736Y-117750118D01*
X175701457Y-117746541D01*
X175687597Y-117741582D01*
X175674290Y-117735288D01*
X175661664Y-117727720D01*
X175649841Y-117718952D01*
X175638934Y-117709066D01*
X175629048Y-117698159D01*
X175620280Y-117686336D01*
X175612712Y-117673710D01*
X175606418Y-117660403D01*
X175601459Y-117646543D01*
X175597882Y-117632264D01*
X175595722Y-117617703D01*
X175595000Y-117603000D01*
X175595000Y-115953000D01*
X175595722Y-115938297D01*
X175597882Y-115923736D01*
X175601459Y-115909457D01*
X175606418Y-115895597D01*
X175612712Y-115882290D01*
X175620280Y-115869664D01*
X175629048Y-115857841D01*
X175638934Y-115846934D01*
X175649841Y-115837048D01*
X175661664Y-115828280D01*
X175674290Y-115820712D01*
X175687597Y-115814418D01*
X175701457Y-115809459D01*
X175715736Y-115805882D01*
X175730297Y-115803722D01*
X175745000Y-115803000D01*
X176045000Y-115803000D01*
X176059703Y-115803722D01*
X176059703Y-115803722D01*
G37*
D11*
X175895000Y-116778000D03*
D10*
G36*
X176059703Y-120753722D02*
G01*
X176074264Y-120755882D01*
X176088543Y-120759459D01*
X176102403Y-120764418D01*
X176115710Y-120770712D01*
X176128336Y-120778280D01*
X176140159Y-120787048D01*
X176151066Y-120796934D01*
X176160952Y-120807841D01*
X176169720Y-120819664D01*
X176177288Y-120832290D01*
X176183582Y-120845597D01*
X176188541Y-120859457D01*
X176192118Y-120873736D01*
X176194278Y-120888297D01*
X176195000Y-120903000D01*
X176195000Y-122553000D01*
X176194278Y-122567703D01*
X176192118Y-122582264D01*
X176188541Y-122596543D01*
X176183582Y-122610403D01*
X176177288Y-122623710D01*
X176169720Y-122636336D01*
X176160952Y-122648159D01*
X176151066Y-122659066D01*
X176140159Y-122668952D01*
X176128336Y-122677720D01*
X176115710Y-122685288D01*
X176102403Y-122691582D01*
X176088543Y-122696541D01*
X176074264Y-122700118D01*
X176059703Y-122702278D01*
X176045000Y-122703000D01*
X175745000Y-122703000D01*
X175730297Y-122702278D01*
X175715736Y-122700118D01*
X175701457Y-122696541D01*
X175687597Y-122691582D01*
X175674290Y-122685288D01*
X175661664Y-122677720D01*
X175649841Y-122668952D01*
X175638934Y-122659066D01*
X175629048Y-122648159D01*
X175620280Y-122636336D01*
X175612712Y-122623710D01*
X175606418Y-122610403D01*
X175601459Y-122596543D01*
X175597882Y-122582264D01*
X175595722Y-122567703D01*
X175595000Y-122553000D01*
X175595000Y-120903000D01*
X175595722Y-120888297D01*
X175597882Y-120873736D01*
X175601459Y-120859457D01*
X175606418Y-120845597D01*
X175612712Y-120832290D01*
X175620280Y-120819664D01*
X175629048Y-120807841D01*
X175638934Y-120796934D01*
X175649841Y-120787048D01*
X175661664Y-120778280D01*
X175674290Y-120770712D01*
X175687597Y-120764418D01*
X175701457Y-120759459D01*
X175715736Y-120755882D01*
X175730297Y-120753722D01*
X175745000Y-120753000D01*
X176045000Y-120753000D01*
X176059703Y-120753722D01*
X176059703Y-120753722D01*
G37*
D11*
X175895000Y-121728000D03*
D10*
G36*
X174789703Y-120753722D02*
G01*
X174804264Y-120755882D01*
X174818543Y-120759459D01*
X174832403Y-120764418D01*
X174845710Y-120770712D01*
X174858336Y-120778280D01*
X174870159Y-120787048D01*
X174881066Y-120796934D01*
X174890952Y-120807841D01*
X174899720Y-120819664D01*
X174907288Y-120832290D01*
X174913582Y-120845597D01*
X174918541Y-120859457D01*
X174922118Y-120873736D01*
X174924278Y-120888297D01*
X174925000Y-120903000D01*
X174925000Y-122553000D01*
X174924278Y-122567703D01*
X174922118Y-122582264D01*
X174918541Y-122596543D01*
X174913582Y-122610403D01*
X174907288Y-122623710D01*
X174899720Y-122636336D01*
X174890952Y-122648159D01*
X174881066Y-122659066D01*
X174870159Y-122668952D01*
X174858336Y-122677720D01*
X174845710Y-122685288D01*
X174832403Y-122691582D01*
X174818543Y-122696541D01*
X174804264Y-122700118D01*
X174789703Y-122702278D01*
X174775000Y-122703000D01*
X174475000Y-122703000D01*
X174460297Y-122702278D01*
X174445736Y-122700118D01*
X174431457Y-122696541D01*
X174417597Y-122691582D01*
X174404290Y-122685288D01*
X174391664Y-122677720D01*
X174379841Y-122668952D01*
X174368934Y-122659066D01*
X174359048Y-122648159D01*
X174350280Y-122636336D01*
X174342712Y-122623710D01*
X174336418Y-122610403D01*
X174331459Y-122596543D01*
X174327882Y-122582264D01*
X174325722Y-122567703D01*
X174325000Y-122553000D01*
X174325000Y-120903000D01*
X174325722Y-120888297D01*
X174327882Y-120873736D01*
X174331459Y-120859457D01*
X174336418Y-120845597D01*
X174342712Y-120832290D01*
X174350280Y-120819664D01*
X174359048Y-120807841D01*
X174368934Y-120796934D01*
X174379841Y-120787048D01*
X174391664Y-120778280D01*
X174404290Y-120770712D01*
X174417597Y-120764418D01*
X174431457Y-120759459D01*
X174445736Y-120755882D01*
X174460297Y-120753722D01*
X174475000Y-120753000D01*
X174775000Y-120753000D01*
X174789703Y-120753722D01*
X174789703Y-120753722D01*
G37*
D11*
X174625000Y-121728000D03*
D10*
G36*
X173519703Y-120753722D02*
G01*
X173534264Y-120755882D01*
X173548543Y-120759459D01*
X173562403Y-120764418D01*
X173575710Y-120770712D01*
X173588336Y-120778280D01*
X173600159Y-120787048D01*
X173611066Y-120796934D01*
X173620952Y-120807841D01*
X173629720Y-120819664D01*
X173637288Y-120832290D01*
X173643582Y-120845597D01*
X173648541Y-120859457D01*
X173652118Y-120873736D01*
X173654278Y-120888297D01*
X173655000Y-120903000D01*
X173655000Y-122553000D01*
X173654278Y-122567703D01*
X173652118Y-122582264D01*
X173648541Y-122596543D01*
X173643582Y-122610403D01*
X173637288Y-122623710D01*
X173629720Y-122636336D01*
X173620952Y-122648159D01*
X173611066Y-122659066D01*
X173600159Y-122668952D01*
X173588336Y-122677720D01*
X173575710Y-122685288D01*
X173562403Y-122691582D01*
X173548543Y-122696541D01*
X173534264Y-122700118D01*
X173519703Y-122702278D01*
X173505000Y-122703000D01*
X173205000Y-122703000D01*
X173190297Y-122702278D01*
X173175736Y-122700118D01*
X173161457Y-122696541D01*
X173147597Y-122691582D01*
X173134290Y-122685288D01*
X173121664Y-122677720D01*
X173109841Y-122668952D01*
X173098934Y-122659066D01*
X173089048Y-122648159D01*
X173080280Y-122636336D01*
X173072712Y-122623710D01*
X173066418Y-122610403D01*
X173061459Y-122596543D01*
X173057882Y-122582264D01*
X173055722Y-122567703D01*
X173055000Y-122553000D01*
X173055000Y-120903000D01*
X173055722Y-120888297D01*
X173057882Y-120873736D01*
X173061459Y-120859457D01*
X173066418Y-120845597D01*
X173072712Y-120832290D01*
X173080280Y-120819664D01*
X173089048Y-120807841D01*
X173098934Y-120796934D01*
X173109841Y-120787048D01*
X173121664Y-120778280D01*
X173134290Y-120770712D01*
X173147597Y-120764418D01*
X173161457Y-120759459D01*
X173175736Y-120755882D01*
X173190297Y-120753722D01*
X173205000Y-120753000D01*
X173505000Y-120753000D01*
X173519703Y-120753722D01*
X173519703Y-120753722D01*
G37*
D11*
X173355000Y-121728000D03*
D10*
G36*
X172249703Y-120753722D02*
G01*
X172264264Y-120755882D01*
X172278543Y-120759459D01*
X172292403Y-120764418D01*
X172305710Y-120770712D01*
X172318336Y-120778280D01*
X172330159Y-120787048D01*
X172341066Y-120796934D01*
X172350952Y-120807841D01*
X172359720Y-120819664D01*
X172367288Y-120832290D01*
X172373582Y-120845597D01*
X172378541Y-120859457D01*
X172382118Y-120873736D01*
X172384278Y-120888297D01*
X172385000Y-120903000D01*
X172385000Y-122553000D01*
X172384278Y-122567703D01*
X172382118Y-122582264D01*
X172378541Y-122596543D01*
X172373582Y-122610403D01*
X172367288Y-122623710D01*
X172359720Y-122636336D01*
X172350952Y-122648159D01*
X172341066Y-122659066D01*
X172330159Y-122668952D01*
X172318336Y-122677720D01*
X172305710Y-122685288D01*
X172292403Y-122691582D01*
X172278543Y-122696541D01*
X172264264Y-122700118D01*
X172249703Y-122702278D01*
X172235000Y-122703000D01*
X171935000Y-122703000D01*
X171920297Y-122702278D01*
X171905736Y-122700118D01*
X171891457Y-122696541D01*
X171877597Y-122691582D01*
X171864290Y-122685288D01*
X171851664Y-122677720D01*
X171839841Y-122668952D01*
X171828934Y-122659066D01*
X171819048Y-122648159D01*
X171810280Y-122636336D01*
X171802712Y-122623710D01*
X171796418Y-122610403D01*
X171791459Y-122596543D01*
X171787882Y-122582264D01*
X171785722Y-122567703D01*
X171785000Y-122553000D01*
X171785000Y-120903000D01*
X171785722Y-120888297D01*
X171787882Y-120873736D01*
X171791459Y-120859457D01*
X171796418Y-120845597D01*
X171802712Y-120832290D01*
X171810280Y-120819664D01*
X171819048Y-120807841D01*
X171828934Y-120796934D01*
X171839841Y-120787048D01*
X171851664Y-120778280D01*
X171864290Y-120770712D01*
X171877597Y-120764418D01*
X171891457Y-120759459D01*
X171905736Y-120755882D01*
X171920297Y-120753722D01*
X171935000Y-120753000D01*
X172235000Y-120753000D01*
X172249703Y-120753722D01*
X172249703Y-120753722D01*
G37*
D11*
X172085000Y-121728000D03*
D10*
G36*
X170979703Y-120753722D02*
G01*
X170994264Y-120755882D01*
X171008543Y-120759459D01*
X171022403Y-120764418D01*
X171035710Y-120770712D01*
X171048336Y-120778280D01*
X171060159Y-120787048D01*
X171071066Y-120796934D01*
X171080952Y-120807841D01*
X171089720Y-120819664D01*
X171097288Y-120832290D01*
X171103582Y-120845597D01*
X171108541Y-120859457D01*
X171112118Y-120873736D01*
X171114278Y-120888297D01*
X171115000Y-120903000D01*
X171115000Y-122553000D01*
X171114278Y-122567703D01*
X171112118Y-122582264D01*
X171108541Y-122596543D01*
X171103582Y-122610403D01*
X171097288Y-122623710D01*
X171089720Y-122636336D01*
X171080952Y-122648159D01*
X171071066Y-122659066D01*
X171060159Y-122668952D01*
X171048336Y-122677720D01*
X171035710Y-122685288D01*
X171022403Y-122691582D01*
X171008543Y-122696541D01*
X170994264Y-122700118D01*
X170979703Y-122702278D01*
X170965000Y-122703000D01*
X170665000Y-122703000D01*
X170650297Y-122702278D01*
X170635736Y-122700118D01*
X170621457Y-122696541D01*
X170607597Y-122691582D01*
X170594290Y-122685288D01*
X170581664Y-122677720D01*
X170569841Y-122668952D01*
X170558934Y-122659066D01*
X170549048Y-122648159D01*
X170540280Y-122636336D01*
X170532712Y-122623710D01*
X170526418Y-122610403D01*
X170521459Y-122596543D01*
X170517882Y-122582264D01*
X170515722Y-122567703D01*
X170515000Y-122553000D01*
X170515000Y-120903000D01*
X170515722Y-120888297D01*
X170517882Y-120873736D01*
X170521459Y-120859457D01*
X170526418Y-120845597D01*
X170532712Y-120832290D01*
X170540280Y-120819664D01*
X170549048Y-120807841D01*
X170558934Y-120796934D01*
X170569841Y-120787048D01*
X170581664Y-120778280D01*
X170594290Y-120770712D01*
X170607597Y-120764418D01*
X170621457Y-120759459D01*
X170635736Y-120755882D01*
X170650297Y-120753722D01*
X170665000Y-120753000D01*
X170965000Y-120753000D01*
X170979703Y-120753722D01*
X170979703Y-120753722D01*
G37*
D11*
X170815000Y-121728000D03*
D10*
G36*
X169709703Y-120753722D02*
G01*
X169724264Y-120755882D01*
X169738543Y-120759459D01*
X169752403Y-120764418D01*
X169765710Y-120770712D01*
X169778336Y-120778280D01*
X169790159Y-120787048D01*
X169801066Y-120796934D01*
X169810952Y-120807841D01*
X169819720Y-120819664D01*
X169827288Y-120832290D01*
X169833582Y-120845597D01*
X169838541Y-120859457D01*
X169842118Y-120873736D01*
X169844278Y-120888297D01*
X169845000Y-120903000D01*
X169845000Y-122553000D01*
X169844278Y-122567703D01*
X169842118Y-122582264D01*
X169838541Y-122596543D01*
X169833582Y-122610403D01*
X169827288Y-122623710D01*
X169819720Y-122636336D01*
X169810952Y-122648159D01*
X169801066Y-122659066D01*
X169790159Y-122668952D01*
X169778336Y-122677720D01*
X169765710Y-122685288D01*
X169752403Y-122691582D01*
X169738543Y-122696541D01*
X169724264Y-122700118D01*
X169709703Y-122702278D01*
X169695000Y-122703000D01*
X169395000Y-122703000D01*
X169380297Y-122702278D01*
X169365736Y-122700118D01*
X169351457Y-122696541D01*
X169337597Y-122691582D01*
X169324290Y-122685288D01*
X169311664Y-122677720D01*
X169299841Y-122668952D01*
X169288934Y-122659066D01*
X169279048Y-122648159D01*
X169270280Y-122636336D01*
X169262712Y-122623710D01*
X169256418Y-122610403D01*
X169251459Y-122596543D01*
X169247882Y-122582264D01*
X169245722Y-122567703D01*
X169245000Y-122553000D01*
X169245000Y-120903000D01*
X169245722Y-120888297D01*
X169247882Y-120873736D01*
X169251459Y-120859457D01*
X169256418Y-120845597D01*
X169262712Y-120832290D01*
X169270280Y-120819664D01*
X169279048Y-120807841D01*
X169288934Y-120796934D01*
X169299841Y-120787048D01*
X169311664Y-120778280D01*
X169324290Y-120770712D01*
X169337597Y-120764418D01*
X169351457Y-120759459D01*
X169365736Y-120755882D01*
X169380297Y-120753722D01*
X169395000Y-120753000D01*
X169695000Y-120753000D01*
X169709703Y-120753722D01*
X169709703Y-120753722D01*
G37*
D11*
X169545000Y-121728000D03*
D10*
G36*
X168439703Y-120753722D02*
G01*
X168454264Y-120755882D01*
X168468543Y-120759459D01*
X168482403Y-120764418D01*
X168495710Y-120770712D01*
X168508336Y-120778280D01*
X168520159Y-120787048D01*
X168531066Y-120796934D01*
X168540952Y-120807841D01*
X168549720Y-120819664D01*
X168557288Y-120832290D01*
X168563582Y-120845597D01*
X168568541Y-120859457D01*
X168572118Y-120873736D01*
X168574278Y-120888297D01*
X168575000Y-120903000D01*
X168575000Y-122553000D01*
X168574278Y-122567703D01*
X168572118Y-122582264D01*
X168568541Y-122596543D01*
X168563582Y-122610403D01*
X168557288Y-122623710D01*
X168549720Y-122636336D01*
X168540952Y-122648159D01*
X168531066Y-122659066D01*
X168520159Y-122668952D01*
X168508336Y-122677720D01*
X168495710Y-122685288D01*
X168482403Y-122691582D01*
X168468543Y-122696541D01*
X168454264Y-122700118D01*
X168439703Y-122702278D01*
X168425000Y-122703000D01*
X168125000Y-122703000D01*
X168110297Y-122702278D01*
X168095736Y-122700118D01*
X168081457Y-122696541D01*
X168067597Y-122691582D01*
X168054290Y-122685288D01*
X168041664Y-122677720D01*
X168029841Y-122668952D01*
X168018934Y-122659066D01*
X168009048Y-122648159D01*
X168000280Y-122636336D01*
X167992712Y-122623710D01*
X167986418Y-122610403D01*
X167981459Y-122596543D01*
X167977882Y-122582264D01*
X167975722Y-122567703D01*
X167975000Y-122553000D01*
X167975000Y-120903000D01*
X167975722Y-120888297D01*
X167977882Y-120873736D01*
X167981459Y-120859457D01*
X167986418Y-120845597D01*
X167992712Y-120832290D01*
X168000280Y-120819664D01*
X168009048Y-120807841D01*
X168018934Y-120796934D01*
X168029841Y-120787048D01*
X168041664Y-120778280D01*
X168054290Y-120770712D01*
X168067597Y-120764418D01*
X168081457Y-120759459D01*
X168095736Y-120755882D01*
X168110297Y-120753722D01*
X168125000Y-120753000D01*
X168425000Y-120753000D01*
X168439703Y-120753722D01*
X168439703Y-120753722D01*
G37*
D11*
X168275000Y-121728000D03*
D10*
G36*
X167169703Y-120753722D02*
G01*
X167184264Y-120755882D01*
X167198543Y-120759459D01*
X167212403Y-120764418D01*
X167225710Y-120770712D01*
X167238336Y-120778280D01*
X167250159Y-120787048D01*
X167261066Y-120796934D01*
X167270952Y-120807841D01*
X167279720Y-120819664D01*
X167287288Y-120832290D01*
X167293582Y-120845597D01*
X167298541Y-120859457D01*
X167302118Y-120873736D01*
X167304278Y-120888297D01*
X167305000Y-120903000D01*
X167305000Y-122553000D01*
X167304278Y-122567703D01*
X167302118Y-122582264D01*
X167298541Y-122596543D01*
X167293582Y-122610403D01*
X167287288Y-122623710D01*
X167279720Y-122636336D01*
X167270952Y-122648159D01*
X167261066Y-122659066D01*
X167250159Y-122668952D01*
X167238336Y-122677720D01*
X167225710Y-122685288D01*
X167212403Y-122691582D01*
X167198543Y-122696541D01*
X167184264Y-122700118D01*
X167169703Y-122702278D01*
X167155000Y-122703000D01*
X166855000Y-122703000D01*
X166840297Y-122702278D01*
X166825736Y-122700118D01*
X166811457Y-122696541D01*
X166797597Y-122691582D01*
X166784290Y-122685288D01*
X166771664Y-122677720D01*
X166759841Y-122668952D01*
X166748934Y-122659066D01*
X166739048Y-122648159D01*
X166730280Y-122636336D01*
X166722712Y-122623710D01*
X166716418Y-122610403D01*
X166711459Y-122596543D01*
X166707882Y-122582264D01*
X166705722Y-122567703D01*
X166705000Y-122553000D01*
X166705000Y-120903000D01*
X166705722Y-120888297D01*
X166707882Y-120873736D01*
X166711459Y-120859457D01*
X166716418Y-120845597D01*
X166722712Y-120832290D01*
X166730280Y-120819664D01*
X166739048Y-120807841D01*
X166748934Y-120796934D01*
X166759841Y-120787048D01*
X166771664Y-120778280D01*
X166784290Y-120770712D01*
X166797597Y-120764418D01*
X166811457Y-120759459D01*
X166825736Y-120755882D01*
X166840297Y-120753722D01*
X166855000Y-120753000D01*
X167155000Y-120753000D01*
X167169703Y-120753722D01*
X167169703Y-120753722D01*
G37*
D11*
X167005000Y-121728000D03*
D10*
G36*
X177329703Y-77510722D02*
G01*
X177344264Y-77512882D01*
X177358543Y-77516459D01*
X177372403Y-77521418D01*
X177385710Y-77527712D01*
X177398336Y-77535280D01*
X177410159Y-77544048D01*
X177421066Y-77553934D01*
X177430952Y-77564841D01*
X177439720Y-77576664D01*
X177447288Y-77589290D01*
X177453582Y-77602597D01*
X177458541Y-77616457D01*
X177462118Y-77630736D01*
X177464278Y-77645297D01*
X177465000Y-77660000D01*
X177465000Y-79410000D01*
X177464278Y-79424703D01*
X177462118Y-79439264D01*
X177458541Y-79453543D01*
X177453582Y-79467403D01*
X177447288Y-79480710D01*
X177439720Y-79493336D01*
X177430952Y-79505159D01*
X177421066Y-79516066D01*
X177410159Y-79525952D01*
X177398336Y-79534720D01*
X177385710Y-79542288D01*
X177372403Y-79548582D01*
X177358543Y-79553541D01*
X177344264Y-79557118D01*
X177329703Y-79559278D01*
X177315000Y-79560000D01*
X177015000Y-79560000D01*
X177000297Y-79559278D01*
X176985736Y-79557118D01*
X176971457Y-79553541D01*
X176957597Y-79548582D01*
X176944290Y-79542288D01*
X176931664Y-79534720D01*
X176919841Y-79525952D01*
X176908934Y-79516066D01*
X176899048Y-79505159D01*
X176890280Y-79493336D01*
X176882712Y-79480710D01*
X176876418Y-79467403D01*
X176871459Y-79453543D01*
X176867882Y-79439264D01*
X176865722Y-79424703D01*
X176865000Y-79410000D01*
X176865000Y-77660000D01*
X176865722Y-77645297D01*
X176867882Y-77630736D01*
X176871459Y-77616457D01*
X176876418Y-77602597D01*
X176882712Y-77589290D01*
X176890280Y-77576664D01*
X176899048Y-77564841D01*
X176908934Y-77553934D01*
X176919841Y-77544048D01*
X176931664Y-77535280D01*
X176944290Y-77527712D01*
X176957597Y-77521418D01*
X176971457Y-77516459D01*
X176985736Y-77512882D01*
X177000297Y-77510722D01*
X177015000Y-77510000D01*
X177315000Y-77510000D01*
X177329703Y-77510722D01*
X177329703Y-77510722D01*
G37*
D11*
X177165000Y-78535000D03*
D10*
G36*
X178599703Y-77510722D02*
G01*
X178614264Y-77512882D01*
X178628543Y-77516459D01*
X178642403Y-77521418D01*
X178655710Y-77527712D01*
X178668336Y-77535280D01*
X178680159Y-77544048D01*
X178691066Y-77553934D01*
X178700952Y-77564841D01*
X178709720Y-77576664D01*
X178717288Y-77589290D01*
X178723582Y-77602597D01*
X178728541Y-77616457D01*
X178732118Y-77630736D01*
X178734278Y-77645297D01*
X178735000Y-77660000D01*
X178735000Y-79410000D01*
X178734278Y-79424703D01*
X178732118Y-79439264D01*
X178728541Y-79453543D01*
X178723582Y-79467403D01*
X178717288Y-79480710D01*
X178709720Y-79493336D01*
X178700952Y-79505159D01*
X178691066Y-79516066D01*
X178680159Y-79525952D01*
X178668336Y-79534720D01*
X178655710Y-79542288D01*
X178642403Y-79548582D01*
X178628543Y-79553541D01*
X178614264Y-79557118D01*
X178599703Y-79559278D01*
X178585000Y-79560000D01*
X178285000Y-79560000D01*
X178270297Y-79559278D01*
X178255736Y-79557118D01*
X178241457Y-79553541D01*
X178227597Y-79548582D01*
X178214290Y-79542288D01*
X178201664Y-79534720D01*
X178189841Y-79525952D01*
X178178934Y-79516066D01*
X178169048Y-79505159D01*
X178160280Y-79493336D01*
X178152712Y-79480710D01*
X178146418Y-79467403D01*
X178141459Y-79453543D01*
X178137882Y-79439264D01*
X178135722Y-79424703D01*
X178135000Y-79410000D01*
X178135000Y-77660000D01*
X178135722Y-77645297D01*
X178137882Y-77630736D01*
X178141459Y-77616457D01*
X178146418Y-77602597D01*
X178152712Y-77589290D01*
X178160280Y-77576664D01*
X178169048Y-77564841D01*
X178178934Y-77553934D01*
X178189841Y-77544048D01*
X178201664Y-77535280D01*
X178214290Y-77527712D01*
X178227597Y-77521418D01*
X178241457Y-77516459D01*
X178255736Y-77512882D01*
X178270297Y-77510722D01*
X178285000Y-77510000D01*
X178585000Y-77510000D01*
X178599703Y-77510722D01*
X178599703Y-77510722D01*
G37*
D11*
X178435000Y-78535000D03*
D10*
G36*
X179869703Y-77510722D02*
G01*
X179884264Y-77512882D01*
X179898543Y-77516459D01*
X179912403Y-77521418D01*
X179925710Y-77527712D01*
X179938336Y-77535280D01*
X179950159Y-77544048D01*
X179961066Y-77553934D01*
X179970952Y-77564841D01*
X179979720Y-77576664D01*
X179987288Y-77589290D01*
X179993582Y-77602597D01*
X179998541Y-77616457D01*
X180002118Y-77630736D01*
X180004278Y-77645297D01*
X180005000Y-77660000D01*
X180005000Y-79410000D01*
X180004278Y-79424703D01*
X180002118Y-79439264D01*
X179998541Y-79453543D01*
X179993582Y-79467403D01*
X179987288Y-79480710D01*
X179979720Y-79493336D01*
X179970952Y-79505159D01*
X179961066Y-79516066D01*
X179950159Y-79525952D01*
X179938336Y-79534720D01*
X179925710Y-79542288D01*
X179912403Y-79548582D01*
X179898543Y-79553541D01*
X179884264Y-79557118D01*
X179869703Y-79559278D01*
X179855000Y-79560000D01*
X179555000Y-79560000D01*
X179540297Y-79559278D01*
X179525736Y-79557118D01*
X179511457Y-79553541D01*
X179497597Y-79548582D01*
X179484290Y-79542288D01*
X179471664Y-79534720D01*
X179459841Y-79525952D01*
X179448934Y-79516066D01*
X179439048Y-79505159D01*
X179430280Y-79493336D01*
X179422712Y-79480710D01*
X179416418Y-79467403D01*
X179411459Y-79453543D01*
X179407882Y-79439264D01*
X179405722Y-79424703D01*
X179405000Y-79410000D01*
X179405000Y-77660000D01*
X179405722Y-77645297D01*
X179407882Y-77630736D01*
X179411459Y-77616457D01*
X179416418Y-77602597D01*
X179422712Y-77589290D01*
X179430280Y-77576664D01*
X179439048Y-77564841D01*
X179448934Y-77553934D01*
X179459841Y-77544048D01*
X179471664Y-77535280D01*
X179484290Y-77527712D01*
X179497597Y-77521418D01*
X179511457Y-77516459D01*
X179525736Y-77512882D01*
X179540297Y-77510722D01*
X179555000Y-77510000D01*
X179855000Y-77510000D01*
X179869703Y-77510722D01*
X179869703Y-77510722D01*
G37*
D11*
X179705000Y-78535000D03*
D10*
G36*
X181139703Y-77510722D02*
G01*
X181154264Y-77512882D01*
X181168543Y-77516459D01*
X181182403Y-77521418D01*
X181195710Y-77527712D01*
X181208336Y-77535280D01*
X181220159Y-77544048D01*
X181231066Y-77553934D01*
X181240952Y-77564841D01*
X181249720Y-77576664D01*
X181257288Y-77589290D01*
X181263582Y-77602597D01*
X181268541Y-77616457D01*
X181272118Y-77630736D01*
X181274278Y-77645297D01*
X181275000Y-77660000D01*
X181275000Y-79410000D01*
X181274278Y-79424703D01*
X181272118Y-79439264D01*
X181268541Y-79453543D01*
X181263582Y-79467403D01*
X181257288Y-79480710D01*
X181249720Y-79493336D01*
X181240952Y-79505159D01*
X181231066Y-79516066D01*
X181220159Y-79525952D01*
X181208336Y-79534720D01*
X181195710Y-79542288D01*
X181182403Y-79548582D01*
X181168543Y-79553541D01*
X181154264Y-79557118D01*
X181139703Y-79559278D01*
X181125000Y-79560000D01*
X180825000Y-79560000D01*
X180810297Y-79559278D01*
X180795736Y-79557118D01*
X180781457Y-79553541D01*
X180767597Y-79548582D01*
X180754290Y-79542288D01*
X180741664Y-79534720D01*
X180729841Y-79525952D01*
X180718934Y-79516066D01*
X180709048Y-79505159D01*
X180700280Y-79493336D01*
X180692712Y-79480710D01*
X180686418Y-79467403D01*
X180681459Y-79453543D01*
X180677882Y-79439264D01*
X180675722Y-79424703D01*
X180675000Y-79410000D01*
X180675000Y-77660000D01*
X180675722Y-77645297D01*
X180677882Y-77630736D01*
X180681459Y-77616457D01*
X180686418Y-77602597D01*
X180692712Y-77589290D01*
X180700280Y-77576664D01*
X180709048Y-77564841D01*
X180718934Y-77553934D01*
X180729841Y-77544048D01*
X180741664Y-77535280D01*
X180754290Y-77527712D01*
X180767597Y-77521418D01*
X180781457Y-77516459D01*
X180795736Y-77512882D01*
X180810297Y-77510722D01*
X180825000Y-77510000D01*
X181125000Y-77510000D01*
X181139703Y-77510722D01*
X181139703Y-77510722D01*
G37*
D11*
X180975000Y-78535000D03*
D10*
G36*
X182409703Y-77510722D02*
G01*
X182424264Y-77512882D01*
X182438543Y-77516459D01*
X182452403Y-77521418D01*
X182465710Y-77527712D01*
X182478336Y-77535280D01*
X182490159Y-77544048D01*
X182501066Y-77553934D01*
X182510952Y-77564841D01*
X182519720Y-77576664D01*
X182527288Y-77589290D01*
X182533582Y-77602597D01*
X182538541Y-77616457D01*
X182542118Y-77630736D01*
X182544278Y-77645297D01*
X182545000Y-77660000D01*
X182545000Y-79410000D01*
X182544278Y-79424703D01*
X182542118Y-79439264D01*
X182538541Y-79453543D01*
X182533582Y-79467403D01*
X182527288Y-79480710D01*
X182519720Y-79493336D01*
X182510952Y-79505159D01*
X182501066Y-79516066D01*
X182490159Y-79525952D01*
X182478336Y-79534720D01*
X182465710Y-79542288D01*
X182452403Y-79548582D01*
X182438543Y-79553541D01*
X182424264Y-79557118D01*
X182409703Y-79559278D01*
X182395000Y-79560000D01*
X182095000Y-79560000D01*
X182080297Y-79559278D01*
X182065736Y-79557118D01*
X182051457Y-79553541D01*
X182037597Y-79548582D01*
X182024290Y-79542288D01*
X182011664Y-79534720D01*
X181999841Y-79525952D01*
X181988934Y-79516066D01*
X181979048Y-79505159D01*
X181970280Y-79493336D01*
X181962712Y-79480710D01*
X181956418Y-79467403D01*
X181951459Y-79453543D01*
X181947882Y-79439264D01*
X181945722Y-79424703D01*
X181945000Y-79410000D01*
X181945000Y-77660000D01*
X181945722Y-77645297D01*
X181947882Y-77630736D01*
X181951459Y-77616457D01*
X181956418Y-77602597D01*
X181962712Y-77589290D01*
X181970280Y-77576664D01*
X181979048Y-77564841D01*
X181988934Y-77553934D01*
X181999841Y-77544048D01*
X182011664Y-77535280D01*
X182024290Y-77527712D01*
X182037597Y-77521418D01*
X182051457Y-77516459D01*
X182065736Y-77512882D01*
X182080297Y-77510722D01*
X182095000Y-77510000D01*
X182395000Y-77510000D01*
X182409703Y-77510722D01*
X182409703Y-77510722D01*
G37*
D11*
X182245000Y-78535000D03*
D10*
G36*
X183679703Y-77510722D02*
G01*
X183694264Y-77512882D01*
X183708543Y-77516459D01*
X183722403Y-77521418D01*
X183735710Y-77527712D01*
X183748336Y-77535280D01*
X183760159Y-77544048D01*
X183771066Y-77553934D01*
X183780952Y-77564841D01*
X183789720Y-77576664D01*
X183797288Y-77589290D01*
X183803582Y-77602597D01*
X183808541Y-77616457D01*
X183812118Y-77630736D01*
X183814278Y-77645297D01*
X183815000Y-77660000D01*
X183815000Y-79410000D01*
X183814278Y-79424703D01*
X183812118Y-79439264D01*
X183808541Y-79453543D01*
X183803582Y-79467403D01*
X183797288Y-79480710D01*
X183789720Y-79493336D01*
X183780952Y-79505159D01*
X183771066Y-79516066D01*
X183760159Y-79525952D01*
X183748336Y-79534720D01*
X183735710Y-79542288D01*
X183722403Y-79548582D01*
X183708543Y-79553541D01*
X183694264Y-79557118D01*
X183679703Y-79559278D01*
X183665000Y-79560000D01*
X183365000Y-79560000D01*
X183350297Y-79559278D01*
X183335736Y-79557118D01*
X183321457Y-79553541D01*
X183307597Y-79548582D01*
X183294290Y-79542288D01*
X183281664Y-79534720D01*
X183269841Y-79525952D01*
X183258934Y-79516066D01*
X183249048Y-79505159D01*
X183240280Y-79493336D01*
X183232712Y-79480710D01*
X183226418Y-79467403D01*
X183221459Y-79453543D01*
X183217882Y-79439264D01*
X183215722Y-79424703D01*
X183215000Y-79410000D01*
X183215000Y-77660000D01*
X183215722Y-77645297D01*
X183217882Y-77630736D01*
X183221459Y-77616457D01*
X183226418Y-77602597D01*
X183232712Y-77589290D01*
X183240280Y-77576664D01*
X183249048Y-77564841D01*
X183258934Y-77553934D01*
X183269841Y-77544048D01*
X183281664Y-77535280D01*
X183294290Y-77527712D01*
X183307597Y-77521418D01*
X183321457Y-77516459D01*
X183335736Y-77512882D01*
X183350297Y-77510722D01*
X183365000Y-77510000D01*
X183665000Y-77510000D01*
X183679703Y-77510722D01*
X183679703Y-77510722D01*
G37*
D11*
X183515000Y-78535000D03*
D10*
G36*
X184949703Y-77510722D02*
G01*
X184964264Y-77512882D01*
X184978543Y-77516459D01*
X184992403Y-77521418D01*
X185005710Y-77527712D01*
X185018336Y-77535280D01*
X185030159Y-77544048D01*
X185041066Y-77553934D01*
X185050952Y-77564841D01*
X185059720Y-77576664D01*
X185067288Y-77589290D01*
X185073582Y-77602597D01*
X185078541Y-77616457D01*
X185082118Y-77630736D01*
X185084278Y-77645297D01*
X185085000Y-77660000D01*
X185085000Y-79410000D01*
X185084278Y-79424703D01*
X185082118Y-79439264D01*
X185078541Y-79453543D01*
X185073582Y-79467403D01*
X185067288Y-79480710D01*
X185059720Y-79493336D01*
X185050952Y-79505159D01*
X185041066Y-79516066D01*
X185030159Y-79525952D01*
X185018336Y-79534720D01*
X185005710Y-79542288D01*
X184992403Y-79548582D01*
X184978543Y-79553541D01*
X184964264Y-79557118D01*
X184949703Y-79559278D01*
X184935000Y-79560000D01*
X184635000Y-79560000D01*
X184620297Y-79559278D01*
X184605736Y-79557118D01*
X184591457Y-79553541D01*
X184577597Y-79548582D01*
X184564290Y-79542288D01*
X184551664Y-79534720D01*
X184539841Y-79525952D01*
X184528934Y-79516066D01*
X184519048Y-79505159D01*
X184510280Y-79493336D01*
X184502712Y-79480710D01*
X184496418Y-79467403D01*
X184491459Y-79453543D01*
X184487882Y-79439264D01*
X184485722Y-79424703D01*
X184485000Y-79410000D01*
X184485000Y-77660000D01*
X184485722Y-77645297D01*
X184487882Y-77630736D01*
X184491459Y-77616457D01*
X184496418Y-77602597D01*
X184502712Y-77589290D01*
X184510280Y-77576664D01*
X184519048Y-77564841D01*
X184528934Y-77553934D01*
X184539841Y-77544048D01*
X184551664Y-77535280D01*
X184564290Y-77527712D01*
X184577597Y-77521418D01*
X184591457Y-77516459D01*
X184605736Y-77512882D01*
X184620297Y-77510722D01*
X184635000Y-77510000D01*
X184935000Y-77510000D01*
X184949703Y-77510722D01*
X184949703Y-77510722D01*
G37*
D11*
X184785000Y-78535000D03*
D10*
G36*
X186219703Y-77510722D02*
G01*
X186234264Y-77512882D01*
X186248543Y-77516459D01*
X186262403Y-77521418D01*
X186275710Y-77527712D01*
X186288336Y-77535280D01*
X186300159Y-77544048D01*
X186311066Y-77553934D01*
X186320952Y-77564841D01*
X186329720Y-77576664D01*
X186337288Y-77589290D01*
X186343582Y-77602597D01*
X186348541Y-77616457D01*
X186352118Y-77630736D01*
X186354278Y-77645297D01*
X186355000Y-77660000D01*
X186355000Y-79410000D01*
X186354278Y-79424703D01*
X186352118Y-79439264D01*
X186348541Y-79453543D01*
X186343582Y-79467403D01*
X186337288Y-79480710D01*
X186329720Y-79493336D01*
X186320952Y-79505159D01*
X186311066Y-79516066D01*
X186300159Y-79525952D01*
X186288336Y-79534720D01*
X186275710Y-79542288D01*
X186262403Y-79548582D01*
X186248543Y-79553541D01*
X186234264Y-79557118D01*
X186219703Y-79559278D01*
X186205000Y-79560000D01*
X185905000Y-79560000D01*
X185890297Y-79559278D01*
X185875736Y-79557118D01*
X185861457Y-79553541D01*
X185847597Y-79548582D01*
X185834290Y-79542288D01*
X185821664Y-79534720D01*
X185809841Y-79525952D01*
X185798934Y-79516066D01*
X185789048Y-79505159D01*
X185780280Y-79493336D01*
X185772712Y-79480710D01*
X185766418Y-79467403D01*
X185761459Y-79453543D01*
X185757882Y-79439264D01*
X185755722Y-79424703D01*
X185755000Y-79410000D01*
X185755000Y-77660000D01*
X185755722Y-77645297D01*
X185757882Y-77630736D01*
X185761459Y-77616457D01*
X185766418Y-77602597D01*
X185772712Y-77589290D01*
X185780280Y-77576664D01*
X185789048Y-77564841D01*
X185798934Y-77553934D01*
X185809841Y-77544048D01*
X185821664Y-77535280D01*
X185834290Y-77527712D01*
X185847597Y-77521418D01*
X185861457Y-77516459D01*
X185875736Y-77512882D01*
X185890297Y-77510722D01*
X185905000Y-77510000D01*
X186205000Y-77510000D01*
X186219703Y-77510722D01*
X186219703Y-77510722D01*
G37*
D11*
X186055000Y-78535000D03*
D10*
G36*
X187489703Y-77510722D02*
G01*
X187504264Y-77512882D01*
X187518543Y-77516459D01*
X187532403Y-77521418D01*
X187545710Y-77527712D01*
X187558336Y-77535280D01*
X187570159Y-77544048D01*
X187581066Y-77553934D01*
X187590952Y-77564841D01*
X187599720Y-77576664D01*
X187607288Y-77589290D01*
X187613582Y-77602597D01*
X187618541Y-77616457D01*
X187622118Y-77630736D01*
X187624278Y-77645297D01*
X187625000Y-77660000D01*
X187625000Y-79410000D01*
X187624278Y-79424703D01*
X187622118Y-79439264D01*
X187618541Y-79453543D01*
X187613582Y-79467403D01*
X187607288Y-79480710D01*
X187599720Y-79493336D01*
X187590952Y-79505159D01*
X187581066Y-79516066D01*
X187570159Y-79525952D01*
X187558336Y-79534720D01*
X187545710Y-79542288D01*
X187532403Y-79548582D01*
X187518543Y-79553541D01*
X187504264Y-79557118D01*
X187489703Y-79559278D01*
X187475000Y-79560000D01*
X187175000Y-79560000D01*
X187160297Y-79559278D01*
X187145736Y-79557118D01*
X187131457Y-79553541D01*
X187117597Y-79548582D01*
X187104290Y-79542288D01*
X187091664Y-79534720D01*
X187079841Y-79525952D01*
X187068934Y-79516066D01*
X187059048Y-79505159D01*
X187050280Y-79493336D01*
X187042712Y-79480710D01*
X187036418Y-79467403D01*
X187031459Y-79453543D01*
X187027882Y-79439264D01*
X187025722Y-79424703D01*
X187025000Y-79410000D01*
X187025000Y-77660000D01*
X187025722Y-77645297D01*
X187027882Y-77630736D01*
X187031459Y-77616457D01*
X187036418Y-77602597D01*
X187042712Y-77589290D01*
X187050280Y-77576664D01*
X187059048Y-77564841D01*
X187068934Y-77553934D01*
X187079841Y-77544048D01*
X187091664Y-77535280D01*
X187104290Y-77527712D01*
X187117597Y-77521418D01*
X187131457Y-77516459D01*
X187145736Y-77512882D01*
X187160297Y-77510722D01*
X187175000Y-77510000D01*
X187475000Y-77510000D01*
X187489703Y-77510722D01*
X187489703Y-77510722D01*
G37*
D11*
X187325000Y-78535000D03*
D10*
G36*
X188759703Y-77510722D02*
G01*
X188774264Y-77512882D01*
X188788543Y-77516459D01*
X188802403Y-77521418D01*
X188815710Y-77527712D01*
X188828336Y-77535280D01*
X188840159Y-77544048D01*
X188851066Y-77553934D01*
X188860952Y-77564841D01*
X188869720Y-77576664D01*
X188877288Y-77589290D01*
X188883582Y-77602597D01*
X188888541Y-77616457D01*
X188892118Y-77630736D01*
X188894278Y-77645297D01*
X188895000Y-77660000D01*
X188895000Y-79410000D01*
X188894278Y-79424703D01*
X188892118Y-79439264D01*
X188888541Y-79453543D01*
X188883582Y-79467403D01*
X188877288Y-79480710D01*
X188869720Y-79493336D01*
X188860952Y-79505159D01*
X188851066Y-79516066D01*
X188840159Y-79525952D01*
X188828336Y-79534720D01*
X188815710Y-79542288D01*
X188802403Y-79548582D01*
X188788543Y-79553541D01*
X188774264Y-79557118D01*
X188759703Y-79559278D01*
X188745000Y-79560000D01*
X188445000Y-79560000D01*
X188430297Y-79559278D01*
X188415736Y-79557118D01*
X188401457Y-79553541D01*
X188387597Y-79548582D01*
X188374290Y-79542288D01*
X188361664Y-79534720D01*
X188349841Y-79525952D01*
X188338934Y-79516066D01*
X188329048Y-79505159D01*
X188320280Y-79493336D01*
X188312712Y-79480710D01*
X188306418Y-79467403D01*
X188301459Y-79453543D01*
X188297882Y-79439264D01*
X188295722Y-79424703D01*
X188295000Y-79410000D01*
X188295000Y-77660000D01*
X188295722Y-77645297D01*
X188297882Y-77630736D01*
X188301459Y-77616457D01*
X188306418Y-77602597D01*
X188312712Y-77589290D01*
X188320280Y-77576664D01*
X188329048Y-77564841D01*
X188338934Y-77553934D01*
X188349841Y-77544048D01*
X188361664Y-77535280D01*
X188374290Y-77527712D01*
X188387597Y-77521418D01*
X188401457Y-77516459D01*
X188415736Y-77512882D01*
X188430297Y-77510722D01*
X188445000Y-77510000D01*
X188745000Y-77510000D01*
X188759703Y-77510722D01*
X188759703Y-77510722D01*
G37*
D11*
X188595000Y-78535000D03*
D10*
G36*
X188759703Y-86810722D02*
G01*
X188774264Y-86812882D01*
X188788543Y-86816459D01*
X188802403Y-86821418D01*
X188815710Y-86827712D01*
X188828336Y-86835280D01*
X188840159Y-86844048D01*
X188851066Y-86853934D01*
X188860952Y-86864841D01*
X188869720Y-86876664D01*
X188877288Y-86889290D01*
X188883582Y-86902597D01*
X188888541Y-86916457D01*
X188892118Y-86930736D01*
X188894278Y-86945297D01*
X188895000Y-86960000D01*
X188895000Y-88710000D01*
X188894278Y-88724703D01*
X188892118Y-88739264D01*
X188888541Y-88753543D01*
X188883582Y-88767403D01*
X188877288Y-88780710D01*
X188869720Y-88793336D01*
X188860952Y-88805159D01*
X188851066Y-88816066D01*
X188840159Y-88825952D01*
X188828336Y-88834720D01*
X188815710Y-88842288D01*
X188802403Y-88848582D01*
X188788543Y-88853541D01*
X188774264Y-88857118D01*
X188759703Y-88859278D01*
X188745000Y-88860000D01*
X188445000Y-88860000D01*
X188430297Y-88859278D01*
X188415736Y-88857118D01*
X188401457Y-88853541D01*
X188387597Y-88848582D01*
X188374290Y-88842288D01*
X188361664Y-88834720D01*
X188349841Y-88825952D01*
X188338934Y-88816066D01*
X188329048Y-88805159D01*
X188320280Y-88793336D01*
X188312712Y-88780710D01*
X188306418Y-88767403D01*
X188301459Y-88753543D01*
X188297882Y-88739264D01*
X188295722Y-88724703D01*
X188295000Y-88710000D01*
X188295000Y-86960000D01*
X188295722Y-86945297D01*
X188297882Y-86930736D01*
X188301459Y-86916457D01*
X188306418Y-86902597D01*
X188312712Y-86889290D01*
X188320280Y-86876664D01*
X188329048Y-86864841D01*
X188338934Y-86853934D01*
X188349841Y-86844048D01*
X188361664Y-86835280D01*
X188374290Y-86827712D01*
X188387597Y-86821418D01*
X188401457Y-86816459D01*
X188415736Y-86812882D01*
X188430297Y-86810722D01*
X188445000Y-86810000D01*
X188745000Y-86810000D01*
X188759703Y-86810722D01*
X188759703Y-86810722D01*
G37*
D11*
X188595000Y-87835000D03*
D10*
G36*
X187489703Y-86810722D02*
G01*
X187504264Y-86812882D01*
X187518543Y-86816459D01*
X187532403Y-86821418D01*
X187545710Y-86827712D01*
X187558336Y-86835280D01*
X187570159Y-86844048D01*
X187581066Y-86853934D01*
X187590952Y-86864841D01*
X187599720Y-86876664D01*
X187607288Y-86889290D01*
X187613582Y-86902597D01*
X187618541Y-86916457D01*
X187622118Y-86930736D01*
X187624278Y-86945297D01*
X187625000Y-86960000D01*
X187625000Y-88710000D01*
X187624278Y-88724703D01*
X187622118Y-88739264D01*
X187618541Y-88753543D01*
X187613582Y-88767403D01*
X187607288Y-88780710D01*
X187599720Y-88793336D01*
X187590952Y-88805159D01*
X187581066Y-88816066D01*
X187570159Y-88825952D01*
X187558336Y-88834720D01*
X187545710Y-88842288D01*
X187532403Y-88848582D01*
X187518543Y-88853541D01*
X187504264Y-88857118D01*
X187489703Y-88859278D01*
X187475000Y-88860000D01*
X187175000Y-88860000D01*
X187160297Y-88859278D01*
X187145736Y-88857118D01*
X187131457Y-88853541D01*
X187117597Y-88848582D01*
X187104290Y-88842288D01*
X187091664Y-88834720D01*
X187079841Y-88825952D01*
X187068934Y-88816066D01*
X187059048Y-88805159D01*
X187050280Y-88793336D01*
X187042712Y-88780710D01*
X187036418Y-88767403D01*
X187031459Y-88753543D01*
X187027882Y-88739264D01*
X187025722Y-88724703D01*
X187025000Y-88710000D01*
X187025000Y-86960000D01*
X187025722Y-86945297D01*
X187027882Y-86930736D01*
X187031459Y-86916457D01*
X187036418Y-86902597D01*
X187042712Y-86889290D01*
X187050280Y-86876664D01*
X187059048Y-86864841D01*
X187068934Y-86853934D01*
X187079841Y-86844048D01*
X187091664Y-86835280D01*
X187104290Y-86827712D01*
X187117597Y-86821418D01*
X187131457Y-86816459D01*
X187145736Y-86812882D01*
X187160297Y-86810722D01*
X187175000Y-86810000D01*
X187475000Y-86810000D01*
X187489703Y-86810722D01*
X187489703Y-86810722D01*
G37*
D11*
X187325000Y-87835000D03*
D10*
G36*
X186219703Y-86810722D02*
G01*
X186234264Y-86812882D01*
X186248543Y-86816459D01*
X186262403Y-86821418D01*
X186275710Y-86827712D01*
X186288336Y-86835280D01*
X186300159Y-86844048D01*
X186311066Y-86853934D01*
X186320952Y-86864841D01*
X186329720Y-86876664D01*
X186337288Y-86889290D01*
X186343582Y-86902597D01*
X186348541Y-86916457D01*
X186352118Y-86930736D01*
X186354278Y-86945297D01*
X186355000Y-86960000D01*
X186355000Y-88710000D01*
X186354278Y-88724703D01*
X186352118Y-88739264D01*
X186348541Y-88753543D01*
X186343582Y-88767403D01*
X186337288Y-88780710D01*
X186329720Y-88793336D01*
X186320952Y-88805159D01*
X186311066Y-88816066D01*
X186300159Y-88825952D01*
X186288336Y-88834720D01*
X186275710Y-88842288D01*
X186262403Y-88848582D01*
X186248543Y-88853541D01*
X186234264Y-88857118D01*
X186219703Y-88859278D01*
X186205000Y-88860000D01*
X185905000Y-88860000D01*
X185890297Y-88859278D01*
X185875736Y-88857118D01*
X185861457Y-88853541D01*
X185847597Y-88848582D01*
X185834290Y-88842288D01*
X185821664Y-88834720D01*
X185809841Y-88825952D01*
X185798934Y-88816066D01*
X185789048Y-88805159D01*
X185780280Y-88793336D01*
X185772712Y-88780710D01*
X185766418Y-88767403D01*
X185761459Y-88753543D01*
X185757882Y-88739264D01*
X185755722Y-88724703D01*
X185755000Y-88710000D01*
X185755000Y-86960000D01*
X185755722Y-86945297D01*
X185757882Y-86930736D01*
X185761459Y-86916457D01*
X185766418Y-86902597D01*
X185772712Y-86889290D01*
X185780280Y-86876664D01*
X185789048Y-86864841D01*
X185798934Y-86853934D01*
X185809841Y-86844048D01*
X185821664Y-86835280D01*
X185834290Y-86827712D01*
X185847597Y-86821418D01*
X185861457Y-86816459D01*
X185875736Y-86812882D01*
X185890297Y-86810722D01*
X185905000Y-86810000D01*
X186205000Y-86810000D01*
X186219703Y-86810722D01*
X186219703Y-86810722D01*
G37*
D11*
X186055000Y-87835000D03*
D10*
G36*
X184949703Y-86810722D02*
G01*
X184964264Y-86812882D01*
X184978543Y-86816459D01*
X184992403Y-86821418D01*
X185005710Y-86827712D01*
X185018336Y-86835280D01*
X185030159Y-86844048D01*
X185041066Y-86853934D01*
X185050952Y-86864841D01*
X185059720Y-86876664D01*
X185067288Y-86889290D01*
X185073582Y-86902597D01*
X185078541Y-86916457D01*
X185082118Y-86930736D01*
X185084278Y-86945297D01*
X185085000Y-86960000D01*
X185085000Y-88710000D01*
X185084278Y-88724703D01*
X185082118Y-88739264D01*
X185078541Y-88753543D01*
X185073582Y-88767403D01*
X185067288Y-88780710D01*
X185059720Y-88793336D01*
X185050952Y-88805159D01*
X185041066Y-88816066D01*
X185030159Y-88825952D01*
X185018336Y-88834720D01*
X185005710Y-88842288D01*
X184992403Y-88848582D01*
X184978543Y-88853541D01*
X184964264Y-88857118D01*
X184949703Y-88859278D01*
X184935000Y-88860000D01*
X184635000Y-88860000D01*
X184620297Y-88859278D01*
X184605736Y-88857118D01*
X184591457Y-88853541D01*
X184577597Y-88848582D01*
X184564290Y-88842288D01*
X184551664Y-88834720D01*
X184539841Y-88825952D01*
X184528934Y-88816066D01*
X184519048Y-88805159D01*
X184510280Y-88793336D01*
X184502712Y-88780710D01*
X184496418Y-88767403D01*
X184491459Y-88753543D01*
X184487882Y-88739264D01*
X184485722Y-88724703D01*
X184485000Y-88710000D01*
X184485000Y-86960000D01*
X184485722Y-86945297D01*
X184487882Y-86930736D01*
X184491459Y-86916457D01*
X184496418Y-86902597D01*
X184502712Y-86889290D01*
X184510280Y-86876664D01*
X184519048Y-86864841D01*
X184528934Y-86853934D01*
X184539841Y-86844048D01*
X184551664Y-86835280D01*
X184564290Y-86827712D01*
X184577597Y-86821418D01*
X184591457Y-86816459D01*
X184605736Y-86812882D01*
X184620297Y-86810722D01*
X184635000Y-86810000D01*
X184935000Y-86810000D01*
X184949703Y-86810722D01*
X184949703Y-86810722D01*
G37*
D11*
X184785000Y-87835000D03*
D10*
G36*
X183679703Y-86810722D02*
G01*
X183694264Y-86812882D01*
X183708543Y-86816459D01*
X183722403Y-86821418D01*
X183735710Y-86827712D01*
X183748336Y-86835280D01*
X183760159Y-86844048D01*
X183771066Y-86853934D01*
X183780952Y-86864841D01*
X183789720Y-86876664D01*
X183797288Y-86889290D01*
X183803582Y-86902597D01*
X183808541Y-86916457D01*
X183812118Y-86930736D01*
X183814278Y-86945297D01*
X183815000Y-86960000D01*
X183815000Y-88710000D01*
X183814278Y-88724703D01*
X183812118Y-88739264D01*
X183808541Y-88753543D01*
X183803582Y-88767403D01*
X183797288Y-88780710D01*
X183789720Y-88793336D01*
X183780952Y-88805159D01*
X183771066Y-88816066D01*
X183760159Y-88825952D01*
X183748336Y-88834720D01*
X183735710Y-88842288D01*
X183722403Y-88848582D01*
X183708543Y-88853541D01*
X183694264Y-88857118D01*
X183679703Y-88859278D01*
X183665000Y-88860000D01*
X183365000Y-88860000D01*
X183350297Y-88859278D01*
X183335736Y-88857118D01*
X183321457Y-88853541D01*
X183307597Y-88848582D01*
X183294290Y-88842288D01*
X183281664Y-88834720D01*
X183269841Y-88825952D01*
X183258934Y-88816066D01*
X183249048Y-88805159D01*
X183240280Y-88793336D01*
X183232712Y-88780710D01*
X183226418Y-88767403D01*
X183221459Y-88753543D01*
X183217882Y-88739264D01*
X183215722Y-88724703D01*
X183215000Y-88710000D01*
X183215000Y-86960000D01*
X183215722Y-86945297D01*
X183217882Y-86930736D01*
X183221459Y-86916457D01*
X183226418Y-86902597D01*
X183232712Y-86889290D01*
X183240280Y-86876664D01*
X183249048Y-86864841D01*
X183258934Y-86853934D01*
X183269841Y-86844048D01*
X183281664Y-86835280D01*
X183294290Y-86827712D01*
X183307597Y-86821418D01*
X183321457Y-86816459D01*
X183335736Y-86812882D01*
X183350297Y-86810722D01*
X183365000Y-86810000D01*
X183665000Y-86810000D01*
X183679703Y-86810722D01*
X183679703Y-86810722D01*
G37*
D11*
X183515000Y-87835000D03*
D10*
G36*
X182409703Y-86810722D02*
G01*
X182424264Y-86812882D01*
X182438543Y-86816459D01*
X182452403Y-86821418D01*
X182465710Y-86827712D01*
X182478336Y-86835280D01*
X182490159Y-86844048D01*
X182501066Y-86853934D01*
X182510952Y-86864841D01*
X182519720Y-86876664D01*
X182527288Y-86889290D01*
X182533582Y-86902597D01*
X182538541Y-86916457D01*
X182542118Y-86930736D01*
X182544278Y-86945297D01*
X182545000Y-86960000D01*
X182545000Y-88710000D01*
X182544278Y-88724703D01*
X182542118Y-88739264D01*
X182538541Y-88753543D01*
X182533582Y-88767403D01*
X182527288Y-88780710D01*
X182519720Y-88793336D01*
X182510952Y-88805159D01*
X182501066Y-88816066D01*
X182490159Y-88825952D01*
X182478336Y-88834720D01*
X182465710Y-88842288D01*
X182452403Y-88848582D01*
X182438543Y-88853541D01*
X182424264Y-88857118D01*
X182409703Y-88859278D01*
X182395000Y-88860000D01*
X182095000Y-88860000D01*
X182080297Y-88859278D01*
X182065736Y-88857118D01*
X182051457Y-88853541D01*
X182037597Y-88848582D01*
X182024290Y-88842288D01*
X182011664Y-88834720D01*
X181999841Y-88825952D01*
X181988934Y-88816066D01*
X181979048Y-88805159D01*
X181970280Y-88793336D01*
X181962712Y-88780710D01*
X181956418Y-88767403D01*
X181951459Y-88753543D01*
X181947882Y-88739264D01*
X181945722Y-88724703D01*
X181945000Y-88710000D01*
X181945000Y-86960000D01*
X181945722Y-86945297D01*
X181947882Y-86930736D01*
X181951459Y-86916457D01*
X181956418Y-86902597D01*
X181962712Y-86889290D01*
X181970280Y-86876664D01*
X181979048Y-86864841D01*
X181988934Y-86853934D01*
X181999841Y-86844048D01*
X182011664Y-86835280D01*
X182024290Y-86827712D01*
X182037597Y-86821418D01*
X182051457Y-86816459D01*
X182065736Y-86812882D01*
X182080297Y-86810722D01*
X182095000Y-86810000D01*
X182395000Y-86810000D01*
X182409703Y-86810722D01*
X182409703Y-86810722D01*
G37*
D11*
X182245000Y-87835000D03*
D10*
G36*
X181139703Y-86810722D02*
G01*
X181154264Y-86812882D01*
X181168543Y-86816459D01*
X181182403Y-86821418D01*
X181195710Y-86827712D01*
X181208336Y-86835280D01*
X181220159Y-86844048D01*
X181231066Y-86853934D01*
X181240952Y-86864841D01*
X181249720Y-86876664D01*
X181257288Y-86889290D01*
X181263582Y-86902597D01*
X181268541Y-86916457D01*
X181272118Y-86930736D01*
X181274278Y-86945297D01*
X181275000Y-86960000D01*
X181275000Y-88710000D01*
X181274278Y-88724703D01*
X181272118Y-88739264D01*
X181268541Y-88753543D01*
X181263582Y-88767403D01*
X181257288Y-88780710D01*
X181249720Y-88793336D01*
X181240952Y-88805159D01*
X181231066Y-88816066D01*
X181220159Y-88825952D01*
X181208336Y-88834720D01*
X181195710Y-88842288D01*
X181182403Y-88848582D01*
X181168543Y-88853541D01*
X181154264Y-88857118D01*
X181139703Y-88859278D01*
X181125000Y-88860000D01*
X180825000Y-88860000D01*
X180810297Y-88859278D01*
X180795736Y-88857118D01*
X180781457Y-88853541D01*
X180767597Y-88848582D01*
X180754290Y-88842288D01*
X180741664Y-88834720D01*
X180729841Y-88825952D01*
X180718934Y-88816066D01*
X180709048Y-88805159D01*
X180700280Y-88793336D01*
X180692712Y-88780710D01*
X180686418Y-88767403D01*
X180681459Y-88753543D01*
X180677882Y-88739264D01*
X180675722Y-88724703D01*
X180675000Y-88710000D01*
X180675000Y-86960000D01*
X180675722Y-86945297D01*
X180677882Y-86930736D01*
X180681459Y-86916457D01*
X180686418Y-86902597D01*
X180692712Y-86889290D01*
X180700280Y-86876664D01*
X180709048Y-86864841D01*
X180718934Y-86853934D01*
X180729841Y-86844048D01*
X180741664Y-86835280D01*
X180754290Y-86827712D01*
X180767597Y-86821418D01*
X180781457Y-86816459D01*
X180795736Y-86812882D01*
X180810297Y-86810722D01*
X180825000Y-86810000D01*
X181125000Y-86810000D01*
X181139703Y-86810722D01*
X181139703Y-86810722D01*
G37*
D11*
X180975000Y-87835000D03*
D10*
G36*
X179869703Y-86810722D02*
G01*
X179884264Y-86812882D01*
X179898543Y-86816459D01*
X179912403Y-86821418D01*
X179925710Y-86827712D01*
X179938336Y-86835280D01*
X179950159Y-86844048D01*
X179961066Y-86853934D01*
X179970952Y-86864841D01*
X179979720Y-86876664D01*
X179987288Y-86889290D01*
X179993582Y-86902597D01*
X179998541Y-86916457D01*
X180002118Y-86930736D01*
X180004278Y-86945297D01*
X180005000Y-86960000D01*
X180005000Y-88710000D01*
X180004278Y-88724703D01*
X180002118Y-88739264D01*
X179998541Y-88753543D01*
X179993582Y-88767403D01*
X179987288Y-88780710D01*
X179979720Y-88793336D01*
X179970952Y-88805159D01*
X179961066Y-88816066D01*
X179950159Y-88825952D01*
X179938336Y-88834720D01*
X179925710Y-88842288D01*
X179912403Y-88848582D01*
X179898543Y-88853541D01*
X179884264Y-88857118D01*
X179869703Y-88859278D01*
X179855000Y-88860000D01*
X179555000Y-88860000D01*
X179540297Y-88859278D01*
X179525736Y-88857118D01*
X179511457Y-88853541D01*
X179497597Y-88848582D01*
X179484290Y-88842288D01*
X179471664Y-88834720D01*
X179459841Y-88825952D01*
X179448934Y-88816066D01*
X179439048Y-88805159D01*
X179430280Y-88793336D01*
X179422712Y-88780710D01*
X179416418Y-88767403D01*
X179411459Y-88753543D01*
X179407882Y-88739264D01*
X179405722Y-88724703D01*
X179405000Y-88710000D01*
X179405000Y-86960000D01*
X179405722Y-86945297D01*
X179407882Y-86930736D01*
X179411459Y-86916457D01*
X179416418Y-86902597D01*
X179422712Y-86889290D01*
X179430280Y-86876664D01*
X179439048Y-86864841D01*
X179448934Y-86853934D01*
X179459841Y-86844048D01*
X179471664Y-86835280D01*
X179484290Y-86827712D01*
X179497597Y-86821418D01*
X179511457Y-86816459D01*
X179525736Y-86812882D01*
X179540297Y-86810722D01*
X179555000Y-86810000D01*
X179855000Y-86810000D01*
X179869703Y-86810722D01*
X179869703Y-86810722D01*
G37*
D11*
X179705000Y-87835000D03*
D10*
G36*
X178599703Y-86810722D02*
G01*
X178614264Y-86812882D01*
X178628543Y-86816459D01*
X178642403Y-86821418D01*
X178655710Y-86827712D01*
X178668336Y-86835280D01*
X178680159Y-86844048D01*
X178691066Y-86853934D01*
X178700952Y-86864841D01*
X178709720Y-86876664D01*
X178717288Y-86889290D01*
X178723582Y-86902597D01*
X178728541Y-86916457D01*
X178732118Y-86930736D01*
X178734278Y-86945297D01*
X178735000Y-86960000D01*
X178735000Y-88710000D01*
X178734278Y-88724703D01*
X178732118Y-88739264D01*
X178728541Y-88753543D01*
X178723582Y-88767403D01*
X178717288Y-88780710D01*
X178709720Y-88793336D01*
X178700952Y-88805159D01*
X178691066Y-88816066D01*
X178680159Y-88825952D01*
X178668336Y-88834720D01*
X178655710Y-88842288D01*
X178642403Y-88848582D01*
X178628543Y-88853541D01*
X178614264Y-88857118D01*
X178599703Y-88859278D01*
X178585000Y-88860000D01*
X178285000Y-88860000D01*
X178270297Y-88859278D01*
X178255736Y-88857118D01*
X178241457Y-88853541D01*
X178227597Y-88848582D01*
X178214290Y-88842288D01*
X178201664Y-88834720D01*
X178189841Y-88825952D01*
X178178934Y-88816066D01*
X178169048Y-88805159D01*
X178160280Y-88793336D01*
X178152712Y-88780710D01*
X178146418Y-88767403D01*
X178141459Y-88753543D01*
X178137882Y-88739264D01*
X178135722Y-88724703D01*
X178135000Y-88710000D01*
X178135000Y-86960000D01*
X178135722Y-86945297D01*
X178137882Y-86930736D01*
X178141459Y-86916457D01*
X178146418Y-86902597D01*
X178152712Y-86889290D01*
X178160280Y-86876664D01*
X178169048Y-86864841D01*
X178178934Y-86853934D01*
X178189841Y-86844048D01*
X178201664Y-86835280D01*
X178214290Y-86827712D01*
X178227597Y-86821418D01*
X178241457Y-86816459D01*
X178255736Y-86812882D01*
X178270297Y-86810722D01*
X178285000Y-86810000D01*
X178585000Y-86810000D01*
X178599703Y-86810722D01*
X178599703Y-86810722D01*
G37*
D11*
X178435000Y-87835000D03*
D10*
G36*
X177329703Y-86810722D02*
G01*
X177344264Y-86812882D01*
X177358543Y-86816459D01*
X177372403Y-86821418D01*
X177385710Y-86827712D01*
X177398336Y-86835280D01*
X177410159Y-86844048D01*
X177421066Y-86853934D01*
X177430952Y-86864841D01*
X177439720Y-86876664D01*
X177447288Y-86889290D01*
X177453582Y-86902597D01*
X177458541Y-86916457D01*
X177462118Y-86930736D01*
X177464278Y-86945297D01*
X177465000Y-86960000D01*
X177465000Y-88710000D01*
X177464278Y-88724703D01*
X177462118Y-88739264D01*
X177458541Y-88753543D01*
X177453582Y-88767403D01*
X177447288Y-88780710D01*
X177439720Y-88793336D01*
X177430952Y-88805159D01*
X177421066Y-88816066D01*
X177410159Y-88825952D01*
X177398336Y-88834720D01*
X177385710Y-88842288D01*
X177372403Y-88848582D01*
X177358543Y-88853541D01*
X177344264Y-88857118D01*
X177329703Y-88859278D01*
X177315000Y-88860000D01*
X177015000Y-88860000D01*
X177000297Y-88859278D01*
X176985736Y-88857118D01*
X176971457Y-88853541D01*
X176957597Y-88848582D01*
X176944290Y-88842288D01*
X176931664Y-88834720D01*
X176919841Y-88825952D01*
X176908934Y-88816066D01*
X176899048Y-88805159D01*
X176890280Y-88793336D01*
X176882712Y-88780710D01*
X176876418Y-88767403D01*
X176871459Y-88753543D01*
X176867882Y-88739264D01*
X176865722Y-88724703D01*
X176865000Y-88710000D01*
X176865000Y-86960000D01*
X176865722Y-86945297D01*
X176867882Y-86930736D01*
X176871459Y-86916457D01*
X176876418Y-86902597D01*
X176882712Y-86889290D01*
X176890280Y-86876664D01*
X176899048Y-86864841D01*
X176908934Y-86853934D01*
X176919841Y-86844048D01*
X176931664Y-86835280D01*
X176944290Y-86827712D01*
X176957597Y-86821418D01*
X176971457Y-86816459D01*
X176985736Y-86812882D01*
X177000297Y-86810722D01*
X177015000Y-86810000D01*
X177315000Y-86810000D01*
X177329703Y-86810722D01*
X177329703Y-86810722D01*
G37*
D11*
X177165000Y-87835000D03*
D10*
G36*
X177202703Y-92115722D02*
G01*
X177217264Y-92117882D01*
X177231543Y-92121459D01*
X177245403Y-92126418D01*
X177258710Y-92132712D01*
X177271336Y-92140280D01*
X177283159Y-92149048D01*
X177294066Y-92158934D01*
X177303952Y-92169841D01*
X177312720Y-92181664D01*
X177320288Y-92194290D01*
X177326582Y-92207597D01*
X177331541Y-92221457D01*
X177335118Y-92235736D01*
X177337278Y-92250297D01*
X177338000Y-92265000D01*
X177338000Y-94015000D01*
X177337278Y-94029703D01*
X177335118Y-94044264D01*
X177331541Y-94058543D01*
X177326582Y-94072403D01*
X177320288Y-94085710D01*
X177312720Y-94098336D01*
X177303952Y-94110159D01*
X177294066Y-94121066D01*
X177283159Y-94130952D01*
X177271336Y-94139720D01*
X177258710Y-94147288D01*
X177245403Y-94153582D01*
X177231543Y-94158541D01*
X177217264Y-94162118D01*
X177202703Y-94164278D01*
X177188000Y-94165000D01*
X176888000Y-94165000D01*
X176873297Y-94164278D01*
X176858736Y-94162118D01*
X176844457Y-94158541D01*
X176830597Y-94153582D01*
X176817290Y-94147288D01*
X176804664Y-94139720D01*
X176792841Y-94130952D01*
X176781934Y-94121066D01*
X176772048Y-94110159D01*
X176763280Y-94098336D01*
X176755712Y-94085710D01*
X176749418Y-94072403D01*
X176744459Y-94058543D01*
X176740882Y-94044264D01*
X176738722Y-94029703D01*
X176738000Y-94015000D01*
X176738000Y-92265000D01*
X176738722Y-92250297D01*
X176740882Y-92235736D01*
X176744459Y-92221457D01*
X176749418Y-92207597D01*
X176755712Y-92194290D01*
X176763280Y-92181664D01*
X176772048Y-92169841D01*
X176781934Y-92158934D01*
X176792841Y-92149048D01*
X176804664Y-92140280D01*
X176817290Y-92132712D01*
X176830597Y-92126418D01*
X176844457Y-92121459D01*
X176858736Y-92117882D01*
X176873297Y-92115722D01*
X176888000Y-92115000D01*
X177188000Y-92115000D01*
X177202703Y-92115722D01*
X177202703Y-92115722D01*
G37*
D11*
X177038000Y-93140000D03*
D10*
G36*
X178472703Y-92115722D02*
G01*
X178487264Y-92117882D01*
X178501543Y-92121459D01*
X178515403Y-92126418D01*
X178528710Y-92132712D01*
X178541336Y-92140280D01*
X178553159Y-92149048D01*
X178564066Y-92158934D01*
X178573952Y-92169841D01*
X178582720Y-92181664D01*
X178590288Y-92194290D01*
X178596582Y-92207597D01*
X178601541Y-92221457D01*
X178605118Y-92235736D01*
X178607278Y-92250297D01*
X178608000Y-92265000D01*
X178608000Y-94015000D01*
X178607278Y-94029703D01*
X178605118Y-94044264D01*
X178601541Y-94058543D01*
X178596582Y-94072403D01*
X178590288Y-94085710D01*
X178582720Y-94098336D01*
X178573952Y-94110159D01*
X178564066Y-94121066D01*
X178553159Y-94130952D01*
X178541336Y-94139720D01*
X178528710Y-94147288D01*
X178515403Y-94153582D01*
X178501543Y-94158541D01*
X178487264Y-94162118D01*
X178472703Y-94164278D01*
X178458000Y-94165000D01*
X178158000Y-94165000D01*
X178143297Y-94164278D01*
X178128736Y-94162118D01*
X178114457Y-94158541D01*
X178100597Y-94153582D01*
X178087290Y-94147288D01*
X178074664Y-94139720D01*
X178062841Y-94130952D01*
X178051934Y-94121066D01*
X178042048Y-94110159D01*
X178033280Y-94098336D01*
X178025712Y-94085710D01*
X178019418Y-94072403D01*
X178014459Y-94058543D01*
X178010882Y-94044264D01*
X178008722Y-94029703D01*
X178008000Y-94015000D01*
X178008000Y-92265000D01*
X178008722Y-92250297D01*
X178010882Y-92235736D01*
X178014459Y-92221457D01*
X178019418Y-92207597D01*
X178025712Y-92194290D01*
X178033280Y-92181664D01*
X178042048Y-92169841D01*
X178051934Y-92158934D01*
X178062841Y-92149048D01*
X178074664Y-92140280D01*
X178087290Y-92132712D01*
X178100597Y-92126418D01*
X178114457Y-92121459D01*
X178128736Y-92117882D01*
X178143297Y-92115722D01*
X178158000Y-92115000D01*
X178458000Y-92115000D01*
X178472703Y-92115722D01*
X178472703Y-92115722D01*
G37*
D11*
X178308000Y-93140000D03*
D10*
G36*
X179742703Y-92115722D02*
G01*
X179757264Y-92117882D01*
X179771543Y-92121459D01*
X179785403Y-92126418D01*
X179798710Y-92132712D01*
X179811336Y-92140280D01*
X179823159Y-92149048D01*
X179834066Y-92158934D01*
X179843952Y-92169841D01*
X179852720Y-92181664D01*
X179860288Y-92194290D01*
X179866582Y-92207597D01*
X179871541Y-92221457D01*
X179875118Y-92235736D01*
X179877278Y-92250297D01*
X179878000Y-92265000D01*
X179878000Y-94015000D01*
X179877278Y-94029703D01*
X179875118Y-94044264D01*
X179871541Y-94058543D01*
X179866582Y-94072403D01*
X179860288Y-94085710D01*
X179852720Y-94098336D01*
X179843952Y-94110159D01*
X179834066Y-94121066D01*
X179823159Y-94130952D01*
X179811336Y-94139720D01*
X179798710Y-94147288D01*
X179785403Y-94153582D01*
X179771543Y-94158541D01*
X179757264Y-94162118D01*
X179742703Y-94164278D01*
X179728000Y-94165000D01*
X179428000Y-94165000D01*
X179413297Y-94164278D01*
X179398736Y-94162118D01*
X179384457Y-94158541D01*
X179370597Y-94153582D01*
X179357290Y-94147288D01*
X179344664Y-94139720D01*
X179332841Y-94130952D01*
X179321934Y-94121066D01*
X179312048Y-94110159D01*
X179303280Y-94098336D01*
X179295712Y-94085710D01*
X179289418Y-94072403D01*
X179284459Y-94058543D01*
X179280882Y-94044264D01*
X179278722Y-94029703D01*
X179278000Y-94015000D01*
X179278000Y-92265000D01*
X179278722Y-92250297D01*
X179280882Y-92235736D01*
X179284459Y-92221457D01*
X179289418Y-92207597D01*
X179295712Y-92194290D01*
X179303280Y-92181664D01*
X179312048Y-92169841D01*
X179321934Y-92158934D01*
X179332841Y-92149048D01*
X179344664Y-92140280D01*
X179357290Y-92132712D01*
X179370597Y-92126418D01*
X179384457Y-92121459D01*
X179398736Y-92117882D01*
X179413297Y-92115722D01*
X179428000Y-92115000D01*
X179728000Y-92115000D01*
X179742703Y-92115722D01*
X179742703Y-92115722D01*
G37*
D11*
X179578000Y-93140000D03*
D10*
G36*
X181012703Y-92115722D02*
G01*
X181027264Y-92117882D01*
X181041543Y-92121459D01*
X181055403Y-92126418D01*
X181068710Y-92132712D01*
X181081336Y-92140280D01*
X181093159Y-92149048D01*
X181104066Y-92158934D01*
X181113952Y-92169841D01*
X181122720Y-92181664D01*
X181130288Y-92194290D01*
X181136582Y-92207597D01*
X181141541Y-92221457D01*
X181145118Y-92235736D01*
X181147278Y-92250297D01*
X181148000Y-92265000D01*
X181148000Y-94015000D01*
X181147278Y-94029703D01*
X181145118Y-94044264D01*
X181141541Y-94058543D01*
X181136582Y-94072403D01*
X181130288Y-94085710D01*
X181122720Y-94098336D01*
X181113952Y-94110159D01*
X181104066Y-94121066D01*
X181093159Y-94130952D01*
X181081336Y-94139720D01*
X181068710Y-94147288D01*
X181055403Y-94153582D01*
X181041543Y-94158541D01*
X181027264Y-94162118D01*
X181012703Y-94164278D01*
X180998000Y-94165000D01*
X180698000Y-94165000D01*
X180683297Y-94164278D01*
X180668736Y-94162118D01*
X180654457Y-94158541D01*
X180640597Y-94153582D01*
X180627290Y-94147288D01*
X180614664Y-94139720D01*
X180602841Y-94130952D01*
X180591934Y-94121066D01*
X180582048Y-94110159D01*
X180573280Y-94098336D01*
X180565712Y-94085710D01*
X180559418Y-94072403D01*
X180554459Y-94058543D01*
X180550882Y-94044264D01*
X180548722Y-94029703D01*
X180548000Y-94015000D01*
X180548000Y-92265000D01*
X180548722Y-92250297D01*
X180550882Y-92235736D01*
X180554459Y-92221457D01*
X180559418Y-92207597D01*
X180565712Y-92194290D01*
X180573280Y-92181664D01*
X180582048Y-92169841D01*
X180591934Y-92158934D01*
X180602841Y-92149048D01*
X180614664Y-92140280D01*
X180627290Y-92132712D01*
X180640597Y-92126418D01*
X180654457Y-92121459D01*
X180668736Y-92117882D01*
X180683297Y-92115722D01*
X180698000Y-92115000D01*
X180998000Y-92115000D01*
X181012703Y-92115722D01*
X181012703Y-92115722D01*
G37*
D11*
X180848000Y-93140000D03*
D10*
G36*
X182282703Y-92115722D02*
G01*
X182297264Y-92117882D01*
X182311543Y-92121459D01*
X182325403Y-92126418D01*
X182338710Y-92132712D01*
X182351336Y-92140280D01*
X182363159Y-92149048D01*
X182374066Y-92158934D01*
X182383952Y-92169841D01*
X182392720Y-92181664D01*
X182400288Y-92194290D01*
X182406582Y-92207597D01*
X182411541Y-92221457D01*
X182415118Y-92235736D01*
X182417278Y-92250297D01*
X182418000Y-92265000D01*
X182418000Y-94015000D01*
X182417278Y-94029703D01*
X182415118Y-94044264D01*
X182411541Y-94058543D01*
X182406582Y-94072403D01*
X182400288Y-94085710D01*
X182392720Y-94098336D01*
X182383952Y-94110159D01*
X182374066Y-94121066D01*
X182363159Y-94130952D01*
X182351336Y-94139720D01*
X182338710Y-94147288D01*
X182325403Y-94153582D01*
X182311543Y-94158541D01*
X182297264Y-94162118D01*
X182282703Y-94164278D01*
X182268000Y-94165000D01*
X181968000Y-94165000D01*
X181953297Y-94164278D01*
X181938736Y-94162118D01*
X181924457Y-94158541D01*
X181910597Y-94153582D01*
X181897290Y-94147288D01*
X181884664Y-94139720D01*
X181872841Y-94130952D01*
X181861934Y-94121066D01*
X181852048Y-94110159D01*
X181843280Y-94098336D01*
X181835712Y-94085710D01*
X181829418Y-94072403D01*
X181824459Y-94058543D01*
X181820882Y-94044264D01*
X181818722Y-94029703D01*
X181818000Y-94015000D01*
X181818000Y-92265000D01*
X181818722Y-92250297D01*
X181820882Y-92235736D01*
X181824459Y-92221457D01*
X181829418Y-92207597D01*
X181835712Y-92194290D01*
X181843280Y-92181664D01*
X181852048Y-92169841D01*
X181861934Y-92158934D01*
X181872841Y-92149048D01*
X181884664Y-92140280D01*
X181897290Y-92132712D01*
X181910597Y-92126418D01*
X181924457Y-92121459D01*
X181938736Y-92117882D01*
X181953297Y-92115722D01*
X181968000Y-92115000D01*
X182268000Y-92115000D01*
X182282703Y-92115722D01*
X182282703Y-92115722D01*
G37*
D11*
X182118000Y-93140000D03*
D10*
G36*
X183552703Y-92115722D02*
G01*
X183567264Y-92117882D01*
X183581543Y-92121459D01*
X183595403Y-92126418D01*
X183608710Y-92132712D01*
X183621336Y-92140280D01*
X183633159Y-92149048D01*
X183644066Y-92158934D01*
X183653952Y-92169841D01*
X183662720Y-92181664D01*
X183670288Y-92194290D01*
X183676582Y-92207597D01*
X183681541Y-92221457D01*
X183685118Y-92235736D01*
X183687278Y-92250297D01*
X183688000Y-92265000D01*
X183688000Y-94015000D01*
X183687278Y-94029703D01*
X183685118Y-94044264D01*
X183681541Y-94058543D01*
X183676582Y-94072403D01*
X183670288Y-94085710D01*
X183662720Y-94098336D01*
X183653952Y-94110159D01*
X183644066Y-94121066D01*
X183633159Y-94130952D01*
X183621336Y-94139720D01*
X183608710Y-94147288D01*
X183595403Y-94153582D01*
X183581543Y-94158541D01*
X183567264Y-94162118D01*
X183552703Y-94164278D01*
X183538000Y-94165000D01*
X183238000Y-94165000D01*
X183223297Y-94164278D01*
X183208736Y-94162118D01*
X183194457Y-94158541D01*
X183180597Y-94153582D01*
X183167290Y-94147288D01*
X183154664Y-94139720D01*
X183142841Y-94130952D01*
X183131934Y-94121066D01*
X183122048Y-94110159D01*
X183113280Y-94098336D01*
X183105712Y-94085710D01*
X183099418Y-94072403D01*
X183094459Y-94058543D01*
X183090882Y-94044264D01*
X183088722Y-94029703D01*
X183088000Y-94015000D01*
X183088000Y-92265000D01*
X183088722Y-92250297D01*
X183090882Y-92235736D01*
X183094459Y-92221457D01*
X183099418Y-92207597D01*
X183105712Y-92194290D01*
X183113280Y-92181664D01*
X183122048Y-92169841D01*
X183131934Y-92158934D01*
X183142841Y-92149048D01*
X183154664Y-92140280D01*
X183167290Y-92132712D01*
X183180597Y-92126418D01*
X183194457Y-92121459D01*
X183208736Y-92117882D01*
X183223297Y-92115722D01*
X183238000Y-92115000D01*
X183538000Y-92115000D01*
X183552703Y-92115722D01*
X183552703Y-92115722D01*
G37*
D11*
X183388000Y-93140000D03*
D10*
G36*
X184822703Y-92115722D02*
G01*
X184837264Y-92117882D01*
X184851543Y-92121459D01*
X184865403Y-92126418D01*
X184878710Y-92132712D01*
X184891336Y-92140280D01*
X184903159Y-92149048D01*
X184914066Y-92158934D01*
X184923952Y-92169841D01*
X184932720Y-92181664D01*
X184940288Y-92194290D01*
X184946582Y-92207597D01*
X184951541Y-92221457D01*
X184955118Y-92235736D01*
X184957278Y-92250297D01*
X184958000Y-92265000D01*
X184958000Y-94015000D01*
X184957278Y-94029703D01*
X184955118Y-94044264D01*
X184951541Y-94058543D01*
X184946582Y-94072403D01*
X184940288Y-94085710D01*
X184932720Y-94098336D01*
X184923952Y-94110159D01*
X184914066Y-94121066D01*
X184903159Y-94130952D01*
X184891336Y-94139720D01*
X184878710Y-94147288D01*
X184865403Y-94153582D01*
X184851543Y-94158541D01*
X184837264Y-94162118D01*
X184822703Y-94164278D01*
X184808000Y-94165000D01*
X184508000Y-94165000D01*
X184493297Y-94164278D01*
X184478736Y-94162118D01*
X184464457Y-94158541D01*
X184450597Y-94153582D01*
X184437290Y-94147288D01*
X184424664Y-94139720D01*
X184412841Y-94130952D01*
X184401934Y-94121066D01*
X184392048Y-94110159D01*
X184383280Y-94098336D01*
X184375712Y-94085710D01*
X184369418Y-94072403D01*
X184364459Y-94058543D01*
X184360882Y-94044264D01*
X184358722Y-94029703D01*
X184358000Y-94015000D01*
X184358000Y-92265000D01*
X184358722Y-92250297D01*
X184360882Y-92235736D01*
X184364459Y-92221457D01*
X184369418Y-92207597D01*
X184375712Y-92194290D01*
X184383280Y-92181664D01*
X184392048Y-92169841D01*
X184401934Y-92158934D01*
X184412841Y-92149048D01*
X184424664Y-92140280D01*
X184437290Y-92132712D01*
X184450597Y-92126418D01*
X184464457Y-92121459D01*
X184478736Y-92117882D01*
X184493297Y-92115722D01*
X184508000Y-92115000D01*
X184808000Y-92115000D01*
X184822703Y-92115722D01*
X184822703Y-92115722D01*
G37*
D11*
X184658000Y-93140000D03*
D10*
G36*
X186092703Y-92115722D02*
G01*
X186107264Y-92117882D01*
X186121543Y-92121459D01*
X186135403Y-92126418D01*
X186148710Y-92132712D01*
X186161336Y-92140280D01*
X186173159Y-92149048D01*
X186184066Y-92158934D01*
X186193952Y-92169841D01*
X186202720Y-92181664D01*
X186210288Y-92194290D01*
X186216582Y-92207597D01*
X186221541Y-92221457D01*
X186225118Y-92235736D01*
X186227278Y-92250297D01*
X186228000Y-92265000D01*
X186228000Y-94015000D01*
X186227278Y-94029703D01*
X186225118Y-94044264D01*
X186221541Y-94058543D01*
X186216582Y-94072403D01*
X186210288Y-94085710D01*
X186202720Y-94098336D01*
X186193952Y-94110159D01*
X186184066Y-94121066D01*
X186173159Y-94130952D01*
X186161336Y-94139720D01*
X186148710Y-94147288D01*
X186135403Y-94153582D01*
X186121543Y-94158541D01*
X186107264Y-94162118D01*
X186092703Y-94164278D01*
X186078000Y-94165000D01*
X185778000Y-94165000D01*
X185763297Y-94164278D01*
X185748736Y-94162118D01*
X185734457Y-94158541D01*
X185720597Y-94153582D01*
X185707290Y-94147288D01*
X185694664Y-94139720D01*
X185682841Y-94130952D01*
X185671934Y-94121066D01*
X185662048Y-94110159D01*
X185653280Y-94098336D01*
X185645712Y-94085710D01*
X185639418Y-94072403D01*
X185634459Y-94058543D01*
X185630882Y-94044264D01*
X185628722Y-94029703D01*
X185628000Y-94015000D01*
X185628000Y-92265000D01*
X185628722Y-92250297D01*
X185630882Y-92235736D01*
X185634459Y-92221457D01*
X185639418Y-92207597D01*
X185645712Y-92194290D01*
X185653280Y-92181664D01*
X185662048Y-92169841D01*
X185671934Y-92158934D01*
X185682841Y-92149048D01*
X185694664Y-92140280D01*
X185707290Y-92132712D01*
X185720597Y-92126418D01*
X185734457Y-92121459D01*
X185748736Y-92117882D01*
X185763297Y-92115722D01*
X185778000Y-92115000D01*
X186078000Y-92115000D01*
X186092703Y-92115722D01*
X186092703Y-92115722D01*
G37*
D11*
X185928000Y-93140000D03*
D10*
G36*
X187362703Y-92115722D02*
G01*
X187377264Y-92117882D01*
X187391543Y-92121459D01*
X187405403Y-92126418D01*
X187418710Y-92132712D01*
X187431336Y-92140280D01*
X187443159Y-92149048D01*
X187454066Y-92158934D01*
X187463952Y-92169841D01*
X187472720Y-92181664D01*
X187480288Y-92194290D01*
X187486582Y-92207597D01*
X187491541Y-92221457D01*
X187495118Y-92235736D01*
X187497278Y-92250297D01*
X187498000Y-92265000D01*
X187498000Y-94015000D01*
X187497278Y-94029703D01*
X187495118Y-94044264D01*
X187491541Y-94058543D01*
X187486582Y-94072403D01*
X187480288Y-94085710D01*
X187472720Y-94098336D01*
X187463952Y-94110159D01*
X187454066Y-94121066D01*
X187443159Y-94130952D01*
X187431336Y-94139720D01*
X187418710Y-94147288D01*
X187405403Y-94153582D01*
X187391543Y-94158541D01*
X187377264Y-94162118D01*
X187362703Y-94164278D01*
X187348000Y-94165000D01*
X187048000Y-94165000D01*
X187033297Y-94164278D01*
X187018736Y-94162118D01*
X187004457Y-94158541D01*
X186990597Y-94153582D01*
X186977290Y-94147288D01*
X186964664Y-94139720D01*
X186952841Y-94130952D01*
X186941934Y-94121066D01*
X186932048Y-94110159D01*
X186923280Y-94098336D01*
X186915712Y-94085710D01*
X186909418Y-94072403D01*
X186904459Y-94058543D01*
X186900882Y-94044264D01*
X186898722Y-94029703D01*
X186898000Y-94015000D01*
X186898000Y-92265000D01*
X186898722Y-92250297D01*
X186900882Y-92235736D01*
X186904459Y-92221457D01*
X186909418Y-92207597D01*
X186915712Y-92194290D01*
X186923280Y-92181664D01*
X186932048Y-92169841D01*
X186941934Y-92158934D01*
X186952841Y-92149048D01*
X186964664Y-92140280D01*
X186977290Y-92132712D01*
X186990597Y-92126418D01*
X187004457Y-92121459D01*
X187018736Y-92117882D01*
X187033297Y-92115722D01*
X187048000Y-92115000D01*
X187348000Y-92115000D01*
X187362703Y-92115722D01*
X187362703Y-92115722D01*
G37*
D11*
X187198000Y-93140000D03*
D10*
G36*
X188632703Y-92115722D02*
G01*
X188647264Y-92117882D01*
X188661543Y-92121459D01*
X188675403Y-92126418D01*
X188688710Y-92132712D01*
X188701336Y-92140280D01*
X188713159Y-92149048D01*
X188724066Y-92158934D01*
X188733952Y-92169841D01*
X188742720Y-92181664D01*
X188750288Y-92194290D01*
X188756582Y-92207597D01*
X188761541Y-92221457D01*
X188765118Y-92235736D01*
X188767278Y-92250297D01*
X188768000Y-92265000D01*
X188768000Y-94015000D01*
X188767278Y-94029703D01*
X188765118Y-94044264D01*
X188761541Y-94058543D01*
X188756582Y-94072403D01*
X188750288Y-94085710D01*
X188742720Y-94098336D01*
X188733952Y-94110159D01*
X188724066Y-94121066D01*
X188713159Y-94130952D01*
X188701336Y-94139720D01*
X188688710Y-94147288D01*
X188675403Y-94153582D01*
X188661543Y-94158541D01*
X188647264Y-94162118D01*
X188632703Y-94164278D01*
X188618000Y-94165000D01*
X188318000Y-94165000D01*
X188303297Y-94164278D01*
X188288736Y-94162118D01*
X188274457Y-94158541D01*
X188260597Y-94153582D01*
X188247290Y-94147288D01*
X188234664Y-94139720D01*
X188222841Y-94130952D01*
X188211934Y-94121066D01*
X188202048Y-94110159D01*
X188193280Y-94098336D01*
X188185712Y-94085710D01*
X188179418Y-94072403D01*
X188174459Y-94058543D01*
X188170882Y-94044264D01*
X188168722Y-94029703D01*
X188168000Y-94015000D01*
X188168000Y-92265000D01*
X188168722Y-92250297D01*
X188170882Y-92235736D01*
X188174459Y-92221457D01*
X188179418Y-92207597D01*
X188185712Y-92194290D01*
X188193280Y-92181664D01*
X188202048Y-92169841D01*
X188211934Y-92158934D01*
X188222841Y-92149048D01*
X188234664Y-92140280D01*
X188247290Y-92132712D01*
X188260597Y-92126418D01*
X188274457Y-92121459D01*
X188288736Y-92117882D01*
X188303297Y-92115722D01*
X188318000Y-92115000D01*
X188618000Y-92115000D01*
X188632703Y-92115722D01*
X188632703Y-92115722D01*
G37*
D11*
X188468000Y-93140000D03*
D10*
G36*
X188632703Y-101415722D02*
G01*
X188647264Y-101417882D01*
X188661543Y-101421459D01*
X188675403Y-101426418D01*
X188688710Y-101432712D01*
X188701336Y-101440280D01*
X188713159Y-101449048D01*
X188724066Y-101458934D01*
X188733952Y-101469841D01*
X188742720Y-101481664D01*
X188750288Y-101494290D01*
X188756582Y-101507597D01*
X188761541Y-101521457D01*
X188765118Y-101535736D01*
X188767278Y-101550297D01*
X188768000Y-101565000D01*
X188768000Y-103315000D01*
X188767278Y-103329703D01*
X188765118Y-103344264D01*
X188761541Y-103358543D01*
X188756582Y-103372403D01*
X188750288Y-103385710D01*
X188742720Y-103398336D01*
X188733952Y-103410159D01*
X188724066Y-103421066D01*
X188713159Y-103430952D01*
X188701336Y-103439720D01*
X188688710Y-103447288D01*
X188675403Y-103453582D01*
X188661543Y-103458541D01*
X188647264Y-103462118D01*
X188632703Y-103464278D01*
X188618000Y-103465000D01*
X188318000Y-103465000D01*
X188303297Y-103464278D01*
X188288736Y-103462118D01*
X188274457Y-103458541D01*
X188260597Y-103453582D01*
X188247290Y-103447288D01*
X188234664Y-103439720D01*
X188222841Y-103430952D01*
X188211934Y-103421066D01*
X188202048Y-103410159D01*
X188193280Y-103398336D01*
X188185712Y-103385710D01*
X188179418Y-103372403D01*
X188174459Y-103358543D01*
X188170882Y-103344264D01*
X188168722Y-103329703D01*
X188168000Y-103315000D01*
X188168000Y-101565000D01*
X188168722Y-101550297D01*
X188170882Y-101535736D01*
X188174459Y-101521457D01*
X188179418Y-101507597D01*
X188185712Y-101494290D01*
X188193280Y-101481664D01*
X188202048Y-101469841D01*
X188211934Y-101458934D01*
X188222841Y-101449048D01*
X188234664Y-101440280D01*
X188247290Y-101432712D01*
X188260597Y-101426418D01*
X188274457Y-101421459D01*
X188288736Y-101417882D01*
X188303297Y-101415722D01*
X188318000Y-101415000D01*
X188618000Y-101415000D01*
X188632703Y-101415722D01*
X188632703Y-101415722D01*
G37*
D11*
X188468000Y-102440000D03*
D10*
G36*
X187362703Y-101415722D02*
G01*
X187377264Y-101417882D01*
X187391543Y-101421459D01*
X187405403Y-101426418D01*
X187418710Y-101432712D01*
X187431336Y-101440280D01*
X187443159Y-101449048D01*
X187454066Y-101458934D01*
X187463952Y-101469841D01*
X187472720Y-101481664D01*
X187480288Y-101494290D01*
X187486582Y-101507597D01*
X187491541Y-101521457D01*
X187495118Y-101535736D01*
X187497278Y-101550297D01*
X187498000Y-101565000D01*
X187498000Y-103315000D01*
X187497278Y-103329703D01*
X187495118Y-103344264D01*
X187491541Y-103358543D01*
X187486582Y-103372403D01*
X187480288Y-103385710D01*
X187472720Y-103398336D01*
X187463952Y-103410159D01*
X187454066Y-103421066D01*
X187443159Y-103430952D01*
X187431336Y-103439720D01*
X187418710Y-103447288D01*
X187405403Y-103453582D01*
X187391543Y-103458541D01*
X187377264Y-103462118D01*
X187362703Y-103464278D01*
X187348000Y-103465000D01*
X187048000Y-103465000D01*
X187033297Y-103464278D01*
X187018736Y-103462118D01*
X187004457Y-103458541D01*
X186990597Y-103453582D01*
X186977290Y-103447288D01*
X186964664Y-103439720D01*
X186952841Y-103430952D01*
X186941934Y-103421066D01*
X186932048Y-103410159D01*
X186923280Y-103398336D01*
X186915712Y-103385710D01*
X186909418Y-103372403D01*
X186904459Y-103358543D01*
X186900882Y-103344264D01*
X186898722Y-103329703D01*
X186898000Y-103315000D01*
X186898000Y-101565000D01*
X186898722Y-101550297D01*
X186900882Y-101535736D01*
X186904459Y-101521457D01*
X186909418Y-101507597D01*
X186915712Y-101494290D01*
X186923280Y-101481664D01*
X186932048Y-101469841D01*
X186941934Y-101458934D01*
X186952841Y-101449048D01*
X186964664Y-101440280D01*
X186977290Y-101432712D01*
X186990597Y-101426418D01*
X187004457Y-101421459D01*
X187018736Y-101417882D01*
X187033297Y-101415722D01*
X187048000Y-101415000D01*
X187348000Y-101415000D01*
X187362703Y-101415722D01*
X187362703Y-101415722D01*
G37*
D11*
X187198000Y-102440000D03*
D10*
G36*
X186092703Y-101415722D02*
G01*
X186107264Y-101417882D01*
X186121543Y-101421459D01*
X186135403Y-101426418D01*
X186148710Y-101432712D01*
X186161336Y-101440280D01*
X186173159Y-101449048D01*
X186184066Y-101458934D01*
X186193952Y-101469841D01*
X186202720Y-101481664D01*
X186210288Y-101494290D01*
X186216582Y-101507597D01*
X186221541Y-101521457D01*
X186225118Y-101535736D01*
X186227278Y-101550297D01*
X186228000Y-101565000D01*
X186228000Y-103315000D01*
X186227278Y-103329703D01*
X186225118Y-103344264D01*
X186221541Y-103358543D01*
X186216582Y-103372403D01*
X186210288Y-103385710D01*
X186202720Y-103398336D01*
X186193952Y-103410159D01*
X186184066Y-103421066D01*
X186173159Y-103430952D01*
X186161336Y-103439720D01*
X186148710Y-103447288D01*
X186135403Y-103453582D01*
X186121543Y-103458541D01*
X186107264Y-103462118D01*
X186092703Y-103464278D01*
X186078000Y-103465000D01*
X185778000Y-103465000D01*
X185763297Y-103464278D01*
X185748736Y-103462118D01*
X185734457Y-103458541D01*
X185720597Y-103453582D01*
X185707290Y-103447288D01*
X185694664Y-103439720D01*
X185682841Y-103430952D01*
X185671934Y-103421066D01*
X185662048Y-103410159D01*
X185653280Y-103398336D01*
X185645712Y-103385710D01*
X185639418Y-103372403D01*
X185634459Y-103358543D01*
X185630882Y-103344264D01*
X185628722Y-103329703D01*
X185628000Y-103315000D01*
X185628000Y-101565000D01*
X185628722Y-101550297D01*
X185630882Y-101535736D01*
X185634459Y-101521457D01*
X185639418Y-101507597D01*
X185645712Y-101494290D01*
X185653280Y-101481664D01*
X185662048Y-101469841D01*
X185671934Y-101458934D01*
X185682841Y-101449048D01*
X185694664Y-101440280D01*
X185707290Y-101432712D01*
X185720597Y-101426418D01*
X185734457Y-101421459D01*
X185748736Y-101417882D01*
X185763297Y-101415722D01*
X185778000Y-101415000D01*
X186078000Y-101415000D01*
X186092703Y-101415722D01*
X186092703Y-101415722D01*
G37*
D11*
X185928000Y-102440000D03*
D10*
G36*
X184822703Y-101415722D02*
G01*
X184837264Y-101417882D01*
X184851543Y-101421459D01*
X184865403Y-101426418D01*
X184878710Y-101432712D01*
X184891336Y-101440280D01*
X184903159Y-101449048D01*
X184914066Y-101458934D01*
X184923952Y-101469841D01*
X184932720Y-101481664D01*
X184940288Y-101494290D01*
X184946582Y-101507597D01*
X184951541Y-101521457D01*
X184955118Y-101535736D01*
X184957278Y-101550297D01*
X184958000Y-101565000D01*
X184958000Y-103315000D01*
X184957278Y-103329703D01*
X184955118Y-103344264D01*
X184951541Y-103358543D01*
X184946582Y-103372403D01*
X184940288Y-103385710D01*
X184932720Y-103398336D01*
X184923952Y-103410159D01*
X184914066Y-103421066D01*
X184903159Y-103430952D01*
X184891336Y-103439720D01*
X184878710Y-103447288D01*
X184865403Y-103453582D01*
X184851543Y-103458541D01*
X184837264Y-103462118D01*
X184822703Y-103464278D01*
X184808000Y-103465000D01*
X184508000Y-103465000D01*
X184493297Y-103464278D01*
X184478736Y-103462118D01*
X184464457Y-103458541D01*
X184450597Y-103453582D01*
X184437290Y-103447288D01*
X184424664Y-103439720D01*
X184412841Y-103430952D01*
X184401934Y-103421066D01*
X184392048Y-103410159D01*
X184383280Y-103398336D01*
X184375712Y-103385710D01*
X184369418Y-103372403D01*
X184364459Y-103358543D01*
X184360882Y-103344264D01*
X184358722Y-103329703D01*
X184358000Y-103315000D01*
X184358000Y-101565000D01*
X184358722Y-101550297D01*
X184360882Y-101535736D01*
X184364459Y-101521457D01*
X184369418Y-101507597D01*
X184375712Y-101494290D01*
X184383280Y-101481664D01*
X184392048Y-101469841D01*
X184401934Y-101458934D01*
X184412841Y-101449048D01*
X184424664Y-101440280D01*
X184437290Y-101432712D01*
X184450597Y-101426418D01*
X184464457Y-101421459D01*
X184478736Y-101417882D01*
X184493297Y-101415722D01*
X184508000Y-101415000D01*
X184808000Y-101415000D01*
X184822703Y-101415722D01*
X184822703Y-101415722D01*
G37*
D11*
X184658000Y-102440000D03*
D10*
G36*
X183552703Y-101415722D02*
G01*
X183567264Y-101417882D01*
X183581543Y-101421459D01*
X183595403Y-101426418D01*
X183608710Y-101432712D01*
X183621336Y-101440280D01*
X183633159Y-101449048D01*
X183644066Y-101458934D01*
X183653952Y-101469841D01*
X183662720Y-101481664D01*
X183670288Y-101494290D01*
X183676582Y-101507597D01*
X183681541Y-101521457D01*
X183685118Y-101535736D01*
X183687278Y-101550297D01*
X183688000Y-101565000D01*
X183688000Y-103315000D01*
X183687278Y-103329703D01*
X183685118Y-103344264D01*
X183681541Y-103358543D01*
X183676582Y-103372403D01*
X183670288Y-103385710D01*
X183662720Y-103398336D01*
X183653952Y-103410159D01*
X183644066Y-103421066D01*
X183633159Y-103430952D01*
X183621336Y-103439720D01*
X183608710Y-103447288D01*
X183595403Y-103453582D01*
X183581543Y-103458541D01*
X183567264Y-103462118D01*
X183552703Y-103464278D01*
X183538000Y-103465000D01*
X183238000Y-103465000D01*
X183223297Y-103464278D01*
X183208736Y-103462118D01*
X183194457Y-103458541D01*
X183180597Y-103453582D01*
X183167290Y-103447288D01*
X183154664Y-103439720D01*
X183142841Y-103430952D01*
X183131934Y-103421066D01*
X183122048Y-103410159D01*
X183113280Y-103398336D01*
X183105712Y-103385710D01*
X183099418Y-103372403D01*
X183094459Y-103358543D01*
X183090882Y-103344264D01*
X183088722Y-103329703D01*
X183088000Y-103315000D01*
X183088000Y-101565000D01*
X183088722Y-101550297D01*
X183090882Y-101535736D01*
X183094459Y-101521457D01*
X183099418Y-101507597D01*
X183105712Y-101494290D01*
X183113280Y-101481664D01*
X183122048Y-101469841D01*
X183131934Y-101458934D01*
X183142841Y-101449048D01*
X183154664Y-101440280D01*
X183167290Y-101432712D01*
X183180597Y-101426418D01*
X183194457Y-101421459D01*
X183208736Y-101417882D01*
X183223297Y-101415722D01*
X183238000Y-101415000D01*
X183538000Y-101415000D01*
X183552703Y-101415722D01*
X183552703Y-101415722D01*
G37*
D11*
X183388000Y-102440000D03*
D10*
G36*
X182282703Y-101415722D02*
G01*
X182297264Y-101417882D01*
X182311543Y-101421459D01*
X182325403Y-101426418D01*
X182338710Y-101432712D01*
X182351336Y-101440280D01*
X182363159Y-101449048D01*
X182374066Y-101458934D01*
X182383952Y-101469841D01*
X182392720Y-101481664D01*
X182400288Y-101494290D01*
X182406582Y-101507597D01*
X182411541Y-101521457D01*
X182415118Y-101535736D01*
X182417278Y-101550297D01*
X182418000Y-101565000D01*
X182418000Y-103315000D01*
X182417278Y-103329703D01*
X182415118Y-103344264D01*
X182411541Y-103358543D01*
X182406582Y-103372403D01*
X182400288Y-103385710D01*
X182392720Y-103398336D01*
X182383952Y-103410159D01*
X182374066Y-103421066D01*
X182363159Y-103430952D01*
X182351336Y-103439720D01*
X182338710Y-103447288D01*
X182325403Y-103453582D01*
X182311543Y-103458541D01*
X182297264Y-103462118D01*
X182282703Y-103464278D01*
X182268000Y-103465000D01*
X181968000Y-103465000D01*
X181953297Y-103464278D01*
X181938736Y-103462118D01*
X181924457Y-103458541D01*
X181910597Y-103453582D01*
X181897290Y-103447288D01*
X181884664Y-103439720D01*
X181872841Y-103430952D01*
X181861934Y-103421066D01*
X181852048Y-103410159D01*
X181843280Y-103398336D01*
X181835712Y-103385710D01*
X181829418Y-103372403D01*
X181824459Y-103358543D01*
X181820882Y-103344264D01*
X181818722Y-103329703D01*
X181818000Y-103315000D01*
X181818000Y-101565000D01*
X181818722Y-101550297D01*
X181820882Y-101535736D01*
X181824459Y-101521457D01*
X181829418Y-101507597D01*
X181835712Y-101494290D01*
X181843280Y-101481664D01*
X181852048Y-101469841D01*
X181861934Y-101458934D01*
X181872841Y-101449048D01*
X181884664Y-101440280D01*
X181897290Y-101432712D01*
X181910597Y-101426418D01*
X181924457Y-101421459D01*
X181938736Y-101417882D01*
X181953297Y-101415722D01*
X181968000Y-101415000D01*
X182268000Y-101415000D01*
X182282703Y-101415722D01*
X182282703Y-101415722D01*
G37*
D11*
X182118000Y-102440000D03*
D10*
G36*
X181012703Y-101415722D02*
G01*
X181027264Y-101417882D01*
X181041543Y-101421459D01*
X181055403Y-101426418D01*
X181068710Y-101432712D01*
X181081336Y-101440280D01*
X181093159Y-101449048D01*
X181104066Y-101458934D01*
X181113952Y-101469841D01*
X181122720Y-101481664D01*
X181130288Y-101494290D01*
X181136582Y-101507597D01*
X181141541Y-101521457D01*
X181145118Y-101535736D01*
X181147278Y-101550297D01*
X181148000Y-101565000D01*
X181148000Y-103315000D01*
X181147278Y-103329703D01*
X181145118Y-103344264D01*
X181141541Y-103358543D01*
X181136582Y-103372403D01*
X181130288Y-103385710D01*
X181122720Y-103398336D01*
X181113952Y-103410159D01*
X181104066Y-103421066D01*
X181093159Y-103430952D01*
X181081336Y-103439720D01*
X181068710Y-103447288D01*
X181055403Y-103453582D01*
X181041543Y-103458541D01*
X181027264Y-103462118D01*
X181012703Y-103464278D01*
X180998000Y-103465000D01*
X180698000Y-103465000D01*
X180683297Y-103464278D01*
X180668736Y-103462118D01*
X180654457Y-103458541D01*
X180640597Y-103453582D01*
X180627290Y-103447288D01*
X180614664Y-103439720D01*
X180602841Y-103430952D01*
X180591934Y-103421066D01*
X180582048Y-103410159D01*
X180573280Y-103398336D01*
X180565712Y-103385710D01*
X180559418Y-103372403D01*
X180554459Y-103358543D01*
X180550882Y-103344264D01*
X180548722Y-103329703D01*
X180548000Y-103315000D01*
X180548000Y-101565000D01*
X180548722Y-101550297D01*
X180550882Y-101535736D01*
X180554459Y-101521457D01*
X180559418Y-101507597D01*
X180565712Y-101494290D01*
X180573280Y-101481664D01*
X180582048Y-101469841D01*
X180591934Y-101458934D01*
X180602841Y-101449048D01*
X180614664Y-101440280D01*
X180627290Y-101432712D01*
X180640597Y-101426418D01*
X180654457Y-101421459D01*
X180668736Y-101417882D01*
X180683297Y-101415722D01*
X180698000Y-101415000D01*
X180998000Y-101415000D01*
X181012703Y-101415722D01*
X181012703Y-101415722D01*
G37*
D11*
X180848000Y-102440000D03*
D10*
G36*
X179742703Y-101415722D02*
G01*
X179757264Y-101417882D01*
X179771543Y-101421459D01*
X179785403Y-101426418D01*
X179798710Y-101432712D01*
X179811336Y-101440280D01*
X179823159Y-101449048D01*
X179834066Y-101458934D01*
X179843952Y-101469841D01*
X179852720Y-101481664D01*
X179860288Y-101494290D01*
X179866582Y-101507597D01*
X179871541Y-101521457D01*
X179875118Y-101535736D01*
X179877278Y-101550297D01*
X179878000Y-101565000D01*
X179878000Y-103315000D01*
X179877278Y-103329703D01*
X179875118Y-103344264D01*
X179871541Y-103358543D01*
X179866582Y-103372403D01*
X179860288Y-103385710D01*
X179852720Y-103398336D01*
X179843952Y-103410159D01*
X179834066Y-103421066D01*
X179823159Y-103430952D01*
X179811336Y-103439720D01*
X179798710Y-103447288D01*
X179785403Y-103453582D01*
X179771543Y-103458541D01*
X179757264Y-103462118D01*
X179742703Y-103464278D01*
X179728000Y-103465000D01*
X179428000Y-103465000D01*
X179413297Y-103464278D01*
X179398736Y-103462118D01*
X179384457Y-103458541D01*
X179370597Y-103453582D01*
X179357290Y-103447288D01*
X179344664Y-103439720D01*
X179332841Y-103430952D01*
X179321934Y-103421066D01*
X179312048Y-103410159D01*
X179303280Y-103398336D01*
X179295712Y-103385710D01*
X179289418Y-103372403D01*
X179284459Y-103358543D01*
X179280882Y-103344264D01*
X179278722Y-103329703D01*
X179278000Y-103315000D01*
X179278000Y-101565000D01*
X179278722Y-101550297D01*
X179280882Y-101535736D01*
X179284459Y-101521457D01*
X179289418Y-101507597D01*
X179295712Y-101494290D01*
X179303280Y-101481664D01*
X179312048Y-101469841D01*
X179321934Y-101458934D01*
X179332841Y-101449048D01*
X179344664Y-101440280D01*
X179357290Y-101432712D01*
X179370597Y-101426418D01*
X179384457Y-101421459D01*
X179398736Y-101417882D01*
X179413297Y-101415722D01*
X179428000Y-101415000D01*
X179728000Y-101415000D01*
X179742703Y-101415722D01*
X179742703Y-101415722D01*
G37*
D11*
X179578000Y-102440000D03*
D10*
G36*
X178472703Y-101415722D02*
G01*
X178487264Y-101417882D01*
X178501543Y-101421459D01*
X178515403Y-101426418D01*
X178528710Y-101432712D01*
X178541336Y-101440280D01*
X178553159Y-101449048D01*
X178564066Y-101458934D01*
X178573952Y-101469841D01*
X178582720Y-101481664D01*
X178590288Y-101494290D01*
X178596582Y-101507597D01*
X178601541Y-101521457D01*
X178605118Y-101535736D01*
X178607278Y-101550297D01*
X178608000Y-101565000D01*
X178608000Y-103315000D01*
X178607278Y-103329703D01*
X178605118Y-103344264D01*
X178601541Y-103358543D01*
X178596582Y-103372403D01*
X178590288Y-103385710D01*
X178582720Y-103398336D01*
X178573952Y-103410159D01*
X178564066Y-103421066D01*
X178553159Y-103430952D01*
X178541336Y-103439720D01*
X178528710Y-103447288D01*
X178515403Y-103453582D01*
X178501543Y-103458541D01*
X178487264Y-103462118D01*
X178472703Y-103464278D01*
X178458000Y-103465000D01*
X178158000Y-103465000D01*
X178143297Y-103464278D01*
X178128736Y-103462118D01*
X178114457Y-103458541D01*
X178100597Y-103453582D01*
X178087290Y-103447288D01*
X178074664Y-103439720D01*
X178062841Y-103430952D01*
X178051934Y-103421066D01*
X178042048Y-103410159D01*
X178033280Y-103398336D01*
X178025712Y-103385710D01*
X178019418Y-103372403D01*
X178014459Y-103358543D01*
X178010882Y-103344264D01*
X178008722Y-103329703D01*
X178008000Y-103315000D01*
X178008000Y-101565000D01*
X178008722Y-101550297D01*
X178010882Y-101535736D01*
X178014459Y-101521457D01*
X178019418Y-101507597D01*
X178025712Y-101494290D01*
X178033280Y-101481664D01*
X178042048Y-101469841D01*
X178051934Y-101458934D01*
X178062841Y-101449048D01*
X178074664Y-101440280D01*
X178087290Y-101432712D01*
X178100597Y-101426418D01*
X178114457Y-101421459D01*
X178128736Y-101417882D01*
X178143297Y-101415722D01*
X178158000Y-101415000D01*
X178458000Y-101415000D01*
X178472703Y-101415722D01*
X178472703Y-101415722D01*
G37*
D11*
X178308000Y-102440000D03*
D10*
G36*
X177202703Y-101415722D02*
G01*
X177217264Y-101417882D01*
X177231543Y-101421459D01*
X177245403Y-101426418D01*
X177258710Y-101432712D01*
X177271336Y-101440280D01*
X177283159Y-101449048D01*
X177294066Y-101458934D01*
X177303952Y-101469841D01*
X177312720Y-101481664D01*
X177320288Y-101494290D01*
X177326582Y-101507597D01*
X177331541Y-101521457D01*
X177335118Y-101535736D01*
X177337278Y-101550297D01*
X177338000Y-101565000D01*
X177338000Y-103315000D01*
X177337278Y-103329703D01*
X177335118Y-103344264D01*
X177331541Y-103358543D01*
X177326582Y-103372403D01*
X177320288Y-103385710D01*
X177312720Y-103398336D01*
X177303952Y-103410159D01*
X177294066Y-103421066D01*
X177283159Y-103430952D01*
X177271336Y-103439720D01*
X177258710Y-103447288D01*
X177245403Y-103453582D01*
X177231543Y-103458541D01*
X177217264Y-103462118D01*
X177202703Y-103464278D01*
X177188000Y-103465000D01*
X176888000Y-103465000D01*
X176873297Y-103464278D01*
X176858736Y-103462118D01*
X176844457Y-103458541D01*
X176830597Y-103453582D01*
X176817290Y-103447288D01*
X176804664Y-103439720D01*
X176792841Y-103430952D01*
X176781934Y-103421066D01*
X176772048Y-103410159D01*
X176763280Y-103398336D01*
X176755712Y-103385710D01*
X176749418Y-103372403D01*
X176744459Y-103358543D01*
X176740882Y-103344264D01*
X176738722Y-103329703D01*
X176738000Y-103315000D01*
X176738000Y-101565000D01*
X176738722Y-101550297D01*
X176740882Y-101535736D01*
X176744459Y-101521457D01*
X176749418Y-101507597D01*
X176755712Y-101494290D01*
X176763280Y-101481664D01*
X176772048Y-101469841D01*
X176781934Y-101458934D01*
X176792841Y-101449048D01*
X176804664Y-101440280D01*
X176817290Y-101432712D01*
X176830597Y-101426418D01*
X176844457Y-101421459D01*
X176858736Y-101417882D01*
X176873297Y-101415722D01*
X176888000Y-101415000D01*
X177188000Y-101415000D01*
X177202703Y-101415722D01*
X177202703Y-101415722D01*
G37*
D11*
X177038000Y-102440000D03*
D10*
G36*
X182028703Y-115803722D02*
G01*
X182043264Y-115805882D01*
X182057543Y-115809459D01*
X182071403Y-115814418D01*
X182084710Y-115820712D01*
X182097336Y-115828280D01*
X182109159Y-115837048D01*
X182120066Y-115846934D01*
X182129952Y-115857841D01*
X182138720Y-115869664D01*
X182146288Y-115882290D01*
X182152582Y-115895597D01*
X182157541Y-115909457D01*
X182161118Y-115923736D01*
X182163278Y-115938297D01*
X182164000Y-115953000D01*
X182164000Y-117603000D01*
X182163278Y-117617703D01*
X182161118Y-117632264D01*
X182157541Y-117646543D01*
X182152582Y-117660403D01*
X182146288Y-117673710D01*
X182138720Y-117686336D01*
X182129952Y-117698159D01*
X182120066Y-117709066D01*
X182109159Y-117718952D01*
X182097336Y-117727720D01*
X182084710Y-117735288D01*
X182071403Y-117741582D01*
X182057543Y-117746541D01*
X182043264Y-117750118D01*
X182028703Y-117752278D01*
X182014000Y-117753000D01*
X181714000Y-117753000D01*
X181699297Y-117752278D01*
X181684736Y-117750118D01*
X181670457Y-117746541D01*
X181656597Y-117741582D01*
X181643290Y-117735288D01*
X181630664Y-117727720D01*
X181618841Y-117718952D01*
X181607934Y-117709066D01*
X181598048Y-117698159D01*
X181589280Y-117686336D01*
X181581712Y-117673710D01*
X181575418Y-117660403D01*
X181570459Y-117646543D01*
X181566882Y-117632264D01*
X181564722Y-117617703D01*
X181564000Y-117603000D01*
X181564000Y-115953000D01*
X181564722Y-115938297D01*
X181566882Y-115923736D01*
X181570459Y-115909457D01*
X181575418Y-115895597D01*
X181581712Y-115882290D01*
X181589280Y-115869664D01*
X181598048Y-115857841D01*
X181607934Y-115846934D01*
X181618841Y-115837048D01*
X181630664Y-115828280D01*
X181643290Y-115820712D01*
X181656597Y-115814418D01*
X181670457Y-115809459D01*
X181684736Y-115805882D01*
X181699297Y-115803722D01*
X181714000Y-115803000D01*
X182014000Y-115803000D01*
X182028703Y-115803722D01*
X182028703Y-115803722D01*
G37*
D11*
X181864000Y-116778000D03*
D10*
G36*
X183298703Y-115803722D02*
G01*
X183313264Y-115805882D01*
X183327543Y-115809459D01*
X183341403Y-115814418D01*
X183354710Y-115820712D01*
X183367336Y-115828280D01*
X183379159Y-115837048D01*
X183390066Y-115846934D01*
X183399952Y-115857841D01*
X183408720Y-115869664D01*
X183416288Y-115882290D01*
X183422582Y-115895597D01*
X183427541Y-115909457D01*
X183431118Y-115923736D01*
X183433278Y-115938297D01*
X183434000Y-115953000D01*
X183434000Y-117603000D01*
X183433278Y-117617703D01*
X183431118Y-117632264D01*
X183427541Y-117646543D01*
X183422582Y-117660403D01*
X183416288Y-117673710D01*
X183408720Y-117686336D01*
X183399952Y-117698159D01*
X183390066Y-117709066D01*
X183379159Y-117718952D01*
X183367336Y-117727720D01*
X183354710Y-117735288D01*
X183341403Y-117741582D01*
X183327543Y-117746541D01*
X183313264Y-117750118D01*
X183298703Y-117752278D01*
X183284000Y-117753000D01*
X182984000Y-117753000D01*
X182969297Y-117752278D01*
X182954736Y-117750118D01*
X182940457Y-117746541D01*
X182926597Y-117741582D01*
X182913290Y-117735288D01*
X182900664Y-117727720D01*
X182888841Y-117718952D01*
X182877934Y-117709066D01*
X182868048Y-117698159D01*
X182859280Y-117686336D01*
X182851712Y-117673710D01*
X182845418Y-117660403D01*
X182840459Y-117646543D01*
X182836882Y-117632264D01*
X182834722Y-117617703D01*
X182834000Y-117603000D01*
X182834000Y-115953000D01*
X182834722Y-115938297D01*
X182836882Y-115923736D01*
X182840459Y-115909457D01*
X182845418Y-115895597D01*
X182851712Y-115882290D01*
X182859280Y-115869664D01*
X182868048Y-115857841D01*
X182877934Y-115846934D01*
X182888841Y-115837048D01*
X182900664Y-115828280D01*
X182913290Y-115820712D01*
X182926597Y-115814418D01*
X182940457Y-115809459D01*
X182954736Y-115805882D01*
X182969297Y-115803722D01*
X182984000Y-115803000D01*
X183284000Y-115803000D01*
X183298703Y-115803722D01*
X183298703Y-115803722D01*
G37*
D11*
X183134000Y-116778000D03*
D10*
G36*
X184568703Y-115803722D02*
G01*
X184583264Y-115805882D01*
X184597543Y-115809459D01*
X184611403Y-115814418D01*
X184624710Y-115820712D01*
X184637336Y-115828280D01*
X184649159Y-115837048D01*
X184660066Y-115846934D01*
X184669952Y-115857841D01*
X184678720Y-115869664D01*
X184686288Y-115882290D01*
X184692582Y-115895597D01*
X184697541Y-115909457D01*
X184701118Y-115923736D01*
X184703278Y-115938297D01*
X184704000Y-115953000D01*
X184704000Y-117603000D01*
X184703278Y-117617703D01*
X184701118Y-117632264D01*
X184697541Y-117646543D01*
X184692582Y-117660403D01*
X184686288Y-117673710D01*
X184678720Y-117686336D01*
X184669952Y-117698159D01*
X184660066Y-117709066D01*
X184649159Y-117718952D01*
X184637336Y-117727720D01*
X184624710Y-117735288D01*
X184611403Y-117741582D01*
X184597543Y-117746541D01*
X184583264Y-117750118D01*
X184568703Y-117752278D01*
X184554000Y-117753000D01*
X184254000Y-117753000D01*
X184239297Y-117752278D01*
X184224736Y-117750118D01*
X184210457Y-117746541D01*
X184196597Y-117741582D01*
X184183290Y-117735288D01*
X184170664Y-117727720D01*
X184158841Y-117718952D01*
X184147934Y-117709066D01*
X184138048Y-117698159D01*
X184129280Y-117686336D01*
X184121712Y-117673710D01*
X184115418Y-117660403D01*
X184110459Y-117646543D01*
X184106882Y-117632264D01*
X184104722Y-117617703D01*
X184104000Y-117603000D01*
X184104000Y-115953000D01*
X184104722Y-115938297D01*
X184106882Y-115923736D01*
X184110459Y-115909457D01*
X184115418Y-115895597D01*
X184121712Y-115882290D01*
X184129280Y-115869664D01*
X184138048Y-115857841D01*
X184147934Y-115846934D01*
X184158841Y-115837048D01*
X184170664Y-115828280D01*
X184183290Y-115820712D01*
X184196597Y-115814418D01*
X184210457Y-115809459D01*
X184224736Y-115805882D01*
X184239297Y-115803722D01*
X184254000Y-115803000D01*
X184554000Y-115803000D01*
X184568703Y-115803722D01*
X184568703Y-115803722D01*
G37*
D11*
X184404000Y-116778000D03*
D10*
G36*
X185838703Y-115803722D02*
G01*
X185853264Y-115805882D01*
X185867543Y-115809459D01*
X185881403Y-115814418D01*
X185894710Y-115820712D01*
X185907336Y-115828280D01*
X185919159Y-115837048D01*
X185930066Y-115846934D01*
X185939952Y-115857841D01*
X185948720Y-115869664D01*
X185956288Y-115882290D01*
X185962582Y-115895597D01*
X185967541Y-115909457D01*
X185971118Y-115923736D01*
X185973278Y-115938297D01*
X185974000Y-115953000D01*
X185974000Y-117603000D01*
X185973278Y-117617703D01*
X185971118Y-117632264D01*
X185967541Y-117646543D01*
X185962582Y-117660403D01*
X185956288Y-117673710D01*
X185948720Y-117686336D01*
X185939952Y-117698159D01*
X185930066Y-117709066D01*
X185919159Y-117718952D01*
X185907336Y-117727720D01*
X185894710Y-117735288D01*
X185881403Y-117741582D01*
X185867543Y-117746541D01*
X185853264Y-117750118D01*
X185838703Y-117752278D01*
X185824000Y-117753000D01*
X185524000Y-117753000D01*
X185509297Y-117752278D01*
X185494736Y-117750118D01*
X185480457Y-117746541D01*
X185466597Y-117741582D01*
X185453290Y-117735288D01*
X185440664Y-117727720D01*
X185428841Y-117718952D01*
X185417934Y-117709066D01*
X185408048Y-117698159D01*
X185399280Y-117686336D01*
X185391712Y-117673710D01*
X185385418Y-117660403D01*
X185380459Y-117646543D01*
X185376882Y-117632264D01*
X185374722Y-117617703D01*
X185374000Y-117603000D01*
X185374000Y-115953000D01*
X185374722Y-115938297D01*
X185376882Y-115923736D01*
X185380459Y-115909457D01*
X185385418Y-115895597D01*
X185391712Y-115882290D01*
X185399280Y-115869664D01*
X185408048Y-115857841D01*
X185417934Y-115846934D01*
X185428841Y-115837048D01*
X185440664Y-115828280D01*
X185453290Y-115820712D01*
X185466597Y-115814418D01*
X185480457Y-115809459D01*
X185494736Y-115805882D01*
X185509297Y-115803722D01*
X185524000Y-115803000D01*
X185824000Y-115803000D01*
X185838703Y-115803722D01*
X185838703Y-115803722D01*
G37*
D11*
X185674000Y-116778000D03*
D10*
G36*
X187108703Y-115803722D02*
G01*
X187123264Y-115805882D01*
X187137543Y-115809459D01*
X187151403Y-115814418D01*
X187164710Y-115820712D01*
X187177336Y-115828280D01*
X187189159Y-115837048D01*
X187200066Y-115846934D01*
X187209952Y-115857841D01*
X187218720Y-115869664D01*
X187226288Y-115882290D01*
X187232582Y-115895597D01*
X187237541Y-115909457D01*
X187241118Y-115923736D01*
X187243278Y-115938297D01*
X187244000Y-115953000D01*
X187244000Y-117603000D01*
X187243278Y-117617703D01*
X187241118Y-117632264D01*
X187237541Y-117646543D01*
X187232582Y-117660403D01*
X187226288Y-117673710D01*
X187218720Y-117686336D01*
X187209952Y-117698159D01*
X187200066Y-117709066D01*
X187189159Y-117718952D01*
X187177336Y-117727720D01*
X187164710Y-117735288D01*
X187151403Y-117741582D01*
X187137543Y-117746541D01*
X187123264Y-117750118D01*
X187108703Y-117752278D01*
X187094000Y-117753000D01*
X186794000Y-117753000D01*
X186779297Y-117752278D01*
X186764736Y-117750118D01*
X186750457Y-117746541D01*
X186736597Y-117741582D01*
X186723290Y-117735288D01*
X186710664Y-117727720D01*
X186698841Y-117718952D01*
X186687934Y-117709066D01*
X186678048Y-117698159D01*
X186669280Y-117686336D01*
X186661712Y-117673710D01*
X186655418Y-117660403D01*
X186650459Y-117646543D01*
X186646882Y-117632264D01*
X186644722Y-117617703D01*
X186644000Y-117603000D01*
X186644000Y-115953000D01*
X186644722Y-115938297D01*
X186646882Y-115923736D01*
X186650459Y-115909457D01*
X186655418Y-115895597D01*
X186661712Y-115882290D01*
X186669280Y-115869664D01*
X186678048Y-115857841D01*
X186687934Y-115846934D01*
X186698841Y-115837048D01*
X186710664Y-115828280D01*
X186723290Y-115820712D01*
X186736597Y-115814418D01*
X186750457Y-115809459D01*
X186764736Y-115805882D01*
X186779297Y-115803722D01*
X186794000Y-115803000D01*
X187094000Y-115803000D01*
X187108703Y-115803722D01*
X187108703Y-115803722D01*
G37*
D11*
X186944000Y-116778000D03*
D10*
G36*
X188378703Y-115803722D02*
G01*
X188393264Y-115805882D01*
X188407543Y-115809459D01*
X188421403Y-115814418D01*
X188434710Y-115820712D01*
X188447336Y-115828280D01*
X188459159Y-115837048D01*
X188470066Y-115846934D01*
X188479952Y-115857841D01*
X188488720Y-115869664D01*
X188496288Y-115882290D01*
X188502582Y-115895597D01*
X188507541Y-115909457D01*
X188511118Y-115923736D01*
X188513278Y-115938297D01*
X188514000Y-115953000D01*
X188514000Y-117603000D01*
X188513278Y-117617703D01*
X188511118Y-117632264D01*
X188507541Y-117646543D01*
X188502582Y-117660403D01*
X188496288Y-117673710D01*
X188488720Y-117686336D01*
X188479952Y-117698159D01*
X188470066Y-117709066D01*
X188459159Y-117718952D01*
X188447336Y-117727720D01*
X188434710Y-117735288D01*
X188421403Y-117741582D01*
X188407543Y-117746541D01*
X188393264Y-117750118D01*
X188378703Y-117752278D01*
X188364000Y-117753000D01*
X188064000Y-117753000D01*
X188049297Y-117752278D01*
X188034736Y-117750118D01*
X188020457Y-117746541D01*
X188006597Y-117741582D01*
X187993290Y-117735288D01*
X187980664Y-117727720D01*
X187968841Y-117718952D01*
X187957934Y-117709066D01*
X187948048Y-117698159D01*
X187939280Y-117686336D01*
X187931712Y-117673710D01*
X187925418Y-117660403D01*
X187920459Y-117646543D01*
X187916882Y-117632264D01*
X187914722Y-117617703D01*
X187914000Y-117603000D01*
X187914000Y-115953000D01*
X187914722Y-115938297D01*
X187916882Y-115923736D01*
X187920459Y-115909457D01*
X187925418Y-115895597D01*
X187931712Y-115882290D01*
X187939280Y-115869664D01*
X187948048Y-115857841D01*
X187957934Y-115846934D01*
X187968841Y-115837048D01*
X187980664Y-115828280D01*
X187993290Y-115820712D01*
X188006597Y-115814418D01*
X188020457Y-115809459D01*
X188034736Y-115805882D01*
X188049297Y-115803722D01*
X188064000Y-115803000D01*
X188364000Y-115803000D01*
X188378703Y-115803722D01*
X188378703Y-115803722D01*
G37*
D11*
X188214000Y-116778000D03*
D10*
G36*
X189648703Y-115803722D02*
G01*
X189663264Y-115805882D01*
X189677543Y-115809459D01*
X189691403Y-115814418D01*
X189704710Y-115820712D01*
X189717336Y-115828280D01*
X189729159Y-115837048D01*
X189740066Y-115846934D01*
X189749952Y-115857841D01*
X189758720Y-115869664D01*
X189766288Y-115882290D01*
X189772582Y-115895597D01*
X189777541Y-115909457D01*
X189781118Y-115923736D01*
X189783278Y-115938297D01*
X189784000Y-115953000D01*
X189784000Y-117603000D01*
X189783278Y-117617703D01*
X189781118Y-117632264D01*
X189777541Y-117646543D01*
X189772582Y-117660403D01*
X189766288Y-117673710D01*
X189758720Y-117686336D01*
X189749952Y-117698159D01*
X189740066Y-117709066D01*
X189729159Y-117718952D01*
X189717336Y-117727720D01*
X189704710Y-117735288D01*
X189691403Y-117741582D01*
X189677543Y-117746541D01*
X189663264Y-117750118D01*
X189648703Y-117752278D01*
X189634000Y-117753000D01*
X189334000Y-117753000D01*
X189319297Y-117752278D01*
X189304736Y-117750118D01*
X189290457Y-117746541D01*
X189276597Y-117741582D01*
X189263290Y-117735288D01*
X189250664Y-117727720D01*
X189238841Y-117718952D01*
X189227934Y-117709066D01*
X189218048Y-117698159D01*
X189209280Y-117686336D01*
X189201712Y-117673710D01*
X189195418Y-117660403D01*
X189190459Y-117646543D01*
X189186882Y-117632264D01*
X189184722Y-117617703D01*
X189184000Y-117603000D01*
X189184000Y-115953000D01*
X189184722Y-115938297D01*
X189186882Y-115923736D01*
X189190459Y-115909457D01*
X189195418Y-115895597D01*
X189201712Y-115882290D01*
X189209280Y-115869664D01*
X189218048Y-115857841D01*
X189227934Y-115846934D01*
X189238841Y-115837048D01*
X189250664Y-115828280D01*
X189263290Y-115820712D01*
X189276597Y-115814418D01*
X189290457Y-115809459D01*
X189304736Y-115805882D01*
X189319297Y-115803722D01*
X189334000Y-115803000D01*
X189634000Y-115803000D01*
X189648703Y-115803722D01*
X189648703Y-115803722D01*
G37*
D11*
X189484000Y-116778000D03*
D10*
G36*
X189648703Y-120753722D02*
G01*
X189663264Y-120755882D01*
X189677543Y-120759459D01*
X189691403Y-120764418D01*
X189704710Y-120770712D01*
X189717336Y-120778280D01*
X189729159Y-120787048D01*
X189740066Y-120796934D01*
X189749952Y-120807841D01*
X189758720Y-120819664D01*
X189766288Y-120832290D01*
X189772582Y-120845597D01*
X189777541Y-120859457D01*
X189781118Y-120873736D01*
X189783278Y-120888297D01*
X189784000Y-120903000D01*
X189784000Y-122553000D01*
X189783278Y-122567703D01*
X189781118Y-122582264D01*
X189777541Y-122596543D01*
X189772582Y-122610403D01*
X189766288Y-122623710D01*
X189758720Y-122636336D01*
X189749952Y-122648159D01*
X189740066Y-122659066D01*
X189729159Y-122668952D01*
X189717336Y-122677720D01*
X189704710Y-122685288D01*
X189691403Y-122691582D01*
X189677543Y-122696541D01*
X189663264Y-122700118D01*
X189648703Y-122702278D01*
X189634000Y-122703000D01*
X189334000Y-122703000D01*
X189319297Y-122702278D01*
X189304736Y-122700118D01*
X189290457Y-122696541D01*
X189276597Y-122691582D01*
X189263290Y-122685288D01*
X189250664Y-122677720D01*
X189238841Y-122668952D01*
X189227934Y-122659066D01*
X189218048Y-122648159D01*
X189209280Y-122636336D01*
X189201712Y-122623710D01*
X189195418Y-122610403D01*
X189190459Y-122596543D01*
X189186882Y-122582264D01*
X189184722Y-122567703D01*
X189184000Y-122553000D01*
X189184000Y-120903000D01*
X189184722Y-120888297D01*
X189186882Y-120873736D01*
X189190459Y-120859457D01*
X189195418Y-120845597D01*
X189201712Y-120832290D01*
X189209280Y-120819664D01*
X189218048Y-120807841D01*
X189227934Y-120796934D01*
X189238841Y-120787048D01*
X189250664Y-120778280D01*
X189263290Y-120770712D01*
X189276597Y-120764418D01*
X189290457Y-120759459D01*
X189304736Y-120755882D01*
X189319297Y-120753722D01*
X189334000Y-120753000D01*
X189634000Y-120753000D01*
X189648703Y-120753722D01*
X189648703Y-120753722D01*
G37*
D11*
X189484000Y-121728000D03*
D10*
G36*
X188378703Y-120753722D02*
G01*
X188393264Y-120755882D01*
X188407543Y-120759459D01*
X188421403Y-120764418D01*
X188434710Y-120770712D01*
X188447336Y-120778280D01*
X188459159Y-120787048D01*
X188470066Y-120796934D01*
X188479952Y-120807841D01*
X188488720Y-120819664D01*
X188496288Y-120832290D01*
X188502582Y-120845597D01*
X188507541Y-120859457D01*
X188511118Y-120873736D01*
X188513278Y-120888297D01*
X188514000Y-120903000D01*
X188514000Y-122553000D01*
X188513278Y-122567703D01*
X188511118Y-122582264D01*
X188507541Y-122596543D01*
X188502582Y-122610403D01*
X188496288Y-122623710D01*
X188488720Y-122636336D01*
X188479952Y-122648159D01*
X188470066Y-122659066D01*
X188459159Y-122668952D01*
X188447336Y-122677720D01*
X188434710Y-122685288D01*
X188421403Y-122691582D01*
X188407543Y-122696541D01*
X188393264Y-122700118D01*
X188378703Y-122702278D01*
X188364000Y-122703000D01*
X188064000Y-122703000D01*
X188049297Y-122702278D01*
X188034736Y-122700118D01*
X188020457Y-122696541D01*
X188006597Y-122691582D01*
X187993290Y-122685288D01*
X187980664Y-122677720D01*
X187968841Y-122668952D01*
X187957934Y-122659066D01*
X187948048Y-122648159D01*
X187939280Y-122636336D01*
X187931712Y-122623710D01*
X187925418Y-122610403D01*
X187920459Y-122596543D01*
X187916882Y-122582264D01*
X187914722Y-122567703D01*
X187914000Y-122553000D01*
X187914000Y-120903000D01*
X187914722Y-120888297D01*
X187916882Y-120873736D01*
X187920459Y-120859457D01*
X187925418Y-120845597D01*
X187931712Y-120832290D01*
X187939280Y-120819664D01*
X187948048Y-120807841D01*
X187957934Y-120796934D01*
X187968841Y-120787048D01*
X187980664Y-120778280D01*
X187993290Y-120770712D01*
X188006597Y-120764418D01*
X188020457Y-120759459D01*
X188034736Y-120755882D01*
X188049297Y-120753722D01*
X188064000Y-120753000D01*
X188364000Y-120753000D01*
X188378703Y-120753722D01*
X188378703Y-120753722D01*
G37*
D11*
X188214000Y-121728000D03*
D10*
G36*
X187108703Y-120753722D02*
G01*
X187123264Y-120755882D01*
X187137543Y-120759459D01*
X187151403Y-120764418D01*
X187164710Y-120770712D01*
X187177336Y-120778280D01*
X187189159Y-120787048D01*
X187200066Y-120796934D01*
X187209952Y-120807841D01*
X187218720Y-120819664D01*
X187226288Y-120832290D01*
X187232582Y-120845597D01*
X187237541Y-120859457D01*
X187241118Y-120873736D01*
X187243278Y-120888297D01*
X187244000Y-120903000D01*
X187244000Y-122553000D01*
X187243278Y-122567703D01*
X187241118Y-122582264D01*
X187237541Y-122596543D01*
X187232582Y-122610403D01*
X187226288Y-122623710D01*
X187218720Y-122636336D01*
X187209952Y-122648159D01*
X187200066Y-122659066D01*
X187189159Y-122668952D01*
X187177336Y-122677720D01*
X187164710Y-122685288D01*
X187151403Y-122691582D01*
X187137543Y-122696541D01*
X187123264Y-122700118D01*
X187108703Y-122702278D01*
X187094000Y-122703000D01*
X186794000Y-122703000D01*
X186779297Y-122702278D01*
X186764736Y-122700118D01*
X186750457Y-122696541D01*
X186736597Y-122691582D01*
X186723290Y-122685288D01*
X186710664Y-122677720D01*
X186698841Y-122668952D01*
X186687934Y-122659066D01*
X186678048Y-122648159D01*
X186669280Y-122636336D01*
X186661712Y-122623710D01*
X186655418Y-122610403D01*
X186650459Y-122596543D01*
X186646882Y-122582264D01*
X186644722Y-122567703D01*
X186644000Y-122553000D01*
X186644000Y-120903000D01*
X186644722Y-120888297D01*
X186646882Y-120873736D01*
X186650459Y-120859457D01*
X186655418Y-120845597D01*
X186661712Y-120832290D01*
X186669280Y-120819664D01*
X186678048Y-120807841D01*
X186687934Y-120796934D01*
X186698841Y-120787048D01*
X186710664Y-120778280D01*
X186723290Y-120770712D01*
X186736597Y-120764418D01*
X186750457Y-120759459D01*
X186764736Y-120755882D01*
X186779297Y-120753722D01*
X186794000Y-120753000D01*
X187094000Y-120753000D01*
X187108703Y-120753722D01*
X187108703Y-120753722D01*
G37*
D11*
X186944000Y-121728000D03*
D10*
G36*
X185838703Y-120753722D02*
G01*
X185853264Y-120755882D01*
X185867543Y-120759459D01*
X185881403Y-120764418D01*
X185894710Y-120770712D01*
X185907336Y-120778280D01*
X185919159Y-120787048D01*
X185930066Y-120796934D01*
X185939952Y-120807841D01*
X185948720Y-120819664D01*
X185956288Y-120832290D01*
X185962582Y-120845597D01*
X185967541Y-120859457D01*
X185971118Y-120873736D01*
X185973278Y-120888297D01*
X185974000Y-120903000D01*
X185974000Y-122553000D01*
X185973278Y-122567703D01*
X185971118Y-122582264D01*
X185967541Y-122596543D01*
X185962582Y-122610403D01*
X185956288Y-122623710D01*
X185948720Y-122636336D01*
X185939952Y-122648159D01*
X185930066Y-122659066D01*
X185919159Y-122668952D01*
X185907336Y-122677720D01*
X185894710Y-122685288D01*
X185881403Y-122691582D01*
X185867543Y-122696541D01*
X185853264Y-122700118D01*
X185838703Y-122702278D01*
X185824000Y-122703000D01*
X185524000Y-122703000D01*
X185509297Y-122702278D01*
X185494736Y-122700118D01*
X185480457Y-122696541D01*
X185466597Y-122691582D01*
X185453290Y-122685288D01*
X185440664Y-122677720D01*
X185428841Y-122668952D01*
X185417934Y-122659066D01*
X185408048Y-122648159D01*
X185399280Y-122636336D01*
X185391712Y-122623710D01*
X185385418Y-122610403D01*
X185380459Y-122596543D01*
X185376882Y-122582264D01*
X185374722Y-122567703D01*
X185374000Y-122553000D01*
X185374000Y-120903000D01*
X185374722Y-120888297D01*
X185376882Y-120873736D01*
X185380459Y-120859457D01*
X185385418Y-120845597D01*
X185391712Y-120832290D01*
X185399280Y-120819664D01*
X185408048Y-120807841D01*
X185417934Y-120796934D01*
X185428841Y-120787048D01*
X185440664Y-120778280D01*
X185453290Y-120770712D01*
X185466597Y-120764418D01*
X185480457Y-120759459D01*
X185494736Y-120755882D01*
X185509297Y-120753722D01*
X185524000Y-120753000D01*
X185824000Y-120753000D01*
X185838703Y-120753722D01*
X185838703Y-120753722D01*
G37*
D11*
X185674000Y-121728000D03*
D10*
G36*
X184568703Y-120753722D02*
G01*
X184583264Y-120755882D01*
X184597543Y-120759459D01*
X184611403Y-120764418D01*
X184624710Y-120770712D01*
X184637336Y-120778280D01*
X184649159Y-120787048D01*
X184660066Y-120796934D01*
X184669952Y-120807841D01*
X184678720Y-120819664D01*
X184686288Y-120832290D01*
X184692582Y-120845597D01*
X184697541Y-120859457D01*
X184701118Y-120873736D01*
X184703278Y-120888297D01*
X184704000Y-120903000D01*
X184704000Y-122553000D01*
X184703278Y-122567703D01*
X184701118Y-122582264D01*
X184697541Y-122596543D01*
X184692582Y-122610403D01*
X184686288Y-122623710D01*
X184678720Y-122636336D01*
X184669952Y-122648159D01*
X184660066Y-122659066D01*
X184649159Y-122668952D01*
X184637336Y-122677720D01*
X184624710Y-122685288D01*
X184611403Y-122691582D01*
X184597543Y-122696541D01*
X184583264Y-122700118D01*
X184568703Y-122702278D01*
X184554000Y-122703000D01*
X184254000Y-122703000D01*
X184239297Y-122702278D01*
X184224736Y-122700118D01*
X184210457Y-122696541D01*
X184196597Y-122691582D01*
X184183290Y-122685288D01*
X184170664Y-122677720D01*
X184158841Y-122668952D01*
X184147934Y-122659066D01*
X184138048Y-122648159D01*
X184129280Y-122636336D01*
X184121712Y-122623710D01*
X184115418Y-122610403D01*
X184110459Y-122596543D01*
X184106882Y-122582264D01*
X184104722Y-122567703D01*
X184104000Y-122553000D01*
X184104000Y-120903000D01*
X184104722Y-120888297D01*
X184106882Y-120873736D01*
X184110459Y-120859457D01*
X184115418Y-120845597D01*
X184121712Y-120832290D01*
X184129280Y-120819664D01*
X184138048Y-120807841D01*
X184147934Y-120796934D01*
X184158841Y-120787048D01*
X184170664Y-120778280D01*
X184183290Y-120770712D01*
X184196597Y-120764418D01*
X184210457Y-120759459D01*
X184224736Y-120755882D01*
X184239297Y-120753722D01*
X184254000Y-120753000D01*
X184554000Y-120753000D01*
X184568703Y-120753722D01*
X184568703Y-120753722D01*
G37*
D11*
X184404000Y-121728000D03*
D10*
G36*
X183298703Y-120753722D02*
G01*
X183313264Y-120755882D01*
X183327543Y-120759459D01*
X183341403Y-120764418D01*
X183354710Y-120770712D01*
X183367336Y-120778280D01*
X183379159Y-120787048D01*
X183390066Y-120796934D01*
X183399952Y-120807841D01*
X183408720Y-120819664D01*
X183416288Y-120832290D01*
X183422582Y-120845597D01*
X183427541Y-120859457D01*
X183431118Y-120873736D01*
X183433278Y-120888297D01*
X183434000Y-120903000D01*
X183434000Y-122553000D01*
X183433278Y-122567703D01*
X183431118Y-122582264D01*
X183427541Y-122596543D01*
X183422582Y-122610403D01*
X183416288Y-122623710D01*
X183408720Y-122636336D01*
X183399952Y-122648159D01*
X183390066Y-122659066D01*
X183379159Y-122668952D01*
X183367336Y-122677720D01*
X183354710Y-122685288D01*
X183341403Y-122691582D01*
X183327543Y-122696541D01*
X183313264Y-122700118D01*
X183298703Y-122702278D01*
X183284000Y-122703000D01*
X182984000Y-122703000D01*
X182969297Y-122702278D01*
X182954736Y-122700118D01*
X182940457Y-122696541D01*
X182926597Y-122691582D01*
X182913290Y-122685288D01*
X182900664Y-122677720D01*
X182888841Y-122668952D01*
X182877934Y-122659066D01*
X182868048Y-122648159D01*
X182859280Y-122636336D01*
X182851712Y-122623710D01*
X182845418Y-122610403D01*
X182840459Y-122596543D01*
X182836882Y-122582264D01*
X182834722Y-122567703D01*
X182834000Y-122553000D01*
X182834000Y-120903000D01*
X182834722Y-120888297D01*
X182836882Y-120873736D01*
X182840459Y-120859457D01*
X182845418Y-120845597D01*
X182851712Y-120832290D01*
X182859280Y-120819664D01*
X182868048Y-120807841D01*
X182877934Y-120796934D01*
X182888841Y-120787048D01*
X182900664Y-120778280D01*
X182913290Y-120770712D01*
X182926597Y-120764418D01*
X182940457Y-120759459D01*
X182954736Y-120755882D01*
X182969297Y-120753722D01*
X182984000Y-120753000D01*
X183284000Y-120753000D01*
X183298703Y-120753722D01*
X183298703Y-120753722D01*
G37*
D11*
X183134000Y-121728000D03*
D10*
G36*
X182028703Y-120753722D02*
G01*
X182043264Y-120755882D01*
X182057543Y-120759459D01*
X182071403Y-120764418D01*
X182084710Y-120770712D01*
X182097336Y-120778280D01*
X182109159Y-120787048D01*
X182120066Y-120796934D01*
X182129952Y-120807841D01*
X182138720Y-120819664D01*
X182146288Y-120832290D01*
X182152582Y-120845597D01*
X182157541Y-120859457D01*
X182161118Y-120873736D01*
X182163278Y-120888297D01*
X182164000Y-120903000D01*
X182164000Y-122553000D01*
X182163278Y-122567703D01*
X182161118Y-122582264D01*
X182157541Y-122596543D01*
X182152582Y-122610403D01*
X182146288Y-122623710D01*
X182138720Y-122636336D01*
X182129952Y-122648159D01*
X182120066Y-122659066D01*
X182109159Y-122668952D01*
X182097336Y-122677720D01*
X182084710Y-122685288D01*
X182071403Y-122691582D01*
X182057543Y-122696541D01*
X182043264Y-122700118D01*
X182028703Y-122702278D01*
X182014000Y-122703000D01*
X181714000Y-122703000D01*
X181699297Y-122702278D01*
X181684736Y-122700118D01*
X181670457Y-122696541D01*
X181656597Y-122691582D01*
X181643290Y-122685288D01*
X181630664Y-122677720D01*
X181618841Y-122668952D01*
X181607934Y-122659066D01*
X181598048Y-122648159D01*
X181589280Y-122636336D01*
X181581712Y-122623710D01*
X181575418Y-122610403D01*
X181570459Y-122596543D01*
X181566882Y-122582264D01*
X181564722Y-122567703D01*
X181564000Y-122553000D01*
X181564000Y-120903000D01*
X181564722Y-120888297D01*
X181566882Y-120873736D01*
X181570459Y-120859457D01*
X181575418Y-120845597D01*
X181581712Y-120832290D01*
X181589280Y-120819664D01*
X181598048Y-120807841D01*
X181607934Y-120796934D01*
X181618841Y-120787048D01*
X181630664Y-120778280D01*
X181643290Y-120770712D01*
X181656597Y-120764418D01*
X181670457Y-120759459D01*
X181684736Y-120755882D01*
X181699297Y-120753722D01*
X181714000Y-120753000D01*
X182014000Y-120753000D01*
X182028703Y-120753722D01*
X182028703Y-120753722D01*
G37*
D11*
X181864000Y-121728000D03*
D10*
G36*
X176948703Y-106151722D02*
G01*
X176963264Y-106153882D01*
X176977543Y-106157459D01*
X176991403Y-106162418D01*
X177004710Y-106168712D01*
X177017336Y-106176280D01*
X177029159Y-106185048D01*
X177040066Y-106194934D01*
X177049952Y-106205841D01*
X177058720Y-106217664D01*
X177066288Y-106230290D01*
X177072582Y-106243597D01*
X177077541Y-106257457D01*
X177081118Y-106271736D01*
X177083278Y-106286297D01*
X177084000Y-106301000D01*
X177084000Y-107951000D01*
X177083278Y-107965703D01*
X177081118Y-107980264D01*
X177077541Y-107994543D01*
X177072582Y-108008403D01*
X177066288Y-108021710D01*
X177058720Y-108034336D01*
X177049952Y-108046159D01*
X177040066Y-108057066D01*
X177029159Y-108066952D01*
X177017336Y-108075720D01*
X177004710Y-108083288D01*
X176991403Y-108089582D01*
X176977543Y-108094541D01*
X176963264Y-108098118D01*
X176948703Y-108100278D01*
X176934000Y-108101000D01*
X176634000Y-108101000D01*
X176619297Y-108100278D01*
X176604736Y-108098118D01*
X176590457Y-108094541D01*
X176576597Y-108089582D01*
X176563290Y-108083288D01*
X176550664Y-108075720D01*
X176538841Y-108066952D01*
X176527934Y-108057066D01*
X176518048Y-108046159D01*
X176509280Y-108034336D01*
X176501712Y-108021710D01*
X176495418Y-108008403D01*
X176490459Y-107994543D01*
X176486882Y-107980264D01*
X176484722Y-107965703D01*
X176484000Y-107951000D01*
X176484000Y-106301000D01*
X176484722Y-106286297D01*
X176486882Y-106271736D01*
X176490459Y-106257457D01*
X176495418Y-106243597D01*
X176501712Y-106230290D01*
X176509280Y-106217664D01*
X176518048Y-106205841D01*
X176527934Y-106194934D01*
X176538841Y-106185048D01*
X176550664Y-106176280D01*
X176563290Y-106168712D01*
X176576597Y-106162418D01*
X176590457Y-106157459D01*
X176604736Y-106153882D01*
X176619297Y-106151722D01*
X176634000Y-106151000D01*
X176934000Y-106151000D01*
X176948703Y-106151722D01*
X176948703Y-106151722D01*
G37*
D11*
X176784000Y-107126000D03*
D10*
G36*
X178218703Y-106151722D02*
G01*
X178233264Y-106153882D01*
X178247543Y-106157459D01*
X178261403Y-106162418D01*
X178274710Y-106168712D01*
X178287336Y-106176280D01*
X178299159Y-106185048D01*
X178310066Y-106194934D01*
X178319952Y-106205841D01*
X178328720Y-106217664D01*
X178336288Y-106230290D01*
X178342582Y-106243597D01*
X178347541Y-106257457D01*
X178351118Y-106271736D01*
X178353278Y-106286297D01*
X178354000Y-106301000D01*
X178354000Y-107951000D01*
X178353278Y-107965703D01*
X178351118Y-107980264D01*
X178347541Y-107994543D01*
X178342582Y-108008403D01*
X178336288Y-108021710D01*
X178328720Y-108034336D01*
X178319952Y-108046159D01*
X178310066Y-108057066D01*
X178299159Y-108066952D01*
X178287336Y-108075720D01*
X178274710Y-108083288D01*
X178261403Y-108089582D01*
X178247543Y-108094541D01*
X178233264Y-108098118D01*
X178218703Y-108100278D01*
X178204000Y-108101000D01*
X177904000Y-108101000D01*
X177889297Y-108100278D01*
X177874736Y-108098118D01*
X177860457Y-108094541D01*
X177846597Y-108089582D01*
X177833290Y-108083288D01*
X177820664Y-108075720D01*
X177808841Y-108066952D01*
X177797934Y-108057066D01*
X177788048Y-108046159D01*
X177779280Y-108034336D01*
X177771712Y-108021710D01*
X177765418Y-108008403D01*
X177760459Y-107994543D01*
X177756882Y-107980264D01*
X177754722Y-107965703D01*
X177754000Y-107951000D01*
X177754000Y-106301000D01*
X177754722Y-106286297D01*
X177756882Y-106271736D01*
X177760459Y-106257457D01*
X177765418Y-106243597D01*
X177771712Y-106230290D01*
X177779280Y-106217664D01*
X177788048Y-106205841D01*
X177797934Y-106194934D01*
X177808841Y-106185048D01*
X177820664Y-106176280D01*
X177833290Y-106168712D01*
X177846597Y-106162418D01*
X177860457Y-106157459D01*
X177874736Y-106153882D01*
X177889297Y-106151722D01*
X177904000Y-106151000D01*
X178204000Y-106151000D01*
X178218703Y-106151722D01*
X178218703Y-106151722D01*
G37*
D11*
X178054000Y-107126000D03*
D10*
G36*
X179488703Y-106151722D02*
G01*
X179503264Y-106153882D01*
X179517543Y-106157459D01*
X179531403Y-106162418D01*
X179544710Y-106168712D01*
X179557336Y-106176280D01*
X179569159Y-106185048D01*
X179580066Y-106194934D01*
X179589952Y-106205841D01*
X179598720Y-106217664D01*
X179606288Y-106230290D01*
X179612582Y-106243597D01*
X179617541Y-106257457D01*
X179621118Y-106271736D01*
X179623278Y-106286297D01*
X179624000Y-106301000D01*
X179624000Y-107951000D01*
X179623278Y-107965703D01*
X179621118Y-107980264D01*
X179617541Y-107994543D01*
X179612582Y-108008403D01*
X179606288Y-108021710D01*
X179598720Y-108034336D01*
X179589952Y-108046159D01*
X179580066Y-108057066D01*
X179569159Y-108066952D01*
X179557336Y-108075720D01*
X179544710Y-108083288D01*
X179531403Y-108089582D01*
X179517543Y-108094541D01*
X179503264Y-108098118D01*
X179488703Y-108100278D01*
X179474000Y-108101000D01*
X179174000Y-108101000D01*
X179159297Y-108100278D01*
X179144736Y-108098118D01*
X179130457Y-108094541D01*
X179116597Y-108089582D01*
X179103290Y-108083288D01*
X179090664Y-108075720D01*
X179078841Y-108066952D01*
X179067934Y-108057066D01*
X179058048Y-108046159D01*
X179049280Y-108034336D01*
X179041712Y-108021710D01*
X179035418Y-108008403D01*
X179030459Y-107994543D01*
X179026882Y-107980264D01*
X179024722Y-107965703D01*
X179024000Y-107951000D01*
X179024000Y-106301000D01*
X179024722Y-106286297D01*
X179026882Y-106271736D01*
X179030459Y-106257457D01*
X179035418Y-106243597D01*
X179041712Y-106230290D01*
X179049280Y-106217664D01*
X179058048Y-106205841D01*
X179067934Y-106194934D01*
X179078841Y-106185048D01*
X179090664Y-106176280D01*
X179103290Y-106168712D01*
X179116597Y-106162418D01*
X179130457Y-106157459D01*
X179144736Y-106153882D01*
X179159297Y-106151722D01*
X179174000Y-106151000D01*
X179474000Y-106151000D01*
X179488703Y-106151722D01*
X179488703Y-106151722D01*
G37*
D11*
X179324000Y-107126000D03*
D10*
G36*
X180758703Y-106151722D02*
G01*
X180773264Y-106153882D01*
X180787543Y-106157459D01*
X180801403Y-106162418D01*
X180814710Y-106168712D01*
X180827336Y-106176280D01*
X180839159Y-106185048D01*
X180850066Y-106194934D01*
X180859952Y-106205841D01*
X180868720Y-106217664D01*
X180876288Y-106230290D01*
X180882582Y-106243597D01*
X180887541Y-106257457D01*
X180891118Y-106271736D01*
X180893278Y-106286297D01*
X180894000Y-106301000D01*
X180894000Y-107951000D01*
X180893278Y-107965703D01*
X180891118Y-107980264D01*
X180887541Y-107994543D01*
X180882582Y-108008403D01*
X180876288Y-108021710D01*
X180868720Y-108034336D01*
X180859952Y-108046159D01*
X180850066Y-108057066D01*
X180839159Y-108066952D01*
X180827336Y-108075720D01*
X180814710Y-108083288D01*
X180801403Y-108089582D01*
X180787543Y-108094541D01*
X180773264Y-108098118D01*
X180758703Y-108100278D01*
X180744000Y-108101000D01*
X180444000Y-108101000D01*
X180429297Y-108100278D01*
X180414736Y-108098118D01*
X180400457Y-108094541D01*
X180386597Y-108089582D01*
X180373290Y-108083288D01*
X180360664Y-108075720D01*
X180348841Y-108066952D01*
X180337934Y-108057066D01*
X180328048Y-108046159D01*
X180319280Y-108034336D01*
X180311712Y-108021710D01*
X180305418Y-108008403D01*
X180300459Y-107994543D01*
X180296882Y-107980264D01*
X180294722Y-107965703D01*
X180294000Y-107951000D01*
X180294000Y-106301000D01*
X180294722Y-106286297D01*
X180296882Y-106271736D01*
X180300459Y-106257457D01*
X180305418Y-106243597D01*
X180311712Y-106230290D01*
X180319280Y-106217664D01*
X180328048Y-106205841D01*
X180337934Y-106194934D01*
X180348841Y-106185048D01*
X180360664Y-106176280D01*
X180373290Y-106168712D01*
X180386597Y-106162418D01*
X180400457Y-106157459D01*
X180414736Y-106153882D01*
X180429297Y-106151722D01*
X180444000Y-106151000D01*
X180744000Y-106151000D01*
X180758703Y-106151722D01*
X180758703Y-106151722D01*
G37*
D11*
X180594000Y-107126000D03*
D10*
G36*
X182028703Y-106151722D02*
G01*
X182043264Y-106153882D01*
X182057543Y-106157459D01*
X182071403Y-106162418D01*
X182084710Y-106168712D01*
X182097336Y-106176280D01*
X182109159Y-106185048D01*
X182120066Y-106194934D01*
X182129952Y-106205841D01*
X182138720Y-106217664D01*
X182146288Y-106230290D01*
X182152582Y-106243597D01*
X182157541Y-106257457D01*
X182161118Y-106271736D01*
X182163278Y-106286297D01*
X182164000Y-106301000D01*
X182164000Y-107951000D01*
X182163278Y-107965703D01*
X182161118Y-107980264D01*
X182157541Y-107994543D01*
X182152582Y-108008403D01*
X182146288Y-108021710D01*
X182138720Y-108034336D01*
X182129952Y-108046159D01*
X182120066Y-108057066D01*
X182109159Y-108066952D01*
X182097336Y-108075720D01*
X182084710Y-108083288D01*
X182071403Y-108089582D01*
X182057543Y-108094541D01*
X182043264Y-108098118D01*
X182028703Y-108100278D01*
X182014000Y-108101000D01*
X181714000Y-108101000D01*
X181699297Y-108100278D01*
X181684736Y-108098118D01*
X181670457Y-108094541D01*
X181656597Y-108089582D01*
X181643290Y-108083288D01*
X181630664Y-108075720D01*
X181618841Y-108066952D01*
X181607934Y-108057066D01*
X181598048Y-108046159D01*
X181589280Y-108034336D01*
X181581712Y-108021710D01*
X181575418Y-108008403D01*
X181570459Y-107994543D01*
X181566882Y-107980264D01*
X181564722Y-107965703D01*
X181564000Y-107951000D01*
X181564000Y-106301000D01*
X181564722Y-106286297D01*
X181566882Y-106271736D01*
X181570459Y-106257457D01*
X181575418Y-106243597D01*
X181581712Y-106230290D01*
X181589280Y-106217664D01*
X181598048Y-106205841D01*
X181607934Y-106194934D01*
X181618841Y-106185048D01*
X181630664Y-106176280D01*
X181643290Y-106168712D01*
X181656597Y-106162418D01*
X181670457Y-106157459D01*
X181684736Y-106153882D01*
X181699297Y-106151722D01*
X181714000Y-106151000D01*
X182014000Y-106151000D01*
X182028703Y-106151722D01*
X182028703Y-106151722D01*
G37*
D11*
X181864000Y-107126000D03*
D10*
G36*
X183298703Y-106151722D02*
G01*
X183313264Y-106153882D01*
X183327543Y-106157459D01*
X183341403Y-106162418D01*
X183354710Y-106168712D01*
X183367336Y-106176280D01*
X183379159Y-106185048D01*
X183390066Y-106194934D01*
X183399952Y-106205841D01*
X183408720Y-106217664D01*
X183416288Y-106230290D01*
X183422582Y-106243597D01*
X183427541Y-106257457D01*
X183431118Y-106271736D01*
X183433278Y-106286297D01*
X183434000Y-106301000D01*
X183434000Y-107951000D01*
X183433278Y-107965703D01*
X183431118Y-107980264D01*
X183427541Y-107994543D01*
X183422582Y-108008403D01*
X183416288Y-108021710D01*
X183408720Y-108034336D01*
X183399952Y-108046159D01*
X183390066Y-108057066D01*
X183379159Y-108066952D01*
X183367336Y-108075720D01*
X183354710Y-108083288D01*
X183341403Y-108089582D01*
X183327543Y-108094541D01*
X183313264Y-108098118D01*
X183298703Y-108100278D01*
X183284000Y-108101000D01*
X182984000Y-108101000D01*
X182969297Y-108100278D01*
X182954736Y-108098118D01*
X182940457Y-108094541D01*
X182926597Y-108089582D01*
X182913290Y-108083288D01*
X182900664Y-108075720D01*
X182888841Y-108066952D01*
X182877934Y-108057066D01*
X182868048Y-108046159D01*
X182859280Y-108034336D01*
X182851712Y-108021710D01*
X182845418Y-108008403D01*
X182840459Y-107994543D01*
X182836882Y-107980264D01*
X182834722Y-107965703D01*
X182834000Y-107951000D01*
X182834000Y-106301000D01*
X182834722Y-106286297D01*
X182836882Y-106271736D01*
X182840459Y-106257457D01*
X182845418Y-106243597D01*
X182851712Y-106230290D01*
X182859280Y-106217664D01*
X182868048Y-106205841D01*
X182877934Y-106194934D01*
X182888841Y-106185048D01*
X182900664Y-106176280D01*
X182913290Y-106168712D01*
X182926597Y-106162418D01*
X182940457Y-106157459D01*
X182954736Y-106153882D01*
X182969297Y-106151722D01*
X182984000Y-106151000D01*
X183284000Y-106151000D01*
X183298703Y-106151722D01*
X183298703Y-106151722D01*
G37*
D11*
X183134000Y-107126000D03*
D10*
G36*
X184568703Y-106151722D02*
G01*
X184583264Y-106153882D01*
X184597543Y-106157459D01*
X184611403Y-106162418D01*
X184624710Y-106168712D01*
X184637336Y-106176280D01*
X184649159Y-106185048D01*
X184660066Y-106194934D01*
X184669952Y-106205841D01*
X184678720Y-106217664D01*
X184686288Y-106230290D01*
X184692582Y-106243597D01*
X184697541Y-106257457D01*
X184701118Y-106271736D01*
X184703278Y-106286297D01*
X184704000Y-106301000D01*
X184704000Y-107951000D01*
X184703278Y-107965703D01*
X184701118Y-107980264D01*
X184697541Y-107994543D01*
X184692582Y-108008403D01*
X184686288Y-108021710D01*
X184678720Y-108034336D01*
X184669952Y-108046159D01*
X184660066Y-108057066D01*
X184649159Y-108066952D01*
X184637336Y-108075720D01*
X184624710Y-108083288D01*
X184611403Y-108089582D01*
X184597543Y-108094541D01*
X184583264Y-108098118D01*
X184568703Y-108100278D01*
X184554000Y-108101000D01*
X184254000Y-108101000D01*
X184239297Y-108100278D01*
X184224736Y-108098118D01*
X184210457Y-108094541D01*
X184196597Y-108089582D01*
X184183290Y-108083288D01*
X184170664Y-108075720D01*
X184158841Y-108066952D01*
X184147934Y-108057066D01*
X184138048Y-108046159D01*
X184129280Y-108034336D01*
X184121712Y-108021710D01*
X184115418Y-108008403D01*
X184110459Y-107994543D01*
X184106882Y-107980264D01*
X184104722Y-107965703D01*
X184104000Y-107951000D01*
X184104000Y-106301000D01*
X184104722Y-106286297D01*
X184106882Y-106271736D01*
X184110459Y-106257457D01*
X184115418Y-106243597D01*
X184121712Y-106230290D01*
X184129280Y-106217664D01*
X184138048Y-106205841D01*
X184147934Y-106194934D01*
X184158841Y-106185048D01*
X184170664Y-106176280D01*
X184183290Y-106168712D01*
X184196597Y-106162418D01*
X184210457Y-106157459D01*
X184224736Y-106153882D01*
X184239297Y-106151722D01*
X184254000Y-106151000D01*
X184554000Y-106151000D01*
X184568703Y-106151722D01*
X184568703Y-106151722D01*
G37*
D11*
X184404000Y-107126000D03*
D10*
G36*
X185838703Y-106151722D02*
G01*
X185853264Y-106153882D01*
X185867543Y-106157459D01*
X185881403Y-106162418D01*
X185894710Y-106168712D01*
X185907336Y-106176280D01*
X185919159Y-106185048D01*
X185930066Y-106194934D01*
X185939952Y-106205841D01*
X185948720Y-106217664D01*
X185956288Y-106230290D01*
X185962582Y-106243597D01*
X185967541Y-106257457D01*
X185971118Y-106271736D01*
X185973278Y-106286297D01*
X185974000Y-106301000D01*
X185974000Y-107951000D01*
X185973278Y-107965703D01*
X185971118Y-107980264D01*
X185967541Y-107994543D01*
X185962582Y-108008403D01*
X185956288Y-108021710D01*
X185948720Y-108034336D01*
X185939952Y-108046159D01*
X185930066Y-108057066D01*
X185919159Y-108066952D01*
X185907336Y-108075720D01*
X185894710Y-108083288D01*
X185881403Y-108089582D01*
X185867543Y-108094541D01*
X185853264Y-108098118D01*
X185838703Y-108100278D01*
X185824000Y-108101000D01*
X185524000Y-108101000D01*
X185509297Y-108100278D01*
X185494736Y-108098118D01*
X185480457Y-108094541D01*
X185466597Y-108089582D01*
X185453290Y-108083288D01*
X185440664Y-108075720D01*
X185428841Y-108066952D01*
X185417934Y-108057066D01*
X185408048Y-108046159D01*
X185399280Y-108034336D01*
X185391712Y-108021710D01*
X185385418Y-108008403D01*
X185380459Y-107994543D01*
X185376882Y-107980264D01*
X185374722Y-107965703D01*
X185374000Y-107951000D01*
X185374000Y-106301000D01*
X185374722Y-106286297D01*
X185376882Y-106271736D01*
X185380459Y-106257457D01*
X185385418Y-106243597D01*
X185391712Y-106230290D01*
X185399280Y-106217664D01*
X185408048Y-106205841D01*
X185417934Y-106194934D01*
X185428841Y-106185048D01*
X185440664Y-106176280D01*
X185453290Y-106168712D01*
X185466597Y-106162418D01*
X185480457Y-106157459D01*
X185494736Y-106153882D01*
X185509297Y-106151722D01*
X185524000Y-106151000D01*
X185824000Y-106151000D01*
X185838703Y-106151722D01*
X185838703Y-106151722D01*
G37*
D11*
X185674000Y-107126000D03*
D10*
G36*
X185838703Y-111101722D02*
G01*
X185853264Y-111103882D01*
X185867543Y-111107459D01*
X185881403Y-111112418D01*
X185894710Y-111118712D01*
X185907336Y-111126280D01*
X185919159Y-111135048D01*
X185930066Y-111144934D01*
X185939952Y-111155841D01*
X185948720Y-111167664D01*
X185956288Y-111180290D01*
X185962582Y-111193597D01*
X185967541Y-111207457D01*
X185971118Y-111221736D01*
X185973278Y-111236297D01*
X185974000Y-111251000D01*
X185974000Y-112901000D01*
X185973278Y-112915703D01*
X185971118Y-112930264D01*
X185967541Y-112944543D01*
X185962582Y-112958403D01*
X185956288Y-112971710D01*
X185948720Y-112984336D01*
X185939952Y-112996159D01*
X185930066Y-113007066D01*
X185919159Y-113016952D01*
X185907336Y-113025720D01*
X185894710Y-113033288D01*
X185881403Y-113039582D01*
X185867543Y-113044541D01*
X185853264Y-113048118D01*
X185838703Y-113050278D01*
X185824000Y-113051000D01*
X185524000Y-113051000D01*
X185509297Y-113050278D01*
X185494736Y-113048118D01*
X185480457Y-113044541D01*
X185466597Y-113039582D01*
X185453290Y-113033288D01*
X185440664Y-113025720D01*
X185428841Y-113016952D01*
X185417934Y-113007066D01*
X185408048Y-112996159D01*
X185399280Y-112984336D01*
X185391712Y-112971710D01*
X185385418Y-112958403D01*
X185380459Y-112944543D01*
X185376882Y-112930264D01*
X185374722Y-112915703D01*
X185374000Y-112901000D01*
X185374000Y-111251000D01*
X185374722Y-111236297D01*
X185376882Y-111221736D01*
X185380459Y-111207457D01*
X185385418Y-111193597D01*
X185391712Y-111180290D01*
X185399280Y-111167664D01*
X185408048Y-111155841D01*
X185417934Y-111144934D01*
X185428841Y-111135048D01*
X185440664Y-111126280D01*
X185453290Y-111118712D01*
X185466597Y-111112418D01*
X185480457Y-111107459D01*
X185494736Y-111103882D01*
X185509297Y-111101722D01*
X185524000Y-111101000D01*
X185824000Y-111101000D01*
X185838703Y-111101722D01*
X185838703Y-111101722D01*
G37*
D11*
X185674000Y-112076000D03*
D10*
G36*
X184568703Y-111101722D02*
G01*
X184583264Y-111103882D01*
X184597543Y-111107459D01*
X184611403Y-111112418D01*
X184624710Y-111118712D01*
X184637336Y-111126280D01*
X184649159Y-111135048D01*
X184660066Y-111144934D01*
X184669952Y-111155841D01*
X184678720Y-111167664D01*
X184686288Y-111180290D01*
X184692582Y-111193597D01*
X184697541Y-111207457D01*
X184701118Y-111221736D01*
X184703278Y-111236297D01*
X184704000Y-111251000D01*
X184704000Y-112901000D01*
X184703278Y-112915703D01*
X184701118Y-112930264D01*
X184697541Y-112944543D01*
X184692582Y-112958403D01*
X184686288Y-112971710D01*
X184678720Y-112984336D01*
X184669952Y-112996159D01*
X184660066Y-113007066D01*
X184649159Y-113016952D01*
X184637336Y-113025720D01*
X184624710Y-113033288D01*
X184611403Y-113039582D01*
X184597543Y-113044541D01*
X184583264Y-113048118D01*
X184568703Y-113050278D01*
X184554000Y-113051000D01*
X184254000Y-113051000D01*
X184239297Y-113050278D01*
X184224736Y-113048118D01*
X184210457Y-113044541D01*
X184196597Y-113039582D01*
X184183290Y-113033288D01*
X184170664Y-113025720D01*
X184158841Y-113016952D01*
X184147934Y-113007066D01*
X184138048Y-112996159D01*
X184129280Y-112984336D01*
X184121712Y-112971710D01*
X184115418Y-112958403D01*
X184110459Y-112944543D01*
X184106882Y-112930264D01*
X184104722Y-112915703D01*
X184104000Y-112901000D01*
X184104000Y-111251000D01*
X184104722Y-111236297D01*
X184106882Y-111221736D01*
X184110459Y-111207457D01*
X184115418Y-111193597D01*
X184121712Y-111180290D01*
X184129280Y-111167664D01*
X184138048Y-111155841D01*
X184147934Y-111144934D01*
X184158841Y-111135048D01*
X184170664Y-111126280D01*
X184183290Y-111118712D01*
X184196597Y-111112418D01*
X184210457Y-111107459D01*
X184224736Y-111103882D01*
X184239297Y-111101722D01*
X184254000Y-111101000D01*
X184554000Y-111101000D01*
X184568703Y-111101722D01*
X184568703Y-111101722D01*
G37*
D11*
X184404000Y-112076000D03*
D10*
G36*
X183298703Y-111101722D02*
G01*
X183313264Y-111103882D01*
X183327543Y-111107459D01*
X183341403Y-111112418D01*
X183354710Y-111118712D01*
X183367336Y-111126280D01*
X183379159Y-111135048D01*
X183390066Y-111144934D01*
X183399952Y-111155841D01*
X183408720Y-111167664D01*
X183416288Y-111180290D01*
X183422582Y-111193597D01*
X183427541Y-111207457D01*
X183431118Y-111221736D01*
X183433278Y-111236297D01*
X183434000Y-111251000D01*
X183434000Y-112901000D01*
X183433278Y-112915703D01*
X183431118Y-112930264D01*
X183427541Y-112944543D01*
X183422582Y-112958403D01*
X183416288Y-112971710D01*
X183408720Y-112984336D01*
X183399952Y-112996159D01*
X183390066Y-113007066D01*
X183379159Y-113016952D01*
X183367336Y-113025720D01*
X183354710Y-113033288D01*
X183341403Y-113039582D01*
X183327543Y-113044541D01*
X183313264Y-113048118D01*
X183298703Y-113050278D01*
X183284000Y-113051000D01*
X182984000Y-113051000D01*
X182969297Y-113050278D01*
X182954736Y-113048118D01*
X182940457Y-113044541D01*
X182926597Y-113039582D01*
X182913290Y-113033288D01*
X182900664Y-113025720D01*
X182888841Y-113016952D01*
X182877934Y-113007066D01*
X182868048Y-112996159D01*
X182859280Y-112984336D01*
X182851712Y-112971710D01*
X182845418Y-112958403D01*
X182840459Y-112944543D01*
X182836882Y-112930264D01*
X182834722Y-112915703D01*
X182834000Y-112901000D01*
X182834000Y-111251000D01*
X182834722Y-111236297D01*
X182836882Y-111221736D01*
X182840459Y-111207457D01*
X182845418Y-111193597D01*
X182851712Y-111180290D01*
X182859280Y-111167664D01*
X182868048Y-111155841D01*
X182877934Y-111144934D01*
X182888841Y-111135048D01*
X182900664Y-111126280D01*
X182913290Y-111118712D01*
X182926597Y-111112418D01*
X182940457Y-111107459D01*
X182954736Y-111103882D01*
X182969297Y-111101722D01*
X182984000Y-111101000D01*
X183284000Y-111101000D01*
X183298703Y-111101722D01*
X183298703Y-111101722D01*
G37*
D11*
X183134000Y-112076000D03*
D10*
G36*
X182028703Y-111101722D02*
G01*
X182043264Y-111103882D01*
X182057543Y-111107459D01*
X182071403Y-111112418D01*
X182084710Y-111118712D01*
X182097336Y-111126280D01*
X182109159Y-111135048D01*
X182120066Y-111144934D01*
X182129952Y-111155841D01*
X182138720Y-111167664D01*
X182146288Y-111180290D01*
X182152582Y-111193597D01*
X182157541Y-111207457D01*
X182161118Y-111221736D01*
X182163278Y-111236297D01*
X182164000Y-111251000D01*
X182164000Y-112901000D01*
X182163278Y-112915703D01*
X182161118Y-112930264D01*
X182157541Y-112944543D01*
X182152582Y-112958403D01*
X182146288Y-112971710D01*
X182138720Y-112984336D01*
X182129952Y-112996159D01*
X182120066Y-113007066D01*
X182109159Y-113016952D01*
X182097336Y-113025720D01*
X182084710Y-113033288D01*
X182071403Y-113039582D01*
X182057543Y-113044541D01*
X182043264Y-113048118D01*
X182028703Y-113050278D01*
X182014000Y-113051000D01*
X181714000Y-113051000D01*
X181699297Y-113050278D01*
X181684736Y-113048118D01*
X181670457Y-113044541D01*
X181656597Y-113039582D01*
X181643290Y-113033288D01*
X181630664Y-113025720D01*
X181618841Y-113016952D01*
X181607934Y-113007066D01*
X181598048Y-112996159D01*
X181589280Y-112984336D01*
X181581712Y-112971710D01*
X181575418Y-112958403D01*
X181570459Y-112944543D01*
X181566882Y-112930264D01*
X181564722Y-112915703D01*
X181564000Y-112901000D01*
X181564000Y-111251000D01*
X181564722Y-111236297D01*
X181566882Y-111221736D01*
X181570459Y-111207457D01*
X181575418Y-111193597D01*
X181581712Y-111180290D01*
X181589280Y-111167664D01*
X181598048Y-111155841D01*
X181607934Y-111144934D01*
X181618841Y-111135048D01*
X181630664Y-111126280D01*
X181643290Y-111118712D01*
X181656597Y-111112418D01*
X181670457Y-111107459D01*
X181684736Y-111103882D01*
X181699297Y-111101722D01*
X181714000Y-111101000D01*
X182014000Y-111101000D01*
X182028703Y-111101722D01*
X182028703Y-111101722D01*
G37*
D11*
X181864000Y-112076000D03*
D10*
G36*
X180758703Y-111101722D02*
G01*
X180773264Y-111103882D01*
X180787543Y-111107459D01*
X180801403Y-111112418D01*
X180814710Y-111118712D01*
X180827336Y-111126280D01*
X180839159Y-111135048D01*
X180850066Y-111144934D01*
X180859952Y-111155841D01*
X180868720Y-111167664D01*
X180876288Y-111180290D01*
X180882582Y-111193597D01*
X180887541Y-111207457D01*
X180891118Y-111221736D01*
X180893278Y-111236297D01*
X180894000Y-111251000D01*
X180894000Y-112901000D01*
X180893278Y-112915703D01*
X180891118Y-112930264D01*
X180887541Y-112944543D01*
X180882582Y-112958403D01*
X180876288Y-112971710D01*
X180868720Y-112984336D01*
X180859952Y-112996159D01*
X180850066Y-113007066D01*
X180839159Y-113016952D01*
X180827336Y-113025720D01*
X180814710Y-113033288D01*
X180801403Y-113039582D01*
X180787543Y-113044541D01*
X180773264Y-113048118D01*
X180758703Y-113050278D01*
X180744000Y-113051000D01*
X180444000Y-113051000D01*
X180429297Y-113050278D01*
X180414736Y-113048118D01*
X180400457Y-113044541D01*
X180386597Y-113039582D01*
X180373290Y-113033288D01*
X180360664Y-113025720D01*
X180348841Y-113016952D01*
X180337934Y-113007066D01*
X180328048Y-112996159D01*
X180319280Y-112984336D01*
X180311712Y-112971710D01*
X180305418Y-112958403D01*
X180300459Y-112944543D01*
X180296882Y-112930264D01*
X180294722Y-112915703D01*
X180294000Y-112901000D01*
X180294000Y-111251000D01*
X180294722Y-111236297D01*
X180296882Y-111221736D01*
X180300459Y-111207457D01*
X180305418Y-111193597D01*
X180311712Y-111180290D01*
X180319280Y-111167664D01*
X180328048Y-111155841D01*
X180337934Y-111144934D01*
X180348841Y-111135048D01*
X180360664Y-111126280D01*
X180373290Y-111118712D01*
X180386597Y-111112418D01*
X180400457Y-111107459D01*
X180414736Y-111103882D01*
X180429297Y-111101722D01*
X180444000Y-111101000D01*
X180744000Y-111101000D01*
X180758703Y-111101722D01*
X180758703Y-111101722D01*
G37*
D11*
X180594000Y-112076000D03*
D10*
G36*
X179488703Y-111101722D02*
G01*
X179503264Y-111103882D01*
X179517543Y-111107459D01*
X179531403Y-111112418D01*
X179544710Y-111118712D01*
X179557336Y-111126280D01*
X179569159Y-111135048D01*
X179580066Y-111144934D01*
X179589952Y-111155841D01*
X179598720Y-111167664D01*
X179606288Y-111180290D01*
X179612582Y-111193597D01*
X179617541Y-111207457D01*
X179621118Y-111221736D01*
X179623278Y-111236297D01*
X179624000Y-111251000D01*
X179624000Y-112901000D01*
X179623278Y-112915703D01*
X179621118Y-112930264D01*
X179617541Y-112944543D01*
X179612582Y-112958403D01*
X179606288Y-112971710D01*
X179598720Y-112984336D01*
X179589952Y-112996159D01*
X179580066Y-113007066D01*
X179569159Y-113016952D01*
X179557336Y-113025720D01*
X179544710Y-113033288D01*
X179531403Y-113039582D01*
X179517543Y-113044541D01*
X179503264Y-113048118D01*
X179488703Y-113050278D01*
X179474000Y-113051000D01*
X179174000Y-113051000D01*
X179159297Y-113050278D01*
X179144736Y-113048118D01*
X179130457Y-113044541D01*
X179116597Y-113039582D01*
X179103290Y-113033288D01*
X179090664Y-113025720D01*
X179078841Y-113016952D01*
X179067934Y-113007066D01*
X179058048Y-112996159D01*
X179049280Y-112984336D01*
X179041712Y-112971710D01*
X179035418Y-112958403D01*
X179030459Y-112944543D01*
X179026882Y-112930264D01*
X179024722Y-112915703D01*
X179024000Y-112901000D01*
X179024000Y-111251000D01*
X179024722Y-111236297D01*
X179026882Y-111221736D01*
X179030459Y-111207457D01*
X179035418Y-111193597D01*
X179041712Y-111180290D01*
X179049280Y-111167664D01*
X179058048Y-111155841D01*
X179067934Y-111144934D01*
X179078841Y-111135048D01*
X179090664Y-111126280D01*
X179103290Y-111118712D01*
X179116597Y-111112418D01*
X179130457Y-111107459D01*
X179144736Y-111103882D01*
X179159297Y-111101722D01*
X179174000Y-111101000D01*
X179474000Y-111101000D01*
X179488703Y-111101722D01*
X179488703Y-111101722D01*
G37*
D11*
X179324000Y-112076000D03*
D10*
G36*
X178218703Y-111101722D02*
G01*
X178233264Y-111103882D01*
X178247543Y-111107459D01*
X178261403Y-111112418D01*
X178274710Y-111118712D01*
X178287336Y-111126280D01*
X178299159Y-111135048D01*
X178310066Y-111144934D01*
X178319952Y-111155841D01*
X178328720Y-111167664D01*
X178336288Y-111180290D01*
X178342582Y-111193597D01*
X178347541Y-111207457D01*
X178351118Y-111221736D01*
X178353278Y-111236297D01*
X178354000Y-111251000D01*
X178354000Y-112901000D01*
X178353278Y-112915703D01*
X178351118Y-112930264D01*
X178347541Y-112944543D01*
X178342582Y-112958403D01*
X178336288Y-112971710D01*
X178328720Y-112984336D01*
X178319952Y-112996159D01*
X178310066Y-113007066D01*
X178299159Y-113016952D01*
X178287336Y-113025720D01*
X178274710Y-113033288D01*
X178261403Y-113039582D01*
X178247543Y-113044541D01*
X178233264Y-113048118D01*
X178218703Y-113050278D01*
X178204000Y-113051000D01*
X177904000Y-113051000D01*
X177889297Y-113050278D01*
X177874736Y-113048118D01*
X177860457Y-113044541D01*
X177846597Y-113039582D01*
X177833290Y-113033288D01*
X177820664Y-113025720D01*
X177808841Y-113016952D01*
X177797934Y-113007066D01*
X177788048Y-112996159D01*
X177779280Y-112984336D01*
X177771712Y-112971710D01*
X177765418Y-112958403D01*
X177760459Y-112944543D01*
X177756882Y-112930264D01*
X177754722Y-112915703D01*
X177754000Y-112901000D01*
X177754000Y-111251000D01*
X177754722Y-111236297D01*
X177756882Y-111221736D01*
X177760459Y-111207457D01*
X177765418Y-111193597D01*
X177771712Y-111180290D01*
X177779280Y-111167664D01*
X177788048Y-111155841D01*
X177797934Y-111144934D01*
X177808841Y-111135048D01*
X177820664Y-111126280D01*
X177833290Y-111118712D01*
X177846597Y-111112418D01*
X177860457Y-111107459D01*
X177874736Y-111103882D01*
X177889297Y-111101722D01*
X177904000Y-111101000D01*
X178204000Y-111101000D01*
X178218703Y-111101722D01*
X178218703Y-111101722D01*
G37*
D11*
X178054000Y-112076000D03*
D10*
G36*
X176948703Y-111101722D02*
G01*
X176963264Y-111103882D01*
X176977543Y-111107459D01*
X176991403Y-111112418D01*
X177004710Y-111118712D01*
X177017336Y-111126280D01*
X177029159Y-111135048D01*
X177040066Y-111144934D01*
X177049952Y-111155841D01*
X177058720Y-111167664D01*
X177066288Y-111180290D01*
X177072582Y-111193597D01*
X177077541Y-111207457D01*
X177081118Y-111221736D01*
X177083278Y-111236297D01*
X177084000Y-111251000D01*
X177084000Y-112901000D01*
X177083278Y-112915703D01*
X177081118Y-112930264D01*
X177077541Y-112944543D01*
X177072582Y-112958403D01*
X177066288Y-112971710D01*
X177058720Y-112984336D01*
X177049952Y-112996159D01*
X177040066Y-113007066D01*
X177029159Y-113016952D01*
X177017336Y-113025720D01*
X177004710Y-113033288D01*
X176991403Y-113039582D01*
X176977543Y-113044541D01*
X176963264Y-113048118D01*
X176948703Y-113050278D01*
X176934000Y-113051000D01*
X176634000Y-113051000D01*
X176619297Y-113050278D01*
X176604736Y-113048118D01*
X176590457Y-113044541D01*
X176576597Y-113039582D01*
X176563290Y-113033288D01*
X176550664Y-113025720D01*
X176538841Y-113016952D01*
X176527934Y-113007066D01*
X176518048Y-112996159D01*
X176509280Y-112984336D01*
X176501712Y-112971710D01*
X176495418Y-112958403D01*
X176490459Y-112944543D01*
X176486882Y-112930264D01*
X176484722Y-112915703D01*
X176484000Y-112901000D01*
X176484000Y-111251000D01*
X176484722Y-111236297D01*
X176486882Y-111221736D01*
X176490459Y-111207457D01*
X176495418Y-111193597D01*
X176501712Y-111180290D01*
X176509280Y-111167664D01*
X176518048Y-111155841D01*
X176527934Y-111144934D01*
X176538841Y-111135048D01*
X176550664Y-111126280D01*
X176563290Y-111118712D01*
X176576597Y-111112418D01*
X176590457Y-111107459D01*
X176604736Y-111103882D01*
X176619297Y-111101722D01*
X176634000Y-111101000D01*
X176934000Y-111101000D01*
X176948703Y-111101722D01*
X176948703Y-111101722D01*
G37*
D11*
X176784000Y-112076000D03*
D10*
G36*
X125442505Y-83255204D02*
G01*
X125466773Y-83258804D01*
X125490572Y-83264765D01*
X125513671Y-83273030D01*
X125535850Y-83283520D01*
X125556893Y-83296132D01*
X125576599Y-83310747D01*
X125594777Y-83327223D01*
X125611253Y-83345401D01*
X125625868Y-83365107D01*
X125638480Y-83386150D01*
X125648970Y-83408329D01*
X125657235Y-83431428D01*
X125663196Y-83455227D01*
X125666796Y-83479495D01*
X125668000Y-83503999D01*
X125668000Y-84154001D01*
X125666796Y-84178505D01*
X125663196Y-84202773D01*
X125657235Y-84226572D01*
X125648970Y-84249671D01*
X125638480Y-84271850D01*
X125625868Y-84292893D01*
X125611253Y-84312599D01*
X125594777Y-84330777D01*
X125576599Y-84347253D01*
X125556893Y-84361868D01*
X125535850Y-84374480D01*
X125513671Y-84384970D01*
X125490572Y-84393235D01*
X125466773Y-84399196D01*
X125442505Y-84402796D01*
X125418001Y-84404000D01*
X124517999Y-84404000D01*
X124493495Y-84402796D01*
X124469227Y-84399196D01*
X124445428Y-84393235D01*
X124422329Y-84384970D01*
X124400150Y-84374480D01*
X124379107Y-84361868D01*
X124359401Y-84347253D01*
X124341223Y-84330777D01*
X124324747Y-84312599D01*
X124310132Y-84292893D01*
X124297520Y-84271850D01*
X124287030Y-84249671D01*
X124278765Y-84226572D01*
X124272804Y-84202773D01*
X124269204Y-84178505D01*
X124268000Y-84154001D01*
X124268000Y-83503999D01*
X124269204Y-83479495D01*
X124272804Y-83455227D01*
X124278765Y-83431428D01*
X124287030Y-83408329D01*
X124297520Y-83386150D01*
X124310132Y-83365107D01*
X124324747Y-83345401D01*
X124341223Y-83327223D01*
X124359401Y-83310747D01*
X124379107Y-83296132D01*
X124400150Y-83283520D01*
X124422329Y-83273030D01*
X124445428Y-83264765D01*
X124469227Y-83258804D01*
X124493495Y-83255204D01*
X124517999Y-83254000D01*
X125418001Y-83254000D01*
X125442505Y-83255204D01*
X125442505Y-83255204D01*
G37*
D12*
X124968000Y-83829000D03*
D10*
G36*
X125442505Y-81205204D02*
G01*
X125466773Y-81208804D01*
X125490572Y-81214765D01*
X125513671Y-81223030D01*
X125535850Y-81233520D01*
X125556893Y-81246132D01*
X125576599Y-81260747D01*
X125594777Y-81277223D01*
X125611253Y-81295401D01*
X125625868Y-81315107D01*
X125638480Y-81336150D01*
X125648970Y-81358329D01*
X125657235Y-81381428D01*
X125663196Y-81405227D01*
X125666796Y-81429495D01*
X125668000Y-81453999D01*
X125668000Y-82104001D01*
X125666796Y-82128505D01*
X125663196Y-82152773D01*
X125657235Y-82176572D01*
X125648970Y-82199671D01*
X125638480Y-82221850D01*
X125625868Y-82242893D01*
X125611253Y-82262599D01*
X125594777Y-82280777D01*
X125576599Y-82297253D01*
X125556893Y-82311868D01*
X125535850Y-82324480D01*
X125513671Y-82334970D01*
X125490572Y-82343235D01*
X125466773Y-82349196D01*
X125442505Y-82352796D01*
X125418001Y-82354000D01*
X124517999Y-82354000D01*
X124493495Y-82352796D01*
X124469227Y-82349196D01*
X124445428Y-82343235D01*
X124422329Y-82334970D01*
X124400150Y-82324480D01*
X124379107Y-82311868D01*
X124359401Y-82297253D01*
X124341223Y-82280777D01*
X124324747Y-82262599D01*
X124310132Y-82242893D01*
X124297520Y-82221850D01*
X124287030Y-82199671D01*
X124278765Y-82176572D01*
X124272804Y-82152773D01*
X124269204Y-82128505D01*
X124268000Y-82104001D01*
X124268000Y-81453999D01*
X124269204Y-81429495D01*
X124272804Y-81405227D01*
X124278765Y-81381428D01*
X124287030Y-81358329D01*
X124297520Y-81336150D01*
X124310132Y-81315107D01*
X124324747Y-81295401D01*
X124341223Y-81277223D01*
X124359401Y-81260747D01*
X124379107Y-81246132D01*
X124400150Y-81233520D01*
X124422329Y-81223030D01*
X124445428Y-81214765D01*
X124469227Y-81208804D01*
X124493495Y-81205204D01*
X124517999Y-81204000D01*
X125418001Y-81204000D01*
X125442505Y-81205204D01*
X125442505Y-81205204D01*
G37*
D12*
X124968000Y-81779000D03*
D10*
G36*
X125442505Y-105607204D02*
G01*
X125466773Y-105610804D01*
X125490572Y-105616765D01*
X125513671Y-105625030D01*
X125535850Y-105635520D01*
X125556893Y-105648132D01*
X125576599Y-105662747D01*
X125594777Y-105679223D01*
X125611253Y-105697401D01*
X125625868Y-105717107D01*
X125638480Y-105738150D01*
X125648970Y-105760329D01*
X125657235Y-105783428D01*
X125663196Y-105807227D01*
X125666796Y-105831495D01*
X125668000Y-105855999D01*
X125668000Y-106506001D01*
X125666796Y-106530505D01*
X125663196Y-106554773D01*
X125657235Y-106578572D01*
X125648970Y-106601671D01*
X125638480Y-106623850D01*
X125625868Y-106644893D01*
X125611253Y-106664599D01*
X125594777Y-106682777D01*
X125576599Y-106699253D01*
X125556893Y-106713868D01*
X125535850Y-106726480D01*
X125513671Y-106736970D01*
X125490572Y-106745235D01*
X125466773Y-106751196D01*
X125442505Y-106754796D01*
X125418001Y-106756000D01*
X124517999Y-106756000D01*
X124493495Y-106754796D01*
X124469227Y-106751196D01*
X124445428Y-106745235D01*
X124422329Y-106736970D01*
X124400150Y-106726480D01*
X124379107Y-106713868D01*
X124359401Y-106699253D01*
X124341223Y-106682777D01*
X124324747Y-106664599D01*
X124310132Y-106644893D01*
X124297520Y-106623850D01*
X124287030Y-106601671D01*
X124278765Y-106578572D01*
X124272804Y-106554773D01*
X124269204Y-106530505D01*
X124268000Y-106506001D01*
X124268000Y-105855999D01*
X124269204Y-105831495D01*
X124272804Y-105807227D01*
X124278765Y-105783428D01*
X124287030Y-105760329D01*
X124297520Y-105738150D01*
X124310132Y-105717107D01*
X124324747Y-105697401D01*
X124341223Y-105679223D01*
X124359401Y-105662747D01*
X124379107Y-105648132D01*
X124400150Y-105635520D01*
X124422329Y-105625030D01*
X124445428Y-105616765D01*
X124469227Y-105610804D01*
X124493495Y-105607204D01*
X124517999Y-105606000D01*
X125418001Y-105606000D01*
X125442505Y-105607204D01*
X125442505Y-105607204D01*
G37*
D12*
X124968000Y-106181000D03*
D10*
G36*
X125442505Y-103557204D02*
G01*
X125466773Y-103560804D01*
X125490572Y-103566765D01*
X125513671Y-103575030D01*
X125535850Y-103585520D01*
X125556893Y-103598132D01*
X125576599Y-103612747D01*
X125594777Y-103629223D01*
X125611253Y-103647401D01*
X125625868Y-103667107D01*
X125638480Y-103688150D01*
X125648970Y-103710329D01*
X125657235Y-103733428D01*
X125663196Y-103757227D01*
X125666796Y-103781495D01*
X125668000Y-103805999D01*
X125668000Y-104456001D01*
X125666796Y-104480505D01*
X125663196Y-104504773D01*
X125657235Y-104528572D01*
X125648970Y-104551671D01*
X125638480Y-104573850D01*
X125625868Y-104594893D01*
X125611253Y-104614599D01*
X125594777Y-104632777D01*
X125576599Y-104649253D01*
X125556893Y-104663868D01*
X125535850Y-104676480D01*
X125513671Y-104686970D01*
X125490572Y-104695235D01*
X125466773Y-104701196D01*
X125442505Y-104704796D01*
X125418001Y-104706000D01*
X124517999Y-104706000D01*
X124493495Y-104704796D01*
X124469227Y-104701196D01*
X124445428Y-104695235D01*
X124422329Y-104686970D01*
X124400150Y-104676480D01*
X124379107Y-104663868D01*
X124359401Y-104649253D01*
X124341223Y-104632777D01*
X124324747Y-104614599D01*
X124310132Y-104594893D01*
X124297520Y-104573850D01*
X124287030Y-104551671D01*
X124278765Y-104528572D01*
X124272804Y-104504773D01*
X124269204Y-104480505D01*
X124268000Y-104456001D01*
X124268000Y-103805999D01*
X124269204Y-103781495D01*
X124272804Y-103757227D01*
X124278765Y-103733428D01*
X124287030Y-103710329D01*
X124297520Y-103688150D01*
X124310132Y-103667107D01*
X124324747Y-103647401D01*
X124341223Y-103629223D01*
X124359401Y-103612747D01*
X124379107Y-103598132D01*
X124400150Y-103585520D01*
X124422329Y-103575030D01*
X124445428Y-103566765D01*
X124469227Y-103560804D01*
X124493495Y-103557204D01*
X124517999Y-103556000D01*
X125418001Y-103556000D01*
X125442505Y-103557204D01*
X125442505Y-103557204D01*
G37*
D12*
X124968000Y-104131000D03*
D10*
G36*
X164939505Y-119958204D02*
G01*
X164963773Y-119961804D01*
X164987572Y-119967765D01*
X165010671Y-119976030D01*
X165032850Y-119986520D01*
X165053893Y-119999132D01*
X165073599Y-120013747D01*
X165091777Y-120030223D01*
X165108253Y-120048401D01*
X165122868Y-120068107D01*
X165135480Y-120089150D01*
X165145970Y-120111329D01*
X165154235Y-120134428D01*
X165160196Y-120158227D01*
X165163796Y-120182495D01*
X165165000Y-120206999D01*
X165165000Y-120857001D01*
X165163796Y-120881505D01*
X165160196Y-120905773D01*
X165154235Y-120929572D01*
X165145970Y-120952671D01*
X165135480Y-120974850D01*
X165122868Y-120995893D01*
X165108253Y-121015599D01*
X165091777Y-121033777D01*
X165073599Y-121050253D01*
X165053893Y-121064868D01*
X165032850Y-121077480D01*
X165010671Y-121087970D01*
X164987572Y-121096235D01*
X164963773Y-121102196D01*
X164939505Y-121105796D01*
X164915001Y-121107000D01*
X164014999Y-121107000D01*
X163990495Y-121105796D01*
X163966227Y-121102196D01*
X163942428Y-121096235D01*
X163919329Y-121087970D01*
X163897150Y-121077480D01*
X163876107Y-121064868D01*
X163856401Y-121050253D01*
X163838223Y-121033777D01*
X163821747Y-121015599D01*
X163807132Y-120995893D01*
X163794520Y-120974850D01*
X163784030Y-120952671D01*
X163775765Y-120929572D01*
X163769804Y-120905773D01*
X163766204Y-120881505D01*
X163765000Y-120857001D01*
X163765000Y-120206999D01*
X163766204Y-120182495D01*
X163769804Y-120158227D01*
X163775765Y-120134428D01*
X163784030Y-120111329D01*
X163794520Y-120089150D01*
X163807132Y-120068107D01*
X163821747Y-120048401D01*
X163838223Y-120030223D01*
X163856401Y-120013747D01*
X163876107Y-119999132D01*
X163897150Y-119986520D01*
X163919329Y-119976030D01*
X163942428Y-119967765D01*
X163966227Y-119961804D01*
X163990495Y-119958204D01*
X164014999Y-119957000D01*
X164915001Y-119957000D01*
X164939505Y-119958204D01*
X164939505Y-119958204D01*
G37*
D12*
X164465000Y-120532000D03*
D10*
G36*
X164939505Y-117908204D02*
G01*
X164963773Y-117911804D01*
X164987572Y-117917765D01*
X165010671Y-117926030D01*
X165032850Y-117936520D01*
X165053893Y-117949132D01*
X165073599Y-117963747D01*
X165091777Y-117980223D01*
X165108253Y-117998401D01*
X165122868Y-118018107D01*
X165135480Y-118039150D01*
X165145970Y-118061329D01*
X165154235Y-118084428D01*
X165160196Y-118108227D01*
X165163796Y-118132495D01*
X165165000Y-118156999D01*
X165165000Y-118807001D01*
X165163796Y-118831505D01*
X165160196Y-118855773D01*
X165154235Y-118879572D01*
X165145970Y-118902671D01*
X165135480Y-118924850D01*
X165122868Y-118945893D01*
X165108253Y-118965599D01*
X165091777Y-118983777D01*
X165073599Y-119000253D01*
X165053893Y-119014868D01*
X165032850Y-119027480D01*
X165010671Y-119037970D01*
X164987572Y-119046235D01*
X164963773Y-119052196D01*
X164939505Y-119055796D01*
X164915001Y-119057000D01*
X164014999Y-119057000D01*
X163990495Y-119055796D01*
X163966227Y-119052196D01*
X163942428Y-119046235D01*
X163919329Y-119037970D01*
X163897150Y-119027480D01*
X163876107Y-119014868D01*
X163856401Y-119000253D01*
X163838223Y-118983777D01*
X163821747Y-118965599D01*
X163807132Y-118945893D01*
X163794520Y-118924850D01*
X163784030Y-118902671D01*
X163775765Y-118879572D01*
X163769804Y-118855773D01*
X163766204Y-118831505D01*
X163765000Y-118807001D01*
X163765000Y-118156999D01*
X163766204Y-118132495D01*
X163769804Y-118108227D01*
X163775765Y-118084428D01*
X163784030Y-118061329D01*
X163794520Y-118039150D01*
X163807132Y-118018107D01*
X163821747Y-117998401D01*
X163838223Y-117980223D01*
X163856401Y-117963747D01*
X163876107Y-117949132D01*
X163897150Y-117936520D01*
X163919329Y-117926030D01*
X163942428Y-117917765D01*
X163966227Y-117911804D01*
X163990495Y-117908204D01*
X164014999Y-117907000D01*
X164915001Y-117907000D01*
X164939505Y-117908204D01*
X164939505Y-117908204D01*
G37*
D12*
X164465000Y-118482000D03*
D10*
G36*
X180179505Y-119704204D02*
G01*
X180203773Y-119707804D01*
X180227572Y-119713765D01*
X180250671Y-119722030D01*
X180272850Y-119732520D01*
X180293893Y-119745132D01*
X180313599Y-119759747D01*
X180331777Y-119776223D01*
X180348253Y-119794401D01*
X180362868Y-119814107D01*
X180375480Y-119835150D01*
X180385970Y-119857329D01*
X180394235Y-119880428D01*
X180400196Y-119904227D01*
X180403796Y-119928495D01*
X180405000Y-119952999D01*
X180405000Y-120603001D01*
X180403796Y-120627505D01*
X180400196Y-120651773D01*
X180394235Y-120675572D01*
X180385970Y-120698671D01*
X180375480Y-120720850D01*
X180362868Y-120741893D01*
X180348253Y-120761599D01*
X180331777Y-120779777D01*
X180313599Y-120796253D01*
X180293893Y-120810868D01*
X180272850Y-120823480D01*
X180250671Y-120833970D01*
X180227572Y-120842235D01*
X180203773Y-120848196D01*
X180179505Y-120851796D01*
X180155001Y-120853000D01*
X179254999Y-120853000D01*
X179230495Y-120851796D01*
X179206227Y-120848196D01*
X179182428Y-120842235D01*
X179159329Y-120833970D01*
X179137150Y-120823480D01*
X179116107Y-120810868D01*
X179096401Y-120796253D01*
X179078223Y-120779777D01*
X179061747Y-120761599D01*
X179047132Y-120741893D01*
X179034520Y-120720850D01*
X179024030Y-120698671D01*
X179015765Y-120675572D01*
X179009804Y-120651773D01*
X179006204Y-120627505D01*
X179005000Y-120603001D01*
X179005000Y-119952999D01*
X179006204Y-119928495D01*
X179009804Y-119904227D01*
X179015765Y-119880428D01*
X179024030Y-119857329D01*
X179034520Y-119835150D01*
X179047132Y-119814107D01*
X179061747Y-119794401D01*
X179078223Y-119776223D01*
X179096401Y-119759747D01*
X179116107Y-119745132D01*
X179137150Y-119732520D01*
X179159329Y-119722030D01*
X179182428Y-119713765D01*
X179206227Y-119707804D01*
X179230495Y-119704204D01*
X179254999Y-119703000D01*
X180155001Y-119703000D01*
X180179505Y-119704204D01*
X180179505Y-119704204D01*
G37*
D12*
X179705000Y-120278000D03*
D10*
G36*
X180179505Y-117654204D02*
G01*
X180203773Y-117657804D01*
X180227572Y-117663765D01*
X180250671Y-117672030D01*
X180272850Y-117682520D01*
X180293893Y-117695132D01*
X180313599Y-117709747D01*
X180331777Y-117726223D01*
X180348253Y-117744401D01*
X180362868Y-117764107D01*
X180375480Y-117785150D01*
X180385970Y-117807329D01*
X180394235Y-117830428D01*
X180400196Y-117854227D01*
X180403796Y-117878495D01*
X180405000Y-117902999D01*
X180405000Y-118553001D01*
X180403796Y-118577505D01*
X180400196Y-118601773D01*
X180394235Y-118625572D01*
X180385970Y-118648671D01*
X180375480Y-118670850D01*
X180362868Y-118691893D01*
X180348253Y-118711599D01*
X180331777Y-118729777D01*
X180313599Y-118746253D01*
X180293893Y-118760868D01*
X180272850Y-118773480D01*
X180250671Y-118783970D01*
X180227572Y-118792235D01*
X180203773Y-118798196D01*
X180179505Y-118801796D01*
X180155001Y-118803000D01*
X179254999Y-118803000D01*
X179230495Y-118801796D01*
X179206227Y-118798196D01*
X179182428Y-118792235D01*
X179159329Y-118783970D01*
X179137150Y-118773480D01*
X179116107Y-118760868D01*
X179096401Y-118746253D01*
X179078223Y-118729777D01*
X179061747Y-118711599D01*
X179047132Y-118691893D01*
X179034520Y-118670850D01*
X179024030Y-118648671D01*
X179015765Y-118625572D01*
X179009804Y-118601773D01*
X179006204Y-118577505D01*
X179005000Y-118553001D01*
X179005000Y-117902999D01*
X179006204Y-117878495D01*
X179009804Y-117854227D01*
X179015765Y-117830428D01*
X179024030Y-117807329D01*
X179034520Y-117785150D01*
X179047132Y-117764107D01*
X179061747Y-117744401D01*
X179078223Y-117726223D01*
X179096401Y-117709747D01*
X179116107Y-117695132D01*
X179137150Y-117682520D01*
X179159329Y-117672030D01*
X179182428Y-117663765D01*
X179206227Y-117657804D01*
X179230495Y-117654204D01*
X179254999Y-117653000D01*
X180155001Y-117653000D01*
X180179505Y-117654204D01*
X180179505Y-117654204D01*
G37*
D12*
X179705000Y-118228000D03*
D10*
G36*
X174972505Y-81459204D02*
G01*
X174996773Y-81462804D01*
X175020572Y-81468765D01*
X175043671Y-81477030D01*
X175065850Y-81487520D01*
X175086893Y-81500132D01*
X175106599Y-81514747D01*
X175124777Y-81531223D01*
X175141253Y-81549401D01*
X175155868Y-81569107D01*
X175168480Y-81590150D01*
X175178970Y-81612329D01*
X175187235Y-81635428D01*
X175193196Y-81659227D01*
X175196796Y-81683495D01*
X175198000Y-81707999D01*
X175198000Y-82358001D01*
X175196796Y-82382505D01*
X175193196Y-82406773D01*
X175187235Y-82430572D01*
X175178970Y-82453671D01*
X175168480Y-82475850D01*
X175155868Y-82496893D01*
X175141253Y-82516599D01*
X175124777Y-82534777D01*
X175106599Y-82551253D01*
X175086893Y-82565868D01*
X175065850Y-82578480D01*
X175043671Y-82588970D01*
X175020572Y-82597235D01*
X174996773Y-82603196D01*
X174972505Y-82606796D01*
X174948001Y-82608000D01*
X174047999Y-82608000D01*
X174023495Y-82606796D01*
X173999227Y-82603196D01*
X173975428Y-82597235D01*
X173952329Y-82588970D01*
X173930150Y-82578480D01*
X173909107Y-82565868D01*
X173889401Y-82551253D01*
X173871223Y-82534777D01*
X173854747Y-82516599D01*
X173840132Y-82496893D01*
X173827520Y-82475850D01*
X173817030Y-82453671D01*
X173808765Y-82430572D01*
X173802804Y-82406773D01*
X173799204Y-82382505D01*
X173798000Y-82358001D01*
X173798000Y-81707999D01*
X173799204Y-81683495D01*
X173802804Y-81659227D01*
X173808765Y-81635428D01*
X173817030Y-81612329D01*
X173827520Y-81590150D01*
X173840132Y-81569107D01*
X173854747Y-81549401D01*
X173871223Y-81531223D01*
X173889401Y-81514747D01*
X173909107Y-81500132D01*
X173930150Y-81487520D01*
X173952329Y-81477030D01*
X173975428Y-81468765D01*
X173999227Y-81462804D01*
X174023495Y-81459204D01*
X174047999Y-81458000D01*
X174948001Y-81458000D01*
X174972505Y-81459204D01*
X174972505Y-81459204D01*
G37*
D12*
X174498000Y-82033000D03*
D10*
G36*
X174972505Y-83509204D02*
G01*
X174996773Y-83512804D01*
X175020572Y-83518765D01*
X175043671Y-83527030D01*
X175065850Y-83537520D01*
X175086893Y-83550132D01*
X175106599Y-83564747D01*
X175124777Y-83581223D01*
X175141253Y-83599401D01*
X175155868Y-83619107D01*
X175168480Y-83640150D01*
X175178970Y-83662329D01*
X175187235Y-83685428D01*
X175193196Y-83709227D01*
X175196796Y-83733495D01*
X175198000Y-83757999D01*
X175198000Y-84408001D01*
X175196796Y-84432505D01*
X175193196Y-84456773D01*
X175187235Y-84480572D01*
X175178970Y-84503671D01*
X175168480Y-84525850D01*
X175155868Y-84546893D01*
X175141253Y-84566599D01*
X175124777Y-84584777D01*
X175106599Y-84601253D01*
X175086893Y-84615868D01*
X175065850Y-84628480D01*
X175043671Y-84638970D01*
X175020572Y-84647235D01*
X174996773Y-84653196D01*
X174972505Y-84656796D01*
X174948001Y-84658000D01*
X174047999Y-84658000D01*
X174023495Y-84656796D01*
X173999227Y-84653196D01*
X173975428Y-84647235D01*
X173952329Y-84638970D01*
X173930150Y-84628480D01*
X173909107Y-84615868D01*
X173889401Y-84601253D01*
X173871223Y-84584777D01*
X173854747Y-84566599D01*
X173840132Y-84546893D01*
X173827520Y-84525850D01*
X173817030Y-84503671D01*
X173808765Y-84480572D01*
X173802804Y-84456773D01*
X173799204Y-84432505D01*
X173798000Y-84408001D01*
X173798000Y-83757999D01*
X173799204Y-83733495D01*
X173802804Y-83709227D01*
X173808765Y-83685428D01*
X173817030Y-83662329D01*
X173827520Y-83640150D01*
X173840132Y-83619107D01*
X173854747Y-83599401D01*
X173871223Y-83581223D01*
X173889401Y-83564747D01*
X173909107Y-83550132D01*
X173930150Y-83537520D01*
X173952329Y-83527030D01*
X173975428Y-83518765D01*
X173999227Y-83512804D01*
X174023495Y-83509204D01*
X174047999Y-83508000D01*
X174948001Y-83508000D01*
X174972505Y-83509204D01*
X174972505Y-83509204D01*
G37*
D12*
X174498000Y-84083000D03*
D10*
G36*
X174591505Y-109925204D02*
G01*
X174615773Y-109928804D01*
X174639572Y-109934765D01*
X174662671Y-109943030D01*
X174684850Y-109953520D01*
X174705893Y-109966132D01*
X174725599Y-109980747D01*
X174743777Y-109997223D01*
X174760253Y-110015401D01*
X174774868Y-110035107D01*
X174787480Y-110056150D01*
X174797970Y-110078329D01*
X174806235Y-110101428D01*
X174812196Y-110125227D01*
X174815796Y-110149495D01*
X174817000Y-110173999D01*
X174817000Y-110824001D01*
X174815796Y-110848505D01*
X174812196Y-110872773D01*
X174806235Y-110896572D01*
X174797970Y-110919671D01*
X174787480Y-110941850D01*
X174774868Y-110962893D01*
X174760253Y-110982599D01*
X174743777Y-111000777D01*
X174725599Y-111017253D01*
X174705893Y-111031868D01*
X174684850Y-111044480D01*
X174662671Y-111054970D01*
X174639572Y-111063235D01*
X174615773Y-111069196D01*
X174591505Y-111072796D01*
X174567001Y-111074000D01*
X173666999Y-111074000D01*
X173642495Y-111072796D01*
X173618227Y-111069196D01*
X173594428Y-111063235D01*
X173571329Y-111054970D01*
X173549150Y-111044480D01*
X173528107Y-111031868D01*
X173508401Y-111017253D01*
X173490223Y-111000777D01*
X173473747Y-110982599D01*
X173459132Y-110962893D01*
X173446520Y-110941850D01*
X173436030Y-110919671D01*
X173427765Y-110896572D01*
X173421804Y-110872773D01*
X173418204Y-110848505D01*
X173417000Y-110824001D01*
X173417000Y-110173999D01*
X173418204Y-110149495D01*
X173421804Y-110125227D01*
X173427765Y-110101428D01*
X173436030Y-110078329D01*
X173446520Y-110056150D01*
X173459132Y-110035107D01*
X173473747Y-110015401D01*
X173490223Y-109997223D01*
X173508401Y-109980747D01*
X173528107Y-109966132D01*
X173549150Y-109953520D01*
X173571329Y-109943030D01*
X173594428Y-109934765D01*
X173618227Y-109928804D01*
X173642495Y-109925204D01*
X173666999Y-109924000D01*
X174567001Y-109924000D01*
X174591505Y-109925204D01*
X174591505Y-109925204D01*
G37*
D12*
X174117000Y-110499000D03*
D10*
G36*
X174591505Y-107875204D02*
G01*
X174615773Y-107878804D01*
X174639572Y-107884765D01*
X174662671Y-107893030D01*
X174684850Y-107903520D01*
X174705893Y-107916132D01*
X174725599Y-107930747D01*
X174743777Y-107947223D01*
X174760253Y-107965401D01*
X174774868Y-107985107D01*
X174787480Y-108006150D01*
X174797970Y-108028329D01*
X174806235Y-108051428D01*
X174812196Y-108075227D01*
X174815796Y-108099495D01*
X174817000Y-108123999D01*
X174817000Y-108774001D01*
X174815796Y-108798505D01*
X174812196Y-108822773D01*
X174806235Y-108846572D01*
X174797970Y-108869671D01*
X174787480Y-108891850D01*
X174774868Y-108912893D01*
X174760253Y-108932599D01*
X174743777Y-108950777D01*
X174725599Y-108967253D01*
X174705893Y-108981868D01*
X174684850Y-108994480D01*
X174662671Y-109004970D01*
X174639572Y-109013235D01*
X174615773Y-109019196D01*
X174591505Y-109022796D01*
X174567001Y-109024000D01*
X173666999Y-109024000D01*
X173642495Y-109022796D01*
X173618227Y-109019196D01*
X173594428Y-109013235D01*
X173571329Y-109004970D01*
X173549150Y-108994480D01*
X173528107Y-108981868D01*
X173508401Y-108967253D01*
X173490223Y-108950777D01*
X173473747Y-108932599D01*
X173459132Y-108912893D01*
X173446520Y-108891850D01*
X173436030Y-108869671D01*
X173427765Y-108846572D01*
X173421804Y-108822773D01*
X173418204Y-108798505D01*
X173417000Y-108774001D01*
X173417000Y-108123999D01*
X173418204Y-108099495D01*
X173421804Y-108075227D01*
X173427765Y-108051428D01*
X173436030Y-108028329D01*
X173446520Y-108006150D01*
X173459132Y-107985107D01*
X173473747Y-107965401D01*
X173490223Y-107947223D01*
X173508401Y-107930747D01*
X173528107Y-107916132D01*
X173549150Y-107903520D01*
X173571329Y-107893030D01*
X173594428Y-107884765D01*
X173618227Y-107878804D01*
X173642495Y-107875204D01*
X173666999Y-107874000D01*
X174567001Y-107874000D01*
X174591505Y-107875204D01*
X174591505Y-107875204D01*
G37*
D12*
X174117000Y-108449000D03*
D10*
G36*
X174972505Y-98241204D02*
G01*
X174996773Y-98244804D01*
X175020572Y-98250765D01*
X175043671Y-98259030D01*
X175065850Y-98269520D01*
X175086893Y-98282132D01*
X175106599Y-98296747D01*
X175124777Y-98313223D01*
X175141253Y-98331401D01*
X175155868Y-98351107D01*
X175168480Y-98372150D01*
X175178970Y-98394329D01*
X175187235Y-98417428D01*
X175193196Y-98441227D01*
X175196796Y-98465495D01*
X175198000Y-98489999D01*
X175198000Y-99140001D01*
X175196796Y-99164505D01*
X175193196Y-99188773D01*
X175187235Y-99212572D01*
X175178970Y-99235671D01*
X175168480Y-99257850D01*
X175155868Y-99278893D01*
X175141253Y-99298599D01*
X175124777Y-99316777D01*
X175106599Y-99333253D01*
X175086893Y-99347868D01*
X175065850Y-99360480D01*
X175043671Y-99370970D01*
X175020572Y-99379235D01*
X174996773Y-99385196D01*
X174972505Y-99388796D01*
X174948001Y-99390000D01*
X174047999Y-99390000D01*
X174023495Y-99388796D01*
X173999227Y-99385196D01*
X173975428Y-99379235D01*
X173952329Y-99370970D01*
X173930150Y-99360480D01*
X173909107Y-99347868D01*
X173889401Y-99333253D01*
X173871223Y-99316777D01*
X173854747Y-99298599D01*
X173840132Y-99278893D01*
X173827520Y-99257850D01*
X173817030Y-99235671D01*
X173808765Y-99212572D01*
X173802804Y-99188773D01*
X173799204Y-99164505D01*
X173798000Y-99140001D01*
X173798000Y-98489999D01*
X173799204Y-98465495D01*
X173802804Y-98441227D01*
X173808765Y-98417428D01*
X173817030Y-98394329D01*
X173827520Y-98372150D01*
X173840132Y-98351107D01*
X173854747Y-98331401D01*
X173871223Y-98313223D01*
X173889401Y-98296747D01*
X173909107Y-98282132D01*
X173930150Y-98269520D01*
X173952329Y-98259030D01*
X173975428Y-98250765D01*
X173999227Y-98244804D01*
X174023495Y-98241204D01*
X174047999Y-98240000D01*
X174948001Y-98240000D01*
X174972505Y-98241204D01*
X174972505Y-98241204D01*
G37*
D12*
X174498000Y-98815000D03*
D10*
G36*
X174972505Y-96191204D02*
G01*
X174996773Y-96194804D01*
X175020572Y-96200765D01*
X175043671Y-96209030D01*
X175065850Y-96219520D01*
X175086893Y-96232132D01*
X175106599Y-96246747D01*
X175124777Y-96263223D01*
X175141253Y-96281401D01*
X175155868Y-96301107D01*
X175168480Y-96322150D01*
X175178970Y-96344329D01*
X175187235Y-96367428D01*
X175193196Y-96391227D01*
X175196796Y-96415495D01*
X175198000Y-96439999D01*
X175198000Y-97090001D01*
X175196796Y-97114505D01*
X175193196Y-97138773D01*
X175187235Y-97162572D01*
X175178970Y-97185671D01*
X175168480Y-97207850D01*
X175155868Y-97228893D01*
X175141253Y-97248599D01*
X175124777Y-97266777D01*
X175106599Y-97283253D01*
X175086893Y-97297868D01*
X175065850Y-97310480D01*
X175043671Y-97320970D01*
X175020572Y-97329235D01*
X174996773Y-97335196D01*
X174972505Y-97338796D01*
X174948001Y-97340000D01*
X174047999Y-97340000D01*
X174023495Y-97338796D01*
X173999227Y-97335196D01*
X173975428Y-97329235D01*
X173952329Y-97320970D01*
X173930150Y-97310480D01*
X173909107Y-97297868D01*
X173889401Y-97283253D01*
X173871223Y-97266777D01*
X173854747Y-97248599D01*
X173840132Y-97228893D01*
X173827520Y-97207850D01*
X173817030Y-97185671D01*
X173808765Y-97162572D01*
X173802804Y-97138773D01*
X173799204Y-97114505D01*
X173798000Y-97090001D01*
X173798000Y-96439999D01*
X173799204Y-96415495D01*
X173802804Y-96391227D01*
X173808765Y-96367428D01*
X173817030Y-96344329D01*
X173827520Y-96322150D01*
X173840132Y-96301107D01*
X173854747Y-96281401D01*
X173871223Y-96263223D01*
X173889401Y-96246747D01*
X173909107Y-96232132D01*
X173930150Y-96219520D01*
X173952329Y-96209030D01*
X173975428Y-96200765D01*
X173999227Y-96194804D01*
X174023495Y-96191204D01*
X174047999Y-96190000D01*
X174948001Y-96190000D01*
X174972505Y-96191204D01*
X174972505Y-96191204D01*
G37*
D12*
X174498000Y-96765000D03*
M02*
