G04 #@! TF.GenerationSoftware,KiCad,Pcbnew,(5.1.2-1)-1*
G04 #@! TF.CreationDate,2019-09-02T14:14:07+01:00*
G04 #@! TF.ProjectId,MZ80-ROMPG,4d5a3830-2d52-44f4-9d50-472e6b696361,rev?*
G04 #@! TF.SameCoordinates,Original*
G04 #@! TF.FileFunction,Soldermask,Bot*
G04 #@! TF.FilePolarity,Negative*
%FSLAX46Y46*%
G04 Gerber Fmt 4.6, Leading zero omitted, Abs format (unit mm)*
G04 Created by KiCad (PCBNEW (5.1.2-1)-1) date 2019-09-02 14:14:07*
%MOMM*%
%LPD*%
G04 APERTURE LIST*
%ADD10C,0.100000*%
G04 APERTURE END LIST*
D10*
G36*
X156447442Y-118485518D02*
G01*
X156513627Y-118492037D01*
X156683466Y-118543557D01*
X156839991Y-118627222D01*
X156875729Y-118656552D01*
X156977186Y-118739814D01*
X157060448Y-118841271D01*
X157089778Y-118877009D01*
X157173443Y-119033534D01*
X157224963Y-119203373D01*
X157242359Y-119380000D01*
X157224963Y-119556627D01*
X157173443Y-119726466D01*
X157089778Y-119882991D01*
X157060448Y-119918729D01*
X156977186Y-120020186D01*
X156875729Y-120103448D01*
X156839991Y-120132778D01*
X156683466Y-120216443D01*
X156513627Y-120267963D01*
X156447442Y-120274482D01*
X156381260Y-120281000D01*
X156292740Y-120281000D01*
X156226558Y-120274482D01*
X156160373Y-120267963D01*
X155990534Y-120216443D01*
X155834009Y-120132778D01*
X155798271Y-120103448D01*
X155696814Y-120020186D01*
X155613552Y-119918729D01*
X155584222Y-119882991D01*
X155500557Y-119726466D01*
X155449037Y-119556627D01*
X155431641Y-119380000D01*
X155449037Y-119203373D01*
X155500557Y-119033534D01*
X155584222Y-118877009D01*
X155613552Y-118841271D01*
X155696814Y-118739814D01*
X155798271Y-118656552D01*
X155834009Y-118627222D01*
X155990534Y-118543557D01*
X156160373Y-118492037D01*
X156226558Y-118485518D01*
X156292740Y-118479000D01*
X156381260Y-118479000D01*
X156447442Y-118485518D01*
X156447442Y-118485518D01*
G37*
G36*
X153907442Y-118485518D02*
G01*
X153973627Y-118492037D01*
X154143466Y-118543557D01*
X154299991Y-118627222D01*
X154335729Y-118656552D01*
X154437186Y-118739814D01*
X154520448Y-118841271D01*
X154549778Y-118877009D01*
X154633443Y-119033534D01*
X154684963Y-119203373D01*
X154702359Y-119380000D01*
X154684963Y-119556627D01*
X154633443Y-119726466D01*
X154549778Y-119882991D01*
X154520448Y-119918729D01*
X154437186Y-120020186D01*
X154335729Y-120103448D01*
X154299991Y-120132778D01*
X154143466Y-120216443D01*
X153973627Y-120267963D01*
X153907442Y-120274482D01*
X153841260Y-120281000D01*
X153752740Y-120281000D01*
X153686558Y-120274482D01*
X153620373Y-120267963D01*
X153450534Y-120216443D01*
X153294009Y-120132778D01*
X153258271Y-120103448D01*
X153156814Y-120020186D01*
X153073552Y-119918729D01*
X153044222Y-119882991D01*
X152960557Y-119726466D01*
X152909037Y-119556627D01*
X152891641Y-119380000D01*
X152909037Y-119203373D01*
X152960557Y-119033534D01*
X153044222Y-118877009D01*
X153073552Y-118841271D01*
X153156814Y-118739814D01*
X153258271Y-118656552D01*
X153294009Y-118627222D01*
X153450534Y-118543557D01*
X153620373Y-118492037D01*
X153686558Y-118485518D01*
X153752740Y-118479000D01*
X153841260Y-118479000D01*
X153907442Y-118485518D01*
X153907442Y-118485518D01*
G37*
G36*
X152158000Y-120281000D02*
G01*
X150356000Y-120281000D01*
X150356000Y-118479000D01*
X152158000Y-118479000D01*
X152158000Y-120281000D01*
X152158000Y-120281000D01*
G37*
G36*
X154725823Y-112191313D02*
G01*
X154886242Y-112239976D01*
X155018906Y-112310886D01*
X155034078Y-112318996D01*
X155163659Y-112425341D01*
X155270004Y-112554922D01*
X155270005Y-112554924D01*
X155349024Y-112702758D01*
X155397687Y-112863177D01*
X155414117Y-113030000D01*
X155397687Y-113196823D01*
X155349024Y-113357242D01*
X155278114Y-113489906D01*
X155270004Y-113505078D01*
X155163659Y-113634659D01*
X155034078Y-113741004D01*
X155034076Y-113741005D01*
X154886242Y-113820024D01*
X154725823Y-113868687D01*
X154600804Y-113881000D01*
X154517196Y-113881000D01*
X154392177Y-113868687D01*
X154231758Y-113820024D01*
X154083924Y-113741005D01*
X154083922Y-113741004D01*
X153954341Y-113634659D01*
X153847996Y-113505078D01*
X153839886Y-113489906D01*
X153768976Y-113357242D01*
X153720313Y-113196823D01*
X153703883Y-113030000D01*
X153720313Y-112863177D01*
X153768976Y-112702758D01*
X153847995Y-112554924D01*
X153847996Y-112554922D01*
X153954341Y-112425341D01*
X154083922Y-112318996D01*
X154099094Y-112310886D01*
X154231758Y-112239976D01*
X154392177Y-112191313D01*
X154517196Y-112179000D01*
X154600804Y-112179000D01*
X154725823Y-112191313D01*
X154725823Y-112191313D01*
G37*
G36*
X152185823Y-112191313D02*
G01*
X152346242Y-112239976D01*
X152478906Y-112310886D01*
X152494078Y-112318996D01*
X152623659Y-112425341D01*
X152730004Y-112554922D01*
X152730005Y-112554924D01*
X152809024Y-112702758D01*
X152857687Y-112863177D01*
X152874117Y-113030000D01*
X152857687Y-113196823D01*
X152809024Y-113357242D01*
X152738114Y-113489906D01*
X152730004Y-113505078D01*
X152623659Y-113634659D01*
X152494078Y-113741004D01*
X152494076Y-113741005D01*
X152346242Y-113820024D01*
X152185823Y-113868687D01*
X152060804Y-113881000D01*
X151977196Y-113881000D01*
X151852177Y-113868687D01*
X151691758Y-113820024D01*
X151543924Y-113741005D01*
X151543922Y-113741004D01*
X151414341Y-113634659D01*
X151307996Y-113505078D01*
X151299886Y-113489906D01*
X151228976Y-113357242D01*
X151180313Y-113196823D01*
X151163883Y-113030000D01*
X151180313Y-112863177D01*
X151228976Y-112702758D01*
X151307995Y-112554924D01*
X151307996Y-112554922D01*
X151414341Y-112425341D01*
X151543922Y-112318996D01*
X151559094Y-112310886D01*
X151691758Y-112239976D01*
X151852177Y-112191313D01*
X151977196Y-112179000D01*
X152060804Y-112179000D01*
X152185823Y-112191313D01*
X152185823Y-112191313D01*
G37*
G36*
X149645823Y-112191313D02*
G01*
X149806242Y-112239976D01*
X149938906Y-112310886D01*
X149954078Y-112318996D01*
X150083659Y-112425341D01*
X150190004Y-112554922D01*
X150190005Y-112554924D01*
X150269024Y-112702758D01*
X150317687Y-112863177D01*
X150334117Y-113030000D01*
X150317687Y-113196823D01*
X150269024Y-113357242D01*
X150198114Y-113489906D01*
X150190004Y-113505078D01*
X150083659Y-113634659D01*
X149954078Y-113741004D01*
X149954076Y-113741005D01*
X149806242Y-113820024D01*
X149645823Y-113868687D01*
X149520804Y-113881000D01*
X149437196Y-113881000D01*
X149312177Y-113868687D01*
X149151758Y-113820024D01*
X149003924Y-113741005D01*
X149003922Y-113741004D01*
X148874341Y-113634659D01*
X148767996Y-113505078D01*
X148759886Y-113489906D01*
X148688976Y-113357242D01*
X148640313Y-113196823D01*
X148623883Y-113030000D01*
X148640313Y-112863177D01*
X148688976Y-112702758D01*
X148767995Y-112554924D01*
X148767996Y-112554922D01*
X148874341Y-112425341D01*
X149003922Y-112318996D01*
X149019094Y-112310886D01*
X149151758Y-112239976D01*
X149312177Y-112191313D01*
X149437196Y-112179000D01*
X149520804Y-112179000D01*
X149645823Y-112191313D01*
X149645823Y-112191313D01*
G37*
G36*
X147105823Y-112191313D02*
G01*
X147266242Y-112239976D01*
X147398906Y-112310886D01*
X147414078Y-112318996D01*
X147543659Y-112425341D01*
X147650004Y-112554922D01*
X147650005Y-112554924D01*
X147729024Y-112702758D01*
X147777687Y-112863177D01*
X147794117Y-113030000D01*
X147777687Y-113196823D01*
X147729024Y-113357242D01*
X147658114Y-113489906D01*
X147650004Y-113505078D01*
X147543659Y-113634659D01*
X147414078Y-113741004D01*
X147414076Y-113741005D01*
X147266242Y-113820024D01*
X147105823Y-113868687D01*
X146980804Y-113881000D01*
X146897196Y-113881000D01*
X146772177Y-113868687D01*
X146611758Y-113820024D01*
X146463924Y-113741005D01*
X146463922Y-113741004D01*
X146334341Y-113634659D01*
X146227996Y-113505078D01*
X146219886Y-113489906D01*
X146148976Y-113357242D01*
X146100313Y-113196823D01*
X146083883Y-113030000D01*
X146100313Y-112863177D01*
X146148976Y-112702758D01*
X146227995Y-112554924D01*
X146227996Y-112554922D01*
X146334341Y-112425341D01*
X146463922Y-112318996D01*
X146479094Y-112310886D01*
X146611758Y-112239976D01*
X146772177Y-112191313D01*
X146897196Y-112179000D01*
X146980804Y-112179000D01*
X147105823Y-112191313D01*
X147105823Y-112191313D01*
G37*
G36*
X144565823Y-112191313D02*
G01*
X144726242Y-112239976D01*
X144858906Y-112310886D01*
X144874078Y-112318996D01*
X145003659Y-112425341D01*
X145110004Y-112554922D01*
X145110005Y-112554924D01*
X145189024Y-112702758D01*
X145237687Y-112863177D01*
X145254117Y-113030000D01*
X145237687Y-113196823D01*
X145189024Y-113357242D01*
X145118114Y-113489906D01*
X145110004Y-113505078D01*
X145003659Y-113634659D01*
X144874078Y-113741004D01*
X144874076Y-113741005D01*
X144726242Y-113820024D01*
X144565823Y-113868687D01*
X144440804Y-113881000D01*
X144357196Y-113881000D01*
X144232177Y-113868687D01*
X144071758Y-113820024D01*
X143923924Y-113741005D01*
X143923922Y-113741004D01*
X143794341Y-113634659D01*
X143687996Y-113505078D01*
X143679886Y-113489906D01*
X143608976Y-113357242D01*
X143560313Y-113196823D01*
X143543883Y-113030000D01*
X143560313Y-112863177D01*
X143608976Y-112702758D01*
X143687995Y-112554924D01*
X143687996Y-112554922D01*
X143794341Y-112425341D01*
X143923922Y-112318996D01*
X143939094Y-112310886D01*
X144071758Y-112239976D01*
X144232177Y-112191313D01*
X144357196Y-112179000D01*
X144440804Y-112179000D01*
X144565823Y-112191313D01*
X144565823Y-112191313D01*
G37*
G36*
X142025823Y-112191313D02*
G01*
X142186242Y-112239976D01*
X142318906Y-112310886D01*
X142334078Y-112318996D01*
X142463659Y-112425341D01*
X142570004Y-112554922D01*
X142570005Y-112554924D01*
X142649024Y-112702758D01*
X142697687Y-112863177D01*
X142714117Y-113030000D01*
X142697687Y-113196823D01*
X142649024Y-113357242D01*
X142578114Y-113489906D01*
X142570004Y-113505078D01*
X142463659Y-113634659D01*
X142334078Y-113741004D01*
X142334076Y-113741005D01*
X142186242Y-113820024D01*
X142025823Y-113868687D01*
X141900804Y-113881000D01*
X141817196Y-113881000D01*
X141692177Y-113868687D01*
X141531758Y-113820024D01*
X141383924Y-113741005D01*
X141383922Y-113741004D01*
X141254341Y-113634659D01*
X141147996Y-113505078D01*
X141139886Y-113489906D01*
X141068976Y-113357242D01*
X141020313Y-113196823D01*
X141003883Y-113030000D01*
X141020313Y-112863177D01*
X141068976Y-112702758D01*
X141147995Y-112554924D01*
X141147996Y-112554922D01*
X141254341Y-112425341D01*
X141383922Y-112318996D01*
X141399094Y-112310886D01*
X141531758Y-112239976D01*
X141692177Y-112191313D01*
X141817196Y-112179000D01*
X141900804Y-112179000D01*
X142025823Y-112191313D01*
X142025823Y-112191313D01*
G37*
G36*
X139485823Y-112191313D02*
G01*
X139646242Y-112239976D01*
X139778906Y-112310886D01*
X139794078Y-112318996D01*
X139923659Y-112425341D01*
X140030004Y-112554922D01*
X140030005Y-112554924D01*
X140109024Y-112702758D01*
X140157687Y-112863177D01*
X140174117Y-113030000D01*
X140157687Y-113196823D01*
X140109024Y-113357242D01*
X140038114Y-113489906D01*
X140030004Y-113505078D01*
X139923659Y-113634659D01*
X139794078Y-113741004D01*
X139794076Y-113741005D01*
X139646242Y-113820024D01*
X139485823Y-113868687D01*
X139360804Y-113881000D01*
X139277196Y-113881000D01*
X139152177Y-113868687D01*
X138991758Y-113820024D01*
X138843924Y-113741005D01*
X138843922Y-113741004D01*
X138714341Y-113634659D01*
X138607996Y-113505078D01*
X138599886Y-113489906D01*
X138528976Y-113357242D01*
X138480313Y-113196823D01*
X138463883Y-113030000D01*
X138480313Y-112863177D01*
X138528976Y-112702758D01*
X138607995Y-112554924D01*
X138607996Y-112554922D01*
X138714341Y-112425341D01*
X138843922Y-112318996D01*
X138859094Y-112310886D01*
X138991758Y-112239976D01*
X139152177Y-112191313D01*
X139277196Y-112179000D01*
X139360804Y-112179000D01*
X139485823Y-112191313D01*
X139485823Y-112191313D01*
G37*
G36*
X136945823Y-112191313D02*
G01*
X137106242Y-112239976D01*
X137238906Y-112310886D01*
X137254078Y-112318996D01*
X137383659Y-112425341D01*
X137490004Y-112554922D01*
X137490005Y-112554924D01*
X137569024Y-112702758D01*
X137617687Y-112863177D01*
X137634117Y-113030000D01*
X137617687Y-113196823D01*
X137569024Y-113357242D01*
X137498114Y-113489906D01*
X137490004Y-113505078D01*
X137383659Y-113634659D01*
X137254078Y-113741004D01*
X137254076Y-113741005D01*
X137106242Y-113820024D01*
X136945823Y-113868687D01*
X136820804Y-113881000D01*
X136737196Y-113881000D01*
X136612177Y-113868687D01*
X136451758Y-113820024D01*
X136303924Y-113741005D01*
X136303922Y-113741004D01*
X136174341Y-113634659D01*
X136067996Y-113505078D01*
X136059886Y-113489906D01*
X135988976Y-113357242D01*
X135940313Y-113196823D01*
X135923883Y-113030000D01*
X135940313Y-112863177D01*
X135988976Y-112702758D01*
X136067995Y-112554924D01*
X136067996Y-112554922D01*
X136174341Y-112425341D01*
X136303922Y-112318996D01*
X136319094Y-112310886D01*
X136451758Y-112239976D01*
X136612177Y-112191313D01*
X136737196Y-112179000D01*
X136820804Y-112179000D01*
X136945823Y-112191313D01*
X136945823Y-112191313D01*
G37*
G36*
X135090000Y-113881000D02*
G01*
X133388000Y-113881000D01*
X133388000Y-112179000D01*
X135090000Y-112179000D01*
X135090000Y-113881000D01*
X135090000Y-113881000D01*
G37*
G36*
X159805823Y-112191313D02*
G01*
X159966242Y-112239976D01*
X160098906Y-112310886D01*
X160114078Y-112318996D01*
X160243659Y-112425341D01*
X160350004Y-112554922D01*
X160350005Y-112554924D01*
X160429024Y-112702758D01*
X160477687Y-112863177D01*
X160494117Y-113030000D01*
X160477687Y-113196823D01*
X160429024Y-113357242D01*
X160358114Y-113489906D01*
X160350004Y-113505078D01*
X160243659Y-113634659D01*
X160114078Y-113741004D01*
X160114076Y-113741005D01*
X159966242Y-113820024D01*
X159805823Y-113868687D01*
X159680804Y-113881000D01*
X159597196Y-113881000D01*
X159472177Y-113868687D01*
X159311758Y-113820024D01*
X159163924Y-113741005D01*
X159163922Y-113741004D01*
X159034341Y-113634659D01*
X158927996Y-113505078D01*
X158919886Y-113489906D01*
X158848976Y-113357242D01*
X158800313Y-113196823D01*
X158783883Y-113030000D01*
X158800313Y-112863177D01*
X158848976Y-112702758D01*
X158927995Y-112554924D01*
X158927996Y-112554922D01*
X159034341Y-112425341D01*
X159163922Y-112318996D01*
X159179094Y-112310886D01*
X159311758Y-112239976D01*
X159472177Y-112191313D01*
X159597196Y-112179000D01*
X159680804Y-112179000D01*
X159805823Y-112191313D01*
X159805823Y-112191313D01*
G37*
G36*
X162345823Y-112191313D02*
G01*
X162506242Y-112239976D01*
X162638906Y-112310886D01*
X162654078Y-112318996D01*
X162783659Y-112425341D01*
X162890004Y-112554922D01*
X162890005Y-112554924D01*
X162969024Y-112702758D01*
X163017687Y-112863177D01*
X163034117Y-113030000D01*
X163017687Y-113196823D01*
X162969024Y-113357242D01*
X162898114Y-113489906D01*
X162890004Y-113505078D01*
X162783659Y-113634659D01*
X162654078Y-113741004D01*
X162654076Y-113741005D01*
X162506242Y-113820024D01*
X162345823Y-113868687D01*
X162220804Y-113881000D01*
X162137196Y-113881000D01*
X162012177Y-113868687D01*
X161851758Y-113820024D01*
X161703924Y-113741005D01*
X161703922Y-113741004D01*
X161574341Y-113634659D01*
X161467996Y-113505078D01*
X161459886Y-113489906D01*
X161388976Y-113357242D01*
X161340313Y-113196823D01*
X161323883Y-113030000D01*
X161340313Y-112863177D01*
X161388976Y-112702758D01*
X161467995Y-112554924D01*
X161467996Y-112554922D01*
X161574341Y-112425341D01*
X161703922Y-112318996D01*
X161719094Y-112310886D01*
X161851758Y-112239976D01*
X162012177Y-112191313D01*
X162137196Y-112179000D01*
X162220804Y-112179000D01*
X162345823Y-112191313D01*
X162345823Y-112191313D01*
G37*
G36*
X157265823Y-112191313D02*
G01*
X157426242Y-112239976D01*
X157558906Y-112310886D01*
X157574078Y-112318996D01*
X157703659Y-112425341D01*
X157810004Y-112554922D01*
X157810005Y-112554924D01*
X157889024Y-112702758D01*
X157937687Y-112863177D01*
X157954117Y-113030000D01*
X157937687Y-113196823D01*
X157889024Y-113357242D01*
X157818114Y-113489906D01*
X157810004Y-113505078D01*
X157703659Y-113634659D01*
X157574078Y-113741004D01*
X157574076Y-113741005D01*
X157426242Y-113820024D01*
X157265823Y-113868687D01*
X157140804Y-113881000D01*
X157057196Y-113881000D01*
X156932177Y-113868687D01*
X156771758Y-113820024D01*
X156623924Y-113741005D01*
X156623922Y-113741004D01*
X156494341Y-113634659D01*
X156387996Y-113505078D01*
X156379886Y-113489906D01*
X156308976Y-113357242D01*
X156260313Y-113196823D01*
X156243883Y-113030000D01*
X156260313Y-112863177D01*
X156308976Y-112702758D01*
X156387995Y-112554924D01*
X156387996Y-112554922D01*
X156494341Y-112425341D01*
X156623922Y-112318996D01*
X156639094Y-112310886D01*
X156771758Y-112239976D01*
X156932177Y-112191313D01*
X157057196Y-112179000D01*
X157140804Y-112179000D01*
X157265823Y-112191313D01*
X157265823Y-112191313D01*
G37*
G36*
X130137000Y-109817000D02*
G01*
X128435000Y-109817000D01*
X128435000Y-108115000D01*
X130137000Y-108115000D01*
X130137000Y-109817000D01*
X130137000Y-109817000D01*
G37*
G36*
X131992823Y-108127313D02*
G01*
X132153242Y-108175976D01*
X132285906Y-108246886D01*
X132301078Y-108254996D01*
X132430659Y-108361341D01*
X132537004Y-108490922D01*
X132537005Y-108490924D01*
X132616024Y-108638758D01*
X132664687Y-108799177D01*
X132681117Y-108966000D01*
X132664687Y-109132823D01*
X132616024Y-109293242D01*
X132545114Y-109425906D01*
X132537004Y-109441078D01*
X132430659Y-109570659D01*
X132301078Y-109677004D01*
X132301076Y-109677005D01*
X132153242Y-109756024D01*
X131992823Y-109804687D01*
X131867804Y-109817000D01*
X131784196Y-109817000D01*
X131659177Y-109804687D01*
X131498758Y-109756024D01*
X131350924Y-109677005D01*
X131350922Y-109677004D01*
X131221341Y-109570659D01*
X131114996Y-109441078D01*
X131106886Y-109425906D01*
X131035976Y-109293242D01*
X130987313Y-109132823D01*
X130970883Y-108966000D01*
X130987313Y-108799177D01*
X131035976Y-108638758D01*
X131114995Y-108490924D01*
X131114996Y-108490922D01*
X131221341Y-108361341D01*
X131350922Y-108254996D01*
X131366094Y-108246886D01*
X131498758Y-108175976D01*
X131659177Y-108127313D01*
X131784196Y-108115000D01*
X131867804Y-108115000D01*
X131992823Y-108127313D01*
X131992823Y-108127313D01*
G37*
G36*
X134532823Y-108127313D02*
G01*
X134693242Y-108175976D01*
X134825906Y-108246886D01*
X134841078Y-108254996D01*
X134970659Y-108361341D01*
X135077004Y-108490922D01*
X135077005Y-108490924D01*
X135156024Y-108638758D01*
X135204687Y-108799177D01*
X135221117Y-108966000D01*
X135204687Y-109132823D01*
X135156024Y-109293242D01*
X135085114Y-109425906D01*
X135077004Y-109441078D01*
X134970659Y-109570659D01*
X134841078Y-109677004D01*
X134841076Y-109677005D01*
X134693242Y-109756024D01*
X134532823Y-109804687D01*
X134407804Y-109817000D01*
X134324196Y-109817000D01*
X134199177Y-109804687D01*
X134038758Y-109756024D01*
X133890924Y-109677005D01*
X133890922Y-109677004D01*
X133761341Y-109570659D01*
X133654996Y-109441078D01*
X133646886Y-109425906D01*
X133575976Y-109293242D01*
X133527313Y-109132823D01*
X133510883Y-108966000D01*
X133527313Y-108799177D01*
X133575976Y-108638758D01*
X133654995Y-108490924D01*
X133654996Y-108490922D01*
X133761341Y-108361341D01*
X133890922Y-108254996D01*
X133906094Y-108246886D01*
X134038758Y-108175976D01*
X134199177Y-108127313D01*
X134324196Y-108115000D01*
X134407804Y-108115000D01*
X134532823Y-108127313D01*
X134532823Y-108127313D01*
G37*
G36*
X137072823Y-108127313D02*
G01*
X137233242Y-108175976D01*
X137365906Y-108246886D01*
X137381078Y-108254996D01*
X137510659Y-108361341D01*
X137617004Y-108490922D01*
X137617005Y-108490924D01*
X137696024Y-108638758D01*
X137744687Y-108799177D01*
X137761117Y-108966000D01*
X137744687Y-109132823D01*
X137696024Y-109293242D01*
X137625114Y-109425906D01*
X137617004Y-109441078D01*
X137510659Y-109570659D01*
X137381078Y-109677004D01*
X137381076Y-109677005D01*
X137233242Y-109756024D01*
X137072823Y-109804687D01*
X136947804Y-109817000D01*
X136864196Y-109817000D01*
X136739177Y-109804687D01*
X136578758Y-109756024D01*
X136430924Y-109677005D01*
X136430922Y-109677004D01*
X136301341Y-109570659D01*
X136194996Y-109441078D01*
X136186886Y-109425906D01*
X136115976Y-109293242D01*
X136067313Y-109132823D01*
X136050883Y-108966000D01*
X136067313Y-108799177D01*
X136115976Y-108638758D01*
X136194995Y-108490924D01*
X136194996Y-108490922D01*
X136301341Y-108361341D01*
X136430922Y-108254996D01*
X136446094Y-108246886D01*
X136578758Y-108175976D01*
X136739177Y-108127313D01*
X136864196Y-108115000D01*
X136947804Y-108115000D01*
X137072823Y-108127313D01*
X137072823Y-108127313D01*
G37*
G36*
X139612823Y-108127313D02*
G01*
X139773242Y-108175976D01*
X139905906Y-108246886D01*
X139921078Y-108254996D01*
X140050659Y-108361341D01*
X140157004Y-108490922D01*
X140157005Y-108490924D01*
X140236024Y-108638758D01*
X140284687Y-108799177D01*
X140301117Y-108966000D01*
X140284687Y-109132823D01*
X140236024Y-109293242D01*
X140165114Y-109425906D01*
X140157004Y-109441078D01*
X140050659Y-109570659D01*
X139921078Y-109677004D01*
X139921076Y-109677005D01*
X139773242Y-109756024D01*
X139612823Y-109804687D01*
X139487804Y-109817000D01*
X139404196Y-109817000D01*
X139279177Y-109804687D01*
X139118758Y-109756024D01*
X138970924Y-109677005D01*
X138970922Y-109677004D01*
X138841341Y-109570659D01*
X138734996Y-109441078D01*
X138726886Y-109425906D01*
X138655976Y-109293242D01*
X138607313Y-109132823D01*
X138590883Y-108966000D01*
X138607313Y-108799177D01*
X138655976Y-108638758D01*
X138734995Y-108490924D01*
X138734996Y-108490922D01*
X138841341Y-108361341D01*
X138970922Y-108254996D01*
X138986094Y-108246886D01*
X139118758Y-108175976D01*
X139279177Y-108127313D01*
X139404196Y-108115000D01*
X139487804Y-108115000D01*
X139612823Y-108127313D01*
X139612823Y-108127313D01*
G37*
G36*
X142152823Y-108127313D02*
G01*
X142313242Y-108175976D01*
X142445906Y-108246886D01*
X142461078Y-108254996D01*
X142590659Y-108361341D01*
X142697004Y-108490922D01*
X142697005Y-108490924D01*
X142776024Y-108638758D01*
X142824687Y-108799177D01*
X142841117Y-108966000D01*
X142824687Y-109132823D01*
X142776024Y-109293242D01*
X142705114Y-109425906D01*
X142697004Y-109441078D01*
X142590659Y-109570659D01*
X142461078Y-109677004D01*
X142461076Y-109677005D01*
X142313242Y-109756024D01*
X142152823Y-109804687D01*
X142027804Y-109817000D01*
X141944196Y-109817000D01*
X141819177Y-109804687D01*
X141658758Y-109756024D01*
X141510924Y-109677005D01*
X141510922Y-109677004D01*
X141381341Y-109570659D01*
X141274996Y-109441078D01*
X141266886Y-109425906D01*
X141195976Y-109293242D01*
X141147313Y-109132823D01*
X141130883Y-108966000D01*
X141147313Y-108799177D01*
X141195976Y-108638758D01*
X141274995Y-108490924D01*
X141274996Y-108490922D01*
X141381341Y-108361341D01*
X141510922Y-108254996D01*
X141526094Y-108246886D01*
X141658758Y-108175976D01*
X141819177Y-108127313D01*
X141944196Y-108115000D01*
X142027804Y-108115000D01*
X142152823Y-108127313D01*
X142152823Y-108127313D01*
G37*
G36*
X144692823Y-108127313D02*
G01*
X144853242Y-108175976D01*
X144985906Y-108246886D01*
X145001078Y-108254996D01*
X145130659Y-108361341D01*
X145237004Y-108490922D01*
X145237005Y-108490924D01*
X145316024Y-108638758D01*
X145364687Y-108799177D01*
X145381117Y-108966000D01*
X145364687Y-109132823D01*
X145316024Y-109293242D01*
X145245114Y-109425906D01*
X145237004Y-109441078D01*
X145130659Y-109570659D01*
X145001078Y-109677004D01*
X145001076Y-109677005D01*
X144853242Y-109756024D01*
X144692823Y-109804687D01*
X144567804Y-109817000D01*
X144484196Y-109817000D01*
X144359177Y-109804687D01*
X144198758Y-109756024D01*
X144050924Y-109677005D01*
X144050922Y-109677004D01*
X143921341Y-109570659D01*
X143814996Y-109441078D01*
X143806886Y-109425906D01*
X143735976Y-109293242D01*
X143687313Y-109132823D01*
X143670883Y-108966000D01*
X143687313Y-108799177D01*
X143735976Y-108638758D01*
X143814995Y-108490924D01*
X143814996Y-108490922D01*
X143921341Y-108361341D01*
X144050922Y-108254996D01*
X144066094Y-108246886D01*
X144198758Y-108175976D01*
X144359177Y-108127313D01*
X144484196Y-108115000D01*
X144567804Y-108115000D01*
X144692823Y-108127313D01*
X144692823Y-108127313D01*
G37*
G36*
X147232823Y-108127313D02*
G01*
X147393242Y-108175976D01*
X147525906Y-108246886D01*
X147541078Y-108254996D01*
X147670659Y-108361341D01*
X147777004Y-108490922D01*
X147777005Y-108490924D01*
X147856024Y-108638758D01*
X147904687Y-108799177D01*
X147921117Y-108966000D01*
X147904687Y-109132823D01*
X147856024Y-109293242D01*
X147785114Y-109425906D01*
X147777004Y-109441078D01*
X147670659Y-109570659D01*
X147541078Y-109677004D01*
X147541076Y-109677005D01*
X147393242Y-109756024D01*
X147232823Y-109804687D01*
X147107804Y-109817000D01*
X147024196Y-109817000D01*
X146899177Y-109804687D01*
X146738758Y-109756024D01*
X146590924Y-109677005D01*
X146590922Y-109677004D01*
X146461341Y-109570659D01*
X146354996Y-109441078D01*
X146346886Y-109425906D01*
X146275976Y-109293242D01*
X146227313Y-109132823D01*
X146210883Y-108966000D01*
X146227313Y-108799177D01*
X146275976Y-108638758D01*
X146354995Y-108490924D01*
X146354996Y-108490922D01*
X146461341Y-108361341D01*
X146590922Y-108254996D01*
X146606094Y-108246886D01*
X146738758Y-108175976D01*
X146899177Y-108127313D01*
X147024196Y-108115000D01*
X147107804Y-108115000D01*
X147232823Y-108127313D01*
X147232823Y-108127313D01*
G37*
G36*
X149772823Y-108127313D02*
G01*
X149933242Y-108175976D01*
X150065906Y-108246886D01*
X150081078Y-108254996D01*
X150210659Y-108361341D01*
X150317004Y-108490922D01*
X150317005Y-108490924D01*
X150396024Y-108638758D01*
X150444687Y-108799177D01*
X150461117Y-108966000D01*
X150444687Y-109132823D01*
X150396024Y-109293242D01*
X150325114Y-109425906D01*
X150317004Y-109441078D01*
X150210659Y-109570659D01*
X150081078Y-109677004D01*
X150081076Y-109677005D01*
X149933242Y-109756024D01*
X149772823Y-109804687D01*
X149647804Y-109817000D01*
X149564196Y-109817000D01*
X149439177Y-109804687D01*
X149278758Y-109756024D01*
X149130924Y-109677005D01*
X149130922Y-109677004D01*
X149001341Y-109570659D01*
X148894996Y-109441078D01*
X148886886Y-109425906D01*
X148815976Y-109293242D01*
X148767313Y-109132823D01*
X148750883Y-108966000D01*
X148767313Y-108799177D01*
X148815976Y-108638758D01*
X148894995Y-108490924D01*
X148894996Y-108490922D01*
X149001341Y-108361341D01*
X149130922Y-108254996D01*
X149146094Y-108246886D01*
X149278758Y-108175976D01*
X149439177Y-108127313D01*
X149564196Y-108115000D01*
X149647804Y-108115000D01*
X149772823Y-108127313D01*
X149772823Y-108127313D01*
G37*
G36*
X152312823Y-108127313D02*
G01*
X152473242Y-108175976D01*
X152605906Y-108246886D01*
X152621078Y-108254996D01*
X152750659Y-108361341D01*
X152857004Y-108490922D01*
X152857005Y-108490924D01*
X152936024Y-108638758D01*
X152984687Y-108799177D01*
X153001117Y-108966000D01*
X152984687Y-109132823D01*
X152936024Y-109293242D01*
X152865114Y-109425906D01*
X152857004Y-109441078D01*
X152750659Y-109570659D01*
X152621078Y-109677004D01*
X152621076Y-109677005D01*
X152473242Y-109756024D01*
X152312823Y-109804687D01*
X152187804Y-109817000D01*
X152104196Y-109817000D01*
X151979177Y-109804687D01*
X151818758Y-109756024D01*
X151670924Y-109677005D01*
X151670922Y-109677004D01*
X151541341Y-109570659D01*
X151434996Y-109441078D01*
X151426886Y-109425906D01*
X151355976Y-109293242D01*
X151307313Y-109132823D01*
X151290883Y-108966000D01*
X151307313Y-108799177D01*
X151355976Y-108638758D01*
X151434995Y-108490924D01*
X151434996Y-108490922D01*
X151541341Y-108361341D01*
X151670922Y-108254996D01*
X151686094Y-108246886D01*
X151818758Y-108175976D01*
X151979177Y-108127313D01*
X152104196Y-108115000D01*
X152187804Y-108115000D01*
X152312823Y-108127313D01*
X152312823Y-108127313D01*
G37*
G36*
X154852823Y-108127313D02*
G01*
X155013242Y-108175976D01*
X155145906Y-108246886D01*
X155161078Y-108254996D01*
X155290659Y-108361341D01*
X155397004Y-108490922D01*
X155397005Y-108490924D01*
X155476024Y-108638758D01*
X155524687Y-108799177D01*
X155541117Y-108966000D01*
X155524687Y-109132823D01*
X155476024Y-109293242D01*
X155405114Y-109425906D01*
X155397004Y-109441078D01*
X155290659Y-109570659D01*
X155161078Y-109677004D01*
X155161076Y-109677005D01*
X155013242Y-109756024D01*
X154852823Y-109804687D01*
X154727804Y-109817000D01*
X154644196Y-109817000D01*
X154519177Y-109804687D01*
X154358758Y-109756024D01*
X154210924Y-109677005D01*
X154210922Y-109677004D01*
X154081341Y-109570659D01*
X153974996Y-109441078D01*
X153966886Y-109425906D01*
X153895976Y-109293242D01*
X153847313Y-109132823D01*
X153830883Y-108966000D01*
X153847313Y-108799177D01*
X153895976Y-108638758D01*
X153974995Y-108490924D01*
X153974996Y-108490922D01*
X154081341Y-108361341D01*
X154210922Y-108254996D01*
X154226094Y-108246886D01*
X154358758Y-108175976D01*
X154519177Y-108127313D01*
X154644196Y-108115000D01*
X154727804Y-108115000D01*
X154852823Y-108127313D01*
X154852823Y-108127313D01*
G37*
G36*
X157392823Y-108127313D02*
G01*
X157553242Y-108175976D01*
X157685906Y-108246886D01*
X157701078Y-108254996D01*
X157830659Y-108361341D01*
X157937004Y-108490922D01*
X157937005Y-108490924D01*
X158016024Y-108638758D01*
X158064687Y-108799177D01*
X158081117Y-108966000D01*
X158064687Y-109132823D01*
X158016024Y-109293242D01*
X157945114Y-109425906D01*
X157937004Y-109441078D01*
X157830659Y-109570659D01*
X157701078Y-109677004D01*
X157701076Y-109677005D01*
X157553242Y-109756024D01*
X157392823Y-109804687D01*
X157267804Y-109817000D01*
X157184196Y-109817000D01*
X157059177Y-109804687D01*
X156898758Y-109756024D01*
X156750924Y-109677005D01*
X156750922Y-109677004D01*
X156621341Y-109570659D01*
X156514996Y-109441078D01*
X156506886Y-109425906D01*
X156435976Y-109293242D01*
X156387313Y-109132823D01*
X156370883Y-108966000D01*
X156387313Y-108799177D01*
X156435976Y-108638758D01*
X156514995Y-108490924D01*
X156514996Y-108490922D01*
X156621341Y-108361341D01*
X156750922Y-108254996D01*
X156766094Y-108246886D01*
X156898758Y-108175976D01*
X157059177Y-108127313D01*
X157184196Y-108115000D01*
X157267804Y-108115000D01*
X157392823Y-108127313D01*
X157392823Y-108127313D01*
G37*
G36*
X159932823Y-108127313D02*
G01*
X160093242Y-108175976D01*
X160225906Y-108246886D01*
X160241078Y-108254996D01*
X160370659Y-108361341D01*
X160477004Y-108490922D01*
X160477005Y-108490924D01*
X160556024Y-108638758D01*
X160604687Y-108799177D01*
X160621117Y-108966000D01*
X160604687Y-109132823D01*
X160556024Y-109293242D01*
X160485114Y-109425906D01*
X160477004Y-109441078D01*
X160370659Y-109570659D01*
X160241078Y-109677004D01*
X160241076Y-109677005D01*
X160093242Y-109756024D01*
X159932823Y-109804687D01*
X159807804Y-109817000D01*
X159724196Y-109817000D01*
X159599177Y-109804687D01*
X159438758Y-109756024D01*
X159290924Y-109677005D01*
X159290922Y-109677004D01*
X159161341Y-109570659D01*
X159054996Y-109441078D01*
X159046886Y-109425906D01*
X158975976Y-109293242D01*
X158927313Y-109132823D01*
X158910883Y-108966000D01*
X158927313Y-108799177D01*
X158975976Y-108638758D01*
X159054995Y-108490924D01*
X159054996Y-108490922D01*
X159161341Y-108361341D01*
X159290922Y-108254996D01*
X159306094Y-108246886D01*
X159438758Y-108175976D01*
X159599177Y-108127313D01*
X159724196Y-108115000D01*
X159807804Y-108115000D01*
X159932823Y-108127313D01*
X159932823Y-108127313D01*
G37*
G36*
X162472823Y-108127313D02*
G01*
X162633242Y-108175976D01*
X162765906Y-108246886D01*
X162781078Y-108254996D01*
X162910659Y-108361341D01*
X163017004Y-108490922D01*
X163017005Y-108490924D01*
X163096024Y-108638758D01*
X163144687Y-108799177D01*
X163161117Y-108966000D01*
X163144687Y-109132823D01*
X163096024Y-109293242D01*
X163025114Y-109425906D01*
X163017004Y-109441078D01*
X162910659Y-109570659D01*
X162781078Y-109677004D01*
X162781076Y-109677005D01*
X162633242Y-109756024D01*
X162472823Y-109804687D01*
X162347804Y-109817000D01*
X162264196Y-109817000D01*
X162139177Y-109804687D01*
X161978758Y-109756024D01*
X161830924Y-109677005D01*
X161830922Y-109677004D01*
X161701341Y-109570659D01*
X161594996Y-109441078D01*
X161586886Y-109425906D01*
X161515976Y-109293242D01*
X161467313Y-109132823D01*
X161450883Y-108966000D01*
X161467313Y-108799177D01*
X161515976Y-108638758D01*
X161594995Y-108490924D01*
X161594996Y-108490922D01*
X161701341Y-108361341D01*
X161830922Y-108254996D01*
X161846094Y-108246886D01*
X161978758Y-108175976D01*
X162139177Y-108127313D01*
X162264196Y-108115000D01*
X162347804Y-108115000D01*
X162472823Y-108127313D01*
X162472823Y-108127313D01*
G37*
G36*
X167552823Y-108127313D02*
G01*
X167713242Y-108175976D01*
X167845906Y-108246886D01*
X167861078Y-108254996D01*
X167990659Y-108361341D01*
X168097004Y-108490922D01*
X168097005Y-108490924D01*
X168176024Y-108638758D01*
X168224687Y-108799177D01*
X168241117Y-108966000D01*
X168224687Y-109132823D01*
X168176024Y-109293242D01*
X168105114Y-109425906D01*
X168097004Y-109441078D01*
X167990659Y-109570659D01*
X167861078Y-109677004D01*
X167861076Y-109677005D01*
X167713242Y-109756024D01*
X167552823Y-109804687D01*
X167427804Y-109817000D01*
X167344196Y-109817000D01*
X167219177Y-109804687D01*
X167058758Y-109756024D01*
X166910924Y-109677005D01*
X166910922Y-109677004D01*
X166781341Y-109570659D01*
X166674996Y-109441078D01*
X166666886Y-109425906D01*
X166595976Y-109293242D01*
X166547313Y-109132823D01*
X166530883Y-108966000D01*
X166547313Y-108799177D01*
X166595976Y-108638758D01*
X166674995Y-108490924D01*
X166674996Y-108490922D01*
X166781341Y-108361341D01*
X166910922Y-108254996D01*
X166926094Y-108246886D01*
X167058758Y-108175976D01*
X167219177Y-108127313D01*
X167344196Y-108115000D01*
X167427804Y-108115000D01*
X167552823Y-108127313D01*
X167552823Y-108127313D01*
G37*
G36*
X165012823Y-108127313D02*
G01*
X165173242Y-108175976D01*
X165305906Y-108246886D01*
X165321078Y-108254996D01*
X165450659Y-108361341D01*
X165557004Y-108490922D01*
X165557005Y-108490924D01*
X165636024Y-108638758D01*
X165684687Y-108799177D01*
X165701117Y-108966000D01*
X165684687Y-109132823D01*
X165636024Y-109293242D01*
X165565114Y-109425906D01*
X165557004Y-109441078D01*
X165450659Y-109570659D01*
X165321078Y-109677004D01*
X165321076Y-109677005D01*
X165173242Y-109756024D01*
X165012823Y-109804687D01*
X164887804Y-109817000D01*
X164804196Y-109817000D01*
X164679177Y-109804687D01*
X164518758Y-109756024D01*
X164370924Y-109677005D01*
X164370922Y-109677004D01*
X164241341Y-109570659D01*
X164134996Y-109441078D01*
X164126886Y-109425906D01*
X164055976Y-109293242D01*
X164007313Y-109132823D01*
X163990883Y-108966000D01*
X164007313Y-108799177D01*
X164055976Y-108638758D01*
X164134995Y-108490924D01*
X164134996Y-108490922D01*
X164241341Y-108361341D01*
X164370922Y-108254996D01*
X164386094Y-108246886D01*
X164518758Y-108175976D01*
X164679177Y-108127313D01*
X164804196Y-108115000D01*
X164887804Y-108115000D01*
X165012823Y-108127313D01*
X165012823Y-108127313D01*
G37*
G36*
X167552823Y-100507313D02*
G01*
X167713242Y-100555976D01*
X167845906Y-100626886D01*
X167861078Y-100634996D01*
X167990659Y-100741341D01*
X168097004Y-100870922D01*
X168097005Y-100870924D01*
X168176024Y-101018758D01*
X168224687Y-101179177D01*
X168241117Y-101346000D01*
X168224687Y-101512823D01*
X168176024Y-101673242D01*
X168105114Y-101805906D01*
X168097004Y-101821078D01*
X167990659Y-101950659D01*
X167861078Y-102057004D01*
X167861076Y-102057005D01*
X167713242Y-102136024D01*
X167552823Y-102184687D01*
X167427804Y-102197000D01*
X167344196Y-102197000D01*
X167219177Y-102184687D01*
X167058758Y-102136024D01*
X166910924Y-102057005D01*
X166910922Y-102057004D01*
X166781341Y-101950659D01*
X166674996Y-101821078D01*
X166666886Y-101805906D01*
X166595976Y-101673242D01*
X166547313Y-101512823D01*
X166530883Y-101346000D01*
X166547313Y-101179177D01*
X166595976Y-101018758D01*
X166674995Y-100870924D01*
X166674996Y-100870922D01*
X166781341Y-100741341D01*
X166910922Y-100634996D01*
X166926094Y-100626886D01*
X167058758Y-100555976D01*
X167219177Y-100507313D01*
X167344196Y-100495000D01*
X167427804Y-100495000D01*
X167552823Y-100507313D01*
X167552823Y-100507313D01*
G37*
G36*
X131992823Y-100507313D02*
G01*
X132153242Y-100555976D01*
X132285906Y-100626886D01*
X132301078Y-100634996D01*
X132430659Y-100741341D01*
X132537004Y-100870922D01*
X132537005Y-100870924D01*
X132616024Y-101018758D01*
X132664687Y-101179177D01*
X132681117Y-101346000D01*
X132664687Y-101512823D01*
X132616024Y-101673242D01*
X132545114Y-101805906D01*
X132537004Y-101821078D01*
X132430659Y-101950659D01*
X132301078Y-102057004D01*
X132301076Y-102057005D01*
X132153242Y-102136024D01*
X131992823Y-102184687D01*
X131867804Y-102197000D01*
X131784196Y-102197000D01*
X131659177Y-102184687D01*
X131498758Y-102136024D01*
X131350924Y-102057005D01*
X131350922Y-102057004D01*
X131221341Y-101950659D01*
X131114996Y-101821078D01*
X131106886Y-101805906D01*
X131035976Y-101673242D01*
X130987313Y-101512823D01*
X130970883Y-101346000D01*
X130987313Y-101179177D01*
X131035976Y-101018758D01*
X131114995Y-100870924D01*
X131114996Y-100870922D01*
X131221341Y-100741341D01*
X131350922Y-100634996D01*
X131366094Y-100626886D01*
X131498758Y-100555976D01*
X131659177Y-100507313D01*
X131784196Y-100495000D01*
X131867804Y-100495000D01*
X131992823Y-100507313D01*
X131992823Y-100507313D01*
G37*
G36*
X165012823Y-100507313D02*
G01*
X165173242Y-100555976D01*
X165305906Y-100626886D01*
X165321078Y-100634996D01*
X165450659Y-100741341D01*
X165557004Y-100870922D01*
X165557005Y-100870924D01*
X165636024Y-101018758D01*
X165684687Y-101179177D01*
X165701117Y-101346000D01*
X165684687Y-101512823D01*
X165636024Y-101673242D01*
X165565114Y-101805906D01*
X165557004Y-101821078D01*
X165450659Y-101950659D01*
X165321078Y-102057004D01*
X165321076Y-102057005D01*
X165173242Y-102136024D01*
X165012823Y-102184687D01*
X164887804Y-102197000D01*
X164804196Y-102197000D01*
X164679177Y-102184687D01*
X164518758Y-102136024D01*
X164370924Y-102057005D01*
X164370922Y-102057004D01*
X164241341Y-101950659D01*
X164134996Y-101821078D01*
X164126886Y-101805906D01*
X164055976Y-101673242D01*
X164007313Y-101512823D01*
X163990883Y-101346000D01*
X164007313Y-101179177D01*
X164055976Y-101018758D01*
X164134995Y-100870924D01*
X164134996Y-100870922D01*
X164241341Y-100741341D01*
X164370922Y-100634996D01*
X164386094Y-100626886D01*
X164518758Y-100555976D01*
X164679177Y-100507313D01*
X164804196Y-100495000D01*
X164887804Y-100495000D01*
X165012823Y-100507313D01*
X165012823Y-100507313D01*
G37*
G36*
X162472823Y-100507313D02*
G01*
X162633242Y-100555976D01*
X162765906Y-100626886D01*
X162781078Y-100634996D01*
X162910659Y-100741341D01*
X163017004Y-100870922D01*
X163017005Y-100870924D01*
X163096024Y-101018758D01*
X163144687Y-101179177D01*
X163161117Y-101346000D01*
X163144687Y-101512823D01*
X163096024Y-101673242D01*
X163025114Y-101805906D01*
X163017004Y-101821078D01*
X162910659Y-101950659D01*
X162781078Y-102057004D01*
X162781076Y-102057005D01*
X162633242Y-102136024D01*
X162472823Y-102184687D01*
X162347804Y-102197000D01*
X162264196Y-102197000D01*
X162139177Y-102184687D01*
X161978758Y-102136024D01*
X161830924Y-102057005D01*
X161830922Y-102057004D01*
X161701341Y-101950659D01*
X161594996Y-101821078D01*
X161586886Y-101805906D01*
X161515976Y-101673242D01*
X161467313Y-101512823D01*
X161450883Y-101346000D01*
X161467313Y-101179177D01*
X161515976Y-101018758D01*
X161594995Y-100870924D01*
X161594996Y-100870922D01*
X161701341Y-100741341D01*
X161830922Y-100634996D01*
X161846094Y-100626886D01*
X161978758Y-100555976D01*
X162139177Y-100507313D01*
X162264196Y-100495000D01*
X162347804Y-100495000D01*
X162472823Y-100507313D01*
X162472823Y-100507313D01*
G37*
G36*
X159932823Y-100507313D02*
G01*
X160093242Y-100555976D01*
X160225906Y-100626886D01*
X160241078Y-100634996D01*
X160370659Y-100741341D01*
X160477004Y-100870922D01*
X160477005Y-100870924D01*
X160556024Y-101018758D01*
X160604687Y-101179177D01*
X160621117Y-101346000D01*
X160604687Y-101512823D01*
X160556024Y-101673242D01*
X160485114Y-101805906D01*
X160477004Y-101821078D01*
X160370659Y-101950659D01*
X160241078Y-102057004D01*
X160241076Y-102057005D01*
X160093242Y-102136024D01*
X159932823Y-102184687D01*
X159807804Y-102197000D01*
X159724196Y-102197000D01*
X159599177Y-102184687D01*
X159438758Y-102136024D01*
X159290924Y-102057005D01*
X159290922Y-102057004D01*
X159161341Y-101950659D01*
X159054996Y-101821078D01*
X159046886Y-101805906D01*
X158975976Y-101673242D01*
X158927313Y-101512823D01*
X158910883Y-101346000D01*
X158927313Y-101179177D01*
X158975976Y-101018758D01*
X159054995Y-100870924D01*
X159054996Y-100870922D01*
X159161341Y-100741341D01*
X159290922Y-100634996D01*
X159306094Y-100626886D01*
X159438758Y-100555976D01*
X159599177Y-100507313D01*
X159724196Y-100495000D01*
X159807804Y-100495000D01*
X159932823Y-100507313D01*
X159932823Y-100507313D01*
G37*
G36*
X157392823Y-100507313D02*
G01*
X157553242Y-100555976D01*
X157685906Y-100626886D01*
X157701078Y-100634996D01*
X157830659Y-100741341D01*
X157937004Y-100870922D01*
X157937005Y-100870924D01*
X158016024Y-101018758D01*
X158064687Y-101179177D01*
X158081117Y-101346000D01*
X158064687Y-101512823D01*
X158016024Y-101673242D01*
X157945114Y-101805906D01*
X157937004Y-101821078D01*
X157830659Y-101950659D01*
X157701078Y-102057004D01*
X157701076Y-102057005D01*
X157553242Y-102136024D01*
X157392823Y-102184687D01*
X157267804Y-102197000D01*
X157184196Y-102197000D01*
X157059177Y-102184687D01*
X156898758Y-102136024D01*
X156750924Y-102057005D01*
X156750922Y-102057004D01*
X156621341Y-101950659D01*
X156514996Y-101821078D01*
X156506886Y-101805906D01*
X156435976Y-101673242D01*
X156387313Y-101512823D01*
X156370883Y-101346000D01*
X156387313Y-101179177D01*
X156435976Y-101018758D01*
X156514995Y-100870924D01*
X156514996Y-100870922D01*
X156621341Y-100741341D01*
X156750922Y-100634996D01*
X156766094Y-100626886D01*
X156898758Y-100555976D01*
X157059177Y-100507313D01*
X157184196Y-100495000D01*
X157267804Y-100495000D01*
X157392823Y-100507313D01*
X157392823Y-100507313D01*
G37*
G36*
X154852823Y-100507313D02*
G01*
X155013242Y-100555976D01*
X155145906Y-100626886D01*
X155161078Y-100634996D01*
X155290659Y-100741341D01*
X155397004Y-100870922D01*
X155397005Y-100870924D01*
X155476024Y-101018758D01*
X155524687Y-101179177D01*
X155541117Y-101346000D01*
X155524687Y-101512823D01*
X155476024Y-101673242D01*
X155405114Y-101805906D01*
X155397004Y-101821078D01*
X155290659Y-101950659D01*
X155161078Y-102057004D01*
X155161076Y-102057005D01*
X155013242Y-102136024D01*
X154852823Y-102184687D01*
X154727804Y-102197000D01*
X154644196Y-102197000D01*
X154519177Y-102184687D01*
X154358758Y-102136024D01*
X154210924Y-102057005D01*
X154210922Y-102057004D01*
X154081341Y-101950659D01*
X153974996Y-101821078D01*
X153966886Y-101805906D01*
X153895976Y-101673242D01*
X153847313Y-101512823D01*
X153830883Y-101346000D01*
X153847313Y-101179177D01*
X153895976Y-101018758D01*
X153974995Y-100870924D01*
X153974996Y-100870922D01*
X154081341Y-100741341D01*
X154210922Y-100634996D01*
X154226094Y-100626886D01*
X154358758Y-100555976D01*
X154519177Y-100507313D01*
X154644196Y-100495000D01*
X154727804Y-100495000D01*
X154852823Y-100507313D01*
X154852823Y-100507313D01*
G37*
G36*
X152312823Y-100507313D02*
G01*
X152473242Y-100555976D01*
X152605906Y-100626886D01*
X152621078Y-100634996D01*
X152750659Y-100741341D01*
X152857004Y-100870922D01*
X152857005Y-100870924D01*
X152936024Y-101018758D01*
X152984687Y-101179177D01*
X153001117Y-101346000D01*
X152984687Y-101512823D01*
X152936024Y-101673242D01*
X152865114Y-101805906D01*
X152857004Y-101821078D01*
X152750659Y-101950659D01*
X152621078Y-102057004D01*
X152621076Y-102057005D01*
X152473242Y-102136024D01*
X152312823Y-102184687D01*
X152187804Y-102197000D01*
X152104196Y-102197000D01*
X151979177Y-102184687D01*
X151818758Y-102136024D01*
X151670924Y-102057005D01*
X151670922Y-102057004D01*
X151541341Y-101950659D01*
X151434996Y-101821078D01*
X151426886Y-101805906D01*
X151355976Y-101673242D01*
X151307313Y-101512823D01*
X151290883Y-101346000D01*
X151307313Y-101179177D01*
X151355976Y-101018758D01*
X151434995Y-100870924D01*
X151434996Y-100870922D01*
X151541341Y-100741341D01*
X151670922Y-100634996D01*
X151686094Y-100626886D01*
X151818758Y-100555976D01*
X151979177Y-100507313D01*
X152104196Y-100495000D01*
X152187804Y-100495000D01*
X152312823Y-100507313D01*
X152312823Y-100507313D01*
G37*
G36*
X149772823Y-100507313D02*
G01*
X149933242Y-100555976D01*
X150065906Y-100626886D01*
X150081078Y-100634996D01*
X150210659Y-100741341D01*
X150317004Y-100870922D01*
X150317005Y-100870924D01*
X150396024Y-101018758D01*
X150444687Y-101179177D01*
X150461117Y-101346000D01*
X150444687Y-101512823D01*
X150396024Y-101673242D01*
X150325114Y-101805906D01*
X150317004Y-101821078D01*
X150210659Y-101950659D01*
X150081078Y-102057004D01*
X150081076Y-102057005D01*
X149933242Y-102136024D01*
X149772823Y-102184687D01*
X149647804Y-102197000D01*
X149564196Y-102197000D01*
X149439177Y-102184687D01*
X149278758Y-102136024D01*
X149130924Y-102057005D01*
X149130922Y-102057004D01*
X149001341Y-101950659D01*
X148894996Y-101821078D01*
X148886886Y-101805906D01*
X148815976Y-101673242D01*
X148767313Y-101512823D01*
X148750883Y-101346000D01*
X148767313Y-101179177D01*
X148815976Y-101018758D01*
X148894995Y-100870924D01*
X148894996Y-100870922D01*
X149001341Y-100741341D01*
X149130922Y-100634996D01*
X149146094Y-100626886D01*
X149278758Y-100555976D01*
X149439177Y-100507313D01*
X149564196Y-100495000D01*
X149647804Y-100495000D01*
X149772823Y-100507313D01*
X149772823Y-100507313D01*
G37*
G36*
X147232823Y-100507313D02*
G01*
X147393242Y-100555976D01*
X147525906Y-100626886D01*
X147541078Y-100634996D01*
X147670659Y-100741341D01*
X147777004Y-100870922D01*
X147777005Y-100870924D01*
X147856024Y-101018758D01*
X147904687Y-101179177D01*
X147921117Y-101346000D01*
X147904687Y-101512823D01*
X147856024Y-101673242D01*
X147785114Y-101805906D01*
X147777004Y-101821078D01*
X147670659Y-101950659D01*
X147541078Y-102057004D01*
X147541076Y-102057005D01*
X147393242Y-102136024D01*
X147232823Y-102184687D01*
X147107804Y-102197000D01*
X147024196Y-102197000D01*
X146899177Y-102184687D01*
X146738758Y-102136024D01*
X146590924Y-102057005D01*
X146590922Y-102057004D01*
X146461341Y-101950659D01*
X146354996Y-101821078D01*
X146346886Y-101805906D01*
X146275976Y-101673242D01*
X146227313Y-101512823D01*
X146210883Y-101346000D01*
X146227313Y-101179177D01*
X146275976Y-101018758D01*
X146354995Y-100870924D01*
X146354996Y-100870922D01*
X146461341Y-100741341D01*
X146590922Y-100634996D01*
X146606094Y-100626886D01*
X146738758Y-100555976D01*
X146899177Y-100507313D01*
X147024196Y-100495000D01*
X147107804Y-100495000D01*
X147232823Y-100507313D01*
X147232823Y-100507313D01*
G37*
G36*
X144692823Y-100507313D02*
G01*
X144853242Y-100555976D01*
X144985906Y-100626886D01*
X145001078Y-100634996D01*
X145130659Y-100741341D01*
X145237004Y-100870922D01*
X145237005Y-100870924D01*
X145316024Y-101018758D01*
X145364687Y-101179177D01*
X145381117Y-101346000D01*
X145364687Y-101512823D01*
X145316024Y-101673242D01*
X145245114Y-101805906D01*
X145237004Y-101821078D01*
X145130659Y-101950659D01*
X145001078Y-102057004D01*
X145001076Y-102057005D01*
X144853242Y-102136024D01*
X144692823Y-102184687D01*
X144567804Y-102197000D01*
X144484196Y-102197000D01*
X144359177Y-102184687D01*
X144198758Y-102136024D01*
X144050924Y-102057005D01*
X144050922Y-102057004D01*
X143921341Y-101950659D01*
X143814996Y-101821078D01*
X143806886Y-101805906D01*
X143735976Y-101673242D01*
X143687313Y-101512823D01*
X143670883Y-101346000D01*
X143687313Y-101179177D01*
X143735976Y-101018758D01*
X143814995Y-100870924D01*
X143814996Y-100870922D01*
X143921341Y-100741341D01*
X144050922Y-100634996D01*
X144066094Y-100626886D01*
X144198758Y-100555976D01*
X144359177Y-100507313D01*
X144484196Y-100495000D01*
X144567804Y-100495000D01*
X144692823Y-100507313D01*
X144692823Y-100507313D01*
G37*
G36*
X142152823Y-100507313D02*
G01*
X142313242Y-100555976D01*
X142445906Y-100626886D01*
X142461078Y-100634996D01*
X142590659Y-100741341D01*
X142697004Y-100870922D01*
X142697005Y-100870924D01*
X142776024Y-101018758D01*
X142824687Y-101179177D01*
X142841117Y-101346000D01*
X142824687Y-101512823D01*
X142776024Y-101673242D01*
X142705114Y-101805906D01*
X142697004Y-101821078D01*
X142590659Y-101950659D01*
X142461078Y-102057004D01*
X142461076Y-102057005D01*
X142313242Y-102136024D01*
X142152823Y-102184687D01*
X142027804Y-102197000D01*
X141944196Y-102197000D01*
X141819177Y-102184687D01*
X141658758Y-102136024D01*
X141510924Y-102057005D01*
X141510922Y-102057004D01*
X141381341Y-101950659D01*
X141274996Y-101821078D01*
X141266886Y-101805906D01*
X141195976Y-101673242D01*
X141147313Y-101512823D01*
X141130883Y-101346000D01*
X141147313Y-101179177D01*
X141195976Y-101018758D01*
X141274995Y-100870924D01*
X141274996Y-100870922D01*
X141381341Y-100741341D01*
X141510922Y-100634996D01*
X141526094Y-100626886D01*
X141658758Y-100555976D01*
X141819177Y-100507313D01*
X141944196Y-100495000D01*
X142027804Y-100495000D01*
X142152823Y-100507313D01*
X142152823Y-100507313D01*
G37*
G36*
X139612823Y-100507313D02*
G01*
X139773242Y-100555976D01*
X139905906Y-100626886D01*
X139921078Y-100634996D01*
X140050659Y-100741341D01*
X140157004Y-100870922D01*
X140157005Y-100870924D01*
X140236024Y-101018758D01*
X140284687Y-101179177D01*
X140301117Y-101346000D01*
X140284687Y-101512823D01*
X140236024Y-101673242D01*
X140165114Y-101805906D01*
X140157004Y-101821078D01*
X140050659Y-101950659D01*
X139921078Y-102057004D01*
X139921076Y-102057005D01*
X139773242Y-102136024D01*
X139612823Y-102184687D01*
X139487804Y-102197000D01*
X139404196Y-102197000D01*
X139279177Y-102184687D01*
X139118758Y-102136024D01*
X138970924Y-102057005D01*
X138970922Y-102057004D01*
X138841341Y-101950659D01*
X138734996Y-101821078D01*
X138726886Y-101805906D01*
X138655976Y-101673242D01*
X138607313Y-101512823D01*
X138590883Y-101346000D01*
X138607313Y-101179177D01*
X138655976Y-101018758D01*
X138734995Y-100870924D01*
X138734996Y-100870922D01*
X138841341Y-100741341D01*
X138970922Y-100634996D01*
X138986094Y-100626886D01*
X139118758Y-100555976D01*
X139279177Y-100507313D01*
X139404196Y-100495000D01*
X139487804Y-100495000D01*
X139612823Y-100507313D01*
X139612823Y-100507313D01*
G37*
G36*
X137072823Y-100507313D02*
G01*
X137233242Y-100555976D01*
X137365906Y-100626886D01*
X137381078Y-100634996D01*
X137510659Y-100741341D01*
X137617004Y-100870922D01*
X137617005Y-100870924D01*
X137696024Y-101018758D01*
X137744687Y-101179177D01*
X137761117Y-101346000D01*
X137744687Y-101512823D01*
X137696024Y-101673242D01*
X137625114Y-101805906D01*
X137617004Y-101821078D01*
X137510659Y-101950659D01*
X137381078Y-102057004D01*
X137381076Y-102057005D01*
X137233242Y-102136024D01*
X137072823Y-102184687D01*
X136947804Y-102197000D01*
X136864196Y-102197000D01*
X136739177Y-102184687D01*
X136578758Y-102136024D01*
X136430924Y-102057005D01*
X136430922Y-102057004D01*
X136301341Y-101950659D01*
X136194996Y-101821078D01*
X136186886Y-101805906D01*
X136115976Y-101673242D01*
X136067313Y-101512823D01*
X136050883Y-101346000D01*
X136067313Y-101179177D01*
X136115976Y-101018758D01*
X136194995Y-100870924D01*
X136194996Y-100870922D01*
X136301341Y-100741341D01*
X136430922Y-100634996D01*
X136446094Y-100626886D01*
X136578758Y-100555976D01*
X136739177Y-100507313D01*
X136864196Y-100495000D01*
X136947804Y-100495000D01*
X137072823Y-100507313D01*
X137072823Y-100507313D01*
G37*
G36*
X129452823Y-100507313D02*
G01*
X129613242Y-100555976D01*
X129745906Y-100626886D01*
X129761078Y-100634996D01*
X129890659Y-100741341D01*
X129997004Y-100870922D01*
X129997005Y-100870924D01*
X130076024Y-101018758D01*
X130124687Y-101179177D01*
X130141117Y-101346000D01*
X130124687Y-101512823D01*
X130076024Y-101673242D01*
X130005114Y-101805906D01*
X129997004Y-101821078D01*
X129890659Y-101950659D01*
X129761078Y-102057004D01*
X129761076Y-102057005D01*
X129613242Y-102136024D01*
X129452823Y-102184687D01*
X129327804Y-102197000D01*
X129244196Y-102197000D01*
X129119177Y-102184687D01*
X128958758Y-102136024D01*
X128810924Y-102057005D01*
X128810922Y-102057004D01*
X128681341Y-101950659D01*
X128574996Y-101821078D01*
X128566886Y-101805906D01*
X128495976Y-101673242D01*
X128447313Y-101512823D01*
X128430883Y-101346000D01*
X128447313Y-101179177D01*
X128495976Y-101018758D01*
X128574995Y-100870924D01*
X128574996Y-100870922D01*
X128681341Y-100741341D01*
X128810922Y-100634996D01*
X128826094Y-100626886D01*
X128958758Y-100555976D01*
X129119177Y-100507313D01*
X129244196Y-100495000D01*
X129327804Y-100495000D01*
X129452823Y-100507313D01*
X129452823Y-100507313D01*
G37*
G36*
X134532823Y-100507313D02*
G01*
X134693242Y-100555976D01*
X134825906Y-100626886D01*
X134841078Y-100634996D01*
X134970659Y-100741341D01*
X135077004Y-100870922D01*
X135077005Y-100870924D01*
X135156024Y-101018758D01*
X135204687Y-101179177D01*
X135221117Y-101346000D01*
X135204687Y-101512823D01*
X135156024Y-101673242D01*
X135085114Y-101805906D01*
X135077004Y-101821078D01*
X134970659Y-101950659D01*
X134841078Y-102057004D01*
X134841076Y-102057005D01*
X134693242Y-102136024D01*
X134532823Y-102184687D01*
X134407804Y-102197000D01*
X134324196Y-102197000D01*
X134199177Y-102184687D01*
X134038758Y-102136024D01*
X133890924Y-102057005D01*
X133890922Y-102057004D01*
X133761341Y-101950659D01*
X133654996Y-101821078D01*
X133646886Y-101805906D01*
X133575976Y-101673242D01*
X133527313Y-101512823D01*
X133510883Y-101346000D01*
X133527313Y-101179177D01*
X133575976Y-101018758D01*
X133654995Y-100870924D01*
X133654996Y-100870922D01*
X133761341Y-100741341D01*
X133890922Y-100634996D01*
X133906094Y-100626886D01*
X134038758Y-100555976D01*
X134199177Y-100507313D01*
X134324196Y-100495000D01*
X134407804Y-100495000D01*
X134532823Y-100507313D01*
X134532823Y-100507313D01*
G37*
G36*
X162345823Y-96951313D02*
G01*
X162506242Y-96999976D01*
X162638906Y-97070886D01*
X162654078Y-97078996D01*
X162783659Y-97185341D01*
X162890004Y-97314922D01*
X162890005Y-97314924D01*
X162969024Y-97462758D01*
X163017687Y-97623177D01*
X163034117Y-97790000D01*
X163017687Y-97956823D01*
X162969024Y-98117242D01*
X162898114Y-98249906D01*
X162890004Y-98265078D01*
X162783659Y-98394659D01*
X162654078Y-98501004D01*
X162654076Y-98501005D01*
X162506242Y-98580024D01*
X162345823Y-98628687D01*
X162220804Y-98641000D01*
X162137196Y-98641000D01*
X162012177Y-98628687D01*
X161851758Y-98580024D01*
X161703924Y-98501005D01*
X161703922Y-98501004D01*
X161574341Y-98394659D01*
X161467996Y-98265078D01*
X161459886Y-98249906D01*
X161388976Y-98117242D01*
X161340313Y-97956823D01*
X161323883Y-97790000D01*
X161340313Y-97623177D01*
X161388976Y-97462758D01*
X161467995Y-97314924D01*
X161467996Y-97314922D01*
X161574341Y-97185341D01*
X161703922Y-97078996D01*
X161719094Y-97070886D01*
X161851758Y-96999976D01*
X162012177Y-96951313D01*
X162137196Y-96939000D01*
X162220804Y-96939000D01*
X162345823Y-96951313D01*
X162345823Y-96951313D01*
G37*
G36*
X134405823Y-96951313D02*
G01*
X134566242Y-96999976D01*
X134698906Y-97070886D01*
X134714078Y-97078996D01*
X134843659Y-97185341D01*
X134950004Y-97314922D01*
X134950005Y-97314924D01*
X135029024Y-97462758D01*
X135077687Y-97623177D01*
X135094117Y-97790000D01*
X135077687Y-97956823D01*
X135029024Y-98117242D01*
X134958114Y-98249906D01*
X134950004Y-98265078D01*
X134843659Y-98394659D01*
X134714078Y-98501004D01*
X134714076Y-98501005D01*
X134566242Y-98580024D01*
X134405823Y-98628687D01*
X134280804Y-98641000D01*
X134197196Y-98641000D01*
X134072177Y-98628687D01*
X133911758Y-98580024D01*
X133763924Y-98501005D01*
X133763922Y-98501004D01*
X133634341Y-98394659D01*
X133527996Y-98265078D01*
X133519886Y-98249906D01*
X133448976Y-98117242D01*
X133400313Y-97956823D01*
X133383883Y-97790000D01*
X133400313Y-97623177D01*
X133448976Y-97462758D01*
X133527995Y-97314924D01*
X133527996Y-97314922D01*
X133634341Y-97185341D01*
X133763922Y-97078996D01*
X133779094Y-97070886D01*
X133911758Y-96999976D01*
X134072177Y-96951313D01*
X134197196Y-96939000D01*
X134280804Y-96939000D01*
X134405823Y-96951313D01*
X134405823Y-96951313D01*
G37*
G36*
X159805823Y-96951313D02*
G01*
X159966242Y-96999976D01*
X160098906Y-97070886D01*
X160114078Y-97078996D01*
X160243659Y-97185341D01*
X160350004Y-97314922D01*
X160350005Y-97314924D01*
X160429024Y-97462758D01*
X160477687Y-97623177D01*
X160494117Y-97790000D01*
X160477687Y-97956823D01*
X160429024Y-98117242D01*
X160358114Y-98249906D01*
X160350004Y-98265078D01*
X160243659Y-98394659D01*
X160114078Y-98501004D01*
X160114076Y-98501005D01*
X159966242Y-98580024D01*
X159805823Y-98628687D01*
X159680804Y-98641000D01*
X159597196Y-98641000D01*
X159472177Y-98628687D01*
X159311758Y-98580024D01*
X159163924Y-98501005D01*
X159163922Y-98501004D01*
X159034341Y-98394659D01*
X158927996Y-98265078D01*
X158919886Y-98249906D01*
X158848976Y-98117242D01*
X158800313Y-97956823D01*
X158783883Y-97790000D01*
X158800313Y-97623177D01*
X158848976Y-97462758D01*
X158927995Y-97314924D01*
X158927996Y-97314922D01*
X159034341Y-97185341D01*
X159163922Y-97078996D01*
X159179094Y-97070886D01*
X159311758Y-96999976D01*
X159472177Y-96951313D01*
X159597196Y-96939000D01*
X159680804Y-96939000D01*
X159805823Y-96951313D01*
X159805823Y-96951313D01*
G37*
G36*
X157265823Y-96951313D02*
G01*
X157426242Y-96999976D01*
X157558906Y-97070886D01*
X157574078Y-97078996D01*
X157703659Y-97185341D01*
X157810004Y-97314922D01*
X157810005Y-97314924D01*
X157889024Y-97462758D01*
X157937687Y-97623177D01*
X157954117Y-97790000D01*
X157937687Y-97956823D01*
X157889024Y-98117242D01*
X157818114Y-98249906D01*
X157810004Y-98265078D01*
X157703659Y-98394659D01*
X157574078Y-98501004D01*
X157574076Y-98501005D01*
X157426242Y-98580024D01*
X157265823Y-98628687D01*
X157140804Y-98641000D01*
X157057196Y-98641000D01*
X156932177Y-98628687D01*
X156771758Y-98580024D01*
X156623924Y-98501005D01*
X156623922Y-98501004D01*
X156494341Y-98394659D01*
X156387996Y-98265078D01*
X156379886Y-98249906D01*
X156308976Y-98117242D01*
X156260313Y-97956823D01*
X156243883Y-97790000D01*
X156260313Y-97623177D01*
X156308976Y-97462758D01*
X156387995Y-97314924D01*
X156387996Y-97314922D01*
X156494341Y-97185341D01*
X156623922Y-97078996D01*
X156639094Y-97070886D01*
X156771758Y-96999976D01*
X156932177Y-96951313D01*
X157057196Y-96939000D01*
X157140804Y-96939000D01*
X157265823Y-96951313D01*
X157265823Y-96951313D01*
G37*
G36*
X154725823Y-96951313D02*
G01*
X154886242Y-96999976D01*
X155018906Y-97070886D01*
X155034078Y-97078996D01*
X155163659Y-97185341D01*
X155270004Y-97314922D01*
X155270005Y-97314924D01*
X155349024Y-97462758D01*
X155397687Y-97623177D01*
X155414117Y-97790000D01*
X155397687Y-97956823D01*
X155349024Y-98117242D01*
X155278114Y-98249906D01*
X155270004Y-98265078D01*
X155163659Y-98394659D01*
X155034078Y-98501004D01*
X155034076Y-98501005D01*
X154886242Y-98580024D01*
X154725823Y-98628687D01*
X154600804Y-98641000D01*
X154517196Y-98641000D01*
X154392177Y-98628687D01*
X154231758Y-98580024D01*
X154083924Y-98501005D01*
X154083922Y-98501004D01*
X153954341Y-98394659D01*
X153847996Y-98265078D01*
X153839886Y-98249906D01*
X153768976Y-98117242D01*
X153720313Y-97956823D01*
X153703883Y-97790000D01*
X153720313Y-97623177D01*
X153768976Y-97462758D01*
X153847995Y-97314924D01*
X153847996Y-97314922D01*
X153954341Y-97185341D01*
X154083922Y-97078996D01*
X154099094Y-97070886D01*
X154231758Y-96999976D01*
X154392177Y-96951313D01*
X154517196Y-96939000D01*
X154600804Y-96939000D01*
X154725823Y-96951313D01*
X154725823Y-96951313D01*
G37*
G36*
X152185823Y-96951313D02*
G01*
X152346242Y-96999976D01*
X152478906Y-97070886D01*
X152494078Y-97078996D01*
X152623659Y-97185341D01*
X152730004Y-97314922D01*
X152730005Y-97314924D01*
X152809024Y-97462758D01*
X152857687Y-97623177D01*
X152874117Y-97790000D01*
X152857687Y-97956823D01*
X152809024Y-98117242D01*
X152738114Y-98249906D01*
X152730004Y-98265078D01*
X152623659Y-98394659D01*
X152494078Y-98501004D01*
X152494076Y-98501005D01*
X152346242Y-98580024D01*
X152185823Y-98628687D01*
X152060804Y-98641000D01*
X151977196Y-98641000D01*
X151852177Y-98628687D01*
X151691758Y-98580024D01*
X151543924Y-98501005D01*
X151543922Y-98501004D01*
X151414341Y-98394659D01*
X151307996Y-98265078D01*
X151299886Y-98249906D01*
X151228976Y-98117242D01*
X151180313Y-97956823D01*
X151163883Y-97790000D01*
X151180313Y-97623177D01*
X151228976Y-97462758D01*
X151307995Y-97314924D01*
X151307996Y-97314922D01*
X151414341Y-97185341D01*
X151543922Y-97078996D01*
X151559094Y-97070886D01*
X151691758Y-96999976D01*
X151852177Y-96951313D01*
X151977196Y-96939000D01*
X152060804Y-96939000D01*
X152185823Y-96951313D01*
X152185823Y-96951313D01*
G37*
G36*
X149645823Y-96951313D02*
G01*
X149806242Y-96999976D01*
X149938906Y-97070886D01*
X149954078Y-97078996D01*
X150083659Y-97185341D01*
X150190004Y-97314922D01*
X150190005Y-97314924D01*
X150269024Y-97462758D01*
X150317687Y-97623177D01*
X150334117Y-97790000D01*
X150317687Y-97956823D01*
X150269024Y-98117242D01*
X150198114Y-98249906D01*
X150190004Y-98265078D01*
X150083659Y-98394659D01*
X149954078Y-98501004D01*
X149954076Y-98501005D01*
X149806242Y-98580024D01*
X149645823Y-98628687D01*
X149520804Y-98641000D01*
X149437196Y-98641000D01*
X149312177Y-98628687D01*
X149151758Y-98580024D01*
X149003924Y-98501005D01*
X149003922Y-98501004D01*
X148874341Y-98394659D01*
X148767996Y-98265078D01*
X148759886Y-98249906D01*
X148688976Y-98117242D01*
X148640313Y-97956823D01*
X148623883Y-97790000D01*
X148640313Y-97623177D01*
X148688976Y-97462758D01*
X148767995Y-97314924D01*
X148767996Y-97314922D01*
X148874341Y-97185341D01*
X149003922Y-97078996D01*
X149019094Y-97070886D01*
X149151758Y-96999976D01*
X149312177Y-96951313D01*
X149437196Y-96939000D01*
X149520804Y-96939000D01*
X149645823Y-96951313D01*
X149645823Y-96951313D01*
G37*
G36*
X147105823Y-96951313D02*
G01*
X147266242Y-96999976D01*
X147398906Y-97070886D01*
X147414078Y-97078996D01*
X147543659Y-97185341D01*
X147650004Y-97314922D01*
X147650005Y-97314924D01*
X147729024Y-97462758D01*
X147777687Y-97623177D01*
X147794117Y-97790000D01*
X147777687Y-97956823D01*
X147729024Y-98117242D01*
X147658114Y-98249906D01*
X147650004Y-98265078D01*
X147543659Y-98394659D01*
X147414078Y-98501004D01*
X147414076Y-98501005D01*
X147266242Y-98580024D01*
X147105823Y-98628687D01*
X146980804Y-98641000D01*
X146897196Y-98641000D01*
X146772177Y-98628687D01*
X146611758Y-98580024D01*
X146463924Y-98501005D01*
X146463922Y-98501004D01*
X146334341Y-98394659D01*
X146227996Y-98265078D01*
X146219886Y-98249906D01*
X146148976Y-98117242D01*
X146100313Y-97956823D01*
X146083883Y-97790000D01*
X146100313Y-97623177D01*
X146148976Y-97462758D01*
X146227995Y-97314924D01*
X146227996Y-97314922D01*
X146334341Y-97185341D01*
X146463922Y-97078996D01*
X146479094Y-97070886D01*
X146611758Y-96999976D01*
X146772177Y-96951313D01*
X146897196Y-96939000D01*
X146980804Y-96939000D01*
X147105823Y-96951313D01*
X147105823Y-96951313D01*
G37*
G36*
X144565823Y-96951313D02*
G01*
X144726242Y-96999976D01*
X144858906Y-97070886D01*
X144874078Y-97078996D01*
X145003659Y-97185341D01*
X145110004Y-97314922D01*
X145110005Y-97314924D01*
X145189024Y-97462758D01*
X145237687Y-97623177D01*
X145254117Y-97790000D01*
X145237687Y-97956823D01*
X145189024Y-98117242D01*
X145118114Y-98249906D01*
X145110004Y-98265078D01*
X145003659Y-98394659D01*
X144874078Y-98501004D01*
X144874076Y-98501005D01*
X144726242Y-98580024D01*
X144565823Y-98628687D01*
X144440804Y-98641000D01*
X144357196Y-98641000D01*
X144232177Y-98628687D01*
X144071758Y-98580024D01*
X143923924Y-98501005D01*
X143923922Y-98501004D01*
X143794341Y-98394659D01*
X143687996Y-98265078D01*
X143679886Y-98249906D01*
X143608976Y-98117242D01*
X143560313Y-97956823D01*
X143543883Y-97790000D01*
X143560313Y-97623177D01*
X143608976Y-97462758D01*
X143687995Y-97314924D01*
X143687996Y-97314922D01*
X143794341Y-97185341D01*
X143923922Y-97078996D01*
X143939094Y-97070886D01*
X144071758Y-96999976D01*
X144232177Y-96951313D01*
X144357196Y-96939000D01*
X144440804Y-96939000D01*
X144565823Y-96951313D01*
X144565823Y-96951313D01*
G37*
G36*
X142025823Y-96951313D02*
G01*
X142186242Y-96999976D01*
X142318906Y-97070886D01*
X142334078Y-97078996D01*
X142463659Y-97185341D01*
X142570004Y-97314922D01*
X142570005Y-97314924D01*
X142649024Y-97462758D01*
X142697687Y-97623177D01*
X142714117Y-97790000D01*
X142697687Y-97956823D01*
X142649024Y-98117242D01*
X142578114Y-98249906D01*
X142570004Y-98265078D01*
X142463659Y-98394659D01*
X142334078Y-98501004D01*
X142334076Y-98501005D01*
X142186242Y-98580024D01*
X142025823Y-98628687D01*
X141900804Y-98641000D01*
X141817196Y-98641000D01*
X141692177Y-98628687D01*
X141531758Y-98580024D01*
X141383924Y-98501005D01*
X141383922Y-98501004D01*
X141254341Y-98394659D01*
X141147996Y-98265078D01*
X141139886Y-98249906D01*
X141068976Y-98117242D01*
X141020313Y-97956823D01*
X141003883Y-97790000D01*
X141020313Y-97623177D01*
X141068976Y-97462758D01*
X141147995Y-97314924D01*
X141147996Y-97314922D01*
X141254341Y-97185341D01*
X141383922Y-97078996D01*
X141399094Y-97070886D01*
X141531758Y-96999976D01*
X141692177Y-96951313D01*
X141817196Y-96939000D01*
X141900804Y-96939000D01*
X142025823Y-96951313D01*
X142025823Y-96951313D01*
G37*
G36*
X139485823Y-96951313D02*
G01*
X139646242Y-96999976D01*
X139778906Y-97070886D01*
X139794078Y-97078996D01*
X139923659Y-97185341D01*
X140030004Y-97314922D01*
X140030005Y-97314924D01*
X140109024Y-97462758D01*
X140157687Y-97623177D01*
X140174117Y-97790000D01*
X140157687Y-97956823D01*
X140109024Y-98117242D01*
X140038114Y-98249906D01*
X140030004Y-98265078D01*
X139923659Y-98394659D01*
X139794078Y-98501004D01*
X139794076Y-98501005D01*
X139646242Y-98580024D01*
X139485823Y-98628687D01*
X139360804Y-98641000D01*
X139277196Y-98641000D01*
X139152177Y-98628687D01*
X138991758Y-98580024D01*
X138843924Y-98501005D01*
X138843922Y-98501004D01*
X138714341Y-98394659D01*
X138607996Y-98265078D01*
X138599886Y-98249906D01*
X138528976Y-98117242D01*
X138480313Y-97956823D01*
X138463883Y-97790000D01*
X138480313Y-97623177D01*
X138528976Y-97462758D01*
X138607995Y-97314924D01*
X138607996Y-97314922D01*
X138714341Y-97185341D01*
X138843922Y-97078996D01*
X138859094Y-97070886D01*
X138991758Y-96999976D01*
X139152177Y-96951313D01*
X139277196Y-96939000D01*
X139360804Y-96939000D01*
X139485823Y-96951313D01*
X139485823Y-96951313D01*
G37*
G36*
X136945823Y-96951313D02*
G01*
X137106242Y-96999976D01*
X137238906Y-97070886D01*
X137254078Y-97078996D01*
X137383659Y-97185341D01*
X137490004Y-97314922D01*
X137490005Y-97314924D01*
X137569024Y-97462758D01*
X137617687Y-97623177D01*
X137634117Y-97790000D01*
X137617687Y-97956823D01*
X137569024Y-98117242D01*
X137498114Y-98249906D01*
X137490004Y-98265078D01*
X137383659Y-98394659D01*
X137254078Y-98501004D01*
X137254076Y-98501005D01*
X137106242Y-98580024D01*
X136945823Y-98628687D01*
X136820804Y-98641000D01*
X136737196Y-98641000D01*
X136612177Y-98628687D01*
X136451758Y-98580024D01*
X136303924Y-98501005D01*
X136303922Y-98501004D01*
X136174341Y-98394659D01*
X136067996Y-98265078D01*
X136059886Y-98249906D01*
X135988976Y-98117242D01*
X135940313Y-97956823D01*
X135923883Y-97790000D01*
X135940313Y-97623177D01*
X135988976Y-97462758D01*
X136067995Y-97314924D01*
X136067996Y-97314922D01*
X136174341Y-97185341D01*
X136303922Y-97078996D01*
X136319094Y-97070886D01*
X136451758Y-96999976D01*
X136612177Y-96951313D01*
X136737196Y-96939000D01*
X136820804Y-96939000D01*
X136945823Y-96951313D01*
X136945823Y-96951313D01*
G37*
G36*
X159932823Y-89966313D02*
G01*
X160093242Y-90014976D01*
X160225906Y-90085886D01*
X160241078Y-90093996D01*
X160370659Y-90200341D01*
X160477004Y-90329922D01*
X160477005Y-90329924D01*
X160556024Y-90477758D01*
X160604687Y-90638177D01*
X160621117Y-90805000D01*
X160604687Y-90971823D01*
X160556024Y-91132242D01*
X160485114Y-91264906D01*
X160477004Y-91280078D01*
X160370659Y-91409659D01*
X160241078Y-91516004D01*
X160241076Y-91516005D01*
X160093242Y-91595024D01*
X159932823Y-91643687D01*
X159807804Y-91656000D01*
X159724196Y-91656000D01*
X159599177Y-91643687D01*
X159438758Y-91595024D01*
X159290924Y-91516005D01*
X159290922Y-91516004D01*
X159161341Y-91409659D01*
X159054996Y-91280078D01*
X159046886Y-91264906D01*
X158975976Y-91132242D01*
X158927313Y-90971823D01*
X158910883Y-90805000D01*
X158927313Y-90638177D01*
X158975976Y-90477758D01*
X159054995Y-90329924D01*
X159054996Y-90329922D01*
X159161341Y-90200341D01*
X159290922Y-90093996D01*
X159306094Y-90085886D01*
X159438758Y-90014976D01*
X159599177Y-89966313D01*
X159724196Y-89954000D01*
X159807804Y-89954000D01*
X159932823Y-89966313D01*
X159932823Y-89966313D01*
G37*
G36*
X135217000Y-91656000D02*
G01*
X133515000Y-91656000D01*
X133515000Y-89954000D01*
X135217000Y-89954000D01*
X135217000Y-91656000D01*
X135217000Y-91656000D01*
G37*
G36*
X157392823Y-89966313D02*
G01*
X157553242Y-90014976D01*
X157685906Y-90085886D01*
X157701078Y-90093996D01*
X157830659Y-90200341D01*
X157937004Y-90329922D01*
X157937005Y-90329924D01*
X158016024Y-90477758D01*
X158064687Y-90638177D01*
X158081117Y-90805000D01*
X158064687Y-90971823D01*
X158016024Y-91132242D01*
X157945114Y-91264906D01*
X157937004Y-91280078D01*
X157830659Y-91409659D01*
X157701078Y-91516004D01*
X157701076Y-91516005D01*
X157553242Y-91595024D01*
X157392823Y-91643687D01*
X157267804Y-91656000D01*
X157184196Y-91656000D01*
X157059177Y-91643687D01*
X156898758Y-91595024D01*
X156750924Y-91516005D01*
X156750922Y-91516004D01*
X156621341Y-91409659D01*
X156514996Y-91280078D01*
X156506886Y-91264906D01*
X156435976Y-91132242D01*
X156387313Y-90971823D01*
X156370883Y-90805000D01*
X156387313Y-90638177D01*
X156435976Y-90477758D01*
X156514995Y-90329924D01*
X156514996Y-90329922D01*
X156621341Y-90200341D01*
X156750922Y-90093996D01*
X156766094Y-90085886D01*
X156898758Y-90014976D01*
X157059177Y-89966313D01*
X157184196Y-89954000D01*
X157267804Y-89954000D01*
X157392823Y-89966313D01*
X157392823Y-89966313D01*
G37*
G36*
X162472823Y-89966313D02*
G01*
X162633242Y-90014976D01*
X162765906Y-90085886D01*
X162781078Y-90093996D01*
X162910659Y-90200341D01*
X163017004Y-90329922D01*
X163017005Y-90329924D01*
X163096024Y-90477758D01*
X163144687Y-90638177D01*
X163161117Y-90805000D01*
X163144687Y-90971823D01*
X163096024Y-91132242D01*
X163025114Y-91264906D01*
X163017004Y-91280078D01*
X162910659Y-91409659D01*
X162781078Y-91516004D01*
X162781076Y-91516005D01*
X162633242Y-91595024D01*
X162472823Y-91643687D01*
X162347804Y-91656000D01*
X162264196Y-91656000D01*
X162139177Y-91643687D01*
X161978758Y-91595024D01*
X161830924Y-91516005D01*
X161830922Y-91516004D01*
X161701341Y-91409659D01*
X161594996Y-91280078D01*
X161586886Y-91264906D01*
X161515976Y-91132242D01*
X161467313Y-90971823D01*
X161450883Y-90805000D01*
X161467313Y-90638177D01*
X161515976Y-90477758D01*
X161594995Y-90329924D01*
X161594996Y-90329922D01*
X161701341Y-90200341D01*
X161830922Y-90093996D01*
X161846094Y-90085886D01*
X161978758Y-90014976D01*
X162139177Y-89966313D01*
X162264196Y-89954000D01*
X162347804Y-89954000D01*
X162472823Y-89966313D01*
X162472823Y-89966313D01*
G37*
G36*
X154852823Y-89966313D02*
G01*
X155013242Y-90014976D01*
X155145906Y-90085886D01*
X155161078Y-90093996D01*
X155290659Y-90200341D01*
X155397004Y-90329922D01*
X155397005Y-90329924D01*
X155476024Y-90477758D01*
X155524687Y-90638177D01*
X155541117Y-90805000D01*
X155524687Y-90971823D01*
X155476024Y-91132242D01*
X155405114Y-91264906D01*
X155397004Y-91280078D01*
X155290659Y-91409659D01*
X155161078Y-91516004D01*
X155161076Y-91516005D01*
X155013242Y-91595024D01*
X154852823Y-91643687D01*
X154727804Y-91656000D01*
X154644196Y-91656000D01*
X154519177Y-91643687D01*
X154358758Y-91595024D01*
X154210924Y-91516005D01*
X154210922Y-91516004D01*
X154081341Y-91409659D01*
X153974996Y-91280078D01*
X153966886Y-91264906D01*
X153895976Y-91132242D01*
X153847313Y-90971823D01*
X153830883Y-90805000D01*
X153847313Y-90638177D01*
X153895976Y-90477758D01*
X153974995Y-90329924D01*
X153974996Y-90329922D01*
X154081341Y-90200341D01*
X154210922Y-90093996D01*
X154226094Y-90085886D01*
X154358758Y-90014976D01*
X154519177Y-89966313D01*
X154644196Y-89954000D01*
X154727804Y-89954000D01*
X154852823Y-89966313D01*
X154852823Y-89966313D01*
G37*
G36*
X152312823Y-89966313D02*
G01*
X152473242Y-90014976D01*
X152605906Y-90085886D01*
X152621078Y-90093996D01*
X152750659Y-90200341D01*
X152857004Y-90329922D01*
X152857005Y-90329924D01*
X152936024Y-90477758D01*
X152984687Y-90638177D01*
X153001117Y-90805000D01*
X152984687Y-90971823D01*
X152936024Y-91132242D01*
X152865114Y-91264906D01*
X152857004Y-91280078D01*
X152750659Y-91409659D01*
X152621078Y-91516004D01*
X152621076Y-91516005D01*
X152473242Y-91595024D01*
X152312823Y-91643687D01*
X152187804Y-91656000D01*
X152104196Y-91656000D01*
X151979177Y-91643687D01*
X151818758Y-91595024D01*
X151670924Y-91516005D01*
X151670922Y-91516004D01*
X151541341Y-91409659D01*
X151434996Y-91280078D01*
X151426886Y-91264906D01*
X151355976Y-91132242D01*
X151307313Y-90971823D01*
X151290883Y-90805000D01*
X151307313Y-90638177D01*
X151355976Y-90477758D01*
X151434995Y-90329924D01*
X151434996Y-90329922D01*
X151541341Y-90200341D01*
X151670922Y-90093996D01*
X151686094Y-90085886D01*
X151818758Y-90014976D01*
X151979177Y-89966313D01*
X152104196Y-89954000D01*
X152187804Y-89954000D01*
X152312823Y-89966313D01*
X152312823Y-89966313D01*
G37*
G36*
X149772823Y-89966313D02*
G01*
X149933242Y-90014976D01*
X150065906Y-90085886D01*
X150081078Y-90093996D01*
X150210659Y-90200341D01*
X150317004Y-90329922D01*
X150317005Y-90329924D01*
X150396024Y-90477758D01*
X150444687Y-90638177D01*
X150461117Y-90805000D01*
X150444687Y-90971823D01*
X150396024Y-91132242D01*
X150325114Y-91264906D01*
X150317004Y-91280078D01*
X150210659Y-91409659D01*
X150081078Y-91516004D01*
X150081076Y-91516005D01*
X149933242Y-91595024D01*
X149772823Y-91643687D01*
X149647804Y-91656000D01*
X149564196Y-91656000D01*
X149439177Y-91643687D01*
X149278758Y-91595024D01*
X149130924Y-91516005D01*
X149130922Y-91516004D01*
X149001341Y-91409659D01*
X148894996Y-91280078D01*
X148886886Y-91264906D01*
X148815976Y-91132242D01*
X148767313Y-90971823D01*
X148750883Y-90805000D01*
X148767313Y-90638177D01*
X148815976Y-90477758D01*
X148894995Y-90329924D01*
X148894996Y-90329922D01*
X149001341Y-90200341D01*
X149130922Y-90093996D01*
X149146094Y-90085886D01*
X149278758Y-90014976D01*
X149439177Y-89966313D01*
X149564196Y-89954000D01*
X149647804Y-89954000D01*
X149772823Y-89966313D01*
X149772823Y-89966313D01*
G37*
G36*
X147232823Y-89966313D02*
G01*
X147393242Y-90014976D01*
X147525906Y-90085886D01*
X147541078Y-90093996D01*
X147670659Y-90200341D01*
X147777004Y-90329922D01*
X147777005Y-90329924D01*
X147856024Y-90477758D01*
X147904687Y-90638177D01*
X147921117Y-90805000D01*
X147904687Y-90971823D01*
X147856024Y-91132242D01*
X147785114Y-91264906D01*
X147777004Y-91280078D01*
X147670659Y-91409659D01*
X147541078Y-91516004D01*
X147541076Y-91516005D01*
X147393242Y-91595024D01*
X147232823Y-91643687D01*
X147107804Y-91656000D01*
X147024196Y-91656000D01*
X146899177Y-91643687D01*
X146738758Y-91595024D01*
X146590924Y-91516005D01*
X146590922Y-91516004D01*
X146461341Y-91409659D01*
X146354996Y-91280078D01*
X146346886Y-91264906D01*
X146275976Y-91132242D01*
X146227313Y-90971823D01*
X146210883Y-90805000D01*
X146227313Y-90638177D01*
X146275976Y-90477758D01*
X146354995Y-90329924D01*
X146354996Y-90329922D01*
X146461341Y-90200341D01*
X146590922Y-90093996D01*
X146606094Y-90085886D01*
X146738758Y-90014976D01*
X146899177Y-89966313D01*
X147024196Y-89954000D01*
X147107804Y-89954000D01*
X147232823Y-89966313D01*
X147232823Y-89966313D01*
G37*
G36*
X144692823Y-89966313D02*
G01*
X144853242Y-90014976D01*
X144985906Y-90085886D01*
X145001078Y-90093996D01*
X145130659Y-90200341D01*
X145237004Y-90329922D01*
X145237005Y-90329924D01*
X145316024Y-90477758D01*
X145364687Y-90638177D01*
X145381117Y-90805000D01*
X145364687Y-90971823D01*
X145316024Y-91132242D01*
X145245114Y-91264906D01*
X145237004Y-91280078D01*
X145130659Y-91409659D01*
X145001078Y-91516004D01*
X145001076Y-91516005D01*
X144853242Y-91595024D01*
X144692823Y-91643687D01*
X144567804Y-91656000D01*
X144484196Y-91656000D01*
X144359177Y-91643687D01*
X144198758Y-91595024D01*
X144050924Y-91516005D01*
X144050922Y-91516004D01*
X143921341Y-91409659D01*
X143814996Y-91280078D01*
X143806886Y-91264906D01*
X143735976Y-91132242D01*
X143687313Y-90971823D01*
X143670883Y-90805000D01*
X143687313Y-90638177D01*
X143735976Y-90477758D01*
X143814995Y-90329924D01*
X143814996Y-90329922D01*
X143921341Y-90200341D01*
X144050922Y-90093996D01*
X144066094Y-90085886D01*
X144198758Y-90014976D01*
X144359177Y-89966313D01*
X144484196Y-89954000D01*
X144567804Y-89954000D01*
X144692823Y-89966313D01*
X144692823Y-89966313D01*
G37*
G36*
X142152823Y-89966313D02*
G01*
X142313242Y-90014976D01*
X142445906Y-90085886D01*
X142461078Y-90093996D01*
X142590659Y-90200341D01*
X142697004Y-90329922D01*
X142697005Y-90329924D01*
X142776024Y-90477758D01*
X142824687Y-90638177D01*
X142841117Y-90805000D01*
X142824687Y-90971823D01*
X142776024Y-91132242D01*
X142705114Y-91264906D01*
X142697004Y-91280078D01*
X142590659Y-91409659D01*
X142461078Y-91516004D01*
X142461076Y-91516005D01*
X142313242Y-91595024D01*
X142152823Y-91643687D01*
X142027804Y-91656000D01*
X141944196Y-91656000D01*
X141819177Y-91643687D01*
X141658758Y-91595024D01*
X141510924Y-91516005D01*
X141510922Y-91516004D01*
X141381341Y-91409659D01*
X141274996Y-91280078D01*
X141266886Y-91264906D01*
X141195976Y-91132242D01*
X141147313Y-90971823D01*
X141130883Y-90805000D01*
X141147313Y-90638177D01*
X141195976Y-90477758D01*
X141274995Y-90329924D01*
X141274996Y-90329922D01*
X141381341Y-90200341D01*
X141510922Y-90093996D01*
X141526094Y-90085886D01*
X141658758Y-90014976D01*
X141819177Y-89966313D01*
X141944196Y-89954000D01*
X142027804Y-89954000D01*
X142152823Y-89966313D01*
X142152823Y-89966313D01*
G37*
G36*
X139612823Y-89966313D02*
G01*
X139773242Y-90014976D01*
X139905906Y-90085886D01*
X139921078Y-90093996D01*
X140050659Y-90200341D01*
X140157004Y-90329922D01*
X140157005Y-90329924D01*
X140236024Y-90477758D01*
X140284687Y-90638177D01*
X140301117Y-90805000D01*
X140284687Y-90971823D01*
X140236024Y-91132242D01*
X140165114Y-91264906D01*
X140157004Y-91280078D01*
X140050659Y-91409659D01*
X139921078Y-91516004D01*
X139921076Y-91516005D01*
X139773242Y-91595024D01*
X139612823Y-91643687D01*
X139487804Y-91656000D01*
X139404196Y-91656000D01*
X139279177Y-91643687D01*
X139118758Y-91595024D01*
X138970924Y-91516005D01*
X138970922Y-91516004D01*
X138841341Y-91409659D01*
X138734996Y-91280078D01*
X138726886Y-91264906D01*
X138655976Y-91132242D01*
X138607313Y-90971823D01*
X138590883Y-90805000D01*
X138607313Y-90638177D01*
X138655976Y-90477758D01*
X138734995Y-90329924D01*
X138734996Y-90329922D01*
X138841341Y-90200341D01*
X138970922Y-90093996D01*
X138986094Y-90085886D01*
X139118758Y-90014976D01*
X139279177Y-89966313D01*
X139404196Y-89954000D01*
X139487804Y-89954000D01*
X139612823Y-89966313D01*
X139612823Y-89966313D01*
G37*
G36*
X137072823Y-89966313D02*
G01*
X137233242Y-90014976D01*
X137365906Y-90085886D01*
X137381078Y-90093996D01*
X137510659Y-90200341D01*
X137617004Y-90329922D01*
X137617005Y-90329924D01*
X137696024Y-90477758D01*
X137744687Y-90638177D01*
X137761117Y-90805000D01*
X137744687Y-90971823D01*
X137696024Y-91132242D01*
X137625114Y-91264906D01*
X137617004Y-91280078D01*
X137510659Y-91409659D01*
X137381078Y-91516004D01*
X137381076Y-91516005D01*
X137233242Y-91595024D01*
X137072823Y-91643687D01*
X136947804Y-91656000D01*
X136864196Y-91656000D01*
X136739177Y-91643687D01*
X136578758Y-91595024D01*
X136430924Y-91516005D01*
X136430922Y-91516004D01*
X136301341Y-91409659D01*
X136194996Y-91280078D01*
X136186886Y-91264906D01*
X136115976Y-91132242D01*
X136067313Y-90971823D01*
X136050883Y-90805000D01*
X136067313Y-90638177D01*
X136115976Y-90477758D01*
X136194995Y-90329924D01*
X136194996Y-90329922D01*
X136301341Y-90200341D01*
X136430922Y-90093996D01*
X136446094Y-90085886D01*
X136578758Y-90014976D01*
X136739177Y-89966313D01*
X136864196Y-89954000D01*
X136947804Y-89954000D01*
X137072823Y-89966313D01*
X137072823Y-89966313D01*
G37*
G36*
X154979823Y-85648313D02*
G01*
X155140242Y-85696976D01*
X155272906Y-85767886D01*
X155288078Y-85775996D01*
X155417659Y-85882341D01*
X155524004Y-86011922D01*
X155524005Y-86011924D01*
X155603024Y-86159758D01*
X155651687Y-86320177D01*
X155668117Y-86487000D01*
X155651687Y-86653823D01*
X155603024Y-86814242D01*
X155532114Y-86946906D01*
X155524004Y-86962078D01*
X155417659Y-87091659D01*
X155288078Y-87198004D01*
X155288076Y-87198005D01*
X155140242Y-87277024D01*
X154979823Y-87325687D01*
X154854804Y-87338000D01*
X154771196Y-87338000D01*
X154646177Y-87325687D01*
X154485758Y-87277024D01*
X154337924Y-87198005D01*
X154337922Y-87198004D01*
X154208341Y-87091659D01*
X154101996Y-86962078D01*
X154093886Y-86946906D01*
X154022976Y-86814242D01*
X153974313Y-86653823D01*
X153957883Y-86487000D01*
X153974313Y-86320177D01*
X154022976Y-86159758D01*
X154101995Y-86011924D01*
X154101996Y-86011922D01*
X154208341Y-85882341D01*
X154337922Y-85775996D01*
X154353094Y-85767886D01*
X154485758Y-85696976D01*
X154646177Y-85648313D01*
X154771196Y-85636000D01*
X154854804Y-85636000D01*
X154979823Y-85648313D01*
X154979823Y-85648313D01*
G37*
G36*
X167679823Y-85648313D02*
G01*
X167840242Y-85696976D01*
X167972906Y-85767886D01*
X167988078Y-85775996D01*
X168117659Y-85882341D01*
X168224004Y-86011922D01*
X168224005Y-86011924D01*
X168303024Y-86159758D01*
X168351687Y-86320177D01*
X168368117Y-86487000D01*
X168351687Y-86653823D01*
X168303024Y-86814242D01*
X168232114Y-86946906D01*
X168224004Y-86962078D01*
X168117659Y-87091659D01*
X167988078Y-87198004D01*
X167988076Y-87198005D01*
X167840242Y-87277024D01*
X167679823Y-87325687D01*
X167554804Y-87338000D01*
X167471196Y-87338000D01*
X167346177Y-87325687D01*
X167185758Y-87277024D01*
X167037924Y-87198005D01*
X167037922Y-87198004D01*
X166908341Y-87091659D01*
X166801996Y-86962078D01*
X166793886Y-86946906D01*
X166722976Y-86814242D01*
X166674313Y-86653823D01*
X166657883Y-86487000D01*
X166674313Y-86320177D01*
X166722976Y-86159758D01*
X166801995Y-86011924D01*
X166801996Y-86011922D01*
X166908341Y-85882341D01*
X167037922Y-85775996D01*
X167053094Y-85767886D01*
X167185758Y-85696976D01*
X167346177Y-85648313D01*
X167471196Y-85636000D01*
X167554804Y-85636000D01*
X167679823Y-85648313D01*
X167679823Y-85648313D01*
G37*
G36*
X165139823Y-85648313D02*
G01*
X165300242Y-85696976D01*
X165432906Y-85767886D01*
X165448078Y-85775996D01*
X165577659Y-85882341D01*
X165684004Y-86011922D01*
X165684005Y-86011924D01*
X165763024Y-86159758D01*
X165811687Y-86320177D01*
X165828117Y-86487000D01*
X165811687Y-86653823D01*
X165763024Y-86814242D01*
X165692114Y-86946906D01*
X165684004Y-86962078D01*
X165577659Y-87091659D01*
X165448078Y-87198004D01*
X165448076Y-87198005D01*
X165300242Y-87277024D01*
X165139823Y-87325687D01*
X165014804Y-87338000D01*
X164931196Y-87338000D01*
X164806177Y-87325687D01*
X164645758Y-87277024D01*
X164497924Y-87198005D01*
X164497922Y-87198004D01*
X164368341Y-87091659D01*
X164261996Y-86962078D01*
X164253886Y-86946906D01*
X164182976Y-86814242D01*
X164134313Y-86653823D01*
X164117883Y-86487000D01*
X164134313Y-86320177D01*
X164182976Y-86159758D01*
X164261995Y-86011924D01*
X164261996Y-86011922D01*
X164368341Y-85882341D01*
X164497922Y-85775996D01*
X164513094Y-85767886D01*
X164645758Y-85696976D01*
X164806177Y-85648313D01*
X164931196Y-85636000D01*
X165014804Y-85636000D01*
X165139823Y-85648313D01*
X165139823Y-85648313D01*
G37*
G36*
X162599823Y-85648313D02*
G01*
X162760242Y-85696976D01*
X162892906Y-85767886D01*
X162908078Y-85775996D01*
X163037659Y-85882341D01*
X163144004Y-86011922D01*
X163144005Y-86011924D01*
X163223024Y-86159758D01*
X163271687Y-86320177D01*
X163288117Y-86487000D01*
X163271687Y-86653823D01*
X163223024Y-86814242D01*
X163152114Y-86946906D01*
X163144004Y-86962078D01*
X163037659Y-87091659D01*
X162908078Y-87198004D01*
X162908076Y-87198005D01*
X162760242Y-87277024D01*
X162599823Y-87325687D01*
X162474804Y-87338000D01*
X162391196Y-87338000D01*
X162266177Y-87325687D01*
X162105758Y-87277024D01*
X161957924Y-87198005D01*
X161957922Y-87198004D01*
X161828341Y-87091659D01*
X161721996Y-86962078D01*
X161713886Y-86946906D01*
X161642976Y-86814242D01*
X161594313Y-86653823D01*
X161577883Y-86487000D01*
X161594313Y-86320177D01*
X161642976Y-86159758D01*
X161721995Y-86011924D01*
X161721996Y-86011922D01*
X161828341Y-85882341D01*
X161957922Y-85775996D01*
X161973094Y-85767886D01*
X162105758Y-85696976D01*
X162266177Y-85648313D01*
X162391196Y-85636000D01*
X162474804Y-85636000D01*
X162599823Y-85648313D01*
X162599823Y-85648313D01*
G37*
G36*
X160059823Y-85648313D02*
G01*
X160220242Y-85696976D01*
X160352906Y-85767886D01*
X160368078Y-85775996D01*
X160497659Y-85882341D01*
X160604004Y-86011922D01*
X160604005Y-86011924D01*
X160683024Y-86159758D01*
X160731687Y-86320177D01*
X160748117Y-86487000D01*
X160731687Y-86653823D01*
X160683024Y-86814242D01*
X160612114Y-86946906D01*
X160604004Y-86962078D01*
X160497659Y-87091659D01*
X160368078Y-87198004D01*
X160368076Y-87198005D01*
X160220242Y-87277024D01*
X160059823Y-87325687D01*
X159934804Y-87338000D01*
X159851196Y-87338000D01*
X159726177Y-87325687D01*
X159565758Y-87277024D01*
X159417924Y-87198005D01*
X159417922Y-87198004D01*
X159288341Y-87091659D01*
X159181996Y-86962078D01*
X159173886Y-86946906D01*
X159102976Y-86814242D01*
X159054313Y-86653823D01*
X159037883Y-86487000D01*
X159054313Y-86320177D01*
X159102976Y-86159758D01*
X159181995Y-86011924D01*
X159181996Y-86011922D01*
X159288341Y-85882341D01*
X159417922Y-85775996D01*
X159433094Y-85767886D01*
X159565758Y-85696976D01*
X159726177Y-85648313D01*
X159851196Y-85636000D01*
X159934804Y-85636000D01*
X160059823Y-85648313D01*
X160059823Y-85648313D01*
G37*
G36*
X157519823Y-85648313D02*
G01*
X157680242Y-85696976D01*
X157812906Y-85767886D01*
X157828078Y-85775996D01*
X157957659Y-85882341D01*
X158064004Y-86011922D01*
X158064005Y-86011924D01*
X158143024Y-86159758D01*
X158191687Y-86320177D01*
X158208117Y-86487000D01*
X158191687Y-86653823D01*
X158143024Y-86814242D01*
X158072114Y-86946906D01*
X158064004Y-86962078D01*
X157957659Y-87091659D01*
X157828078Y-87198004D01*
X157828076Y-87198005D01*
X157680242Y-87277024D01*
X157519823Y-87325687D01*
X157394804Y-87338000D01*
X157311196Y-87338000D01*
X157186177Y-87325687D01*
X157025758Y-87277024D01*
X156877924Y-87198005D01*
X156877922Y-87198004D01*
X156748341Y-87091659D01*
X156641996Y-86962078D01*
X156633886Y-86946906D01*
X156562976Y-86814242D01*
X156514313Y-86653823D01*
X156497883Y-86487000D01*
X156514313Y-86320177D01*
X156562976Y-86159758D01*
X156641995Y-86011924D01*
X156641996Y-86011922D01*
X156748341Y-85882341D01*
X156877922Y-85775996D01*
X156893094Y-85767886D01*
X157025758Y-85696976D01*
X157186177Y-85648313D01*
X157311196Y-85636000D01*
X157394804Y-85636000D01*
X157519823Y-85648313D01*
X157519823Y-85648313D01*
G37*
G36*
X152439823Y-85648313D02*
G01*
X152600242Y-85696976D01*
X152732906Y-85767886D01*
X152748078Y-85775996D01*
X152877659Y-85882341D01*
X152984004Y-86011922D01*
X152984005Y-86011924D01*
X153063024Y-86159758D01*
X153111687Y-86320177D01*
X153128117Y-86487000D01*
X153111687Y-86653823D01*
X153063024Y-86814242D01*
X152992114Y-86946906D01*
X152984004Y-86962078D01*
X152877659Y-87091659D01*
X152748078Y-87198004D01*
X152748076Y-87198005D01*
X152600242Y-87277024D01*
X152439823Y-87325687D01*
X152314804Y-87338000D01*
X152231196Y-87338000D01*
X152106177Y-87325687D01*
X151945758Y-87277024D01*
X151797924Y-87198005D01*
X151797922Y-87198004D01*
X151668341Y-87091659D01*
X151561996Y-86962078D01*
X151553886Y-86946906D01*
X151482976Y-86814242D01*
X151434313Y-86653823D01*
X151417883Y-86487000D01*
X151434313Y-86320177D01*
X151482976Y-86159758D01*
X151561995Y-86011924D01*
X151561996Y-86011922D01*
X151668341Y-85882341D01*
X151797922Y-85775996D01*
X151813094Y-85767886D01*
X151945758Y-85696976D01*
X152106177Y-85648313D01*
X152231196Y-85636000D01*
X152314804Y-85636000D01*
X152439823Y-85648313D01*
X152439823Y-85648313D01*
G37*
G36*
X149899823Y-85648313D02*
G01*
X150060242Y-85696976D01*
X150192906Y-85767886D01*
X150208078Y-85775996D01*
X150337659Y-85882341D01*
X150444004Y-86011922D01*
X150444005Y-86011924D01*
X150523024Y-86159758D01*
X150571687Y-86320177D01*
X150588117Y-86487000D01*
X150571687Y-86653823D01*
X150523024Y-86814242D01*
X150452114Y-86946906D01*
X150444004Y-86962078D01*
X150337659Y-87091659D01*
X150208078Y-87198004D01*
X150208076Y-87198005D01*
X150060242Y-87277024D01*
X149899823Y-87325687D01*
X149774804Y-87338000D01*
X149691196Y-87338000D01*
X149566177Y-87325687D01*
X149405758Y-87277024D01*
X149257924Y-87198005D01*
X149257922Y-87198004D01*
X149128341Y-87091659D01*
X149021996Y-86962078D01*
X149013886Y-86946906D01*
X148942976Y-86814242D01*
X148894313Y-86653823D01*
X148877883Y-86487000D01*
X148894313Y-86320177D01*
X148942976Y-86159758D01*
X149021995Y-86011924D01*
X149021996Y-86011922D01*
X149128341Y-85882341D01*
X149257922Y-85775996D01*
X149273094Y-85767886D01*
X149405758Y-85696976D01*
X149566177Y-85648313D01*
X149691196Y-85636000D01*
X149774804Y-85636000D01*
X149899823Y-85648313D01*
X149899823Y-85648313D01*
G37*
G36*
X147359823Y-85648313D02*
G01*
X147520242Y-85696976D01*
X147652906Y-85767886D01*
X147668078Y-85775996D01*
X147797659Y-85882341D01*
X147904004Y-86011922D01*
X147904005Y-86011924D01*
X147983024Y-86159758D01*
X148031687Y-86320177D01*
X148048117Y-86487000D01*
X148031687Y-86653823D01*
X147983024Y-86814242D01*
X147912114Y-86946906D01*
X147904004Y-86962078D01*
X147797659Y-87091659D01*
X147668078Y-87198004D01*
X147668076Y-87198005D01*
X147520242Y-87277024D01*
X147359823Y-87325687D01*
X147234804Y-87338000D01*
X147151196Y-87338000D01*
X147026177Y-87325687D01*
X146865758Y-87277024D01*
X146717924Y-87198005D01*
X146717922Y-87198004D01*
X146588341Y-87091659D01*
X146481996Y-86962078D01*
X146473886Y-86946906D01*
X146402976Y-86814242D01*
X146354313Y-86653823D01*
X146337883Y-86487000D01*
X146354313Y-86320177D01*
X146402976Y-86159758D01*
X146481995Y-86011924D01*
X146481996Y-86011922D01*
X146588341Y-85882341D01*
X146717922Y-85775996D01*
X146733094Y-85767886D01*
X146865758Y-85696976D01*
X147026177Y-85648313D01*
X147151196Y-85636000D01*
X147234804Y-85636000D01*
X147359823Y-85648313D01*
X147359823Y-85648313D01*
G37*
G36*
X144819823Y-85648313D02*
G01*
X144980242Y-85696976D01*
X145112906Y-85767886D01*
X145128078Y-85775996D01*
X145257659Y-85882341D01*
X145364004Y-86011922D01*
X145364005Y-86011924D01*
X145443024Y-86159758D01*
X145491687Y-86320177D01*
X145508117Y-86487000D01*
X145491687Y-86653823D01*
X145443024Y-86814242D01*
X145372114Y-86946906D01*
X145364004Y-86962078D01*
X145257659Y-87091659D01*
X145128078Y-87198004D01*
X145128076Y-87198005D01*
X144980242Y-87277024D01*
X144819823Y-87325687D01*
X144694804Y-87338000D01*
X144611196Y-87338000D01*
X144486177Y-87325687D01*
X144325758Y-87277024D01*
X144177924Y-87198005D01*
X144177922Y-87198004D01*
X144048341Y-87091659D01*
X143941996Y-86962078D01*
X143933886Y-86946906D01*
X143862976Y-86814242D01*
X143814313Y-86653823D01*
X143797883Y-86487000D01*
X143814313Y-86320177D01*
X143862976Y-86159758D01*
X143941995Y-86011924D01*
X143941996Y-86011922D01*
X144048341Y-85882341D01*
X144177922Y-85775996D01*
X144193094Y-85767886D01*
X144325758Y-85696976D01*
X144486177Y-85648313D01*
X144611196Y-85636000D01*
X144694804Y-85636000D01*
X144819823Y-85648313D01*
X144819823Y-85648313D01*
G37*
G36*
X137199823Y-85648313D02*
G01*
X137360242Y-85696976D01*
X137492906Y-85767886D01*
X137508078Y-85775996D01*
X137637659Y-85882341D01*
X137744004Y-86011922D01*
X137744005Y-86011924D01*
X137823024Y-86159758D01*
X137871687Y-86320177D01*
X137888117Y-86487000D01*
X137871687Y-86653823D01*
X137823024Y-86814242D01*
X137752114Y-86946906D01*
X137744004Y-86962078D01*
X137637659Y-87091659D01*
X137508078Y-87198004D01*
X137508076Y-87198005D01*
X137360242Y-87277024D01*
X137199823Y-87325687D01*
X137074804Y-87338000D01*
X136991196Y-87338000D01*
X136866177Y-87325687D01*
X136705758Y-87277024D01*
X136557924Y-87198005D01*
X136557922Y-87198004D01*
X136428341Y-87091659D01*
X136321996Y-86962078D01*
X136313886Y-86946906D01*
X136242976Y-86814242D01*
X136194313Y-86653823D01*
X136177883Y-86487000D01*
X136194313Y-86320177D01*
X136242976Y-86159758D01*
X136321995Y-86011924D01*
X136321996Y-86011922D01*
X136428341Y-85882341D01*
X136557922Y-85775996D01*
X136573094Y-85767886D01*
X136705758Y-85696976D01*
X136866177Y-85648313D01*
X136991196Y-85636000D01*
X137074804Y-85636000D01*
X137199823Y-85648313D01*
X137199823Y-85648313D01*
G37*
G36*
X134659823Y-85648313D02*
G01*
X134820242Y-85696976D01*
X134952906Y-85767886D01*
X134968078Y-85775996D01*
X135097659Y-85882341D01*
X135204004Y-86011922D01*
X135204005Y-86011924D01*
X135283024Y-86159758D01*
X135331687Y-86320177D01*
X135348117Y-86487000D01*
X135331687Y-86653823D01*
X135283024Y-86814242D01*
X135212114Y-86946906D01*
X135204004Y-86962078D01*
X135097659Y-87091659D01*
X134968078Y-87198004D01*
X134968076Y-87198005D01*
X134820242Y-87277024D01*
X134659823Y-87325687D01*
X134534804Y-87338000D01*
X134451196Y-87338000D01*
X134326177Y-87325687D01*
X134165758Y-87277024D01*
X134017924Y-87198005D01*
X134017922Y-87198004D01*
X133888341Y-87091659D01*
X133781996Y-86962078D01*
X133773886Y-86946906D01*
X133702976Y-86814242D01*
X133654313Y-86653823D01*
X133637883Y-86487000D01*
X133654313Y-86320177D01*
X133702976Y-86159758D01*
X133781995Y-86011924D01*
X133781996Y-86011922D01*
X133888341Y-85882341D01*
X134017922Y-85775996D01*
X134033094Y-85767886D01*
X134165758Y-85696976D01*
X134326177Y-85648313D01*
X134451196Y-85636000D01*
X134534804Y-85636000D01*
X134659823Y-85648313D01*
X134659823Y-85648313D01*
G37*
G36*
X132119823Y-85648313D02*
G01*
X132280242Y-85696976D01*
X132412906Y-85767886D01*
X132428078Y-85775996D01*
X132557659Y-85882341D01*
X132664004Y-86011922D01*
X132664005Y-86011924D01*
X132743024Y-86159758D01*
X132791687Y-86320177D01*
X132808117Y-86487000D01*
X132791687Y-86653823D01*
X132743024Y-86814242D01*
X132672114Y-86946906D01*
X132664004Y-86962078D01*
X132557659Y-87091659D01*
X132428078Y-87198004D01*
X132428076Y-87198005D01*
X132280242Y-87277024D01*
X132119823Y-87325687D01*
X131994804Y-87338000D01*
X131911196Y-87338000D01*
X131786177Y-87325687D01*
X131625758Y-87277024D01*
X131477924Y-87198005D01*
X131477922Y-87198004D01*
X131348341Y-87091659D01*
X131241996Y-86962078D01*
X131233886Y-86946906D01*
X131162976Y-86814242D01*
X131114313Y-86653823D01*
X131097883Y-86487000D01*
X131114313Y-86320177D01*
X131162976Y-86159758D01*
X131241995Y-86011924D01*
X131241996Y-86011922D01*
X131348341Y-85882341D01*
X131477922Y-85775996D01*
X131493094Y-85767886D01*
X131625758Y-85696976D01*
X131786177Y-85648313D01*
X131911196Y-85636000D01*
X131994804Y-85636000D01*
X132119823Y-85648313D01*
X132119823Y-85648313D01*
G37*
G36*
X130264000Y-87338000D02*
G01*
X128562000Y-87338000D01*
X128562000Y-85636000D01*
X130264000Y-85636000D01*
X130264000Y-87338000D01*
X130264000Y-87338000D01*
G37*
G36*
X139739823Y-85648313D02*
G01*
X139900242Y-85696976D01*
X140032906Y-85767886D01*
X140048078Y-85775996D01*
X140177659Y-85882341D01*
X140284004Y-86011922D01*
X140284005Y-86011924D01*
X140363024Y-86159758D01*
X140411687Y-86320177D01*
X140428117Y-86487000D01*
X140411687Y-86653823D01*
X140363024Y-86814242D01*
X140292114Y-86946906D01*
X140284004Y-86962078D01*
X140177659Y-87091659D01*
X140048078Y-87198004D01*
X140048076Y-87198005D01*
X139900242Y-87277024D01*
X139739823Y-87325687D01*
X139614804Y-87338000D01*
X139531196Y-87338000D01*
X139406177Y-87325687D01*
X139245758Y-87277024D01*
X139097924Y-87198005D01*
X139097922Y-87198004D01*
X138968341Y-87091659D01*
X138861996Y-86962078D01*
X138853886Y-86946906D01*
X138782976Y-86814242D01*
X138734313Y-86653823D01*
X138717883Y-86487000D01*
X138734313Y-86320177D01*
X138782976Y-86159758D01*
X138861995Y-86011924D01*
X138861996Y-86011922D01*
X138968341Y-85882341D01*
X139097922Y-85775996D01*
X139113094Y-85767886D01*
X139245758Y-85696976D01*
X139406177Y-85648313D01*
X139531196Y-85636000D01*
X139614804Y-85636000D01*
X139739823Y-85648313D01*
X139739823Y-85648313D01*
G37*
G36*
X142279823Y-85648313D02*
G01*
X142440242Y-85696976D01*
X142572906Y-85767886D01*
X142588078Y-85775996D01*
X142717659Y-85882341D01*
X142824004Y-86011922D01*
X142824005Y-86011924D01*
X142903024Y-86159758D01*
X142951687Y-86320177D01*
X142968117Y-86487000D01*
X142951687Y-86653823D01*
X142903024Y-86814242D01*
X142832114Y-86946906D01*
X142824004Y-86962078D01*
X142717659Y-87091659D01*
X142588078Y-87198004D01*
X142588076Y-87198005D01*
X142440242Y-87277024D01*
X142279823Y-87325687D01*
X142154804Y-87338000D01*
X142071196Y-87338000D01*
X141946177Y-87325687D01*
X141785758Y-87277024D01*
X141637924Y-87198005D01*
X141637922Y-87198004D01*
X141508341Y-87091659D01*
X141401996Y-86962078D01*
X141393886Y-86946906D01*
X141322976Y-86814242D01*
X141274313Y-86653823D01*
X141257883Y-86487000D01*
X141274313Y-86320177D01*
X141322976Y-86159758D01*
X141401995Y-86011924D01*
X141401996Y-86011922D01*
X141508341Y-85882341D01*
X141637922Y-85775996D01*
X141653094Y-85767886D01*
X141785758Y-85696976D01*
X141946177Y-85648313D01*
X142071196Y-85636000D01*
X142154804Y-85636000D01*
X142279823Y-85648313D01*
X142279823Y-85648313D01*
G37*
G36*
X142279823Y-78028313D02*
G01*
X142440242Y-78076976D01*
X142572906Y-78147886D01*
X142588078Y-78155996D01*
X142717659Y-78262341D01*
X142824004Y-78391922D01*
X142824005Y-78391924D01*
X142903024Y-78539758D01*
X142951687Y-78700177D01*
X142968117Y-78867000D01*
X142951687Y-79033823D01*
X142903024Y-79194242D01*
X142832114Y-79326906D01*
X142824004Y-79342078D01*
X142717659Y-79471659D01*
X142588078Y-79578004D01*
X142588076Y-79578005D01*
X142440242Y-79657024D01*
X142279823Y-79705687D01*
X142154804Y-79718000D01*
X142071196Y-79718000D01*
X141946177Y-79705687D01*
X141785758Y-79657024D01*
X141637924Y-79578005D01*
X141637922Y-79578004D01*
X141508341Y-79471659D01*
X141401996Y-79342078D01*
X141393886Y-79326906D01*
X141322976Y-79194242D01*
X141274313Y-79033823D01*
X141257883Y-78867000D01*
X141274313Y-78700177D01*
X141322976Y-78539758D01*
X141401995Y-78391924D01*
X141401996Y-78391922D01*
X141508341Y-78262341D01*
X141637922Y-78155996D01*
X141653094Y-78147886D01*
X141785758Y-78076976D01*
X141946177Y-78028313D01*
X142071196Y-78016000D01*
X142154804Y-78016000D01*
X142279823Y-78028313D01*
X142279823Y-78028313D01*
G37*
G36*
X144819823Y-78028313D02*
G01*
X144980242Y-78076976D01*
X145112906Y-78147886D01*
X145128078Y-78155996D01*
X145257659Y-78262341D01*
X145364004Y-78391922D01*
X145364005Y-78391924D01*
X145443024Y-78539758D01*
X145491687Y-78700177D01*
X145508117Y-78867000D01*
X145491687Y-79033823D01*
X145443024Y-79194242D01*
X145372114Y-79326906D01*
X145364004Y-79342078D01*
X145257659Y-79471659D01*
X145128078Y-79578004D01*
X145128076Y-79578005D01*
X144980242Y-79657024D01*
X144819823Y-79705687D01*
X144694804Y-79718000D01*
X144611196Y-79718000D01*
X144486177Y-79705687D01*
X144325758Y-79657024D01*
X144177924Y-79578005D01*
X144177922Y-79578004D01*
X144048341Y-79471659D01*
X143941996Y-79342078D01*
X143933886Y-79326906D01*
X143862976Y-79194242D01*
X143814313Y-79033823D01*
X143797883Y-78867000D01*
X143814313Y-78700177D01*
X143862976Y-78539758D01*
X143941995Y-78391924D01*
X143941996Y-78391922D01*
X144048341Y-78262341D01*
X144177922Y-78155996D01*
X144193094Y-78147886D01*
X144325758Y-78076976D01*
X144486177Y-78028313D01*
X144611196Y-78016000D01*
X144694804Y-78016000D01*
X144819823Y-78028313D01*
X144819823Y-78028313D01*
G37*
G36*
X139739823Y-78028313D02*
G01*
X139900242Y-78076976D01*
X140032906Y-78147886D01*
X140048078Y-78155996D01*
X140177659Y-78262341D01*
X140284004Y-78391922D01*
X140284005Y-78391924D01*
X140363024Y-78539758D01*
X140411687Y-78700177D01*
X140428117Y-78867000D01*
X140411687Y-79033823D01*
X140363024Y-79194242D01*
X140292114Y-79326906D01*
X140284004Y-79342078D01*
X140177659Y-79471659D01*
X140048078Y-79578004D01*
X140048076Y-79578005D01*
X139900242Y-79657024D01*
X139739823Y-79705687D01*
X139614804Y-79718000D01*
X139531196Y-79718000D01*
X139406177Y-79705687D01*
X139245758Y-79657024D01*
X139097924Y-79578005D01*
X139097922Y-79578004D01*
X138968341Y-79471659D01*
X138861996Y-79342078D01*
X138853886Y-79326906D01*
X138782976Y-79194242D01*
X138734313Y-79033823D01*
X138717883Y-78867000D01*
X138734313Y-78700177D01*
X138782976Y-78539758D01*
X138861995Y-78391924D01*
X138861996Y-78391922D01*
X138968341Y-78262341D01*
X139097922Y-78155996D01*
X139113094Y-78147886D01*
X139245758Y-78076976D01*
X139406177Y-78028313D01*
X139531196Y-78016000D01*
X139614804Y-78016000D01*
X139739823Y-78028313D01*
X139739823Y-78028313D01*
G37*
G36*
X147359823Y-78028313D02*
G01*
X147520242Y-78076976D01*
X147652906Y-78147886D01*
X147668078Y-78155996D01*
X147797659Y-78262341D01*
X147904004Y-78391922D01*
X147904005Y-78391924D01*
X147983024Y-78539758D01*
X148031687Y-78700177D01*
X148048117Y-78867000D01*
X148031687Y-79033823D01*
X147983024Y-79194242D01*
X147912114Y-79326906D01*
X147904004Y-79342078D01*
X147797659Y-79471659D01*
X147668078Y-79578004D01*
X147668076Y-79578005D01*
X147520242Y-79657024D01*
X147359823Y-79705687D01*
X147234804Y-79718000D01*
X147151196Y-79718000D01*
X147026177Y-79705687D01*
X146865758Y-79657024D01*
X146717924Y-79578005D01*
X146717922Y-79578004D01*
X146588341Y-79471659D01*
X146481996Y-79342078D01*
X146473886Y-79326906D01*
X146402976Y-79194242D01*
X146354313Y-79033823D01*
X146337883Y-78867000D01*
X146354313Y-78700177D01*
X146402976Y-78539758D01*
X146481995Y-78391924D01*
X146481996Y-78391922D01*
X146588341Y-78262341D01*
X146717922Y-78155996D01*
X146733094Y-78147886D01*
X146865758Y-78076976D01*
X147026177Y-78028313D01*
X147151196Y-78016000D01*
X147234804Y-78016000D01*
X147359823Y-78028313D01*
X147359823Y-78028313D01*
G37*
G36*
X137199823Y-78028313D02*
G01*
X137360242Y-78076976D01*
X137492906Y-78147886D01*
X137508078Y-78155996D01*
X137637659Y-78262341D01*
X137744004Y-78391922D01*
X137744005Y-78391924D01*
X137823024Y-78539758D01*
X137871687Y-78700177D01*
X137888117Y-78867000D01*
X137871687Y-79033823D01*
X137823024Y-79194242D01*
X137752114Y-79326906D01*
X137744004Y-79342078D01*
X137637659Y-79471659D01*
X137508078Y-79578004D01*
X137508076Y-79578005D01*
X137360242Y-79657024D01*
X137199823Y-79705687D01*
X137074804Y-79718000D01*
X136991196Y-79718000D01*
X136866177Y-79705687D01*
X136705758Y-79657024D01*
X136557924Y-79578005D01*
X136557922Y-79578004D01*
X136428341Y-79471659D01*
X136321996Y-79342078D01*
X136313886Y-79326906D01*
X136242976Y-79194242D01*
X136194313Y-79033823D01*
X136177883Y-78867000D01*
X136194313Y-78700177D01*
X136242976Y-78539758D01*
X136321995Y-78391924D01*
X136321996Y-78391922D01*
X136428341Y-78262341D01*
X136557922Y-78155996D01*
X136573094Y-78147886D01*
X136705758Y-78076976D01*
X136866177Y-78028313D01*
X136991196Y-78016000D01*
X137074804Y-78016000D01*
X137199823Y-78028313D01*
X137199823Y-78028313D01*
G37*
G36*
X149899823Y-78028313D02*
G01*
X150060242Y-78076976D01*
X150192906Y-78147886D01*
X150208078Y-78155996D01*
X150337659Y-78262341D01*
X150444004Y-78391922D01*
X150444005Y-78391924D01*
X150523024Y-78539758D01*
X150571687Y-78700177D01*
X150588117Y-78867000D01*
X150571687Y-79033823D01*
X150523024Y-79194242D01*
X150452114Y-79326906D01*
X150444004Y-79342078D01*
X150337659Y-79471659D01*
X150208078Y-79578004D01*
X150208076Y-79578005D01*
X150060242Y-79657024D01*
X149899823Y-79705687D01*
X149774804Y-79718000D01*
X149691196Y-79718000D01*
X149566177Y-79705687D01*
X149405758Y-79657024D01*
X149257924Y-79578005D01*
X149257922Y-79578004D01*
X149128341Y-79471659D01*
X149021996Y-79342078D01*
X149013886Y-79326906D01*
X148942976Y-79194242D01*
X148894313Y-79033823D01*
X148877883Y-78867000D01*
X148894313Y-78700177D01*
X148942976Y-78539758D01*
X149021995Y-78391924D01*
X149021996Y-78391922D01*
X149128341Y-78262341D01*
X149257922Y-78155996D01*
X149273094Y-78147886D01*
X149405758Y-78076976D01*
X149566177Y-78028313D01*
X149691196Y-78016000D01*
X149774804Y-78016000D01*
X149899823Y-78028313D01*
X149899823Y-78028313D01*
G37*
G36*
X134659823Y-78028313D02*
G01*
X134820242Y-78076976D01*
X134952906Y-78147886D01*
X134968078Y-78155996D01*
X135097659Y-78262341D01*
X135204004Y-78391922D01*
X135204005Y-78391924D01*
X135283024Y-78539758D01*
X135331687Y-78700177D01*
X135348117Y-78867000D01*
X135331687Y-79033823D01*
X135283024Y-79194242D01*
X135212114Y-79326906D01*
X135204004Y-79342078D01*
X135097659Y-79471659D01*
X134968078Y-79578004D01*
X134968076Y-79578005D01*
X134820242Y-79657024D01*
X134659823Y-79705687D01*
X134534804Y-79718000D01*
X134451196Y-79718000D01*
X134326177Y-79705687D01*
X134165758Y-79657024D01*
X134017924Y-79578005D01*
X134017922Y-79578004D01*
X133888341Y-79471659D01*
X133781996Y-79342078D01*
X133773886Y-79326906D01*
X133702976Y-79194242D01*
X133654313Y-79033823D01*
X133637883Y-78867000D01*
X133654313Y-78700177D01*
X133702976Y-78539758D01*
X133781995Y-78391924D01*
X133781996Y-78391922D01*
X133888341Y-78262341D01*
X134017922Y-78155996D01*
X134033094Y-78147886D01*
X134165758Y-78076976D01*
X134326177Y-78028313D01*
X134451196Y-78016000D01*
X134534804Y-78016000D01*
X134659823Y-78028313D01*
X134659823Y-78028313D01*
G37*
G36*
X152439823Y-78028313D02*
G01*
X152600242Y-78076976D01*
X152732906Y-78147886D01*
X152748078Y-78155996D01*
X152877659Y-78262341D01*
X152984004Y-78391922D01*
X152984005Y-78391924D01*
X153063024Y-78539758D01*
X153111687Y-78700177D01*
X153128117Y-78867000D01*
X153111687Y-79033823D01*
X153063024Y-79194242D01*
X152992114Y-79326906D01*
X152984004Y-79342078D01*
X152877659Y-79471659D01*
X152748078Y-79578004D01*
X152748076Y-79578005D01*
X152600242Y-79657024D01*
X152439823Y-79705687D01*
X152314804Y-79718000D01*
X152231196Y-79718000D01*
X152106177Y-79705687D01*
X151945758Y-79657024D01*
X151797924Y-79578005D01*
X151797922Y-79578004D01*
X151668341Y-79471659D01*
X151561996Y-79342078D01*
X151553886Y-79326906D01*
X151482976Y-79194242D01*
X151434313Y-79033823D01*
X151417883Y-78867000D01*
X151434313Y-78700177D01*
X151482976Y-78539758D01*
X151561995Y-78391924D01*
X151561996Y-78391922D01*
X151668341Y-78262341D01*
X151797922Y-78155996D01*
X151813094Y-78147886D01*
X151945758Y-78076976D01*
X152106177Y-78028313D01*
X152231196Y-78016000D01*
X152314804Y-78016000D01*
X152439823Y-78028313D01*
X152439823Y-78028313D01*
G37*
G36*
X132119823Y-78028313D02*
G01*
X132280242Y-78076976D01*
X132412906Y-78147886D01*
X132428078Y-78155996D01*
X132557659Y-78262341D01*
X132664004Y-78391922D01*
X132664005Y-78391924D01*
X132743024Y-78539758D01*
X132791687Y-78700177D01*
X132808117Y-78867000D01*
X132791687Y-79033823D01*
X132743024Y-79194242D01*
X132672114Y-79326906D01*
X132664004Y-79342078D01*
X132557659Y-79471659D01*
X132428078Y-79578004D01*
X132428076Y-79578005D01*
X132280242Y-79657024D01*
X132119823Y-79705687D01*
X131994804Y-79718000D01*
X131911196Y-79718000D01*
X131786177Y-79705687D01*
X131625758Y-79657024D01*
X131477924Y-79578005D01*
X131477922Y-79578004D01*
X131348341Y-79471659D01*
X131241996Y-79342078D01*
X131233886Y-79326906D01*
X131162976Y-79194242D01*
X131114313Y-79033823D01*
X131097883Y-78867000D01*
X131114313Y-78700177D01*
X131162976Y-78539758D01*
X131241995Y-78391924D01*
X131241996Y-78391922D01*
X131348341Y-78262341D01*
X131477922Y-78155996D01*
X131493094Y-78147886D01*
X131625758Y-78076976D01*
X131786177Y-78028313D01*
X131911196Y-78016000D01*
X131994804Y-78016000D01*
X132119823Y-78028313D01*
X132119823Y-78028313D01*
G37*
G36*
X154979823Y-78028313D02*
G01*
X155140242Y-78076976D01*
X155272906Y-78147886D01*
X155288078Y-78155996D01*
X155417659Y-78262341D01*
X155524004Y-78391922D01*
X155524005Y-78391924D01*
X155603024Y-78539758D01*
X155651687Y-78700177D01*
X155668117Y-78867000D01*
X155651687Y-79033823D01*
X155603024Y-79194242D01*
X155532114Y-79326906D01*
X155524004Y-79342078D01*
X155417659Y-79471659D01*
X155288078Y-79578004D01*
X155288076Y-79578005D01*
X155140242Y-79657024D01*
X154979823Y-79705687D01*
X154854804Y-79718000D01*
X154771196Y-79718000D01*
X154646177Y-79705687D01*
X154485758Y-79657024D01*
X154337924Y-79578005D01*
X154337922Y-79578004D01*
X154208341Y-79471659D01*
X154101996Y-79342078D01*
X154093886Y-79326906D01*
X154022976Y-79194242D01*
X153974313Y-79033823D01*
X153957883Y-78867000D01*
X153974313Y-78700177D01*
X154022976Y-78539758D01*
X154101995Y-78391924D01*
X154101996Y-78391922D01*
X154208341Y-78262341D01*
X154337922Y-78155996D01*
X154353094Y-78147886D01*
X154485758Y-78076976D01*
X154646177Y-78028313D01*
X154771196Y-78016000D01*
X154854804Y-78016000D01*
X154979823Y-78028313D01*
X154979823Y-78028313D01*
G37*
G36*
X129579823Y-78028313D02*
G01*
X129740242Y-78076976D01*
X129872906Y-78147886D01*
X129888078Y-78155996D01*
X130017659Y-78262341D01*
X130124004Y-78391922D01*
X130124005Y-78391924D01*
X130203024Y-78539758D01*
X130251687Y-78700177D01*
X130268117Y-78867000D01*
X130251687Y-79033823D01*
X130203024Y-79194242D01*
X130132114Y-79326906D01*
X130124004Y-79342078D01*
X130017659Y-79471659D01*
X129888078Y-79578004D01*
X129888076Y-79578005D01*
X129740242Y-79657024D01*
X129579823Y-79705687D01*
X129454804Y-79718000D01*
X129371196Y-79718000D01*
X129246177Y-79705687D01*
X129085758Y-79657024D01*
X128937924Y-79578005D01*
X128937922Y-79578004D01*
X128808341Y-79471659D01*
X128701996Y-79342078D01*
X128693886Y-79326906D01*
X128622976Y-79194242D01*
X128574313Y-79033823D01*
X128557883Y-78867000D01*
X128574313Y-78700177D01*
X128622976Y-78539758D01*
X128701995Y-78391924D01*
X128701996Y-78391922D01*
X128808341Y-78262341D01*
X128937922Y-78155996D01*
X128953094Y-78147886D01*
X129085758Y-78076976D01*
X129246177Y-78028313D01*
X129371196Y-78016000D01*
X129454804Y-78016000D01*
X129579823Y-78028313D01*
X129579823Y-78028313D01*
G37*
G36*
X157519823Y-78028313D02*
G01*
X157680242Y-78076976D01*
X157812906Y-78147886D01*
X157828078Y-78155996D01*
X157957659Y-78262341D01*
X158064004Y-78391922D01*
X158064005Y-78391924D01*
X158143024Y-78539758D01*
X158191687Y-78700177D01*
X158208117Y-78867000D01*
X158191687Y-79033823D01*
X158143024Y-79194242D01*
X158072114Y-79326906D01*
X158064004Y-79342078D01*
X157957659Y-79471659D01*
X157828078Y-79578004D01*
X157828076Y-79578005D01*
X157680242Y-79657024D01*
X157519823Y-79705687D01*
X157394804Y-79718000D01*
X157311196Y-79718000D01*
X157186177Y-79705687D01*
X157025758Y-79657024D01*
X156877924Y-79578005D01*
X156877922Y-79578004D01*
X156748341Y-79471659D01*
X156641996Y-79342078D01*
X156633886Y-79326906D01*
X156562976Y-79194242D01*
X156514313Y-79033823D01*
X156497883Y-78867000D01*
X156514313Y-78700177D01*
X156562976Y-78539758D01*
X156641995Y-78391924D01*
X156641996Y-78391922D01*
X156748341Y-78262341D01*
X156877922Y-78155996D01*
X156893094Y-78147886D01*
X157025758Y-78076976D01*
X157186177Y-78028313D01*
X157311196Y-78016000D01*
X157394804Y-78016000D01*
X157519823Y-78028313D01*
X157519823Y-78028313D01*
G37*
G36*
X160059823Y-78028313D02*
G01*
X160220242Y-78076976D01*
X160352906Y-78147886D01*
X160368078Y-78155996D01*
X160497659Y-78262341D01*
X160604004Y-78391922D01*
X160604005Y-78391924D01*
X160683024Y-78539758D01*
X160731687Y-78700177D01*
X160748117Y-78867000D01*
X160731687Y-79033823D01*
X160683024Y-79194242D01*
X160612114Y-79326906D01*
X160604004Y-79342078D01*
X160497659Y-79471659D01*
X160368078Y-79578004D01*
X160368076Y-79578005D01*
X160220242Y-79657024D01*
X160059823Y-79705687D01*
X159934804Y-79718000D01*
X159851196Y-79718000D01*
X159726177Y-79705687D01*
X159565758Y-79657024D01*
X159417924Y-79578005D01*
X159417922Y-79578004D01*
X159288341Y-79471659D01*
X159181996Y-79342078D01*
X159173886Y-79326906D01*
X159102976Y-79194242D01*
X159054313Y-79033823D01*
X159037883Y-78867000D01*
X159054313Y-78700177D01*
X159102976Y-78539758D01*
X159181995Y-78391924D01*
X159181996Y-78391922D01*
X159288341Y-78262341D01*
X159417922Y-78155996D01*
X159433094Y-78147886D01*
X159565758Y-78076976D01*
X159726177Y-78028313D01*
X159851196Y-78016000D01*
X159934804Y-78016000D01*
X160059823Y-78028313D01*
X160059823Y-78028313D01*
G37*
G36*
X162599823Y-78028313D02*
G01*
X162760242Y-78076976D01*
X162892906Y-78147886D01*
X162908078Y-78155996D01*
X163037659Y-78262341D01*
X163144004Y-78391922D01*
X163144005Y-78391924D01*
X163223024Y-78539758D01*
X163271687Y-78700177D01*
X163288117Y-78867000D01*
X163271687Y-79033823D01*
X163223024Y-79194242D01*
X163152114Y-79326906D01*
X163144004Y-79342078D01*
X163037659Y-79471659D01*
X162908078Y-79578004D01*
X162908076Y-79578005D01*
X162760242Y-79657024D01*
X162599823Y-79705687D01*
X162474804Y-79718000D01*
X162391196Y-79718000D01*
X162266177Y-79705687D01*
X162105758Y-79657024D01*
X161957924Y-79578005D01*
X161957922Y-79578004D01*
X161828341Y-79471659D01*
X161721996Y-79342078D01*
X161713886Y-79326906D01*
X161642976Y-79194242D01*
X161594313Y-79033823D01*
X161577883Y-78867000D01*
X161594313Y-78700177D01*
X161642976Y-78539758D01*
X161721995Y-78391924D01*
X161721996Y-78391922D01*
X161828341Y-78262341D01*
X161957922Y-78155996D01*
X161973094Y-78147886D01*
X162105758Y-78076976D01*
X162266177Y-78028313D01*
X162391196Y-78016000D01*
X162474804Y-78016000D01*
X162599823Y-78028313D01*
X162599823Y-78028313D01*
G37*
G36*
X165139823Y-78028313D02*
G01*
X165300242Y-78076976D01*
X165432906Y-78147886D01*
X165448078Y-78155996D01*
X165577659Y-78262341D01*
X165684004Y-78391922D01*
X165684005Y-78391924D01*
X165763024Y-78539758D01*
X165811687Y-78700177D01*
X165828117Y-78867000D01*
X165811687Y-79033823D01*
X165763024Y-79194242D01*
X165692114Y-79326906D01*
X165684004Y-79342078D01*
X165577659Y-79471659D01*
X165448078Y-79578004D01*
X165448076Y-79578005D01*
X165300242Y-79657024D01*
X165139823Y-79705687D01*
X165014804Y-79718000D01*
X164931196Y-79718000D01*
X164806177Y-79705687D01*
X164645758Y-79657024D01*
X164497924Y-79578005D01*
X164497922Y-79578004D01*
X164368341Y-79471659D01*
X164261996Y-79342078D01*
X164253886Y-79326906D01*
X164182976Y-79194242D01*
X164134313Y-79033823D01*
X164117883Y-78867000D01*
X164134313Y-78700177D01*
X164182976Y-78539758D01*
X164261995Y-78391924D01*
X164261996Y-78391922D01*
X164368341Y-78262341D01*
X164497922Y-78155996D01*
X164513094Y-78147886D01*
X164645758Y-78076976D01*
X164806177Y-78028313D01*
X164931196Y-78016000D01*
X165014804Y-78016000D01*
X165139823Y-78028313D01*
X165139823Y-78028313D01*
G37*
G36*
X167679823Y-78028313D02*
G01*
X167840242Y-78076976D01*
X167972906Y-78147886D01*
X167988078Y-78155996D01*
X168117659Y-78262341D01*
X168224004Y-78391922D01*
X168224005Y-78391924D01*
X168303024Y-78539758D01*
X168351687Y-78700177D01*
X168368117Y-78867000D01*
X168351687Y-79033823D01*
X168303024Y-79194242D01*
X168232114Y-79326906D01*
X168224004Y-79342078D01*
X168117659Y-79471659D01*
X167988078Y-79578004D01*
X167988076Y-79578005D01*
X167840242Y-79657024D01*
X167679823Y-79705687D01*
X167554804Y-79718000D01*
X167471196Y-79718000D01*
X167346177Y-79705687D01*
X167185758Y-79657024D01*
X167037924Y-79578005D01*
X167037922Y-79578004D01*
X166908341Y-79471659D01*
X166801996Y-79342078D01*
X166793886Y-79326906D01*
X166722976Y-79194242D01*
X166674313Y-79033823D01*
X166657883Y-78867000D01*
X166674313Y-78700177D01*
X166722976Y-78539758D01*
X166801995Y-78391924D01*
X166801996Y-78391922D01*
X166908341Y-78262341D01*
X167037922Y-78155996D01*
X167053094Y-78147886D01*
X167185758Y-78076976D01*
X167346177Y-78028313D01*
X167471196Y-78016000D01*
X167554804Y-78016000D01*
X167679823Y-78028313D01*
X167679823Y-78028313D01*
G37*
G36*
X139612823Y-74726313D02*
G01*
X139773242Y-74774976D01*
X139905906Y-74845886D01*
X139921078Y-74853996D01*
X140050659Y-74960341D01*
X140157004Y-75089922D01*
X140157005Y-75089924D01*
X140236024Y-75237758D01*
X140284687Y-75398177D01*
X140301117Y-75565000D01*
X140284687Y-75731823D01*
X140236024Y-75892242D01*
X140165114Y-76024906D01*
X140157004Y-76040078D01*
X140050659Y-76169659D01*
X139921078Y-76276004D01*
X139921076Y-76276005D01*
X139773242Y-76355024D01*
X139612823Y-76403687D01*
X139487804Y-76416000D01*
X139404196Y-76416000D01*
X139279177Y-76403687D01*
X139118758Y-76355024D01*
X138970924Y-76276005D01*
X138970922Y-76276004D01*
X138841341Y-76169659D01*
X138734996Y-76040078D01*
X138726886Y-76024906D01*
X138655976Y-75892242D01*
X138607313Y-75731823D01*
X138590883Y-75565000D01*
X138607313Y-75398177D01*
X138655976Y-75237758D01*
X138734995Y-75089924D01*
X138734996Y-75089922D01*
X138841341Y-74960341D01*
X138970922Y-74853996D01*
X138986094Y-74845886D01*
X139118758Y-74774976D01*
X139279177Y-74726313D01*
X139404196Y-74714000D01*
X139487804Y-74714000D01*
X139612823Y-74726313D01*
X139612823Y-74726313D01*
G37*
G36*
X162472823Y-74726313D02*
G01*
X162633242Y-74774976D01*
X162765906Y-74845886D01*
X162781078Y-74853996D01*
X162910659Y-74960341D01*
X163017004Y-75089922D01*
X163017005Y-75089924D01*
X163096024Y-75237758D01*
X163144687Y-75398177D01*
X163161117Y-75565000D01*
X163144687Y-75731823D01*
X163096024Y-75892242D01*
X163025114Y-76024906D01*
X163017004Y-76040078D01*
X162910659Y-76169659D01*
X162781078Y-76276004D01*
X162781076Y-76276005D01*
X162633242Y-76355024D01*
X162472823Y-76403687D01*
X162347804Y-76416000D01*
X162264196Y-76416000D01*
X162139177Y-76403687D01*
X161978758Y-76355024D01*
X161830924Y-76276005D01*
X161830922Y-76276004D01*
X161701341Y-76169659D01*
X161594996Y-76040078D01*
X161586886Y-76024906D01*
X161515976Y-75892242D01*
X161467313Y-75731823D01*
X161450883Y-75565000D01*
X161467313Y-75398177D01*
X161515976Y-75237758D01*
X161594995Y-75089924D01*
X161594996Y-75089922D01*
X161701341Y-74960341D01*
X161830922Y-74853996D01*
X161846094Y-74845886D01*
X161978758Y-74774976D01*
X162139177Y-74726313D01*
X162264196Y-74714000D01*
X162347804Y-74714000D01*
X162472823Y-74726313D01*
X162472823Y-74726313D01*
G37*
G36*
X159932823Y-74726313D02*
G01*
X160093242Y-74774976D01*
X160225906Y-74845886D01*
X160241078Y-74853996D01*
X160370659Y-74960341D01*
X160477004Y-75089922D01*
X160477005Y-75089924D01*
X160556024Y-75237758D01*
X160604687Y-75398177D01*
X160621117Y-75565000D01*
X160604687Y-75731823D01*
X160556024Y-75892242D01*
X160485114Y-76024906D01*
X160477004Y-76040078D01*
X160370659Y-76169659D01*
X160241078Y-76276004D01*
X160241076Y-76276005D01*
X160093242Y-76355024D01*
X159932823Y-76403687D01*
X159807804Y-76416000D01*
X159724196Y-76416000D01*
X159599177Y-76403687D01*
X159438758Y-76355024D01*
X159290924Y-76276005D01*
X159290922Y-76276004D01*
X159161341Y-76169659D01*
X159054996Y-76040078D01*
X159046886Y-76024906D01*
X158975976Y-75892242D01*
X158927313Y-75731823D01*
X158910883Y-75565000D01*
X158927313Y-75398177D01*
X158975976Y-75237758D01*
X159054995Y-75089924D01*
X159054996Y-75089922D01*
X159161341Y-74960341D01*
X159290922Y-74853996D01*
X159306094Y-74845886D01*
X159438758Y-74774976D01*
X159599177Y-74726313D01*
X159724196Y-74714000D01*
X159807804Y-74714000D01*
X159932823Y-74726313D01*
X159932823Y-74726313D01*
G37*
G36*
X157392823Y-74726313D02*
G01*
X157553242Y-74774976D01*
X157685906Y-74845886D01*
X157701078Y-74853996D01*
X157830659Y-74960341D01*
X157937004Y-75089922D01*
X157937005Y-75089924D01*
X158016024Y-75237758D01*
X158064687Y-75398177D01*
X158081117Y-75565000D01*
X158064687Y-75731823D01*
X158016024Y-75892242D01*
X157945114Y-76024906D01*
X157937004Y-76040078D01*
X157830659Y-76169659D01*
X157701078Y-76276004D01*
X157701076Y-76276005D01*
X157553242Y-76355024D01*
X157392823Y-76403687D01*
X157267804Y-76416000D01*
X157184196Y-76416000D01*
X157059177Y-76403687D01*
X156898758Y-76355024D01*
X156750924Y-76276005D01*
X156750922Y-76276004D01*
X156621341Y-76169659D01*
X156514996Y-76040078D01*
X156506886Y-76024906D01*
X156435976Y-75892242D01*
X156387313Y-75731823D01*
X156370883Y-75565000D01*
X156387313Y-75398177D01*
X156435976Y-75237758D01*
X156514995Y-75089924D01*
X156514996Y-75089922D01*
X156621341Y-74960341D01*
X156750922Y-74853996D01*
X156766094Y-74845886D01*
X156898758Y-74774976D01*
X157059177Y-74726313D01*
X157184196Y-74714000D01*
X157267804Y-74714000D01*
X157392823Y-74726313D01*
X157392823Y-74726313D01*
G37*
G36*
X154852823Y-74726313D02*
G01*
X155013242Y-74774976D01*
X155145906Y-74845886D01*
X155161078Y-74853996D01*
X155290659Y-74960341D01*
X155397004Y-75089922D01*
X155397005Y-75089924D01*
X155476024Y-75237758D01*
X155524687Y-75398177D01*
X155541117Y-75565000D01*
X155524687Y-75731823D01*
X155476024Y-75892242D01*
X155405114Y-76024906D01*
X155397004Y-76040078D01*
X155290659Y-76169659D01*
X155161078Y-76276004D01*
X155161076Y-76276005D01*
X155013242Y-76355024D01*
X154852823Y-76403687D01*
X154727804Y-76416000D01*
X154644196Y-76416000D01*
X154519177Y-76403687D01*
X154358758Y-76355024D01*
X154210924Y-76276005D01*
X154210922Y-76276004D01*
X154081341Y-76169659D01*
X153974996Y-76040078D01*
X153966886Y-76024906D01*
X153895976Y-75892242D01*
X153847313Y-75731823D01*
X153830883Y-75565000D01*
X153847313Y-75398177D01*
X153895976Y-75237758D01*
X153974995Y-75089924D01*
X153974996Y-75089922D01*
X154081341Y-74960341D01*
X154210922Y-74853996D01*
X154226094Y-74845886D01*
X154358758Y-74774976D01*
X154519177Y-74726313D01*
X154644196Y-74714000D01*
X154727804Y-74714000D01*
X154852823Y-74726313D01*
X154852823Y-74726313D01*
G37*
G36*
X152312823Y-74726313D02*
G01*
X152473242Y-74774976D01*
X152605906Y-74845886D01*
X152621078Y-74853996D01*
X152750659Y-74960341D01*
X152857004Y-75089922D01*
X152857005Y-75089924D01*
X152936024Y-75237758D01*
X152984687Y-75398177D01*
X153001117Y-75565000D01*
X152984687Y-75731823D01*
X152936024Y-75892242D01*
X152865114Y-76024906D01*
X152857004Y-76040078D01*
X152750659Y-76169659D01*
X152621078Y-76276004D01*
X152621076Y-76276005D01*
X152473242Y-76355024D01*
X152312823Y-76403687D01*
X152187804Y-76416000D01*
X152104196Y-76416000D01*
X151979177Y-76403687D01*
X151818758Y-76355024D01*
X151670924Y-76276005D01*
X151670922Y-76276004D01*
X151541341Y-76169659D01*
X151434996Y-76040078D01*
X151426886Y-76024906D01*
X151355976Y-75892242D01*
X151307313Y-75731823D01*
X151290883Y-75565000D01*
X151307313Y-75398177D01*
X151355976Y-75237758D01*
X151434995Y-75089924D01*
X151434996Y-75089922D01*
X151541341Y-74960341D01*
X151670922Y-74853996D01*
X151686094Y-74845886D01*
X151818758Y-74774976D01*
X151979177Y-74726313D01*
X152104196Y-74714000D01*
X152187804Y-74714000D01*
X152312823Y-74726313D01*
X152312823Y-74726313D01*
G37*
G36*
X149772823Y-74726313D02*
G01*
X149933242Y-74774976D01*
X150065906Y-74845886D01*
X150081078Y-74853996D01*
X150210659Y-74960341D01*
X150317004Y-75089922D01*
X150317005Y-75089924D01*
X150396024Y-75237758D01*
X150444687Y-75398177D01*
X150461117Y-75565000D01*
X150444687Y-75731823D01*
X150396024Y-75892242D01*
X150325114Y-76024906D01*
X150317004Y-76040078D01*
X150210659Y-76169659D01*
X150081078Y-76276004D01*
X150081076Y-76276005D01*
X149933242Y-76355024D01*
X149772823Y-76403687D01*
X149647804Y-76416000D01*
X149564196Y-76416000D01*
X149439177Y-76403687D01*
X149278758Y-76355024D01*
X149130924Y-76276005D01*
X149130922Y-76276004D01*
X149001341Y-76169659D01*
X148894996Y-76040078D01*
X148886886Y-76024906D01*
X148815976Y-75892242D01*
X148767313Y-75731823D01*
X148750883Y-75565000D01*
X148767313Y-75398177D01*
X148815976Y-75237758D01*
X148894995Y-75089924D01*
X148894996Y-75089922D01*
X149001341Y-74960341D01*
X149130922Y-74853996D01*
X149146094Y-74845886D01*
X149278758Y-74774976D01*
X149439177Y-74726313D01*
X149564196Y-74714000D01*
X149647804Y-74714000D01*
X149772823Y-74726313D01*
X149772823Y-74726313D01*
G37*
G36*
X147232823Y-74726313D02*
G01*
X147393242Y-74774976D01*
X147525906Y-74845886D01*
X147541078Y-74853996D01*
X147670659Y-74960341D01*
X147777004Y-75089922D01*
X147777005Y-75089924D01*
X147856024Y-75237758D01*
X147904687Y-75398177D01*
X147921117Y-75565000D01*
X147904687Y-75731823D01*
X147856024Y-75892242D01*
X147785114Y-76024906D01*
X147777004Y-76040078D01*
X147670659Y-76169659D01*
X147541078Y-76276004D01*
X147541076Y-76276005D01*
X147393242Y-76355024D01*
X147232823Y-76403687D01*
X147107804Y-76416000D01*
X147024196Y-76416000D01*
X146899177Y-76403687D01*
X146738758Y-76355024D01*
X146590924Y-76276005D01*
X146590922Y-76276004D01*
X146461341Y-76169659D01*
X146354996Y-76040078D01*
X146346886Y-76024906D01*
X146275976Y-75892242D01*
X146227313Y-75731823D01*
X146210883Y-75565000D01*
X146227313Y-75398177D01*
X146275976Y-75237758D01*
X146354995Y-75089924D01*
X146354996Y-75089922D01*
X146461341Y-74960341D01*
X146590922Y-74853996D01*
X146606094Y-74845886D01*
X146738758Y-74774976D01*
X146899177Y-74726313D01*
X147024196Y-74714000D01*
X147107804Y-74714000D01*
X147232823Y-74726313D01*
X147232823Y-74726313D01*
G37*
G36*
X144692823Y-74726313D02*
G01*
X144853242Y-74774976D01*
X144985906Y-74845886D01*
X145001078Y-74853996D01*
X145130659Y-74960341D01*
X145237004Y-75089922D01*
X145237005Y-75089924D01*
X145316024Y-75237758D01*
X145364687Y-75398177D01*
X145381117Y-75565000D01*
X145364687Y-75731823D01*
X145316024Y-75892242D01*
X145245114Y-76024906D01*
X145237004Y-76040078D01*
X145130659Y-76169659D01*
X145001078Y-76276004D01*
X145001076Y-76276005D01*
X144853242Y-76355024D01*
X144692823Y-76403687D01*
X144567804Y-76416000D01*
X144484196Y-76416000D01*
X144359177Y-76403687D01*
X144198758Y-76355024D01*
X144050924Y-76276005D01*
X144050922Y-76276004D01*
X143921341Y-76169659D01*
X143814996Y-76040078D01*
X143806886Y-76024906D01*
X143735976Y-75892242D01*
X143687313Y-75731823D01*
X143670883Y-75565000D01*
X143687313Y-75398177D01*
X143735976Y-75237758D01*
X143814995Y-75089924D01*
X143814996Y-75089922D01*
X143921341Y-74960341D01*
X144050922Y-74853996D01*
X144066094Y-74845886D01*
X144198758Y-74774976D01*
X144359177Y-74726313D01*
X144484196Y-74714000D01*
X144567804Y-74714000D01*
X144692823Y-74726313D01*
X144692823Y-74726313D01*
G37*
G36*
X142152823Y-74726313D02*
G01*
X142313242Y-74774976D01*
X142445906Y-74845886D01*
X142461078Y-74853996D01*
X142590659Y-74960341D01*
X142697004Y-75089922D01*
X142697005Y-75089924D01*
X142776024Y-75237758D01*
X142824687Y-75398177D01*
X142841117Y-75565000D01*
X142824687Y-75731823D01*
X142776024Y-75892242D01*
X142705114Y-76024906D01*
X142697004Y-76040078D01*
X142590659Y-76169659D01*
X142461078Y-76276004D01*
X142461076Y-76276005D01*
X142313242Y-76355024D01*
X142152823Y-76403687D01*
X142027804Y-76416000D01*
X141944196Y-76416000D01*
X141819177Y-76403687D01*
X141658758Y-76355024D01*
X141510924Y-76276005D01*
X141510922Y-76276004D01*
X141381341Y-76169659D01*
X141274996Y-76040078D01*
X141266886Y-76024906D01*
X141195976Y-75892242D01*
X141147313Y-75731823D01*
X141130883Y-75565000D01*
X141147313Y-75398177D01*
X141195976Y-75237758D01*
X141274995Y-75089924D01*
X141274996Y-75089922D01*
X141381341Y-74960341D01*
X141510922Y-74853996D01*
X141526094Y-74845886D01*
X141658758Y-74774976D01*
X141819177Y-74726313D01*
X141944196Y-74714000D01*
X142027804Y-74714000D01*
X142152823Y-74726313D01*
X142152823Y-74726313D01*
G37*
G36*
X137072823Y-74726313D02*
G01*
X137233242Y-74774976D01*
X137365906Y-74845886D01*
X137381078Y-74853996D01*
X137510659Y-74960341D01*
X137617004Y-75089922D01*
X137617005Y-75089924D01*
X137696024Y-75237758D01*
X137744687Y-75398177D01*
X137761117Y-75565000D01*
X137744687Y-75731823D01*
X137696024Y-75892242D01*
X137625114Y-76024906D01*
X137617004Y-76040078D01*
X137510659Y-76169659D01*
X137381078Y-76276004D01*
X137381076Y-76276005D01*
X137233242Y-76355024D01*
X137072823Y-76403687D01*
X136947804Y-76416000D01*
X136864196Y-76416000D01*
X136739177Y-76403687D01*
X136578758Y-76355024D01*
X136430924Y-76276005D01*
X136430922Y-76276004D01*
X136301341Y-76169659D01*
X136194996Y-76040078D01*
X136186886Y-76024906D01*
X136115976Y-75892242D01*
X136067313Y-75731823D01*
X136050883Y-75565000D01*
X136067313Y-75398177D01*
X136115976Y-75237758D01*
X136194995Y-75089924D01*
X136194996Y-75089922D01*
X136301341Y-74960341D01*
X136430922Y-74853996D01*
X136446094Y-74845886D01*
X136578758Y-74774976D01*
X136739177Y-74726313D01*
X136864196Y-74714000D01*
X136947804Y-74714000D01*
X137072823Y-74726313D01*
X137072823Y-74726313D01*
G37*
G36*
X134532823Y-74726313D02*
G01*
X134693242Y-74774976D01*
X134825906Y-74845886D01*
X134841078Y-74853996D01*
X134970659Y-74960341D01*
X135077004Y-75089922D01*
X135077005Y-75089924D01*
X135156024Y-75237758D01*
X135204687Y-75398177D01*
X135221117Y-75565000D01*
X135204687Y-75731823D01*
X135156024Y-75892242D01*
X135085114Y-76024906D01*
X135077004Y-76040078D01*
X134970659Y-76169659D01*
X134841078Y-76276004D01*
X134841076Y-76276005D01*
X134693242Y-76355024D01*
X134532823Y-76403687D01*
X134407804Y-76416000D01*
X134324196Y-76416000D01*
X134199177Y-76403687D01*
X134038758Y-76355024D01*
X133890924Y-76276005D01*
X133890922Y-76276004D01*
X133761341Y-76169659D01*
X133654996Y-76040078D01*
X133646886Y-76024906D01*
X133575976Y-75892242D01*
X133527313Y-75731823D01*
X133510883Y-75565000D01*
X133527313Y-75398177D01*
X133575976Y-75237758D01*
X133654995Y-75089924D01*
X133654996Y-75089922D01*
X133761341Y-74960341D01*
X133890922Y-74853996D01*
X133906094Y-74845886D01*
X134038758Y-74774976D01*
X134199177Y-74726313D01*
X134324196Y-74714000D01*
X134407804Y-74714000D01*
X134532823Y-74726313D01*
X134532823Y-74726313D01*
G37*
M02*
