G04 #@! TF.GenerationSoftware,KiCad,Pcbnew,(5.1.2-1)-1*
G04 #@! TF.CreationDate,2019-09-02T14:14:07+01:00*
G04 #@! TF.ProjectId,MZ80-ROMPG,4d5a3830-2d52-44f4-9d50-472e6b696361,rev?*
G04 #@! TF.SameCoordinates,Original*
G04 #@! TF.FileFunction,Legend,Bot*
G04 #@! TF.FilePolarity,Positive*
%FSLAX46Y46*%
G04 Gerber Fmt 4.6, Leading zero omitted, Abs format (unit mm)*
G04 Created by KiCad (PCBNEW (5.1.2-1)-1) date 2019-09-02 14:14:07*
%MOMM*%
%LPD*%
G04 APERTURE LIST*
%ADD10C,0.150000*%
G04 APERTURE END LIST*
D10*
X144340857Y-125841000D02*
X144398000Y-125783857D01*
X144512285Y-125612428D01*
X144569428Y-125498142D01*
X144626571Y-125326714D01*
X144683714Y-125041000D01*
X144683714Y-124812428D01*
X144626571Y-124526714D01*
X144569428Y-124355285D01*
X144512285Y-124241000D01*
X144398000Y-124069571D01*
X144340857Y-124012428D01*
X143198000Y-125269571D02*
X143255142Y-125326714D01*
X143426571Y-125383857D01*
X143540857Y-125383857D01*
X143712285Y-125326714D01*
X143826571Y-125212428D01*
X143883714Y-125098142D01*
X143940857Y-124869571D01*
X143940857Y-124698142D01*
X143883714Y-124469571D01*
X143826571Y-124355285D01*
X143712285Y-124241000D01*
X143540857Y-124183857D01*
X143426571Y-124183857D01*
X143255142Y-124241000D01*
X143198000Y-124298142D01*
X142798000Y-125841000D02*
X142740857Y-125783857D01*
X142626571Y-125612428D01*
X142569428Y-125498142D01*
X142512285Y-125326714D01*
X142455142Y-125041000D01*
X142455142Y-124812428D01*
X142512285Y-124526714D01*
X142569428Y-124355285D01*
X142626571Y-124241000D01*
X142740857Y-124069571D01*
X142798000Y-124012428D01*
X140969428Y-125383857D02*
X140969428Y-124183857D01*
X140512285Y-124183857D01*
X140398000Y-124241000D01*
X140340857Y-124298142D01*
X140283714Y-124412428D01*
X140283714Y-124583857D01*
X140340857Y-124698142D01*
X140398000Y-124755285D01*
X140512285Y-124812428D01*
X140969428Y-124812428D01*
X139769428Y-125269571D02*
X139712285Y-125326714D01*
X139769428Y-125383857D01*
X139826571Y-125326714D01*
X139769428Y-125269571D01*
X139769428Y-125383857D01*
X138340857Y-125326714D02*
X138169428Y-125383857D01*
X137883714Y-125383857D01*
X137769428Y-125326714D01*
X137712285Y-125269571D01*
X137655142Y-125155285D01*
X137655142Y-125041000D01*
X137712285Y-124926714D01*
X137769428Y-124869571D01*
X137883714Y-124812428D01*
X138112285Y-124755285D01*
X138226571Y-124698142D01*
X138283714Y-124641000D01*
X138340857Y-124526714D01*
X138340857Y-124412428D01*
X138283714Y-124298142D01*
X138226571Y-124241000D01*
X138112285Y-124183857D01*
X137826571Y-124183857D01*
X137655142Y-124241000D01*
X137140857Y-125383857D02*
X137140857Y-124583857D01*
X137140857Y-124698142D02*
X137083714Y-124641000D01*
X136969428Y-124583857D01*
X136798000Y-124583857D01*
X136683714Y-124641000D01*
X136626571Y-124755285D01*
X136626571Y-125383857D01*
X136626571Y-124755285D02*
X136569428Y-124641000D01*
X136455142Y-124583857D01*
X136283714Y-124583857D01*
X136169428Y-124641000D01*
X136112285Y-124755285D01*
X136112285Y-125383857D01*
X135026571Y-125383857D02*
X135026571Y-124755285D01*
X135083714Y-124641000D01*
X135198000Y-124583857D01*
X135426571Y-124583857D01*
X135540857Y-124641000D01*
X135026571Y-125326714D02*
X135140857Y-125383857D01*
X135426571Y-125383857D01*
X135540857Y-125326714D01*
X135598000Y-125212428D01*
X135598000Y-125098142D01*
X135540857Y-124983857D01*
X135426571Y-124926714D01*
X135140857Y-124926714D01*
X135026571Y-124869571D01*
X134455142Y-125383857D02*
X134455142Y-124583857D01*
X134455142Y-124812428D02*
X134398000Y-124698142D01*
X134340857Y-124641000D01*
X134226571Y-124583857D01*
X134112285Y-124583857D01*
X133883714Y-124583857D02*
X133426571Y-124583857D01*
X133712285Y-124183857D02*
X133712285Y-125212428D01*
X133655142Y-125326714D01*
X133540857Y-125383857D01*
X133426571Y-125383857D01*
X132169428Y-124298142D02*
X132112285Y-124241000D01*
X131998000Y-124183857D01*
X131712285Y-124183857D01*
X131598000Y-124241000D01*
X131540857Y-124298142D01*
X131483714Y-124412428D01*
X131483714Y-124526714D01*
X131540857Y-124698142D01*
X132226571Y-125383857D01*
X131483714Y-125383857D01*
X130740857Y-124183857D02*
X130626571Y-124183857D01*
X130512285Y-124241000D01*
X130455142Y-124298142D01*
X130398000Y-124412428D01*
X130340857Y-124641000D01*
X130340857Y-124926714D01*
X130398000Y-125155285D01*
X130455142Y-125269571D01*
X130512285Y-125326714D01*
X130626571Y-125383857D01*
X130740857Y-125383857D01*
X130855142Y-125326714D01*
X130912285Y-125269571D01*
X130969428Y-125155285D01*
X131026571Y-124926714D01*
X131026571Y-124641000D01*
X130969428Y-124412428D01*
X130912285Y-124298142D01*
X130855142Y-124241000D01*
X130740857Y-124183857D01*
X129198000Y-125383857D02*
X129883714Y-125383857D01*
X129540857Y-125383857D02*
X129540857Y-124183857D01*
X129655142Y-124355285D01*
X129769428Y-124469571D01*
X129883714Y-124526714D01*
X128626571Y-125383857D02*
X128398000Y-125383857D01*
X128283714Y-125326714D01*
X128226571Y-125269571D01*
X128112285Y-125098142D01*
X128055142Y-124869571D01*
X128055142Y-124412428D01*
X128112285Y-124298142D01*
X128169428Y-124241000D01*
X128283714Y-124183857D01*
X128512285Y-124183857D01*
X128626571Y-124241000D01*
X128683714Y-124298142D01*
X128740857Y-124412428D01*
X128740857Y-124698142D01*
X128683714Y-124812428D01*
X128626571Y-124869571D01*
X128512285Y-124926714D01*
X128283714Y-124926714D01*
X128169428Y-124869571D01*
X128112285Y-124812428D01*
X128055142Y-124698142D01*
M02*
