G04 #@! TF.GenerationSoftware,KiCad,Pcbnew,(5.1.2-1)-1*
G04 #@! TF.CreationDate,2020-04-02T23:09:06+01:00*
G04 #@! TF.ProjectId,MZ80-ROMPG,4d5a3830-2d52-44f4-9d50-472e6b696361,rev?*
G04 #@! TF.SameCoordinates,Original*
G04 #@! TF.FileFunction,Copper,L2,Bot*
G04 #@! TF.FilePolarity,Positive*
%FSLAX46Y46*%
G04 Gerber Fmt 4.6, Leading zero omitted, Abs format (unit mm)*
G04 Created by KiCad (PCBNEW (5.1.2-1)-1) date 2020-04-02 23:09:06*
%MOMM*%
%LPD*%
G04 APERTURE LIST*
%ADD10O,1.700000X1.700000*%
%ADD11R,1.700000X1.700000*%
%ADD12O,1.600000X1.600000*%
%ADD13R,1.600000X1.600000*%
%ADD14C,0.800000*%
%ADD15C,0.250000*%
%ADD16C,0.254000*%
G04 APERTURE END LIST*
D10*
X153416000Y-110363000D03*
X153416000Y-112903000D03*
X153416000Y-115443000D03*
X153416000Y-117983000D03*
X153416000Y-120523000D03*
D11*
X153416000Y-123063000D03*
D12*
X106000000Y-36760000D03*
X144100000Y-52000000D03*
X108540000Y-36760000D03*
X141560000Y-52000000D03*
X111080000Y-36760000D03*
X139020000Y-52000000D03*
X113620000Y-36760000D03*
X136480000Y-52000000D03*
X116160000Y-36760000D03*
X133940000Y-52000000D03*
X118700000Y-36760000D03*
X131400000Y-52000000D03*
X121240000Y-36760000D03*
X128860000Y-52000000D03*
X123780000Y-36760000D03*
X126320000Y-52000000D03*
X126320000Y-36760000D03*
X123780000Y-52000000D03*
X128860000Y-36760000D03*
X121240000Y-52000000D03*
X131400000Y-36760000D03*
X118700000Y-52000000D03*
X133940000Y-36760000D03*
X116160000Y-52000000D03*
X136480000Y-36760000D03*
X113620000Y-52000000D03*
X139020000Y-36760000D03*
X111080000Y-52000000D03*
X141560000Y-36760000D03*
X108540000Y-52000000D03*
X144100000Y-36760000D03*
D13*
X106000000Y-52000000D03*
D12*
X106000000Y-60760000D03*
X144100000Y-76000000D03*
X108540000Y-60760000D03*
X141560000Y-76000000D03*
X111080000Y-60760000D03*
X139020000Y-76000000D03*
X113620000Y-60760000D03*
X136480000Y-76000000D03*
X116160000Y-60760000D03*
X133940000Y-76000000D03*
X118700000Y-60760000D03*
X131400000Y-76000000D03*
X121240000Y-60760000D03*
X128860000Y-76000000D03*
X123780000Y-60760000D03*
X126320000Y-76000000D03*
X126320000Y-60760000D03*
X123780000Y-76000000D03*
X128860000Y-60760000D03*
X121240000Y-76000000D03*
X131400000Y-60760000D03*
X118700000Y-76000000D03*
X133940000Y-60760000D03*
X116160000Y-76000000D03*
X136480000Y-60760000D03*
X113620000Y-76000000D03*
X139020000Y-60760000D03*
X111080000Y-76000000D03*
X141560000Y-60760000D03*
X108540000Y-76000000D03*
X144100000Y-60760000D03*
D13*
X106000000Y-76000000D03*
D12*
X106000000Y-84760000D03*
X144100000Y-100000000D03*
X108540000Y-84760000D03*
X141560000Y-100000000D03*
X111080000Y-84760000D03*
X139020000Y-100000000D03*
X113620000Y-84760000D03*
X136480000Y-100000000D03*
X116160000Y-84760000D03*
X133940000Y-100000000D03*
X118700000Y-84760000D03*
X131400000Y-100000000D03*
X121240000Y-84760000D03*
X128860000Y-100000000D03*
X123780000Y-84760000D03*
X126320000Y-100000000D03*
X126320000Y-84760000D03*
X123780000Y-100000000D03*
X128860000Y-84760000D03*
X121240000Y-100000000D03*
X131400000Y-84760000D03*
X118700000Y-100000000D03*
X133940000Y-84760000D03*
X116160000Y-100000000D03*
X136480000Y-84760000D03*
X113620000Y-100000000D03*
X139020000Y-84760000D03*
X111080000Y-100000000D03*
X141560000Y-84760000D03*
X108540000Y-100000000D03*
X144100000Y-84760000D03*
D13*
X106000000Y-100000000D03*
D12*
X110000000Y-57760000D03*
X137940000Y-73000000D03*
X112540000Y-57760000D03*
X135400000Y-73000000D03*
X115080000Y-57760000D03*
X132860000Y-73000000D03*
X117620000Y-57760000D03*
X130320000Y-73000000D03*
X120160000Y-57760000D03*
X127780000Y-73000000D03*
X122700000Y-57760000D03*
X125240000Y-73000000D03*
X125240000Y-57760000D03*
X122700000Y-73000000D03*
X127780000Y-57760000D03*
X120160000Y-73000000D03*
X130320000Y-57760000D03*
X117620000Y-73000000D03*
X132860000Y-57760000D03*
X115080000Y-73000000D03*
X135400000Y-57760000D03*
X112540000Y-73000000D03*
X137940000Y-57760000D03*
D13*
X110000000Y-73000000D03*
D12*
X110000000Y-80760000D03*
X137940000Y-96000000D03*
X112540000Y-80760000D03*
X135400000Y-96000000D03*
X115080000Y-80760000D03*
X132860000Y-96000000D03*
X117620000Y-80760000D03*
X130320000Y-96000000D03*
X120160000Y-80760000D03*
X127780000Y-96000000D03*
X122700000Y-80760000D03*
X125240000Y-96000000D03*
X125240000Y-80760000D03*
X122700000Y-96000000D03*
X127780000Y-80760000D03*
X120160000Y-96000000D03*
X130320000Y-80760000D03*
X117620000Y-96000000D03*
X132860000Y-80760000D03*
X115080000Y-96000000D03*
X135400000Y-80760000D03*
X112540000Y-96000000D03*
X137940000Y-80760000D03*
D13*
X110000000Y-96000000D03*
D12*
X106000000Y-108760000D03*
X144100000Y-124000000D03*
X108540000Y-108760000D03*
X141560000Y-124000000D03*
X111080000Y-108760000D03*
X139020000Y-124000000D03*
X113620000Y-108760000D03*
X136480000Y-124000000D03*
X116160000Y-108760000D03*
X133940000Y-124000000D03*
X118700000Y-108760000D03*
X131400000Y-124000000D03*
X121240000Y-108760000D03*
X128860000Y-124000000D03*
X123780000Y-108760000D03*
X126320000Y-124000000D03*
X126320000Y-108760000D03*
X123780000Y-124000000D03*
X128860000Y-108760000D03*
X121240000Y-124000000D03*
X131400000Y-108760000D03*
X118700000Y-124000000D03*
X133940000Y-108760000D03*
X116160000Y-124000000D03*
X136480000Y-108760000D03*
X113620000Y-124000000D03*
X139020000Y-108760000D03*
X111080000Y-124000000D03*
X141560000Y-108760000D03*
X108540000Y-124000000D03*
X144100000Y-108760000D03*
D13*
X106000000Y-124000000D03*
D10*
X143080000Y-32500000D03*
X140540000Y-32500000D03*
D11*
X138000000Y-32500000D03*
D10*
X111080000Y-32500000D03*
X108540000Y-32500000D03*
D11*
X106000000Y-32500000D03*
D10*
X127080000Y-32500000D03*
X124540000Y-32500000D03*
D11*
X122000000Y-32500000D03*
D14*
X164516500Y-40368200D03*
X187249100Y-96012000D03*
X176264600Y-96241700D03*
X175442000Y-85523000D03*
X167220100Y-65307400D03*
X167259500Y-49757800D03*
X186984000Y-85727900D03*
X171557800Y-74495100D03*
X162377000Y-51316700D03*
X180860000Y-77475000D03*
X178114900Y-49783300D03*
X180169800Y-51280100D03*
X183266000Y-78119300D03*
X167384200Y-66962300D03*
X162375600Y-39632500D03*
X142733200Y-107386200D03*
X199263000Y-129286000D03*
X180219300Y-70733900D03*
X177493900Y-59427300D03*
X158249200Y-93805100D03*
X178867800Y-54156800D03*
X189322400Y-79069000D03*
X181234100Y-67052700D03*
X158700600Y-74964800D03*
X170011900Y-99871400D03*
X173100800Y-81384900D03*
X175043500Y-44778200D03*
X175043500Y-52969100D03*
X192644300Y-79056500D03*
X192644300Y-74216300D03*
X163643300Y-61560300D03*
X150372600Y-55304900D03*
X151021900Y-71819800D03*
X150302000Y-97435200D03*
X152194400Y-71801900D03*
X162951600Y-33593600D03*
X159700900Y-74789400D03*
X153288500Y-102498600D03*
X179135100Y-74405800D03*
X171349200Y-106344900D03*
X136624700Y-101689600D03*
X133762400Y-102012200D03*
X110865000Y-110409400D03*
X107926200Y-86533700D03*
X128252300Y-86838700D03*
X146382400Y-80879800D03*
X175444100Y-68175400D03*
X171687600Y-53055700D03*
X128469900Y-79362200D03*
X155574600Y-40424800D03*
X148829200Y-82731600D03*
X150009000Y-40374800D03*
X148253900Y-62616200D03*
X168097500Y-81391200D03*
X170842100Y-48198800D03*
X177772500Y-92003100D03*
X173771000Y-53356000D03*
X194674900Y-67878600D03*
X193037200Y-54896600D03*
X191472100Y-68064200D03*
X189641500Y-59892000D03*
X189555400Y-67933600D03*
X188211800Y-58506500D03*
X153078100Y-62452500D03*
X154460200Y-40656400D03*
X161512900Y-67569700D03*
X170128200Y-42863400D03*
X174870600Y-35863100D03*
X189675500Y-69781600D03*
X178420600Y-35846000D03*
X184200300Y-65371700D03*
X179861700Y-79101200D03*
X195263400Y-74371000D03*
X185503600Y-77080700D03*
X176768600Y-36075300D03*
X178214100Y-68676000D03*
X190695100Y-79056800D03*
X190695100Y-63213700D03*
X159298500Y-52167500D03*
X109724400Y-63950200D03*
X105349900Y-71367200D03*
X153763200Y-86980700D03*
X147941100Y-101491900D03*
X164841800Y-67412500D03*
X147405600Y-91997800D03*
X153837100Y-84629400D03*
X146907700Y-104808800D03*
X163637800Y-69355500D03*
X146112500Y-89657700D03*
X153641600Y-78688800D03*
X144698900Y-105534100D03*
X163651100Y-70673400D03*
X122510000Y-101503200D03*
X121555900Y-86406200D03*
X120566100Y-87564000D03*
X156860600Y-80499300D03*
X141491200Y-106807500D03*
X144371300Y-79401200D03*
X145781200Y-102260600D03*
X149898000Y-83040900D03*
X116481700Y-88530500D03*
X157089000Y-83649100D03*
X152138700Y-100197700D03*
X155938700Y-95906000D03*
X158250900Y-91259700D03*
X157008200Y-90713600D03*
X119380300Y-79367300D03*
X170739300Y-89576300D03*
X170199400Y-105078500D03*
X176864200Y-100088600D03*
X175007500Y-71101700D03*
X140965500Y-98331900D03*
X166929800Y-70498200D03*
X153211000Y-99935000D03*
X168830200Y-83062100D03*
X157630600Y-75397900D03*
X171404500Y-100601600D03*
X134347800Y-94636400D03*
X145592900Y-82417100D03*
X138201200Y-102223700D03*
X141234900Y-50340500D03*
X167175800Y-63179700D03*
X177242700Y-86269100D03*
X147134700Y-62631700D03*
X145986200Y-87603000D03*
X148192900Y-43557000D03*
X177070800Y-79050900D03*
X175364400Y-89561100D03*
X173478900Y-79056800D03*
X104499900Y-56517900D03*
X104559600Y-94460600D03*
X104681500Y-70157100D03*
X174192300Y-89556200D03*
X171968000Y-79079800D03*
X107340100Y-55296700D03*
X108109800Y-70655100D03*
X167917600Y-90327100D03*
X159732600Y-96802800D03*
X165393700Y-73158800D03*
X160958700Y-73226000D03*
X160096800Y-84854600D03*
X117476500Y-79208800D03*
X125986100Y-79418900D03*
X122284200Y-53577700D03*
X106701700Y-56671000D03*
X106751200Y-70539500D03*
X106069000Y-43063200D03*
X184361000Y-54680900D03*
X193812600Y-96791300D03*
X173635700Y-59753800D03*
X172572800Y-45085400D03*
X179336700Y-63946100D03*
X187711000Y-70052000D03*
X175824400Y-63273400D03*
X186786300Y-76706500D03*
X186767000Y-57413000D03*
X193087300Y-63105100D03*
X191736200Y-84736800D03*
X191736200Y-91452400D03*
D15*
X163935900Y-40883300D02*
X164001400Y-40883300D01*
X164001400Y-40883300D02*
X164516500Y-40368200D01*
X163935900Y-40883300D02*
X163935900Y-49757800D01*
X162375600Y-39632500D02*
X163626400Y-40883300D01*
X163626400Y-40883300D02*
X163935900Y-40883300D01*
X163935900Y-49757800D02*
X162377000Y-51316700D01*
X178114900Y-49783300D02*
X179611700Y-51280100D01*
X179611700Y-51280100D02*
X180169800Y-51280100D01*
X167384200Y-66962300D02*
X171557800Y-71135900D01*
X171557800Y-71135900D02*
X171557800Y-74495100D01*
X175442000Y-85523000D02*
X176264600Y-86345600D01*
X176264600Y-86345600D02*
X176264600Y-96241700D01*
X171557800Y-74495100D02*
X175442000Y-78379300D01*
X175442000Y-78379300D02*
X175442000Y-85523000D01*
X180860000Y-77475000D02*
X181504300Y-78119300D01*
X181504300Y-78119300D02*
X183266000Y-78119300D01*
X186984000Y-85727900D02*
X183266000Y-82009900D01*
X183266000Y-82009900D02*
X183266000Y-78119300D01*
X186984000Y-85727900D02*
X186984000Y-95746900D01*
X186984000Y-95746900D02*
X187249100Y-96012000D01*
X167384200Y-66962300D02*
X167384200Y-65471500D01*
X167384200Y-65471500D02*
X167220100Y-65307400D01*
X163935900Y-49757800D02*
X167259500Y-49757800D01*
X144100000Y-101125300D02*
X142733200Y-102492100D01*
X142733200Y-102492100D02*
X142733200Y-107386200D01*
X144100000Y-100000000D02*
X144100000Y-101125300D01*
X177493900Y-59427300D02*
X177493900Y-64959900D01*
X177493900Y-64959900D02*
X180219300Y-67685300D01*
X180219300Y-67685300D02*
X180219300Y-70733900D01*
X178867800Y-54156800D02*
X177493900Y-55530700D01*
X177493900Y-55530700D02*
X177493900Y-59427300D01*
X153416000Y-111727700D02*
X153783300Y-111727700D01*
X153783300Y-111727700D02*
X158249200Y-107261800D01*
X158249200Y-107261800D02*
X158249200Y-93805100D01*
X153416000Y-112903000D02*
X153416000Y-111727700D01*
X181234100Y-67052700D02*
X189322400Y-75141000D01*
X189322400Y-75141000D02*
X189322400Y-79069000D01*
X153416000Y-121887700D02*
X153048700Y-121887700D01*
X153048700Y-121887700D02*
X152195900Y-121034900D01*
X152195900Y-121034900D02*
X152195900Y-109920900D01*
X152195900Y-109920900D02*
X157564600Y-104552200D01*
X157564600Y-104552200D02*
X157564600Y-95232300D01*
X157564600Y-95232300D02*
X157523800Y-95191500D01*
X157523800Y-95191500D02*
X157523800Y-93371700D01*
X157523800Y-93371700D02*
X158460200Y-92435300D01*
X158460200Y-92435300D02*
X158738000Y-92435300D01*
X158738000Y-92435300D02*
X159435700Y-91737600D01*
X159435700Y-91737600D02*
X159435700Y-87988700D01*
X159435700Y-87988700D02*
X159371500Y-87924500D01*
X159371500Y-87924500D02*
X159371500Y-76144600D01*
X159371500Y-76144600D02*
X160426200Y-75089900D01*
X160426200Y-75089900D02*
X160426200Y-74488900D01*
X160426200Y-74488900D02*
X160001300Y-74064000D01*
X160001300Y-74064000D02*
X159358100Y-74064000D01*
X159358100Y-74064000D02*
X158700600Y-74721500D01*
X158700600Y-74721500D02*
X158700600Y-74964800D01*
X153416000Y-123063000D02*
X153416000Y-121887700D01*
X170011900Y-99871400D02*
X171725300Y-99871400D01*
X171725300Y-99871400D02*
X172187300Y-100333400D01*
X172187300Y-100333400D02*
X172187300Y-100869300D01*
X172187300Y-100869300D02*
X157613600Y-115443000D01*
X157613600Y-115443000D02*
X153416000Y-115443000D01*
X173100800Y-81384900D02*
X170011900Y-84473800D01*
X170011900Y-84473800D02*
X170011900Y-99871400D01*
X124540000Y-32500000D02*
X123364700Y-32500000D01*
X123364700Y-32500000D02*
X123364700Y-33308100D01*
X123364700Y-33308100D02*
X122997500Y-33675300D01*
X122997500Y-33675300D02*
X115082200Y-33675300D01*
X115082200Y-33675300D02*
X112363000Y-36394500D01*
X112363000Y-36394500D02*
X112363000Y-39618600D01*
X112363000Y-39618600D02*
X111080000Y-40901600D01*
X111080000Y-40901600D02*
X111080000Y-52000000D01*
X192644300Y-79056500D02*
X191888400Y-79812400D01*
X191888400Y-79812400D02*
X186476900Y-79812400D01*
X186476900Y-79812400D02*
X176619700Y-69955200D01*
X176619700Y-69955200D02*
X176619700Y-67688300D01*
X176619700Y-67688300D02*
X175043500Y-66112100D01*
X175043500Y-66112100D02*
X175043500Y-52969100D01*
X175043500Y-44778200D02*
X175043500Y-44022700D01*
X175043500Y-44022700D02*
X163386500Y-32365700D01*
X163386500Y-32365700D02*
X144389600Y-32365700D01*
X144389600Y-32365700D02*
X144255300Y-32500000D01*
X143080000Y-32500000D02*
X144255300Y-32500000D01*
X175043500Y-52969100D02*
X175043500Y-44778200D01*
X111080000Y-32975100D02*
X113217100Y-30838000D01*
X113217100Y-30838000D02*
X141418000Y-30838000D01*
X141418000Y-30838000D02*
X143080000Y-32500000D01*
X192644300Y-79056500D02*
X192644300Y-74216300D01*
X108540000Y-59634700D02*
X107923800Y-59018500D01*
X107923800Y-59018500D02*
X107923800Y-56764300D01*
X107923800Y-56764300D02*
X108065400Y-56622700D01*
X108065400Y-56622700D02*
X108065400Y-53500100D01*
X108065400Y-53500100D02*
X107384000Y-52818700D01*
X107384000Y-52818700D02*
X107384000Y-36269500D01*
X107384000Y-36269500D02*
X109978200Y-33675300D01*
X109978200Y-33675300D02*
X111080000Y-33675300D01*
X111080000Y-32975100D02*
X111080000Y-33675300D01*
X111080000Y-32500000D02*
X111080000Y-32975100D01*
X108540000Y-60760000D02*
X108540000Y-59634700D01*
X108540000Y-83634700D02*
X108540000Y-83005400D01*
X108540000Y-83005400D02*
X107414700Y-81880100D01*
X107414700Y-81880100D02*
X107414700Y-72376000D01*
X107414700Y-72376000D02*
X108835100Y-70955600D01*
X108835100Y-70955600D02*
X108835100Y-62180400D01*
X108835100Y-62180400D02*
X108540000Y-61885300D01*
X108540000Y-60760000D02*
X108540000Y-61885300D01*
X108540000Y-84760000D02*
X108540000Y-83634700D01*
X152285300Y-72918300D02*
X154562500Y-75195500D01*
X154562500Y-75195500D02*
X154562500Y-87207200D01*
X154562500Y-87207200D02*
X150302000Y-91467700D01*
X150302000Y-91467700D02*
X150302000Y-97435200D01*
X163643300Y-61560300D02*
X152285300Y-72918300D01*
X152285300Y-72918300D02*
X152120400Y-72918300D01*
X152120400Y-72918300D02*
X151021900Y-71819800D01*
X151021900Y-71819800D02*
X151021900Y-55954200D01*
X151021900Y-55954200D02*
X150372600Y-55304900D01*
X152194400Y-71801900D02*
X160711700Y-63284600D01*
X160711700Y-63284600D02*
X160711700Y-35833500D01*
X160711700Y-35833500D02*
X162951600Y-33593600D01*
X159700900Y-74789400D02*
X159700800Y-74789400D01*
X159700800Y-74789400D02*
X159700800Y-74990400D01*
X159700800Y-74990400D02*
X158871500Y-75819700D01*
X158871500Y-75819700D02*
X158871400Y-75819700D01*
X158871400Y-75819700D02*
X158871400Y-87753600D01*
X158871400Y-87753600D02*
X154558300Y-92066700D01*
X154558300Y-92066700D02*
X154558300Y-101228800D01*
X154558300Y-101228800D02*
X153288500Y-102498600D01*
X179135100Y-74405800D02*
X179135100Y-98915400D01*
X179135100Y-98915400D02*
X171705600Y-106344900D01*
X171705600Y-106344900D02*
X171349200Y-106344900D01*
X136624700Y-101689600D02*
X136624700Y-103485800D01*
X136624700Y-103485800D02*
X137750000Y-104611100D01*
X137750000Y-104611100D02*
X137750000Y-119064700D01*
X137750000Y-119064700D02*
X141560000Y-122874700D01*
X141560000Y-124000000D02*
X141560000Y-122874700D01*
X139020000Y-124000000D02*
X139020000Y-122874700D01*
X133762400Y-102012200D02*
X133762400Y-106047100D01*
X133762400Y-106047100D02*
X135210000Y-107494700D01*
X135210000Y-107494700D02*
X135210000Y-119064700D01*
X135210000Y-119064700D02*
X139020000Y-122874700D01*
X136480000Y-124000000D02*
X136480000Y-122874700D01*
X130320000Y-96000000D02*
X130320000Y-97125300D01*
X130320000Y-97125300D02*
X130225000Y-97220300D01*
X130225000Y-97220300D02*
X130225000Y-116619700D01*
X130225000Y-116619700D02*
X136480000Y-122874700D01*
X107926200Y-86533700D02*
X107926200Y-97585400D01*
X107926200Y-97585400D02*
X107405500Y-98106100D01*
X107405500Y-98106100D02*
X107405500Y-105825300D01*
X107405500Y-105825300D02*
X109665400Y-108085200D01*
X109665400Y-108085200D02*
X109665400Y-109209800D01*
X109665400Y-109209800D02*
X110865000Y-110409400D01*
X133940000Y-108760000D02*
X133940000Y-107634700D01*
X128252300Y-86838700D02*
X128252300Y-91046800D01*
X128252300Y-91046800D02*
X131445400Y-94239900D01*
X131445400Y-94239900D02*
X131445400Y-97160200D01*
X131445400Y-97160200D02*
X132814700Y-98529500D01*
X132814700Y-98529500D02*
X132814700Y-106509400D01*
X132814700Y-106509400D02*
X133940000Y-107634700D01*
X136480000Y-107634700D02*
X135354700Y-106509400D01*
X135354700Y-106509400D02*
X135354700Y-98529500D01*
X135354700Y-98529500D02*
X133985400Y-97160200D01*
X133985400Y-97160200D02*
X133985400Y-95299700D01*
X133985400Y-95299700D02*
X130256600Y-91570900D01*
X130256600Y-91570900D02*
X130256600Y-81948700D01*
X130256600Y-81948700D02*
X130320000Y-81885300D01*
X136480000Y-108760000D02*
X136480000Y-107634700D01*
X130320000Y-80760000D02*
X130320000Y-81885300D01*
X139020000Y-108760000D02*
X139020000Y-107634700D01*
X132860000Y-80760000D02*
X132860000Y-81885300D01*
X132860000Y-81885300D02*
X135210000Y-84235300D01*
X135210000Y-84235300D02*
X135210000Y-90279800D01*
X135210000Y-90279800D02*
X136525400Y-91595200D01*
X136525400Y-91595200D02*
X136525400Y-97160200D01*
X136525400Y-97160200D02*
X137620800Y-98255600D01*
X137620800Y-98255600D02*
X137620800Y-100450800D01*
X137620800Y-100450800D02*
X137468500Y-100603100D01*
X137468500Y-100603100D02*
X137468500Y-102516800D01*
X137468500Y-102516800D02*
X138200500Y-103248800D01*
X138200500Y-103248800D02*
X138200500Y-106815200D01*
X138200500Y-106815200D02*
X139020000Y-107634700D01*
X141560000Y-108760000D02*
X141560000Y-107634700D01*
X135400000Y-80760000D02*
X135400000Y-81885300D01*
X135400000Y-81885300D02*
X137862500Y-84347800D01*
X137862500Y-84347800D02*
X137862500Y-92913900D01*
X137862500Y-92913900D02*
X140145300Y-95196700D01*
X140145300Y-95196700D02*
X140145300Y-106519900D01*
X140145300Y-106519900D02*
X141260100Y-107634700D01*
X141260100Y-107634700D02*
X141560000Y-107634700D01*
X146382400Y-80879800D02*
X146382400Y-86181100D01*
X146382400Y-86181100D02*
X144898600Y-87664900D01*
X144898600Y-87664900D02*
X144898600Y-90315400D01*
X144898600Y-90315400D02*
X145681500Y-91098300D01*
X145681500Y-91098300D02*
X145681500Y-100817600D01*
X145681500Y-100817600D02*
X143973600Y-102525500D01*
X143973600Y-102525500D02*
X143973600Y-107508300D01*
X143973600Y-107508300D02*
X144100000Y-107634700D01*
X144100000Y-108760000D02*
X144100000Y-107634700D01*
X171687600Y-53055700D02*
X171687600Y-64418900D01*
X171687600Y-64418900D02*
X175444100Y-68175400D01*
X126320000Y-36760000D02*
X126320000Y-37885300D01*
X120160000Y-57760000D02*
X120160000Y-56634700D01*
X120160000Y-56634700D02*
X121004000Y-56634700D01*
X121004000Y-56634700D02*
X125194700Y-52444000D01*
X125194700Y-52444000D02*
X125194700Y-39010600D01*
X125194700Y-39010600D02*
X126320000Y-37885300D01*
X127445300Y-36760000D02*
X127445300Y-36478700D01*
X127445300Y-36478700D02*
X132635600Y-31288400D01*
X132635600Y-31288400D02*
X140994800Y-31288400D01*
X140994800Y-31288400D02*
X141810000Y-32103600D01*
X141810000Y-32103600D02*
X141810000Y-32948100D01*
X141810000Y-32948100D02*
X142609900Y-33748000D01*
X142609900Y-33748000D02*
X161471900Y-33748000D01*
X161471900Y-33748000D02*
X162364500Y-32855400D01*
X162364500Y-32855400D02*
X163239200Y-32855400D01*
X163239200Y-32855400D02*
X171687500Y-41303700D01*
X171687500Y-41303700D02*
X171687500Y-53055700D01*
X171687500Y-53055700D02*
X171687600Y-53055700D01*
X126320000Y-36760000D02*
X127445300Y-36760000D01*
X126320000Y-60760000D02*
X126320000Y-61885300D01*
X126320000Y-61885300D02*
X126365400Y-61930700D01*
X126365400Y-61930700D02*
X126365400Y-73660200D01*
X126365400Y-73660200D02*
X127445400Y-74740200D01*
X127445400Y-74740200D02*
X127445400Y-78337700D01*
X127445400Y-78337700D02*
X128469900Y-79362200D01*
X148829200Y-82731600D02*
X149441200Y-82119600D01*
X149441200Y-82119600D02*
X149441200Y-44632700D01*
X149441200Y-44632700D02*
X154154700Y-39919200D01*
X154154700Y-39919200D02*
X155069000Y-39919200D01*
X155069000Y-39919200D02*
X155574600Y-40424800D01*
X148253900Y-62616200D02*
X148253900Y-44645300D01*
X148253900Y-44645300D02*
X150008900Y-42890300D01*
X150008900Y-42890300D02*
X150008900Y-40374800D01*
X150008900Y-40374800D02*
X150009000Y-40374800D01*
X170842100Y-48198800D02*
X170842100Y-58429700D01*
X170842100Y-58429700D02*
X166449700Y-62822100D01*
X166449700Y-62822100D02*
X166449700Y-67207000D01*
X166449700Y-67207000D02*
X168097500Y-68854800D01*
X168097500Y-68854800D02*
X168097500Y-81391200D01*
X177772500Y-92003100D02*
X178418300Y-91357300D01*
X178418300Y-91357300D02*
X178418300Y-85782000D01*
X178418300Y-85782000D02*
X178303300Y-85667000D01*
X178303300Y-85667000D02*
X178303300Y-72392300D01*
X178303300Y-72392300D02*
X176169400Y-70258400D01*
X176169400Y-70258400D02*
X176169400Y-67874900D01*
X176169400Y-67874900D02*
X174528300Y-66233800D01*
X174528300Y-66233800D02*
X174528300Y-54113300D01*
X174528300Y-54113300D02*
X173771000Y-53356000D01*
X193037200Y-54896600D02*
X194674900Y-56534300D01*
X194674900Y-56534300D02*
X194674900Y-67878600D01*
X189641500Y-59892000D02*
X191472100Y-61722600D01*
X191472100Y-61722600D02*
X191472100Y-68064200D01*
X189555400Y-67933600D02*
X188211800Y-66590000D01*
X188211800Y-66590000D02*
X188211800Y-58506500D01*
X153078100Y-62452500D02*
X153078100Y-42038500D01*
X153078100Y-42038500D02*
X154460200Y-40656400D01*
X170128200Y-42863400D02*
X169705700Y-43285900D01*
X169705700Y-43285900D02*
X169705700Y-57670600D01*
X169705700Y-57670600D02*
X161512900Y-65863400D01*
X161512900Y-65863400D02*
X161512900Y-67569700D01*
X189675500Y-69781600D02*
X182076000Y-62182100D01*
X182076000Y-62182100D02*
X182076000Y-38475500D01*
X182076000Y-38475500D02*
X178721200Y-35120700D01*
X178721200Y-35120700D02*
X175613000Y-35120700D01*
X175613000Y-35120700D02*
X174870600Y-35863100D01*
X184200300Y-65371700D02*
X181571000Y-62742400D01*
X181571000Y-62742400D02*
X181571000Y-38996400D01*
X181571000Y-38996400D02*
X178420600Y-35846000D01*
X195263400Y-74371000D02*
X195263400Y-96428700D01*
X195263400Y-96428700D02*
X194121400Y-97570700D01*
X194121400Y-97570700D02*
X187778600Y-97570700D01*
X187778600Y-97570700D02*
X179861700Y-89653800D01*
X179861700Y-89653800D02*
X179861700Y-79101200D01*
X185503600Y-77080700D02*
X178214200Y-69791300D01*
X178214200Y-69791300D02*
X178214200Y-68676000D01*
X178214200Y-68676000D02*
X178214100Y-68676000D01*
X178214100Y-68676000D02*
X178214100Y-67893000D01*
X178214100Y-67893000D02*
X176768600Y-66447500D01*
X176768600Y-66447500D02*
X176768600Y-36075300D01*
X190695100Y-63213700D02*
X190695100Y-79056800D01*
X159298500Y-52167500D02*
X159298500Y-43122900D01*
X159298500Y-43122900D02*
X150476100Y-34300500D01*
X150476100Y-34300500D02*
X140608500Y-34300500D01*
X140608500Y-34300500D02*
X139175300Y-32867300D01*
X139175300Y-32867300D02*
X139175300Y-32500000D01*
X138000000Y-32500000D02*
X139175300Y-32500000D01*
X113620000Y-59634700D02*
X112776000Y-59634700D01*
X112776000Y-59634700D02*
X111388800Y-58247500D01*
X111388800Y-58247500D02*
X111388800Y-55146000D01*
X111388800Y-55146000D02*
X112231200Y-54303600D01*
X112231200Y-54303600D02*
X112231200Y-43051200D01*
X112231200Y-43051200D02*
X114955900Y-40326500D01*
X114955900Y-40326500D02*
X114955900Y-36337800D01*
X114955900Y-36337800D02*
X117168100Y-34125600D01*
X117168100Y-34125600D02*
X124646500Y-34125600D01*
X124646500Y-34125600D02*
X125904700Y-32867400D01*
X125904700Y-32867400D02*
X125904700Y-32500000D01*
X113620000Y-60760000D02*
X113620000Y-59634700D01*
X127080000Y-32500000D02*
X125904700Y-32500000D01*
X113620000Y-60760000D02*
X113620000Y-61885300D01*
X113620000Y-84760000D02*
X113620000Y-83634700D01*
X113620000Y-83634700D02*
X111388800Y-81403500D01*
X111388800Y-81403500D02*
X111388800Y-78956400D01*
X111388800Y-78956400D02*
X112205600Y-78139600D01*
X112205600Y-78139600D02*
X112205600Y-75050800D01*
X112205600Y-75050800D02*
X111380000Y-74225200D01*
X111380000Y-74225200D02*
X111380000Y-64125300D01*
X111380000Y-64125300D02*
X113620000Y-61885300D01*
X108540000Y-76000000D02*
X108540000Y-77125300D01*
X108540000Y-100000000D02*
X108540000Y-98874700D01*
X108540000Y-98874700D02*
X108424200Y-98758900D01*
X108424200Y-98758900D02*
X108424200Y-91138700D01*
X108424200Y-91138700D02*
X109668900Y-89894000D01*
X109668900Y-89894000D02*
X109668900Y-83497400D01*
X109668900Y-83497400D02*
X107970600Y-81799100D01*
X107970600Y-81799100D02*
X107970600Y-77694700D01*
X107970600Y-77694700D02*
X108540000Y-77125300D01*
X109724400Y-63950200D02*
X109724400Y-60182200D01*
X109724400Y-60182200D02*
X108396000Y-58853800D01*
X108396000Y-58853800D02*
X108396000Y-56929000D01*
X108396000Y-56929000D02*
X108540000Y-56785000D01*
X108540000Y-56785000D02*
X108540000Y-52000000D01*
X106000000Y-32500000D02*
X106000000Y-33675300D01*
X106000000Y-33675300D02*
X104829600Y-34845700D01*
X104829600Y-34845700D02*
X104829600Y-55821300D01*
X104829600Y-55821300D02*
X105244800Y-56236500D01*
X105244800Y-56236500D02*
X105244800Y-56899500D01*
X105244800Y-56899500D02*
X103964600Y-58179700D01*
X103964600Y-58179700D02*
X103964600Y-67057400D01*
X103964600Y-67057400D02*
X105406900Y-68499700D01*
X105406900Y-68499700D02*
X105406900Y-71310200D01*
X105406900Y-71310200D02*
X105349900Y-71367200D01*
X111080000Y-98874700D02*
X110798700Y-98874700D01*
X110798700Y-98874700D02*
X108874600Y-96950600D01*
X108874600Y-96950600D02*
X108874600Y-91962100D01*
X108874600Y-91962100D02*
X112218800Y-88617900D01*
X112218800Y-88617900D02*
X112218800Y-84063800D01*
X112218800Y-84063800D02*
X111055400Y-82900400D01*
X111055400Y-82900400D02*
X110510700Y-82900400D01*
X110510700Y-82900400D02*
X108874200Y-81263900D01*
X108874200Y-81263900D02*
X108874200Y-79825200D01*
X108874200Y-79825200D02*
X111080000Y-77619400D01*
X111080000Y-77619400D02*
X111080000Y-76000000D01*
X111080000Y-100000000D02*
X111080000Y-98874700D01*
X147941100Y-101491900D02*
X147941100Y-92802800D01*
X147941100Y-92802800D02*
X153763200Y-86980700D01*
X164841800Y-67412500D02*
X163229400Y-67412500D01*
X163229400Y-67412500D02*
X155012800Y-75629100D01*
X155012800Y-75629100D02*
X155012800Y-87393800D01*
X155012800Y-87393800D02*
X151099100Y-91307500D01*
X151099100Y-91307500D02*
X151099100Y-97663900D01*
X151099100Y-97663900D02*
X148666400Y-100096600D01*
X148666400Y-100096600D02*
X148666400Y-106430900D01*
X148666400Y-106430900D02*
X142756100Y-112341200D01*
X142756100Y-112341200D02*
X142756100Y-124434800D01*
X142756100Y-124434800D02*
X142065600Y-125125300D01*
X142065600Y-125125300D02*
X135909200Y-125125300D01*
X135909200Y-125125300D02*
X135065300Y-124281400D01*
X135065300Y-124281400D02*
X135065300Y-124000000D01*
X133940000Y-124000000D02*
X133940000Y-122874700D01*
X127780000Y-96000000D02*
X127780000Y-97125300D01*
X133940000Y-124000000D02*
X135065300Y-124000000D01*
X127780000Y-97125300D02*
X127685000Y-97220300D01*
X127685000Y-97220300D02*
X127685000Y-116619700D01*
X127685000Y-116619700D02*
X133940000Y-122874700D01*
X146907700Y-104808800D02*
X147116100Y-104600400D01*
X147116100Y-104600400D02*
X147116100Y-92287300D01*
X147116100Y-92287300D02*
X147405600Y-91997800D01*
X147405600Y-91997800D02*
X153837100Y-85566300D01*
X153837100Y-85566300D02*
X153837100Y-84629400D01*
X163637800Y-69355500D02*
X161953200Y-69355500D01*
X161953200Y-69355500D02*
X155463100Y-75845600D01*
X155463100Y-75845600D02*
X155463100Y-87580400D01*
X155463100Y-87580400D02*
X151549400Y-91494100D01*
X151549400Y-91494100D02*
X151549400Y-97850500D01*
X151549400Y-97850500D02*
X149116800Y-100283100D01*
X149116800Y-100283100D02*
X149116800Y-106617400D01*
X149116800Y-106617400D02*
X147254600Y-108479600D01*
X147254600Y-108479600D02*
X147254600Y-122468900D01*
X147254600Y-122468900D02*
X144108300Y-125615200D01*
X144108300Y-125615200D02*
X133296600Y-125615200D01*
X133296600Y-125615200D02*
X131400000Y-123718600D01*
X131400000Y-123718600D02*
X131400000Y-122874700D01*
X131400000Y-124000000D02*
X131400000Y-123718600D01*
X125240000Y-96000000D02*
X125240000Y-97125300D01*
X125240000Y-97125300D02*
X125145000Y-97220300D01*
X125145000Y-97220300D02*
X125145000Y-116619700D01*
X125145000Y-116619700D02*
X131400000Y-122874700D01*
X144698900Y-105534100D02*
X146596600Y-103636400D01*
X146596600Y-103636400D02*
X146596600Y-90141800D01*
X146596600Y-90141800D02*
X146112500Y-89657700D01*
X153641600Y-78688800D02*
X153641600Y-82128600D01*
X153641600Y-82128600D02*
X146112500Y-89657700D01*
X163651100Y-70673400D02*
X161329000Y-70673400D01*
X161329000Y-70673400D02*
X155913400Y-76089000D01*
X155913400Y-76089000D02*
X155913400Y-87767000D01*
X155913400Y-87767000D02*
X151999700Y-91680700D01*
X151999700Y-91680700D02*
X151999700Y-98037100D01*
X151999700Y-98037100D02*
X150439900Y-99596900D01*
X150439900Y-99596900D02*
X150439900Y-105931200D01*
X150439900Y-105931200D02*
X148287100Y-108084000D01*
X148287100Y-108084000D02*
X148287100Y-122073300D01*
X148287100Y-122073300D02*
X144294900Y-126065500D01*
X144294900Y-126065500D02*
X131769500Y-126065500D01*
X131769500Y-126065500D02*
X129985300Y-124281300D01*
X129985300Y-124281300D02*
X129985300Y-124000000D01*
X128860000Y-124000000D02*
X129985300Y-124000000D01*
X128860000Y-123437300D02*
X128860000Y-124000000D01*
X128860000Y-123437300D02*
X128860000Y-122874700D01*
X128860000Y-122874700D02*
X122510000Y-116524700D01*
X122510000Y-116524700D02*
X122510000Y-101503200D01*
X123780000Y-108760000D02*
X123780000Y-101710600D01*
X123780000Y-101710600D02*
X122510000Y-100440600D01*
X122510000Y-100440600D02*
X122510000Y-98384800D01*
X122510000Y-98384800D02*
X121555900Y-97430700D01*
X121555900Y-97430700D02*
X121555900Y-86406200D01*
X120160000Y-96000000D02*
X120160000Y-87970100D01*
X120160000Y-87970100D02*
X120566100Y-87564000D01*
X120160000Y-96000000D02*
X120160000Y-97125300D01*
X120160000Y-97125300D02*
X120065000Y-97220300D01*
X120065000Y-97220300D02*
X120065000Y-116619700D01*
X120065000Y-116619700D02*
X126320000Y-122874700D01*
X126320000Y-124000000D02*
X126320000Y-122874700D01*
X156860600Y-80499300D02*
X156363700Y-80996200D01*
X156363700Y-80996200D02*
X156363700Y-88350600D01*
X156363700Y-88350600D02*
X153207400Y-91506900D01*
X153207400Y-91506900D02*
X153207400Y-97466300D01*
X153207400Y-97466300D02*
X150922400Y-99751300D01*
X150922400Y-99751300D02*
X150922400Y-106085600D01*
X150922400Y-106085600D02*
X148962400Y-108045600D01*
X148962400Y-108045600D02*
X148962400Y-122058500D01*
X148962400Y-122058500D02*
X144472500Y-126548400D01*
X144472500Y-126548400D02*
X127172300Y-126548400D01*
X127172300Y-126548400D02*
X124905300Y-124281400D01*
X124905300Y-124281400D02*
X124905300Y-124000000D01*
X123780000Y-124000000D02*
X124905300Y-124000000D01*
X117620000Y-96000000D02*
X117620000Y-97125300D01*
X117620000Y-97125300D02*
X117553500Y-97191800D01*
X117553500Y-97191800D02*
X117553500Y-116648200D01*
X117553500Y-116648200D02*
X123780000Y-122874700D01*
X123780000Y-124000000D02*
X123780000Y-122874700D01*
X144371300Y-79401200D02*
X144371300Y-82974000D01*
X144371300Y-82974000D02*
X145228900Y-83831600D01*
X145228900Y-83831600D02*
X145228900Y-85454800D01*
X145228900Y-85454800D02*
X143819600Y-86864100D01*
X143819600Y-86864100D02*
X143819600Y-97278700D01*
X143819600Y-97278700D02*
X142830000Y-98268300D01*
X142830000Y-98268300D02*
X142830000Y-100773300D01*
X142830000Y-100773300D02*
X141491200Y-102112100D01*
X141491200Y-102112100D02*
X141491200Y-106807500D01*
X149898000Y-83040900D02*
X149898000Y-84756900D01*
X149898000Y-84756900D02*
X145350600Y-89304300D01*
X145350600Y-89304300D02*
X145350600Y-89937900D01*
X145350600Y-89937900D02*
X146131800Y-90719100D01*
X146131800Y-90719100D02*
X146131800Y-101910000D01*
X146131800Y-101910000D02*
X145781200Y-102260600D01*
X121240000Y-124000000D02*
X121240000Y-122874700D01*
X115080000Y-96000000D02*
X115080000Y-97125300D01*
X115080000Y-97125300D02*
X114985000Y-97220300D01*
X114985000Y-97220300D02*
X114985000Y-116619700D01*
X114985000Y-116619700D02*
X121240000Y-122874700D01*
X112540000Y-96000000D02*
X112540000Y-94874700D01*
X112540000Y-94874700D02*
X116481700Y-90933000D01*
X116481700Y-90933000D02*
X116481700Y-88530500D01*
X157089000Y-83649100D02*
X157089000Y-88262200D01*
X157089000Y-88262200D02*
X153657700Y-91693500D01*
X153657700Y-91693500D02*
X153657700Y-97652900D01*
X153657700Y-97652900D02*
X151372700Y-99937900D01*
X151372700Y-99937900D02*
X151372700Y-106909100D01*
X151372700Y-106909100D02*
X149412800Y-108869000D01*
X149412800Y-108869000D02*
X149412800Y-122245000D01*
X149412800Y-122245000D02*
X144659100Y-126998700D01*
X144659100Y-126998700D02*
X120002600Y-126998700D01*
X120002600Y-126998700D02*
X117285300Y-124281400D01*
X117285300Y-124281400D02*
X117285300Y-124000000D01*
X116160000Y-124000000D02*
X117285300Y-124000000D01*
X116160000Y-122874700D02*
X112383300Y-119098000D01*
X112383300Y-119098000D02*
X112383300Y-99508600D01*
X112383300Y-99508600D02*
X110000000Y-97125300D01*
X116160000Y-124000000D02*
X116160000Y-122874700D01*
X110000000Y-96000000D02*
X110000000Y-97125300D01*
X114745300Y-124000000D02*
X114745300Y-124281300D01*
X114745300Y-124281300D02*
X117913000Y-127449000D01*
X117913000Y-127449000D02*
X144845700Y-127449000D01*
X144845700Y-127449000D02*
X149962000Y-122332700D01*
X149962000Y-122332700D02*
X149962000Y-108956700D01*
X149962000Y-108956700D02*
X152138700Y-106780000D01*
X152138700Y-106780000D02*
X152138700Y-100197700D01*
X113620000Y-124000000D02*
X114745300Y-124000000D01*
X111080000Y-124000000D02*
X112205300Y-124000000D01*
X112205300Y-124000000D02*
X112205300Y-124281300D01*
X112205300Y-124281300D02*
X115854000Y-127930000D01*
X115854000Y-127930000D02*
X145001600Y-127930000D01*
X145001600Y-127930000D02*
X150428700Y-122502900D01*
X150428700Y-122502900D02*
X150428700Y-109445300D01*
X150428700Y-109445300D02*
X155938700Y-103935300D01*
X155938700Y-103935300D02*
X155938700Y-95906000D01*
X109665300Y-124000000D02*
X109665300Y-124229600D01*
X109665300Y-124229600D02*
X113878500Y-128442800D01*
X113878500Y-128442800D02*
X145125700Y-128442800D01*
X145125700Y-128442800D02*
X151213900Y-122354600D01*
X151213900Y-122354600D02*
X151213900Y-109615500D01*
X151213900Y-109615500D02*
X156664000Y-104165400D01*
X156664000Y-104165400D02*
X156664000Y-95605500D01*
X156664000Y-95605500D02*
X156604500Y-95546000D01*
X156604500Y-95546000D02*
X156604500Y-92906100D01*
X156604500Y-92906100D02*
X158250900Y-91259700D01*
X108540000Y-124000000D02*
X109665300Y-124000000D01*
X107125300Y-124000000D02*
X107125300Y-124281300D01*
X107125300Y-124281300D02*
X111783600Y-128939600D01*
X111783600Y-128939600D02*
X145265800Y-128939600D01*
X145265800Y-128939600D02*
X151664300Y-122541100D01*
X151664300Y-122541100D02*
X151664300Y-109802000D01*
X151664300Y-109802000D02*
X157114300Y-104352000D01*
X157114300Y-104352000D02*
X157114300Y-95418900D01*
X157114300Y-95418900D02*
X157073500Y-95378100D01*
X157073500Y-95378100D02*
X157073500Y-93159500D01*
X157073500Y-93159500D02*
X158248000Y-91985000D01*
X158248000Y-91985000D02*
X158551400Y-91985000D01*
X158551400Y-91985000D02*
X158985300Y-91551100D01*
X158985300Y-91551100D02*
X158985300Y-90902600D01*
X158985300Y-90902600D02*
X158579100Y-90496400D01*
X158579100Y-90496400D02*
X157225400Y-90496400D01*
X157225400Y-90496400D02*
X157008200Y-90713600D01*
X106000000Y-124000000D02*
X107125300Y-124000000D01*
X118700000Y-60760000D02*
X118700000Y-61885300D01*
X118700000Y-61885300D02*
X118745400Y-61930700D01*
X118745400Y-61930700D02*
X118745400Y-73660200D01*
X118745400Y-73660200D02*
X119825400Y-74740200D01*
X119825400Y-74740200D02*
X119825400Y-78922200D01*
X119825400Y-78922200D02*
X119380300Y-79367300D01*
X112540000Y-56634700D02*
X114890000Y-54284700D01*
X114890000Y-54284700D02*
X114890000Y-41695300D01*
X114890000Y-41695300D02*
X118700000Y-37885300D01*
X112540000Y-57760000D02*
X112540000Y-56634700D01*
X118700000Y-36760000D02*
X118700000Y-37885300D01*
X141560000Y-76000000D02*
X141560000Y-63685500D01*
X141560000Y-63685500D02*
X142685300Y-62560200D01*
X142685300Y-62560200D02*
X142685300Y-54250600D01*
X142685300Y-54250600D02*
X141560000Y-53125300D01*
X141560000Y-100000000D02*
X141560000Y-98874700D01*
X141560000Y-76000000D02*
X141560000Y-82224700D01*
X141560000Y-82224700D02*
X142724700Y-83389400D01*
X142724700Y-83389400D02*
X142724700Y-97710000D01*
X142724700Y-97710000D02*
X141560000Y-98874700D01*
X141560000Y-52000000D02*
X141560000Y-53125300D01*
X121240000Y-84760000D02*
X121240000Y-83634700D01*
X121240000Y-60760000D02*
X121240000Y-61885300D01*
X121240000Y-61885300D02*
X121285400Y-61930700D01*
X121285400Y-61930700D02*
X121285400Y-73660200D01*
X121285400Y-73660200D02*
X122365600Y-74740400D01*
X122365600Y-74740400D02*
X122365600Y-77829200D01*
X122365600Y-77829200D02*
X121430000Y-78764800D01*
X121430000Y-78764800D02*
X121430000Y-83444700D01*
X121430000Y-83444700D02*
X121240000Y-83634700D01*
X115080000Y-57760000D02*
X115080000Y-56634700D01*
X121240000Y-37885300D02*
X117429900Y-41695400D01*
X117429900Y-41695400D02*
X117429900Y-54284800D01*
X117429900Y-54284800D02*
X115080000Y-56634700D01*
X121240000Y-36760000D02*
X121240000Y-37885300D01*
X175442200Y-97454500D02*
X176077600Y-97454500D01*
X176077600Y-97454500D02*
X177047000Y-96485100D01*
X177047000Y-96485100D02*
X177047000Y-87490600D01*
X177047000Y-87490600D02*
X177968000Y-86569600D01*
X177968000Y-86569600D02*
X177968000Y-85968600D01*
X177968000Y-85968600D02*
X177803100Y-85803700D01*
X177803100Y-85803700D02*
X177803100Y-73897300D01*
X177803100Y-73897300D02*
X175007500Y-71101700D01*
X175442200Y-100088600D02*
X175442200Y-97454500D01*
X175442200Y-97454500D02*
X170739300Y-92751600D01*
X170739300Y-92751600D02*
X170739300Y-89576300D01*
X175442200Y-100088600D02*
X176864200Y-100088600D01*
X170199400Y-105078500D02*
X175189300Y-100088600D01*
X175189300Y-100088600D02*
X175442200Y-100088600D01*
X139020000Y-52000000D02*
X139020000Y-53125300D01*
X139020000Y-76000000D02*
X139020000Y-74874700D01*
X139020000Y-74874700D02*
X140145300Y-73749400D01*
X140145300Y-73749400D02*
X140145300Y-54250600D01*
X140145300Y-54250600D02*
X139020000Y-53125300D01*
X139020000Y-76562600D02*
X139020000Y-76000000D01*
X139020000Y-76562600D02*
X139020000Y-77125300D01*
X139020000Y-77125300D02*
X139520800Y-77626100D01*
X139520800Y-77626100D02*
X139520800Y-82725500D01*
X139520800Y-82725500D02*
X140145400Y-83350100D01*
X140145400Y-83350100D02*
X140145400Y-85435000D01*
X140145400Y-85435000D02*
X140965500Y-86255100D01*
X140965500Y-86255100D02*
X140965500Y-98331900D01*
X166157500Y-72404500D02*
X166157500Y-80476900D01*
X166157500Y-80476900D02*
X168742700Y-83062100D01*
X168742700Y-83062100D02*
X168830200Y-83062100D01*
X157630600Y-75397900D02*
X157630600Y-75008800D01*
X157630600Y-75008800D02*
X160234900Y-72404500D01*
X160234900Y-72404500D02*
X166157500Y-72404500D01*
X166157500Y-72404500D02*
X166157500Y-71270500D01*
X166157500Y-71270500D02*
X166929800Y-70498200D01*
X157630600Y-75397900D02*
X157814400Y-75581700D01*
X157814400Y-75581700D02*
X157814400Y-88173700D01*
X157814400Y-88173700D02*
X154108000Y-91880100D01*
X154108000Y-91880100D02*
X154108000Y-99038000D01*
X154108000Y-99038000D02*
X153211000Y-99935000D01*
X168830200Y-83062100D02*
X168830200Y-99804500D01*
X168830200Y-99804500D02*
X169627300Y-100601600D01*
X169627300Y-100601600D02*
X171404500Y-100601600D01*
X136480000Y-76000000D02*
X136582500Y-76000000D01*
X136582500Y-76000000D02*
X139071400Y-73511100D01*
X139071400Y-73511100D02*
X139071400Y-66741600D01*
X139071400Y-66741600D02*
X137894600Y-65564800D01*
X137894600Y-65564800D02*
X137894600Y-60099800D01*
X137894600Y-60099800D02*
X136596100Y-58801300D01*
X136596100Y-58801300D02*
X136596100Y-53241400D01*
X136596100Y-53241400D02*
X136480000Y-53125300D01*
X136480000Y-52000000D02*
X136480000Y-53125300D01*
X133940000Y-76000000D02*
X133940000Y-74874700D01*
X133940000Y-74874700D02*
X133985400Y-74829300D01*
X133985400Y-74829300D02*
X133985400Y-67719800D01*
X133985400Y-67719800D02*
X135065600Y-66639600D01*
X135065600Y-66639600D02*
X135065600Y-59810800D01*
X135065600Y-59810800D02*
X134056100Y-58801300D01*
X134056100Y-58801300D02*
X134056100Y-53241400D01*
X134056100Y-53241400D02*
X133940000Y-53125300D01*
X133940000Y-76562600D02*
X133940000Y-76000000D01*
X133940000Y-52000000D02*
X133940000Y-53125300D01*
X133940000Y-76562600D02*
X133940000Y-77125300D01*
X133940000Y-77125300D02*
X131732800Y-79332500D01*
X131732800Y-79332500D02*
X131732800Y-82311200D01*
X131732800Y-82311200D02*
X132670000Y-83248400D01*
X132670000Y-83248400D02*
X132670000Y-92958600D01*
X132670000Y-92958600D02*
X134347800Y-94636400D01*
X128860000Y-37885300D02*
X134441400Y-37885300D01*
X134441400Y-37885300D02*
X135210000Y-37116700D01*
X135210000Y-37116700D02*
X135210000Y-36369200D01*
X135210000Y-36369200D02*
X135957300Y-35621900D01*
X135957300Y-35621900D02*
X144568800Y-35621900D01*
X144568800Y-35621900D02*
X145759500Y-36812600D01*
X145759500Y-36812600D02*
X145759500Y-80396300D01*
X145759500Y-80396300D02*
X145592900Y-80562900D01*
X145592900Y-80562900D02*
X145592900Y-82417100D01*
X128860000Y-37885300D02*
X127516100Y-39229200D01*
X127516100Y-39229200D02*
X127516100Y-52794700D01*
X127516100Y-52794700D02*
X123825300Y-56485500D01*
X123825300Y-56485500D02*
X123825300Y-57760000D01*
X128860000Y-60760000D02*
X127734700Y-60760000D01*
X122700000Y-57760000D02*
X123825300Y-57760000D01*
X123825300Y-57760000D02*
X123825300Y-58041400D01*
X123825300Y-58041400D02*
X125418600Y-59634700D01*
X125418600Y-59634700D02*
X126890800Y-59634700D01*
X126890800Y-59634700D02*
X127734700Y-60478600D01*
X127734700Y-60478600D02*
X127734700Y-60760000D01*
X128860000Y-36760000D02*
X128860000Y-37885300D01*
X141234900Y-50340500D02*
X141562900Y-50340500D01*
X141562900Y-50340500D02*
X142705300Y-51482900D01*
X142705300Y-51482900D02*
X142705300Y-52694900D01*
X142705300Y-52694900D02*
X145265500Y-55255100D01*
X145265500Y-55255100D02*
X145265500Y-79532900D01*
X145265500Y-79532900D02*
X144832000Y-79966400D01*
X144832000Y-79966400D02*
X144832000Y-82797800D01*
X144832000Y-82797800D02*
X145679200Y-83645000D01*
X145679200Y-83645000D02*
X145679200Y-86247400D01*
X145679200Y-86247400D02*
X144444400Y-87482200D01*
X144444400Y-87482200D02*
X144444400Y-90505800D01*
X144444400Y-90505800D02*
X145231200Y-91292600D01*
X145231200Y-91292600D02*
X145231200Y-100631000D01*
X145231200Y-100631000D02*
X143523300Y-102338900D01*
X143523300Y-102338900D02*
X143523300Y-107690800D01*
X143523300Y-107690800D02*
X142830000Y-108384100D01*
X142830000Y-108384100D02*
X142830000Y-109081700D01*
X142830000Y-109081700D02*
X141999000Y-109912700D01*
X141999000Y-109912700D02*
X141114700Y-109912700D01*
X141114700Y-109912700D02*
X140434600Y-109232600D01*
X140434600Y-109232600D02*
X140434600Y-107775500D01*
X140434600Y-107775500D02*
X138651500Y-105992400D01*
X138651500Y-105992400D02*
X138651500Y-102674000D01*
X138651500Y-102674000D02*
X138201200Y-102223700D01*
X131400000Y-52000000D02*
X131400000Y-53125300D01*
X131400000Y-76000000D02*
X131400000Y-74874700D01*
X131400000Y-74874700D02*
X131445400Y-74829300D01*
X131445400Y-74829300D02*
X131445400Y-67719800D01*
X131445400Y-67719800D02*
X132525600Y-66639600D01*
X132525600Y-66639600D02*
X132525600Y-59810800D01*
X132525600Y-59810800D02*
X131516100Y-58801300D01*
X131516100Y-58801300D02*
X131516100Y-53241400D01*
X131516100Y-53241400D02*
X131400000Y-53125300D01*
X128860000Y-77125300D02*
X129228900Y-77494200D01*
X129228900Y-77494200D02*
X129228900Y-79629100D01*
X129228900Y-79629100D02*
X129194600Y-79663400D01*
X129194600Y-79663400D02*
X129194600Y-81227100D01*
X129194600Y-81227100D02*
X127527000Y-82894700D01*
X127527000Y-82894700D02*
X127527000Y-92331600D01*
X127527000Y-92331600D02*
X128918000Y-93722600D01*
X128918000Y-93722600D02*
X128918000Y-98816700D01*
X128918000Y-98816700D02*
X128860000Y-98874700D01*
X128860000Y-100000000D02*
X128860000Y-98874700D01*
X128860000Y-76000000D02*
X128860000Y-77125300D01*
X128860000Y-75859300D02*
X128860000Y-76000000D01*
X128860000Y-74874700D02*
X128905400Y-74829300D01*
X128905400Y-74829300D02*
X128905400Y-64973900D01*
X128905400Y-64973900D02*
X130045000Y-63834300D01*
X130045000Y-63834300D02*
X130045000Y-60034700D01*
X130045000Y-60034700D02*
X129050000Y-59039700D01*
X129050000Y-59039700D02*
X129050000Y-53315300D01*
X129050000Y-53315300D02*
X128860000Y-53125300D01*
X128860000Y-75859300D02*
X128860000Y-74874700D01*
X128860000Y-52000000D02*
X128860000Y-53125300D01*
X167175800Y-63179700D02*
X172283200Y-68287100D01*
X172283200Y-68287100D02*
X172283200Y-74263300D01*
X172283200Y-74263300D02*
X177070800Y-79050900D01*
X177242700Y-86269100D02*
X177070800Y-86097200D01*
X177070800Y-86097200D02*
X177070800Y-79050900D01*
X147134700Y-62631700D02*
X147134700Y-44615200D01*
X147134700Y-44615200D02*
X148192900Y-43557000D01*
X145986200Y-87603000D02*
X147134700Y-86454500D01*
X147134700Y-86454500D02*
X147134700Y-62631700D01*
X133940000Y-36760000D02*
X135528400Y-35171600D01*
X135528400Y-35171600D02*
X144788000Y-35171600D01*
X144788000Y-35171600D02*
X148192900Y-38576500D01*
X148192900Y-38576500D02*
X148192900Y-43557000D01*
X126320000Y-100000000D02*
X126320000Y-98874700D01*
X126320000Y-76000000D02*
X126320000Y-77125300D01*
X126320000Y-77125300D02*
X126711400Y-77516700D01*
X126711400Y-77516700D02*
X126711400Y-79719400D01*
X126711400Y-79719400D02*
X126385800Y-80045000D01*
X126385800Y-80045000D02*
X126385800Y-81832400D01*
X126385800Y-81832400D02*
X125186300Y-83031900D01*
X125186300Y-83031900D02*
X125186300Y-92319400D01*
X125186300Y-92319400D02*
X126378000Y-93511100D01*
X126378000Y-93511100D02*
X126378000Y-98816700D01*
X126378000Y-98816700D02*
X126320000Y-98874700D01*
X126320000Y-52000000D02*
X126320000Y-53125300D01*
X120160000Y-73000000D02*
X120160000Y-71874700D01*
X120160000Y-71874700D02*
X120065000Y-71779700D01*
X120065000Y-71779700D02*
X120065000Y-60323100D01*
X120065000Y-60323100D02*
X121430000Y-58958100D01*
X121430000Y-58958100D02*
X121430000Y-57399900D01*
X121430000Y-57399900D02*
X125704600Y-53125300D01*
X125704600Y-53125300D02*
X126320000Y-53125300D01*
X136480000Y-36760000D02*
X136480000Y-37885300D01*
X130320000Y-57760000D02*
X130320000Y-56634700D01*
X130320000Y-56634700D02*
X130225000Y-56539700D01*
X130225000Y-56539700D02*
X130225000Y-44140300D01*
X130225000Y-44140300D02*
X136480000Y-37885300D01*
X136480000Y-61885300D02*
X136525400Y-61930700D01*
X136525400Y-61930700D02*
X136525400Y-73517100D01*
X136525400Y-73517100D02*
X135354600Y-74687900D01*
X135354600Y-74687900D02*
X135354600Y-76347600D01*
X135354600Y-76347600D02*
X134242100Y-77460100D01*
X134242100Y-77460100D02*
X134242100Y-81396800D01*
X134242100Y-81396800D02*
X136480000Y-83634700D01*
X136480000Y-84760000D02*
X136480000Y-83634700D01*
X136480000Y-60760000D02*
X136480000Y-61885300D01*
X123780000Y-100000000D02*
X123780000Y-98874700D01*
X123780000Y-76000000D02*
X123780000Y-77125300D01*
X123780000Y-77125300D02*
X123875000Y-77220300D01*
X123875000Y-77220300D02*
X123875000Y-81803200D01*
X123875000Y-81803200D02*
X122646300Y-83031900D01*
X122646300Y-83031900D02*
X122646300Y-90416100D01*
X122646300Y-90416100D02*
X123875000Y-91644800D01*
X123875000Y-91644800D02*
X123875000Y-98779700D01*
X123875000Y-98779700D02*
X123780000Y-98874700D01*
X123780000Y-52000000D02*
X123780000Y-53125300D01*
X117620000Y-73000000D02*
X117620000Y-71874700D01*
X117620000Y-71874700D02*
X117525000Y-71779700D01*
X117525000Y-71779700D02*
X117525000Y-60323100D01*
X117525000Y-60323100D02*
X118963900Y-58884200D01*
X118963900Y-58884200D02*
X118963900Y-57161100D01*
X118963900Y-57161100D02*
X120704900Y-55420100D01*
X120704900Y-55420100D02*
X121485200Y-55420100D01*
X121485200Y-55420100D02*
X123780000Y-53125300D01*
X173478900Y-79056800D02*
X174702200Y-80280100D01*
X174702200Y-80280100D02*
X174702200Y-88898900D01*
X174702200Y-88898900D02*
X175364400Y-89561100D01*
X139020000Y-84760000D02*
X139020000Y-83634700D01*
X139020000Y-60760000D02*
X139020000Y-61885300D01*
X139020000Y-61885300D02*
X139526200Y-62391500D01*
X139526200Y-62391500D02*
X139526200Y-73693200D01*
X139526200Y-73693200D02*
X137886300Y-75333100D01*
X137886300Y-75333100D02*
X137886300Y-77464500D01*
X137886300Y-77464500D02*
X139070400Y-78648600D01*
X139070400Y-78648600D02*
X139070400Y-83584300D01*
X139070400Y-83584300D02*
X139020000Y-83634700D01*
X139020000Y-36760000D02*
X139020000Y-37885300D01*
X132860000Y-57760000D02*
X132860000Y-56634700D01*
X132860000Y-56634700D02*
X132765000Y-56539700D01*
X132765000Y-56539700D02*
X132765000Y-44140300D01*
X132765000Y-44140300D02*
X139020000Y-37885300D01*
X104559600Y-94460600D02*
X104559600Y-70157100D01*
X104559600Y-70157100D02*
X104681500Y-70157100D01*
X104499900Y-56517900D02*
X103454600Y-57563200D01*
X103454600Y-57563200D02*
X103454600Y-69052100D01*
X103454600Y-69052100D02*
X104559600Y-70157100D01*
X174192300Y-89556200D02*
X174192300Y-81304100D01*
X174192300Y-81304100D02*
X171968000Y-79079800D01*
X141560000Y-83634700D02*
X140434700Y-82509400D01*
X140434700Y-82509400D02*
X140434700Y-74470300D01*
X140434700Y-74470300D02*
X141109700Y-73795300D01*
X141109700Y-73795300D02*
X141109700Y-62335600D01*
X141109700Y-62335600D02*
X141560000Y-61885300D01*
X141560000Y-36760000D02*
X141560000Y-37885300D01*
X135400000Y-57760000D02*
X135400000Y-56634700D01*
X135400000Y-56634700D02*
X135305000Y-56539700D01*
X135305000Y-56539700D02*
X135305000Y-44140300D01*
X135305000Y-44140300D02*
X141560000Y-37885300D01*
X141560000Y-84760000D02*
X141560000Y-83634700D01*
X141560000Y-60760000D02*
X141560000Y-61885300D01*
X118700000Y-77125300D02*
X118655000Y-77170300D01*
X118655000Y-77170300D02*
X118655000Y-79667700D01*
X118655000Y-79667700D02*
X118811400Y-79824100D01*
X118811400Y-79824100D02*
X118811400Y-81986200D01*
X118811400Y-81986200D02*
X119840800Y-83015600D01*
X119840800Y-83015600D02*
X119840800Y-86938900D01*
X119840800Y-86938900D02*
X118816100Y-87963600D01*
X118816100Y-87963600D02*
X118816100Y-98758600D01*
X118816100Y-98758600D02*
X118700000Y-98874700D01*
X118700000Y-100000000D02*
X118700000Y-98874700D01*
X118700000Y-76000000D02*
X118700000Y-77125300D01*
X108109800Y-70655100D02*
X107403300Y-69948600D01*
X107403300Y-69948600D02*
X107403300Y-56995200D01*
X107403300Y-56995200D02*
X107427000Y-56971500D01*
X107427000Y-56971500D02*
X107427000Y-55383600D01*
X107427000Y-55383600D02*
X107340100Y-55296700D01*
X160096800Y-84854600D02*
X160958700Y-83992700D01*
X160958700Y-83992700D02*
X160958700Y-73226000D01*
X160958700Y-73226000D02*
X165326500Y-73226000D01*
X165326500Y-73226000D02*
X165393700Y-73158800D01*
X165569300Y-90327100D02*
X167917600Y-90327100D01*
X165569300Y-90327100D02*
X160096800Y-84854600D01*
X159732600Y-96802800D02*
X165569300Y-90966100D01*
X165569300Y-90966100D02*
X165569300Y-90327100D01*
X144100000Y-36760000D02*
X144100000Y-37885300D01*
X137940000Y-57760000D02*
X137940000Y-56634700D01*
X137940000Y-56634700D02*
X137859400Y-56554100D01*
X137859400Y-56554100D02*
X137859400Y-44125900D01*
X137859400Y-44125900D02*
X144100000Y-37885300D01*
X144100000Y-84760000D02*
X144100000Y-83634700D01*
X144100000Y-83634700D02*
X142974700Y-82509400D01*
X142974700Y-82509400D02*
X142974700Y-63010600D01*
X142974700Y-63010600D02*
X144100000Y-61885300D01*
X144100000Y-60760000D02*
X144100000Y-61885300D01*
X116160000Y-76000000D02*
X116160000Y-77125300D01*
X116160000Y-77125300D02*
X116205400Y-77170700D01*
X116205400Y-77170700D02*
X116205400Y-81915400D01*
X116205400Y-81915400D02*
X117306400Y-83016400D01*
X117306400Y-83016400D02*
X117306400Y-92524000D01*
X117306400Y-92524000D02*
X116276100Y-93554300D01*
X116276100Y-93554300D02*
X116276100Y-98758600D01*
X116276100Y-98758600D02*
X116160000Y-98874700D01*
X116160000Y-75437300D02*
X116160000Y-76000000D01*
X116160000Y-100000000D02*
X116160000Y-98874700D01*
X116160000Y-75437300D02*
X116160000Y-74874700D01*
X116160000Y-74874700D02*
X115316000Y-74874700D01*
X115316000Y-74874700D02*
X113928800Y-73487500D01*
X113928800Y-73487500D02*
X113928800Y-67456400D01*
X113928800Y-67456400D02*
X114764600Y-66620600D01*
X114764600Y-66620600D02*
X114764600Y-59994300D01*
X114764600Y-59994300D02*
X113940200Y-59169900D01*
X113940200Y-59169900D02*
X113940200Y-56535900D01*
X113940200Y-56535900D02*
X116160000Y-54316100D01*
X116160000Y-54316100D02*
X116160000Y-52000000D01*
X116160000Y-60760000D02*
X116160000Y-61885300D01*
X117476500Y-79208800D02*
X117476500Y-75406200D01*
X117476500Y-75406200D02*
X116350000Y-74279700D01*
X116350000Y-74279700D02*
X116350000Y-62075300D01*
X116350000Y-62075300D02*
X116160000Y-61885300D01*
X116160000Y-59634700D02*
X116350000Y-59444700D01*
X116350000Y-59444700D02*
X116350000Y-57351700D01*
X116350000Y-57351700D02*
X119970000Y-53731700D01*
X119970000Y-53731700D02*
X119970000Y-40063400D01*
X119970000Y-40063400D02*
X122370300Y-37663100D01*
X122370300Y-37663100D02*
X122370300Y-36266100D01*
X122370300Y-36266100D02*
X121738900Y-35634700D01*
X121738900Y-35634700D02*
X118129200Y-35634700D01*
X118129200Y-35634700D02*
X117285300Y-36478600D01*
X117285300Y-36478600D02*
X117285300Y-36760000D01*
X116160000Y-60760000D02*
X116160000Y-59634700D01*
X116160000Y-36760000D02*
X117285300Y-36760000D01*
X123780000Y-60760000D02*
X123780000Y-61885300D01*
X125986100Y-79418900D02*
X125194600Y-78627400D01*
X125194600Y-78627400D02*
X125194600Y-75339800D01*
X125194600Y-75339800D02*
X123970000Y-74115200D01*
X123970000Y-74115200D02*
X123970000Y-62075300D01*
X123970000Y-62075300D02*
X123780000Y-61885300D01*
X123780000Y-37885300D02*
X122478700Y-39186600D01*
X122478700Y-39186600D02*
X122478700Y-53383200D01*
X122478700Y-53383200D02*
X122284200Y-53577700D01*
X123780000Y-36760000D02*
X123780000Y-37885300D01*
X113620000Y-76000000D02*
X113620000Y-77125300D01*
X113620000Y-100000000D02*
X113620000Y-98874700D01*
X113620000Y-98874700D02*
X111408800Y-96663500D01*
X111408800Y-96663500D02*
X111408800Y-90882800D01*
X111408800Y-90882800D02*
X114747200Y-87544400D01*
X114747200Y-87544400D02*
X114747200Y-83297200D01*
X114747200Y-83297200D02*
X113810000Y-82360000D01*
X113810000Y-82360000D02*
X113810000Y-77315300D01*
X113810000Y-77315300D02*
X113620000Y-77125300D01*
X106751200Y-70539500D02*
X106751200Y-64611000D01*
X106751200Y-64611000D02*
X104874600Y-62734400D01*
X104874600Y-62734400D02*
X104874600Y-60085200D01*
X104874600Y-60085200D02*
X106701700Y-58258100D01*
X106701700Y-58258100D02*
X106701700Y-56671000D01*
X111080000Y-60760000D02*
X111080000Y-61885300D01*
X111080000Y-84760000D02*
X111080000Y-83634700D01*
X111080000Y-83634700D02*
X110602300Y-83634700D01*
X110602300Y-83634700D02*
X108421000Y-81453400D01*
X108421000Y-81453400D02*
X108421000Y-78901300D01*
X108421000Y-78901300D02*
X109665600Y-77656700D01*
X109665600Y-77656700D02*
X109665600Y-75314400D01*
X109665600Y-75314400D02*
X108874600Y-74523400D01*
X108874600Y-74523400D02*
X108874600Y-71990300D01*
X108874600Y-71990300D02*
X110834200Y-70030700D01*
X110834200Y-70030700D02*
X110834200Y-62131100D01*
X110834200Y-62131100D02*
X111080000Y-61885300D01*
X111080000Y-59634700D02*
X110236000Y-59634700D01*
X110236000Y-59634700D02*
X108848800Y-58247500D01*
X108848800Y-58247500D02*
X108848800Y-57113100D01*
X108848800Y-57113100D02*
X109954700Y-56007200D01*
X109954700Y-56007200D02*
X109954700Y-39010600D01*
X109954700Y-39010600D02*
X111080000Y-37885300D01*
X111080000Y-36760000D02*
X111080000Y-37885300D01*
X111080000Y-60760000D02*
X111080000Y-59634700D01*
X106000000Y-50874700D02*
X106000000Y-43132200D01*
X106000000Y-43132200D02*
X106069000Y-43063200D01*
X106000000Y-74874700D02*
X106099100Y-74775600D01*
X106099100Y-74775600D02*
X106099100Y-70913100D01*
X106099100Y-70913100D02*
X106025900Y-70839900D01*
X106025900Y-70839900D02*
X106025900Y-66956600D01*
X106025900Y-66956600D02*
X104415000Y-65345700D01*
X104415000Y-65345700D02*
X104415000Y-59003100D01*
X104415000Y-59003100D02*
X105976400Y-57441700D01*
X105976400Y-57441700D02*
X105976400Y-53148900D01*
X105976400Y-53148900D02*
X106000000Y-53125300D01*
X106000000Y-98874700D02*
X107125300Y-97749400D01*
X107125300Y-97749400D02*
X107125300Y-82227600D01*
X107125300Y-82227600D02*
X106000000Y-81102300D01*
X106000000Y-81102300D02*
X106000000Y-77125300D01*
X106000000Y-76000000D02*
X106000000Y-74874700D01*
X106000000Y-76562600D02*
X106000000Y-76000000D01*
X106000000Y-52000000D02*
X106000000Y-53125300D01*
X106000000Y-52000000D02*
X106000000Y-50874700D01*
X106000000Y-100000000D02*
X106000000Y-98874700D01*
X106000000Y-76562600D02*
X106000000Y-77125300D01*
X184361000Y-54680900D02*
X186093300Y-54680900D01*
X186093300Y-54680900D02*
X193812600Y-62400200D01*
X193812600Y-62400200D02*
X193812600Y-96791300D01*
X172572800Y-45085400D02*
X172572800Y-58690900D01*
X172572800Y-58690900D02*
X173635700Y-59753800D01*
X187711000Y-70052000D02*
X185442600Y-70052000D01*
X185442600Y-70052000D02*
X179336700Y-63946100D01*
X186786300Y-76706500D02*
X186786300Y-76935300D01*
X186786300Y-76935300D02*
X185873500Y-77848100D01*
X185873500Y-77848100D02*
X185192100Y-77848100D01*
X185192100Y-77848100D02*
X177070000Y-69726000D01*
X177070000Y-69726000D02*
X177070000Y-67385800D01*
X177070000Y-67385800D02*
X175824400Y-66140200D01*
X175824400Y-66140200D02*
X175824400Y-63273400D01*
X186767000Y-57413000D02*
X188188500Y-57413000D01*
X188188500Y-57413000D02*
X193087300Y-62311800D01*
X193087300Y-62311800D02*
X193087300Y-63105100D01*
X191736200Y-84736800D02*
X191736200Y-91452400D01*
D16*
G36*
X111819525Y-31454930D02*
G01*
X111792896Y-31433076D01*
X111571051Y-31314498D01*
X111330336Y-31241478D01*
X111142726Y-31223000D01*
X111017274Y-31223000D01*
X110829664Y-31241478D01*
X110588949Y-31314498D01*
X110367104Y-31433076D01*
X110172656Y-31592656D01*
X110013076Y-31787104D01*
X109894498Y-32008949D01*
X109821478Y-32249664D01*
X109810000Y-32366202D01*
X109798522Y-32249664D01*
X109725502Y-32008949D01*
X109606924Y-31787104D01*
X109447344Y-31592656D01*
X109252896Y-31433076D01*
X109031051Y-31314498D01*
X108790336Y-31241478D01*
X108602726Y-31223000D01*
X108477274Y-31223000D01*
X108289664Y-31241478D01*
X108048949Y-31314498D01*
X107827104Y-31433076D01*
X107632656Y-31592656D01*
X107473076Y-31787104D01*
X107354498Y-32008949D01*
X107281478Y-32249664D01*
X107279066Y-32274153D01*
X107279066Y-31650000D01*
X107270822Y-31566293D01*
X107246405Y-31485804D01*
X107206755Y-31411624D01*
X107153395Y-31346605D01*
X107088376Y-31293245D01*
X107014196Y-31253595D01*
X106933707Y-31229178D01*
X106850000Y-31220934D01*
X105150000Y-31220934D01*
X105066293Y-31229178D01*
X104985804Y-31253595D01*
X104911624Y-31293245D01*
X104846605Y-31346605D01*
X104793245Y-31411624D01*
X104753595Y-31485804D01*
X104729178Y-31566293D01*
X104720934Y-31650000D01*
X104720934Y-33350000D01*
X104729178Y-33433707D01*
X104753595Y-33514196D01*
X104793245Y-33588376D01*
X104846605Y-33653395D01*
X104911624Y-33706755D01*
X104985804Y-33746405D01*
X105066293Y-33770822D01*
X105118674Y-33775981D01*
X104458456Y-34436200D01*
X104437389Y-34453489D01*
X104368409Y-34537542D01*
X104317152Y-34633438D01*
X104285588Y-34737490D01*
X104278196Y-34812542D01*
X104274930Y-34845700D01*
X104277600Y-34872806D01*
X104277601Y-55718917D01*
X104258673Y-55722682D01*
X104108169Y-55785023D01*
X103972719Y-55875528D01*
X103857528Y-55990719D01*
X103767023Y-56126169D01*
X103704682Y-56276673D01*
X103672900Y-56436448D01*
X103672900Y-56564255D01*
X103083456Y-57153700D01*
X103062389Y-57170989D01*
X102993409Y-57255042D01*
X102942152Y-57350938D01*
X102910588Y-57454990D01*
X102902600Y-57536091D01*
X102899930Y-57563200D01*
X102902600Y-57590306D01*
X102902601Y-69024984D01*
X102899930Y-69052100D01*
X102910589Y-69160310D01*
X102942152Y-69264362D01*
X102990867Y-69355501D01*
X102993410Y-69360258D01*
X103062390Y-69444311D01*
X103083452Y-69461596D01*
X103854500Y-70232645D01*
X103854500Y-70238552D01*
X103886282Y-70398327D01*
X103948623Y-70548831D01*
X104007601Y-70637098D01*
X104007600Y-93843047D01*
X103917228Y-93933419D01*
X103826723Y-94068869D01*
X103764382Y-94219373D01*
X103732600Y-94379148D01*
X103732600Y-94542052D01*
X103764382Y-94701827D01*
X103826723Y-94852331D01*
X103917228Y-94987781D01*
X104032419Y-95102972D01*
X104167869Y-95193477D01*
X104318373Y-95255818D01*
X104478148Y-95287600D01*
X104641052Y-95287600D01*
X104800827Y-95255818D01*
X104951331Y-95193477D01*
X105086781Y-95102972D01*
X105201972Y-94987781D01*
X105292477Y-94852331D01*
X105354818Y-94701827D01*
X105386600Y-94542052D01*
X105386600Y-94379148D01*
X105354818Y-94219373D01*
X105292477Y-94068869D01*
X105201972Y-93933419D01*
X105111600Y-93843047D01*
X105111600Y-85611611D01*
X105128183Y-85631817D01*
X105315017Y-85785149D01*
X105528176Y-85899084D01*
X105759466Y-85969245D01*
X105939732Y-85987000D01*
X106060268Y-85987000D01*
X106240534Y-85969245D01*
X106471824Y-85899084D01*
X106573301Y-85844844D01*
X106573300Y-97520754D01*
X105628852Y-98465204D01*
X105607790Y-98482489D01*
X105557176Y-98544163D01*
X105538809Y-98566543D01*
X105487552Y-98662438D01*
X105473583Y-98708490D01*
X105455989Y-98766489D01*
X105455551Y-98770934D01*
X105200000Y-98770934D01*
X105116293Y-98779178D01*
X105035804Y-98803595D01*
X104961624Y-98843245D01*
X104896605Y-98896605D01*
X104843245Y-98961624D01*
X104803595Y-99035804D01*
X104779178Y-99116293D01*
X104770934Y-99200000D01*
X104770934Y-100800000D01*
X104779178Y-100883707D01*
X104803595Y-100964196D01*
X104843245Y-101038376D01*
X104896605Y-101103395D01*
X104961624Y-101156755D01*
X105035804Y-101196405D01*
X105116293Y-101220822D01*
X105200000Y-101229066D01*
X106800000Y-101229066D01*
X106853500Y-101223797D01*
X106853501Y-105798184D01*
X106850830Y-105825300D01*
X106861489Y-105933510D01*
X106893052Y-106037562D01*
X106944309Y-106133457D01*
X106944310Y-106133458D01*
X107013290Y-106217511D01*
X107034352Y-106234796D01*
X108345751Y-107546196D01*
X108299466Y-107550755D01*
X108068176Y-107620916D01*
X107855017Y-107734851D01*
X107668183Y-107888183D01*
X107514851Y-108075017D01*
X107400916Y-108288176D01*
X107330755Y-108519466D01*
X107307064Y-108760000D01*
X107330755Y-109000534D01*
X107400916Y-109231824D01*
X107514851Y-109444983D01*
X107668183Y-109631817D01*
X107855017Y-109785149D01*
X108068176Y-109899084D01*
X108299466Y-109969245D01*
X108479732Y-109987000D01*
X108600268Y-109987000D01*
X108780534Y-109969245D01*
X109011824Y-109899084D01*
X109224983Y-109785149D01*
X109354122Y-109679166D01*
X110038000Y-110363045D01*
X110038000Y-110490852D01*
X110069782Y-110650627D01*
X110132123Y-110801131D01*
X110222628Y-110936581D01*
X110337819Y-111051772D01*
X110473269Y-111142277D01*
X110623773Y-111204618D01*
X110783548Y-111236400D01*
X110946452Y-111236400D01*
X111106227Y-111204618D01*
X111256731Y-111142277D01*
X111392181Y-111051772D01*
X111507372Y-110936581D01*
X111597877Y-110801131D01*
X111660218Y-110650627D01*
X111692000Y-110490852D01*
X111692000Y-110327948D01*
X111660218Y-110168173D01*
X111597877Y-110017669D01*
X111524233Y-109907454D01*
X111551824Y-109899084D01*
X111764983Y-109785149D01*
X111831300Y-109730723D01*
X111831300Y-119070894D01*
X111828630Y-119098000D01*
X111831300Y-119125106D01*
X111831300Y-119125108D01*
X111839288Y-119206210D01*
X111870852Y-119310262D01*
X111922109Y-119406158D01*
X111991089Y-119490211D01*
X112012157Y-119507501D01*
X115477942Y-122973288D01*
X115475017Y-122974851D01*
X115288183Y-123128183D01*
X115134851Y-123315017D01*
X115023727Y-123522917D01*
X114957563Y-123487552D01*
X114853511Y-123455988D01*
X114772409Y-123448000D01*
X114772408Y-123448000D01*
X114745300Y-123445330D01*
X114718191Y-123448000D01*
X114716229Y-123448000D01*
X114645149Y-123315017D01*
X114491817Y-123128183D01*
X114304983Y-122974851D01*
X114091824Y-122860916D01*
X113860534Y-122790755D01*
X113680268Y-122773000D01*
X113559732Y-122773000D01*
X113379466Y-122790755D01*
X113148176Y-122860916D01*
X112935017Y-122974851D01*
X112748183Y-123128183D01*
X112594851Y-123315017D01*
X112483727Y-123522917D01*
X112417563Y-123487552D01*
X112313511Y-123455988D01*
X112232409Y-123448000D01*
X112232408Y-123448000D01*
X112205300Y-123445330D01*
X112178191Y-123448000D01*
X112176229Y-123448000D01*
X112105149Y-123315017D01*
X111951817Y-123128183D01*
X111764983Y-122974851D01*
X111551824Y-122860916D01*
X111320534Y-122790755D01*
X111140268Y-122773000D01*
X111019732Y-122773000D01*
X110839466Y-122790755D01*
X110608176Y-122860916D01*
X110395017Y-122974851D01*
X110208183Y-123128183D01*
X110054851Y-123315017D01*
X109943727Y-123522917D01*
X109877563Y-123487552D01*
X109773511Y-123455988D01*
X109692409Y-123448000D01*
X109692408Y-123448000D01*
X109665300Y-123445330D01*
X109638191Y-123448000D01*
X109636229Y-123448000D01*
X109565149Y-123315017D01*
X109411817Y-123128183D01*
X109224983Y-122974851D01*
X109011824Y-122860916D01*
X108780534Y-122790755D01*
X108600268Y-122773000D01*
X108479732Y-122773000D01*
X108299466Y-122790755D01*
X108068176Y-122860916D01*
X107855017Y-122974851D01*
X107668183Y-123128183D01*
X107514851Y-123315017D01*
X107403727Y-123522917D01*
X107337563Y-123487552D01*
X107233511Y-123455988D01*
X107229066Y-123455550D01*
X107229066Y-123200000D01*
X107220822Y-123116293D01*
X107196405Y-123035804D01*
X107156755Y-122961624D01*
X107103395Y-122896605D01*
X107038376Y-122843245D01*
X106964196Y-122803595D01*
X106883707Y-122779178D01*
X106800000Y-122770934D01*
X105200000Y-122770934D01*
X105116293Y-122779178D01*
X105035804Y-122803595D01*
X104961624Y-122843245D01*
X104896605Y-122896605D01*
X104843245Y-122961624D01*
X104803595Y-123035804D01*
X104779178Y-123116293D01*
X104770934Y-123200000D01*
X104770934Y-124800000D01*
X104779178Y-124883707D01*
X104803595Y-124964196D01*
X104843245Y-125038376D01*
X104896605Y-125103395D01*
X104961624Y-125156755D01*
X105035804Y-125196405D01*
X105116293Y-125220822D01*
X105200000Y-125229066D01*
X106800000Y-125229066D01*
X106883707Y-125220822D01*
X106964196Y-125196405D01*
X107038376Y-125156755D01*
X107103395Y-125103395D01*
X107131953Y-125068597D01*
X111374108Y-129310754D01*
X111391389Y-129331811D01*
X111475442Y-129400791D01*
X111571337Y-129452048D01*
X111675389Y-129483612D01*
X111756491Y-129491600D01*
X111756493Y-129491600D01*
X111783599Y-129494270D01*
X111810705Y-129491600D01*
X145238694Y-129491600D01*
X145265800Y-129494270D01*
X145292906Y-129491600D01*
X145292909Y-129491600D01*
X145374011Y-129483612D01*
X145478063Y-129452048D01*
X145573958Y-129400791D01*
X145658011Y-129331811D01*
X145675301Y-129310743D01*
X152035454Y-122950592D01*
X152056511Y-122933311D01*
X152125491Y-122849258D01*
X152136934Y-122827850D01*
X152136934Y-123913000D01*
X152145178Y-123996707D01*
X152169595Y-124077196D01*
X152209245Y-124151376D01*
X152262605Y-124216395D01*
X152327624Y-124269755D01*
X152401804Y-124309405D01*
X152482293Y-124333822D01*
X152566000Y-124342066D01*
X154266000Y-124342066D01*
X154349707Y-124333822D01*
X154430196Y-124309405D01*
X154504376Y-124269755D01*
X154569395Y-124216395D01*
X154622755Y-124151376D01*
X154662405Y-124077196D01*
X154686822Y-123996707D01*
X154695066Y-123913000D01*
X154695066Y-122213000D01*
X154686822Y-122129293D01*
X154662405Y-122048804D01*
X154622755Y-121974624D01*
X154569395Y-121909605D01*
X154504376Y-121856245D01*
X154430196Y-121816595D01*
X154349707Y-121792178D01*
X154266000Y-121783934D01*
X153960450Y-121783934D01*
X153960012Y-121779489D01*
X153934093Y-121694048D01*
X154128896Y-121589924D01*
X154323344Y-121430344D01*
X154482924Y-121235896D01*
X154601502Y-121014051D01*
X154674522Y-120773336D01*
X154699178Y-120523000D01*
X154674522Y-120272664D01*
X154601502Y-120031949D01*
X154482924Y-119810104D01*
X154323344Y-119615656D01*
X154128896Y-119456076D01*
X153907051Y-119337498D01*
X153666336Y-119264478D01*
X153549798Y-119253000D01*
X153666336Y-119241522D01*
X153907051Y-119168502D01*
X154128896Y-119049924D01*
X154323344Y-118890344D01*
X154482924Y-118695896D01*
X154601502Y-118474051D01*
X154674522Y-118233336D01*
X154699178Y-117983000D01*
X154674522Y-117732664D01*
X154601502Y-117491949D01*
X154482924Y-117270104D01*
X154323344Y-117075656D01*
X154128896Y-116916076D01*
X153907051Y-116797498D01*
X153666336Y-116724478D01*
X153549798Y-116713000D01*
X153666336Y-116701522D01*
X153907051Y-116628502D01*
X154128896Y-116509924D01*
X154323344Y-116350344D01*
X154482924Y-116155896D01*
X154568924Y-115995000D01*
X157586494Y-115995000D01*
X157613600Y-115997670D01*
X157640706Y-115995000D01*
X157640709Y-115995000D01*
X157721811Y-115987012D01*
X157825863Y-115955448D01*
X157921758Y-115904191D01*
X158005811Y-115835211D01*
X158023101Y-115814143D01*
X172558455Y-101278791D01*
X172579511Y-101261511D01*
X172648491Y-101177458D01*
X172699748Y-101081563D01*
X172731312Y-100977511D01*
X172739300Y-100896409D01*
X172739300Y-100896399D01*
X172741969Y-100869301D01*
X172739300Y-100842203D01*
X172739300Y-100360508D01*
X172741970Y-100333400D01*
X172731312Y-100225189D01*
X172699748Y-100121137D01*
X172648491Y-100025242D01*
X172596792Y-99962246D01*
X172596791Y-99962245D01*
X172579511Y-99941189D01*
X172558454Y-99923908D01*
X172134800Y-99500256D01*
X172117511Y-99479189D01*
X172033458Y-99410209D01*
X171937563Y-99358952D01*
X171833511Y-99327388D01*
X171752409Y-99319400D01*
X171752406Y-99319400D01*
X171725300Y-99316730D01*
X171698194Y-99319400D01*
X170629453Y-99319400D01*
X170563900Y-99253847D01*
X170563900Y-93356844D01*
X174890201Y-97683146D01*
X174890200Y-99622567D01*
X174881141Y-99627409D01*
X174828612Y-99670519D01*
X174797089Y-99696389D01*
X174779808Y-99717446D01*
X170245756Y-104251500D01*
X170117948Y-104251500D01*
X169958173Y-104283282D01*
X169807669Y-104345623D01*
X169672219Y-104436128D01*
X169557028Y-104551319D01*
X169466523Y-104686769D01*
X169404182Y-104837273D01*
X169372400Y-104997048D01*
X169372400Y-105159952D01*
X169404182Y-105319727D01*
X169466523Y-105470231D01*
X169557028Y-105605681D01*
X169672219Y-105720872D01*
X169807669Y-105811377D01*
X169958173Y-105873718D01*
X170117948Y-105905500D01*
X170280852Y-105905500D01*
X170440627Y-105873718D01*
X170591131Y-105811377D01*
X170726581Y-105720872D01*
X170841772Y-105605681D01*
X170932277Y-105470231D01*
X170994618Y-105319727D01*
X171026400Y-105159952D01*
X171026400Y-105032144D01*
X175417690Y-100640856D01*
X175442200Y-100643270D01*
X175469308Y-100640600D01*
X176246647Y-100640600D01*
X176337019Y-100730972D01*
X176458027Y-100811827D01*
X171682172Y-105587684D01*
X171590427Y-105549682D01*
X171430652Y-105517900D01*
X171267748Y-105517900D01*
X171107973Y-105549682D01*
X170957469Y-105612023D01*
X170822019Y-105702528D01*
X170706828Y-105817719D01*
X170616323Y-105953169D01*
X170553982Y-106103673D01*
X170522200Y-106263448D01*
X170522200Y-106426352D01*
X170553982Y-106586127D01*
X170616323Y-106736631D01*
X170706828Y-106872081D01*
X170822019Y-106987272D01*
X170957469Y-107077777D01*
X171107973Y-107140118D01*
X171267748Y-107171900D01*
X171430652Y-107171900D01*
X171590427Y-107140118D01*
X171740931Y-107077777D01*
X171876381Y-106987272D01*
X171991572Y-106872081D01*
X172062264Y-106766284D01*
X172097811Y-106737111D01*
X172115101Y-106716043D01*
X179506254Y-99324892D01*
X179527311Y-99307611D01*
X179596291Y-99223558D01*
X179647548Y-99127663D01*
X179679112Y-99023611D01*
X179687100Y-98942509D01*
X179689770Y-98915400D01*
X179687100Y-98888292D01*
X179687100Y-90259844D01*
X187369108Y-97941854D01*
X187386389Y-97962911D01*
X187407445Y-97980191D01*
X187470441Y-98031891D01*
X187521698Y-98059288D01*
X187566337Y-98083148D01*
X187670389Y-98114712D01*
X187751491Y-98122700D01*
X187751501Y-98122700D01*
X187778599Y-98125369D01*
X187805697Y-98122700D01*
X194094294Y-98122700D01*
X194121400Y-98125370D01*
X194148506Y-98122700D01*
X194148509Y-98122700D01*
X194229611Y-98114712D01*
X194333663Y-98083148D01*
X194429558Y-98031891D01*
X194513611Y-97962911D01*
X194530900Y-97941844D01*
X195634549Y-96838196D01*
X195655611Y-96820911D01*
X195724591Y-96736858D01*
X195775848Y-96640963D01*
X195807412Y-96536911D01*
X195815400Y-96455809D01*
X195815400Y-96455806D01*
X195818070Y-96428700D01*
X195815400Y-96401594D01*
X195815400Y-74988553D01*
X195905772Y-74898181D01*
X195996277Y-74762731D01*
X196058618Y-74612227D01*
X196090400Y-74452452D01*
X196090400Y-74289548D01*
X196058618Y-74129773D01*
X195996277Y-73979269D01*
X195905772Y-73843819D01*
X195790581Y-73728628D01*
X195655131Y-73638123D01*
X195504627Y-73575782D01*
X195344852Y-73544000D01*
X195181948Y-73544000D01*
X195022173Y-73575782D01*
X194871669Y-73638123D01*
X194736219Y-73728628D01*
X194621028Y-73843819D01*
X194530523Y-73979269D01*
X194468182Y-74129773D01*
X194436400Y-74289548D01*
X194436400Y-74452452D01*
X194468182Y-74612227D01*
X194530523Y-74762731D01*
X194621028Y-74898181D01*
X194711400Y-74988553D01*
X194711401Y-96200054D01*
X194532022Y-96379433D01*
X194454972Y-96264119D01*
X194364600Y-96173747D01*
X194364600Y-68645207D01*
X194433673Y-68673818D01*
X194593448Y-68705600D01*
X194756352Y-68705600D01*
X194916127Y-68673818D01*
X195066631Y-68611477D01*
X195202081Y-68520972D01*
X195317272Y-68405781D01*
X195407777Y-68270331D01*
X195470118Y-68119827D01*
X195501900Y-67960052D01*
X195501900Y-67797148D01*
X195470118Y-67637373D01*
X195407777Y-67486869D01*
X195317272Y-67351419D01*
X195226900Y-67261047D01*
X195226900Y-56561408D01*
X195229570Y-56534300D01*
X195226016Y-56498211D01*
X195218912Y-56426089D01*
X195187348Y-56322037D01*
X195136091Y-56226142D01*
X195067111Y-56142089D01*
X195046054Y-56124808D01*
X193864200Y-54942955D01*
X193864200Y-54815148D01*
X193832418Y-54655373D01*
X193770077Y-54504869D01*
X193679572Y-54369419D01*
X193564381Y-54254228D01*
X193428931Y-54163723D01*
X193278427Y-54101382D01*
X193118652Y-54069600D01*
X192955748Y-54069600D01*
X192795973Y-54101382D01*
X192645469Y-54163723D01*
X192510019Y-54254228D01*
X192394828Y-54369419D01*
X192304323Y-54504869D01*
X192241982Y-54655373D01*
X192210200Y-54815148D01*
X192210200Y-54978052D01*
X192241982Y-55137827D01*
X192304323Y-55288331D01*
X192394828Y-55423781D01*
X192510019Y-55538972D01*
X192645469Y-55629477D01*
X192795973Y-55691818D01*
X192955748Y-55723600D01*
X193083555Y-55723600D01*
X194122900Y-56762946D01*
X194122900Y-61929855D01*
X186502801Y-54309757D01*
X186485511Y-54288689D01*
X186401458Y-54219709D01*
X186305563Y-54168452D01*
X186201511Y-54136888D01*
X186120409Y-54128900D01*
X186120406Y-54128900D01*
X186093300Y-54126230D01*
X186066194Y-54128900D01*
X184978553Y-54128900D01*
X184888181Y-54038528D01*
X184752731Y-53948023D01*
X184602227Y-53885682D01*
X184442452Y-53853900D01*
X184279548Y-53853900D01*
X184119773Y-53885682D01*
X183969269Y-53948023D01*
X183833819Y-54038528D01*
X183718628Y-54153719D01*
X183628123Y-54289169D01*
X183565782Y-54439673D01*
X183534000Y-54599448D01*
X183534000Y-54762352D01*
X183565782Y-54922127D01*
X183628123Y-55072631D01*
X183718628Y-55208081D01*
X183833819Y-55323272D01*
X183969269Y-55413777D01*
X184119773Y-55476118D01*
X184279548Y-55507900D01*
X184442452Y-55507900D01*
X184602227Y-55476118D01*
X184752731Y-55413777D01*
X184888181Y-55323272D01*
X184978553Y-55232900D01*
X185864656Y-55232900D01*
X187492756Y-56861000D01*
X187384553Y-56861000D01*
X187294181Y-56770628D01*
X187158731Y-56680123D01*
X187008227Y-56617782D01*
X186848452Y-56586000D01*
X186685548Y-56586000D01*
X186525773Y-56617782D01*
X186375269Y-56680123D01*
X186239819Y-56770628D01*
X186124628Y-56885819D01*
X186034123Y-57021269D01*
X185971782Y-57171773D01*
X185940000Y-57331548D01*
X185940000Y-57494452D01*
X185971782Y-57654227D01*
X186034123Y-57804731D01*
X186124628Y-57940181D01*
X186239819Y-58055372D01*
X186375269Y-58145877D01*
X186525773Y-58208218D01*
X186685548Y-58240000D01*
X186848452Y-58240000D01*
X187008227Y-58208218D01*
X187158731Y-58145877D01*
X187294181Y-58055372D01*
X187384553Y-57965000D01*
X187583747Y-57965000D01*
X187569428Y-57979319D01*
X187478923Y-58114769D01*
X187416582Y-58265273D01*
X187384800Y-58425048D01*
X187384800Y-58587952D01*
X187416582Y-58747727D01*
X187478923Y-58898231D01*
X187569428Y-59033681D01*
X187659801Y-59124054D01*
X187659800Y-66562894D01*
X187657130Y-66590000D01*
X187659800Y-66617106D01*
X187659800Y-66617108D01*
X187667788Y-66698210D01*
X187699352Y-66802262D01*
X187750609Y-66898158D01*
X187819589Y-66982211D01*
X187840656Y-66999500D01*
X188728400Y-67887245D01*
X188728400Y-68015052D01*
X188738035Y-68063490D01*
X182628000Y-61953456D01*
X182628000Y-53721000D01*
X198501000Y-53721000D01*
X198525776Y-53718560D01*
X198549601Y-53711333D01*
X198571557Y-53699597D01*
X198590803Y-53683803D01*
X198606597Y-53664557D01*
X198618333Y-53642601D01*
X198625560Y-53618776D01*
X198628000Y-53594000D01*
X198628000Y-35560000D01*
X198625560Y-35535224D01*
X198618333Y-35511399D01*
X198606597Y-35489443D01*
X198590803Y-35470197D01*
X198571557Y-35454403D01*
X198549601Y-35442667D01*
X198525776Y-35435440D01*
X198501000Y-35433000D01*
X182626000Y-35433000D01*
X182601224Y-35435440D01*
X182577399Y-35442667D01*
X182555443Y-35454403D01*
X182536197Y-35470197D01*
X182520403Y-35489443D01*
X182508667Y-35511399D01*
X182501440Y-35535224D01*
X182499000Y-35560000D01*
X182499000Y-38120806D01*
X182485492Y-38104346D01*
X182485491Y-38104345D01*
X182468211Y-38083289D01*
X182447154Y-38066008D01*
X179130701Y-34749556D01*
X179113411Y-34728489D01*
X179029358Y-34659509D01*
X178933463Y-34608252D01*
X178829411Y-34576688D01*
X178748309Y-34568700D01*
X178748306Y-34568700D01*
X178721200Y-34566030D01*
X178694094Y-34568700D01*
X175640105Y-34568700D01*
X175612999Y-34566030D01*
X175585893Y-34568700D01*
X175585891Y-34568700D01*
X175504789Y-34576688D01*
X175400737Y-34608252D01*
X175304842Y-34659509D01*
X175220789Y-34728489D01*
X175203508Y-34749546D01*
X174916955Y-35036100D01*
X174789148Y-35036100D01*
X174629373Y-35067882D01*
X174478869Y-35130223D01*
X174343419Y-35220728D01*
X174228228Y-35335919D01*
X174137723Y-35471369D01*
X174075382Y-35621873D01*
X174043600Y-35781648D01*
X174043600Y-35944552D01*
X174075382Y-36104327D01*
X174137723Y-36254831D01*
X174228228Y-36390281D01*
X174343419Y-36505472D01*
X174478869Y-36595977D01*
X174629373Y-36658318D01*
X174789148Y-36690100D01*
X174952052Y-36690100D01*
X175111827Y-36658318D01*
X175262331Y-36595977D01*
X175397781Y-36505472D01*
X175512972Y-36390281D01*
X175603477Y-36254831D01*
X175665818Y-36104327D01*
X175697600Y-35944552D01*
X175697600Y-35816745D01*
X175841646Y-35672700D01*
X176042985Y-35672700D01*
X176035723Y-35683569D01*
X175973382Y-35834073D01*
X175941600Y-35993848D01*
X175941600Y-36156752D01*
X175973382Y-36316527D01*
X176035723Y-36467031D01*
X176126228Y-36602481D01*
X176216601Y-36692854D01*
X176216600Y-62540836D01*
X176216131Y-62540523D01*
X176065627Y-62478182D01*
X175905852Y-62446400D01*
X175742948Y-62446400D01*
X175595500Y-62475730D01*
X175595500Y-53586653D01*
X175685872Y-53496281D01*
X175776377Y-53360831D01*
X175838718Y-53210327D01*
X175870500Y-53050552D01*
X175870500Y-52887648D01*
X175838718Y-52727873D01*
X175776377Y-52577369D01*
X175685872Y-52441919D01*
X175595500Y-52351547D01*
X175595500Y-45395753D01*
X175685872Y-45305381D01*
X175776377Y-45169931D01*
X175838718Y-45019427D01*
X175870500Y-44859652D01*
X175870500Y-44696748D01*
X175838718Y-44536973D01*
X175776377Y-44386469D01*
X175685872Y-44251019D01*
X175595500Y-44160647D01*
X175595500Y-44049797D01*
X175598169Y-44022699D01*
X175595500Y-43995601D01*
X175595500Y-43995591D01*
X175587512Y-43914489D01*
X175555948Y-43810437D01*
X175504691Y-43714542D01*
X175435711Y-43630489D01*
X175414654Y-43613209D01*
X163796001Y-31994557D01*
X163778711Y-31973489D01*
X163694658Y-31904509D01*
X163598763Y-31853252D01*
X163494711Y-31821688D01*
X163413609Y-31813700D01*
X163413606Y-31813700D01*
X163386500Y-31811030D01*
X163359394Y-31813700D01*
X144416706Y-31813700D01*
X144389600Y-31811030D01*
X144362494Y-31813700D01*
X144362491Y-31813700D01*
X144281389Y-31821688D01*
X144181591Y-31851962D01*
X144146924Y-31787104D01*
X143987344Y-31592656D01*
X143792896Y-31433076D01*
X143571051Y-31314498D01*
X143330336Y-31241478D01*
X143142726Y-31223000D01*
X143017274Y-31223000D01*
X142829664Y-31241478D01*
X142655081Y-31294437D01*
X141837644Y-30477000D01*
X199523000Y-30477000D01*
X199523001Y-129523000D01*
X100477000Y-129523000D01*
X100477000Y-108760000D01*
X104767064Y-108760000D01*
X104790755Y-109000534D01*
X104860916Y-109231824D01*
X104974851Y-109444983D01*
X105128183Y-109631817D01*
X105315017Y-109785149D01*
X105528176Y-109899084D01*
X105759466Y-109969245D01*
X105939732Y-109987000D01*
X106060268Y-109987000D01*
X106240534Y-109969245D01*
X106471824Y-109899084D01*
X106684983Y-109785149D01*
X106871817Y-109631817D01*
X107025149Y-109444983D01*
X107139084Y-109231824D01*
X107209245Y-109000534D01*
X107232936Y-108760000D01*
X107209245Y-108519466D01*
X107139084Y-108288176D01*
X107025149Y-108075017D01*
X106871817Y-107888183D01*
X106684983Y-107734851D01*
X106471824Y-107620916D01*
X106240534Y-107550755D01*
X106060268Y-107533000D01*
X105939732Y-107533000D01*
X105759466Y-107550755D01*
X105528176Y-107620916D01*
X105315017Y-107734851D01*
X105128183Y-107888183D01*
X104974851Y-108075017D01*
X104860916Y-108288176D01*
X104790755Y-108519466D01*
X104767064Y-108760000D01*
X100477000Y-108760000D01*
X100477000Y-30477000D01*
X112797454Y-30477000D01*
X111819525Y-31454930D01*
X111819525Y-31454930D01*
G37*
X111819525Y-31454930D02*
X111792896Y-31433076D01*
X111571051Y-31314498D01*
X111330336Y-31241478D01*
X111142726Y-31223000D01*
X111017274Y-31223000D01*
X110829664Y-31241478D01*
X110588949Y-31314498D01*
X110367104Y-31433076D01*
X110172656Y-31592656D01*
X110013076Y-31787104D01*
X109894498Y-32008949D01*
X109821478Y-32249664D01*
X109810000Y-32366202D01*
X109798522Y-32249664D01*
X109725502Y-32008949D01*
X109606924Y-31787104D01*
X109447344Y-31592656D01*
X109252896Y-31433076D01*
X109031051Y-31314498D01*
X108790336Y-31241478D01*
X108602726Y-31223000D01*
X108477274Y-31223000D01*
X108289664Y-31241478D01*
X108048949Y-31314498D01*
X107827104Y-31433076D01*
X107632656Y-31592656D01*
X107473076Y-31787104D01*
X107354498Y-32008949D01*
X107281478Y-32249664D01*
X107279066Y-32274153D01*
X107279066Y-31650000D01*
X107270822Y-31566293D01*
X107246405Y-31485804D01*
X107206755Y-31411624D01*
X107153395Y-31346605D01*
X107088376Y-31293245D01*
X107014196Y-31253595D01*
X106933707Y-31229178D01*
X106850000Y-31220934D01*
X105150000Y-31220934D01*
X105066293Y-31229178D01*
X104985804Y-31253595D01*
X104911624Y-31293245D01*
X104846605Y-31346605D01*
X104793245Y-31411624D01*
X104753595Y-31485804D01*
X104729178Y-31566293D01*
X104720934Y-31650000D01*
X104720934Y-33350000D01*
X104729178Y-33433707D01*
X104753595Y-33514196D01*
X104793245Y-33588376D01*
X104846605Y-33653395D01*
X104911624Y-33706755D01*
X104985804Y-33746405D01*
X105066293Y-33770822D01*
X105118674Y-33775981D01*
X104458456Y-34436200D01*
X104437389Y-34453489D01*
X104368409Y-34537542D01*
X104317152Y-34633438D01*
X104285588Y-34737490D01*
X104278196Y-34812542D01*
X104274930Y-34845700D01*
X104277600Y-34872806D01*
X104277601Y-55718917D01*
X104258673Y-55722682D01*
X104108169Y-55785023D01*
X103972719Y-55875528D01*
X103857528Y-55990719D01*
X103767023Y-56126169D01*
X103704682Y-56276673D01*
X103672900Y-56436448D01*
X103672900Y-56564255D01*
X103083456Y-57153700D01*
X103062389Y-57170989D01*
X102993409Y-57255042D01*
X102942152Y-57350938D01*
X102910588Y-57454990D01*
X102902600Y-57536091D01*
X102899930Y-57563200D01*
X102902600Y-57590306D01*
X102902601Y-69024984D01*
X102899930Y-69052100D01*
X102910589Y-69160310D01*
X102942152Y-69264362D01*
X102990867Y-69355501D01*
X102993410Y-69360258D01*
X103062390Y-69444311D01*
X103083452Y-69461596D01*
X103854500Y-70232645D01*
X103854500Y-70238552D01*
X103886282Y-70398327D01*
X103948623Y-70548831D01*
X104007601Y-70637098D01*
X104007600Y-93843047D01*
X103917228Y-93933419D01*
X103826723Y-94068869D01*
X103764382Y-94219373D01*
X103732600Y-94379148D01*
X103732600Y-94542052D01*
X103764382Y-94701827D01*
X103826723Y-94852331D01*
X103917228Y-94987781D01*
X104032419Y-95102972D01*
X104167869Y-95193477D01*
X104318373Y-95255818D01*
X104478148Y-95287600D01*
X104641052Y-95287600D01*
X104800827Y-95255818D01*
X104951331Y-95193477D01*
X105086781Y-95102972D01*
X105201972Y-94987781D01*
X105292477Y-94852331D01*
X105354818Y-94701827D01*
X105386600Y-94542052D01*
X105386600Y-94379148D01*
X105354818Y-94219373D01*
X105292477Y-94068869D01*
X105201972Y-93933419D01*
X105111600Y-93843047D01*
X105111600Y-85611611D01*
X105128183Y-85631817D01*
X105315017Y-85785149D01*
X105528176Y-85899084D01*
X105759466Y-85969245D01*
X105939732Y-85987000D01*
X106060268Y-85987000D01*
X106240534Y-85969245D01*
X106471824Y-85899084D01*
X106573301Y-85844844D01*
X106573300Y-97520754D01*
X105628852Y-98465204D01*
X105607790Y-98482489D01*
X105557176Y-98544163D01*
X105538809Y-98566543D01*
X105487552Y-98662438D01*
X105473583Y-98708490D01*
X105455989Y-98766489D01*
X105455551Y-98770934D01*
X105200000Y-98770934D01*
X105116293Y-98779178D01*
X105035804Y-98803595D01*
X104961624Y-98843245D01*
X104896605Y-98896605D01*
X104843245Y-98961624D01*
X104803595Y-99035804D01*
X104779178Y-99116293D01*
X104770934Y-99200000D01*
X104770934Y-100800000D01*
X104779178Y-100883707D01*
X104803595Y-100964196D01*
X104843245Y-101038376D01*
X104896605Y-101103395D01*
X104961624Y-101156755D01*
X105035804Y-101196405D01*
X105116293Y-101220822D01*
X105200000Y-101229066D01*
X106800000Y-101229066D01*
X106853500Y-101223797D01*
X106853501Y-105798184D01*
X106850830Y-105825300D01*
X106861489Y-105933510D01*
X106893052Y-106037562D01*
X106944309Y-106133457D01*
X106944310Y-106133458D01*
X107013290Y-106217511D01*
X107034352Y-106234796D01*
X108345751Y-107546196D01*
X108299466Y-107550755D01*
X108068176Y-107620916D01*
X107855017Y-107734851D01*
X107668183Y-107888183D01*
X107514851Y-108075017D01*
X107400916Y-108288176D01*
X107330755Y-108519466D01*
X107307064Y-108760000D01*
X107330755Y-109000534D01*
X107400916Y-109231824D01*
X107514851Y-109444983D01*
X107668183Y-109631817D01*
X107855017Y-109785149D01*
X108068176Y-109899084D01*
X108299466Y-109969245D01*
X108479732Y-109987000D01*
X108600268Y-109987000D01*
X108780534Y-109969245D01*
X109011824Y-109899084D01*
X109224983Y-109785149D01*
X109354122Y-109679166D01*
X110038000Y-110363045D01*
X110038000Y-110490852D01*
X110069782Y-110650627D01*
X110132123Y-110801131D01*
X110222628Y-110936581D01*
X110337819Y-111051772D01*
X110473269Y-111142277D01*
X110623773Y-111204618D01*
X110783548Y-111236400D01*
X110946452Y-111236400D01*
X111106227Y-111204618D01*
X111256731Y-111142277D01*
X111392181Y-111051772D01*
X111507372Y-110936581D01*
X111597877Y-110801131D01*
X111660218Y-110650627D01*
X111692000Y-110490852D01*
X111692000Y-110327948D01*
X111660218Y-110168173D01*
X111597877Y-110017669D01*
X111524233Y-109907454D01*
X111551824Y-109899084D01*
X111764983Y-109785149D01*
X111831300Y-109730723D01*
X111831300Y-119070894D01*
X111828630Y-119098000D01*
X111831300Y-119125106D01*
X111831300Y-119125108D01*
X111839288Y-119206210D01*
X111870852Y-119310262D01*
X111922109Y-119406158D01*
X111991089Y-119490211D01*
X112012157Y-119507501D01*
X115477942Y-122973288D01*
X115475017Y-122974851D01*
X115288183Y-123128183D01*
X115134851Y-123315017D01*
X115023727Y-123522917D01*
X114957563Y-123487552D01*
X114853511Y-123455988D01*
X114772409Y-123448000D01*
X114772408Y-123448000D01*
X114745300Y-123445330D01*
X114718191Y-123448000D01*
X114716229Y-123448000D01*
X114645149Y-123315017D01*
X114491817Y-123128183D01*
X114304983Y-122974851D01*
X114091824Y-122860916D01*
X113860534Y-122790755D01*
X113680268Y-122773000D01*
X113559732Y-122773000D01*
X113379466Y-122790755D01*
X113148176Y-122860916D01*
X112935017Y-122974851D01*
X112748183Y-123128183D01*
X112594851Y-123315017D01*
X112483727Y-123522917D01*
X112417563Y-123487552D01*
X112313511Y-123455988D01*
X112232409Y-123448000D01*
X112232408Y-123448000D01*
X112205300Y-123445330D01*
X112178191Y-123448000D01*
X112176229Y-123448000D01*
X112105149Y-123315017D01*
X111951817Y-123128183D01*
X111764983Y-122974851D01*
X111551824Y-122860916D01*
X111320534Y-122790755D01*
X111140268Y-122773000D01*
X111019732Y-122773000D01*
X110839466Y-122790755D01*
X110608176Y-122860916D01*
X110395017Y-122974851D01*
X110208183Y-123128183D01*
X110054851Y-123315017D01*
X109943727Y-123522917D01*
X109877563Y-123487552D01*
X109773511Y-123455988D01*
X109692409Y-123448000D01*
X109692408Y-123448000D01*
X109665300Y-123445330D01*
X109638191Y-123448000D01*
X109636229Y-123448000D01*
X109565149Y-123315017D01*
X109411817Y-123128183D01*
X109224983Y-122974851D01*
X109011824Y-122860916D01*
X108780534Y-122790755D01*
X108600268Y-122773000D01*
X108479732Y-122773000D01*
X108299466Y-122790755D01*
X108068176Y-122860916D01*
X107855017Y-122974851D01*
X107668183Y-123128183D01*
X107514851Y-123315017D01*
X107403727Y-123522917D01*
X107337563Y-123487552D01*
X107233511Y-123455988D01*
X107229066Y-123455550D01*
X107229066Y-123200000D01*
X107220822Y-123116293D01*
X107196405Y-123035804D01*
X107156755Y-122961624D01*
X107103395Y-122896605D01*
X107038376Y-122843245D01*
X106964196Y-122803595D01*
X106883707Y-122779178D01*
X106800000Y-122770934D01*
X105200000Y-122770934D01*
X105116293Y-122779178D01*
X105035804Y-122803595D01*
X104961624Y-122843245D01*
X104896605Y-122896605D01*
X104843245Y-122961624D01*
X104803595Y-123035804D01*
X104779178Y-123116293D01*
X104770934Y-123200000D01*
X104770934Y-124800000D01*
X104779178Y-124883707D01*
X104803595Y-124964196D01*
X104843245Y-125038376D01*
X104896605Y-125103395D01*
X104961624Y-125156755D01*
X105035804Y-125196405D01*
X105116293Y-125220822D01*
X105200000Y-125229066D01*
X106800000Y-125229066D01*
X106883707Y-125220822D01*
X106964196Y-125196405D01*
X107038376Y-125156755D01*
X107103395Y-125103395D01*
X107131953Y-125068597D01*
X111374108Y-129310754D01*
X111391389Y-129331811D01*
X111475442Y-129400791D01*
X111571337Y-129452048D01*
X111675389Y-129483612D01*
X111756491Y-129491600D01*
X111756493Y-129491600D01*
X111783599Y-129494270D01*
X111810705Y-129491600D01*
X145238694Y-129491600D01*
X145265800Y-129494270D01*
X145292906Y-129491600D01*
X145292909Y-129491600D01*
X145374011Y-129483612D01*
X145478063Y-129452048D01*
X145573958Y-129400791D01*
X145658011Y-129331811D01*
X145675301Y-129310743D01*
X152035454Y-122950592D01*
X152056511Y-122933311D01*
X152125491Y-122849258D01*
X152136934Y-122827850D01*
X152136934Y-123913000D01*
X152145178Y-123996707D01*
X152169595Y-124077196D01*
X152209245Y-124151376D01*
X152262605Y-124216395D01*
X152327624Y-124269755D01*
X152401804Y-124309405D01*
X152482293Y-124333822D01*
X152566000Y-124342066D01*
X154266000Y-124342066D01*
X154349707Y-124333822D01*
X154430196Y-124309405D01*
X154504376Y-124269755D01*
X154569395Y-124216395D01*
X154622755Y-124151376D01*
X154662405Y-124077196D01*
X154686822Y-123996707D01*
X154695066Y-123913000D01*
X154695066Y-122213000D01*
X154686822Y-122129293D01*
X154662405Y-122048804D01*
X154622755Y-121974624D01*
X154569395Y-121909605D01*
X154504376Y-121856245D01*
X154430196Y-121816595D01*
X154349707Y-121792178D01*
X154266000Y-121783934D01*
X153960450Y-121783934D01*
X153960012Y-121779489D01*
X153934093Y-121694048D01*
X154128896Y-121589924D01*
X154323344Y-121430344D01*
X154482924Y-121235896D01*
X154601502Y-121014051D01*
X154674522Y-120773336D01*
X154699178Y-120523000D01*
X154674522Y-120272664D01*
X154601502Y-120031949D01*
X154482924Y-119810104D01*
X154323344Y-119615656D01*
X154128896Y-119456076D01*
X153907051Y-119337498D01*
X153666336Y-119264478D01*
X153549798Y-119253000D01*
X153666336Y-119241522D01*
X153907051Y-119168502D01*
X154128896Y-119049924D01*
X154323344Y-118890344D01*
X154482924Y-118695896D01*
X154601502Y-118474051D01*
X154674522Y-118233336D01*
X154699178Y-117983000D01*
X154674522Y-117732664D01*
X154601502Y-117491949D01*
X154482924Y-117270104D01*
X154323344Y-117075656D01*
X154128896Y-116916076D01*
X153907051Y-116797498D01*
X153666336Y-116724478D01*
X153549798Y-116713000D01*
X153666336Y-116701522D01*
X153907051Y-116628502D01*
X154128896Y-116509924D01*
X154323344Y-116350344D01*
X154482924Y-116155896D01*
X154568924Y-115995000D01*
X157586494Y-115995000D01*
X157613600Y-115997670D01*
X157640706Y-115995000D01*
X157640709Y-115995000D01*
X157721811Y-115987012D01*
X157825863Y-115955448D01*
X157921758Y-115904191D01*
X158005811Y-115835211D01*
X158023101Y-115814143D01*
X172558455Y-101278791D01*
X172579511Y-101261511D01*
X172648491Y-101177458D01*
X172699748Y-101081563D01*
X172731312Y-100977511D01*
X172739300Y-100896409D01*
X172739300Y-100896399D01*
X172741969Y-100869301D01*
X172739300Y-100842203D01*
X172739300Y-100360508D01*
X172741970Y-100333400D01*
X172731312Y-100225189D01*
X172699748Y-100121137D01*
X172648491Y-100025242D01*
X172596792Y-99962246D01*
X172596791Y-99962245D01*
X172579511Y-99941189D01*
X172558454Y-99923908D01*
X172134800Y-99500256D01*
X172117511Y-99479189D01*
X172033458Y-99410209D01*
X171937563Y-99358952D01*
X171833511Y-99327388D01*
X171752409Y-99319400D01*
X171752406Y-99319400D01*
X171725300Y-99316730D01*
X171698194Y-99319400D01*
X170629453Y-99319400D01*
X170563900Y-99253847D01*
X170563900Y-93356844D01*
X174890201Y-97683146D01*
X174890200Y-99622567D01*
X174881141Y-99627409D01*
X174828612Y-99670519D01*
X174797089Y-99696389D01*
X174779808Y-99717446D01*
X170245756Y-104251500D01*
X170117948Y-104251500D01*
X169958173Y-104283282D01*
X169807669Y-104345623D01*
X169672219Y-104436128D01*
X169557028Y-104551319D01*
X169466523Y-104686769D01*
X169404182Y-104837273D01*
X169372400Y-104997048D01*
X169372400Y-105159952D01*
X169404182Y-105319727D01*
X169466523Y-105470231D01*
X169557028Y-105605681D01*
X169672219Y-105720872D01*
X169807669Y-105811377D01*
X169958173Y-105873718D01*
X170117948Y-105905500D01*
X170280852Y-105905500D01*
X170440627Y-105873718D01*
X170591131Y-105811377D01*
X170726581Y-105720872D01*
X170841772Y-105605681D01*
X170932277Y-105470231D01*
X170994618Y-105319727D01*
X171026400Y-105159952D01*
X171026400Y-105032144D01*
X175417690Y-100640856D01*
X175442200Y-100643270D01*
X175469308Y-100640600D01*
X176246647Y-100640600D01*
X176337019Y-100730972D01*
X176458027Y-100811827D01*
X171682172Y-105587684D01*
X171590427Y-105549682D01*
X171430652Y-105517900D01*
X171267748Y-105517900D01*
X171107973Y-105549682D01*
X170957469Y-105612023D01*
X170822019Y-105702528D01*
X170706828Y-105817719D01*
X170616323Y-105953169D01*
X170553982Y-106103673D01*
X170522200Y-106263448D01*
X170522200Y-106426352D01*
X170553982Y-106586127D01*
X170616323Y-106736631D01*
X170706828Y-106872081D01*
X170822019Y-106987272D01*
X170957469Y-107077777D01*
X171107973Y-107140118D01*
X171267748Y-107171900D01*
X171430652Y-107171900D01*
X171590427Y-107140118D01*
X171740931Y-107077777D01*
X171876381Y-106987272D01*
X171991572Y-106872081D01*
X172062264Y-106766284D01*
X172097811Y-106737111D01*
X172115101Y-106716043D01*
X179506254Y-99324892D01*
X179527311Y-99307611D01*
X179596291Y-99223558D01*
X179647548Y-99127663D01*
X179679112Y-99023611D01*
X179687100Y-98942509D01*
X179689770Y-98915400D01*
X179687100Y-98888292D01*
X179687100Y-90259844D01*
X187369108Y-97941854D01*
X187386389Y-97962911D01*
X187407445Y-97980191D01*
X187470441Y-98031891D01*
X187521698Y-98059288D01*
X187566337Y-98083148D01*
X187670389Y-98114712D01*
X187751491Y-98122700D01*
X187751501Y-98122700D01*
X187778599Y-98125369D01*
X187805697Y-98122700D01*
X194094294Y-98122700D01*
X194121400Y-98125370D01*
X194148506Y-98122700D01*
X194148509Y-98122700D01*
X194229611Y-98114712D01*
X194333663Y-98083148D01*
X194429558Y-98031891D01*
X194513611Y-97962911D01*
X194530900Y-97941844D01*
X195634549Y-96838196D01*
X195655611Y-96820911D01*
X195724591Y-96736858D01*
X195775848Y-96640963D01*
X195807412Y-96536911D01*
X195815400Y-96455809D01*
X195815400Y-96455806D01*
X195818070Y-96428700D01*
X195815400Y-96401594D01*
X195815400Y-74988553D01*
X195905772Y-74898181D01*
X195996277Y-74762731D01*
X196058618Y-74612227D01*
X196090400Y-74452452D01*
X196090400Y-74289548D01*
X196058618Y-74129773D01*
X195996277Y-73979269D01*
X195905772Y-73843819D01*
X195790581Y-73728628D01*
X195655131Y-73638123D01*
X195504627Y-73575782D01*
X195344852Y-73544000D01*
X195181948Y-73544000D01*
X195022173Y-73575782D01*
X194871669Y-73638123D01*
X194736219Y-73728628D01*
X194621028Y-73843819D01*
X194530523Y-73979269D01*
X194468182Y-74129773D01*
X194436400Y-74289548D01*
X194436400Y-74452452D01*
X194468182Y-74612227D01*
X194530523Y-74762731D01*
X194621028Y-74898181D01*
X194711400Y-74988553D01*
X194711401Y-96200054D01*
X194532022Y-96379433D01*
X194454972Y-96264119D01*
X194364600Y-96173747D01*
X194364600Y-68645207D01*
X194433673Y-68673818D01*
X194593448Y-68705600D01*
X194756352Y-68705600D01*
X194916127Y-68673818D01*
X195066631Y-68611477D01*
X195202081Y-68520972D01*
X195317272Y-68405781D01*
X195407777Y-68270331D01*
X195470118Y-68119827D01*
X195501900Y-67960052D01*
X195501900Y-67797148D01*
X195470118Y-67637373D01*
X195407777Y-67486869D01*
X195317272Y-67351419D01*
X195226900Y-67261047D01*
X195226900Y-56561408D01*
X195229570Y-56534300D01*
X195226016Y-56498211D01*
X195218912Y-56426089D01*
X195187348Y-56322037D01*
X195136091Y-56226142D01*
X195067111Y-56142089D01*
X195046054Y-56124808D01*
X193864200Y-54942955D01*
X193864200Y-54815148D01*
X193832418Y-54655373D01*
X193770077Y-54504869D01*
X193679572Y-54369419D01*
X193564381Y-54254228D01*
X193428931Y-54163723D01*
X193278427Y-54101382D01*
X193118652Y-54069600D01*
X192955748Y-54069600D01*
X192795973Y-54101382D01*
X192645469Y-54163723D01*
X192510019Y-54254228D01*
X192394828Y-54369419D01*
X192304323Y-54504869D01*
X192241982Y-54655373D01*
X192210200Y-54815148D01*
X192210200Y-54978052D01*
X192241982Y-55137827D01*
X192304323Y-55288331D01*
X192394828Y-55423781D01*
X192510019Y-55538972D01*
X192645469Y-55629477D01*
X192795973Y-55691818D01*
X192955748Y-55723600D01*
X193083555Y-55723600D01*
X194122900Y-56762946D01*
X194122900Y-61929855D01*
X186502801Y-54309757D01*
X186485511Y-54288689D01*
X186401458Y-54219709D01*
X186305563Y-54168452D01*
X186201511Y-54136888D01*
X186120409Y-54128900D01*
X186120406Y-54128900D01*
X186093300Y-54126230D01*
X186066194Y-54128900D01*
X184978553Y-54128900D01*
X184888181Y-54038528D01*
X184752731Y-53948023D01*
X184602227Y-53885682D01*
X184442452Y-53853900D01*
X184279548Y-53853900D01*
X184119773Y-53885682D01*
X183969269Y-53948023D01*
X183833819Y-54038528D01*
X183718628Y-54153719D01*
X183628123Y-54289169D01*
X183565782Y-54439673D01*
X183534000Y-54599448D01*
X183534000Y-54762352D01*
X183565782Y-54922127D01*
X183628123Y-55072631D01*
X183718628Y-55208081D01*
X183833819Y-55323272D01*
X183969269Y-55413777D01*
X184119773Y-55476118D01*
X184279548Y-55507900D01*
X184442452Y-55507900D01*
X184602227Y-55476118D01*
X184752731Y-55413777D01*
X184888181Y-55323272D01*
X184978553Y-55232900D01*
X185864656Y-55232900D01*
X187492756Y-56861000D01*
X187384553Y-56861000D01*
X187294181Y-56770628D01*
X187158731Y-56680123D01*
X187008227Y-56617782D01*
X186848452Y-56586000D01*
X186685548Y-56586000D01*
X186525773Y-56617782D01*
X186375269Y-56680123D01*
X186239819Y-56770628D01*
X186124628Y-56885819D01*
X186034123Y-57021269D01*
X185971782Y-57171773D01*
X185940000Y-57331548D01*
X185940000Y-57494452D01*
X185971782Y-57654227D01*
X186034123Y-57804731D01*
X186124628Y-57940181D01*
X186239819Y-58055372D01*
X186375269Y-58145877D01*
X186525773Y-58208218D01*
X186685548Y-58240000D01*
X186848452Y-58240000D01*
X187008227Y-58208218D01*
X187158731Y-58145877D01*
X187294181Y-58055372D01*
X187384553Y-57965000D01*
X187583747Y-57965000D01*
X187569428Y-57979319D01*
X187478923Y-58114769D01*
X187416582Y-58265273D01*
X187384800Y-58425048D01*
X187384800Y-58587952D01*
X187416582Y-58747727D01*
X187478923Y-58898231D01*
X187569428Y-59033681D01*
X187659801Y-59124054D01*
X187659800Y-66562894D01*
X187657130Y-66590000D01*
X187659800Y-66617106D01*
X187659800Y-66617108D01*
X187667788Y-66698210D01*
X187699352Y-66802262D01*
X187750609Y-66898158D01*
X187819589Y-66982211D01*
X187840656Y-66999500D01*
X188728400Y-67887245D01*
X188728400Y-68015052D01*
X188738035Y-68063490D01*
X182628000Y-61953456D01*
X182628000Y-53721000D01*
X198501000Y-53721000D01*
X198525776Y-53718560D01*
X198549601Y-53711333D01*
X198571557Y-53699597D01*
X198590803Y-53683803D01*
X198606597Y-53664557D01*
X198618333Y-53642601D01*
X198625560Y-53618776D01*
X198628000Y-53594000D01*
X198628000Y-35560000D01*
X198625560Y-35535224D01*
X198618333Y-35511399D01*
X198606597Y-35489443D01*
X198590803Y-35470197D01*
X198571557Y-35454403D01*
X198549601Y-35442667D01*
X198525776Y-35435440D01*
X198501000Y-35433000D01*
X182626000Y-35433000D01*
X182601224Y-35435440D01*
X182577399Y-35442667D01*
X182555443Y-35454403D01*
X182536197Y-35470197D01*
X182520403Y-35489443D01*
X182508667Y-35511399D01*
X182501440Y-35535224D01*
X182499000Y-35560000D01*
X182499000Y-38120806D01*
X182485492Y-38104346D01*
X182485491Y-38104345D01*
X182468211Y-38083289D01*
X182447154Y-38066008D01*
X179130701Y-34749556D01*
X179113411Y-34728489D01*
X179029358Y-34659509D01*
X178933463Y-34608252D01*
X178829411Y-34576688D01*
X178748309Y-34568700D01*
X178748306Y-34568700D01*
X178721200Y-34566030D01*
X178694094Y-34568700D01*
X175640105Y-34568700D01*
X175612999Y-34566030D01*
X175585893Y-34568700D01*
X175585891Y-34568700D01*
X175504789Y-34576688D01*
X175400737Y-34608252D01*
X175304842Y-34659509D01*
X175220789Y-34728489D01*
X175203508Y-34749546D01*
X174916955Y-35036100D01*
X174789148Y-35036100D01*
X174629373Y-35067882D01*
X174478869Y-35130223D01*
X174343419Y-35220728D01*
X174228228Y-35335919D01*
X174137723Y-35471369D01*
X174075382Y-35621873D01*
X174043600Y-35781648D01*
X174043600Y-35944552D01*
X174075382Y-36104327D01*
X174137723Y-36254831D01*
X174228228Y-36390281D01*
X174343419Y-36505472D01*
X174478869Y-36595977D01*
X174629373Y-36658318D01*
X174789148Y-36690100D01*
X174952052Y-36690100D01*
X175111827Y-36658318D01*
X175262331Y-36595977D01*
X175397781Y-36505472D01*
X175512972Y-36390281D01*
X175603477Y-36254831D01*
X175665818Y-36104327D01*
X175697600Y-35944552D01*
X175697600Y-35816745D01*
X175841646Y-35672700D01*
X176042985Y-35672700D01*
X176035723Y-35683569D01*
X175973382Y-35834073D01*
X175941600Y-35993848D01*
X175941600Y-36156752D01*
X175973382Y-36316527D01*
X176035723Y-36467031D01*
X176126228Y-36602481D01*
X176216601Y-36692854D01*
X176216600Y-62540836D01*
X176216131Y-62540523D01*
X176065627Y-62478182D01*
X175905852Y-62446400D01*
X175742948Y-62446400D01*
X175595500Y-62475730D01*
X175595500Y-53586653D01*
X175685872Y-53496281D01*
X175776377Y-53360831D01*
X175838718Y-53210327D01*
X175870500Y-53050552D01*
X175870500Y-52887648D01*
X175838718Y-52727873D01*
X175776377Y-52577369D01*
X175685872Y-52441919D01*
X175595500Y-52351547D01*
X175595500Y-45395753D01*
X175685872Y-45305381D01*
X175776377Y-45169931D01*
X175838718Y-45019427D01*
X175870500Y-44859652D01*
X175870500Y-44696748D01*
X175838718Y-44536973D01*
X175776377Y-44386469D01*
X175685872Y-44251019D01*
X175595500Y-44160647D01*
X175595500Y-44049797D01*
X175598169Y-44022699D01*
X175595500Y-43995601D01*
X175595500Y-43995591D01*
X175587512Y-43914489D01*
X175555948Y-43810437D01*
X175504691Y-43714542D01*
X175435711Y-43630489D01*
X175414654Y-43613209D01*
X163796001Y-31994557D01*
X163778711Y-31973489D01*
X163694658Y-31904509D01*
X163598763Y-31853252D01*
X163494711Y-31821688D01*
X163413609Y-31813700D01*
X163413606Y-31813700D01*
X163386500Y-31811030D01*
X163359394Y-31813700D01*
X144416706Y-31813700D01*
X144389600Y-31811030D01*
X144362494Y-31813700D01*
X144362491Y-31813700D01*
X144281389Y-31821688D01*
X144181591Y-31851962D01*
X144146924Y-31787104D01*
X143987344Y-31592656D01*
X143792896Y-31433076D01*
X143571051Y-31314498D01*
X143330336Y-31241478D01*
X143142726Y-31223000D01*
X143017274Y-31223000D01*
X142829664Y-31241478D01*
X142655081Y-31294437D01*
X141837644Y-30477000D01*
X199523000Y-30477000D01*
X199523001Y-129523000D01*
X100477000Y-129523000D01*
X100477000Y-108760000D01*
X104767064Y-108760000D01*
X104790755Y-109000534D01*
X104860916Y-109231824D01*
X104974851Y-109444983D01*
X105128183Y-109631817D01*
X105315017Y-109785149D01*
X105528176Y-109899084D01*
X105759466Y-109969245D01*
X105939732Y-109987000D01*
X106060268Y-109987000D01*
X106240534Y-109969245D01*
X106471824Y-109899084D01*
X106684983Y-109785149D01*
X106871817Y-109631817D01*
X107025149Y-109444983D01*
X107139084Y-109231824D01*
X107209245Y-109000534D01*
X107232936Y-108760000D01*
X107209245Y-108519466D01*
X107139084Y-108288176D01*
X107025149Y-108075017D01*
X106871817Y-107888183D01*
X106684983Y-107734851D01*
X106471824Y-107620916D01*
X106240534Y-107550755D01*
X106060268Y-107533000D01*
X105939732Y-107533000D01*
X105759466Y-107550755D01*
X105528176Y-107620916D01*
X105315017Y-107734851D01*
X105128183Y-107888183D01*
X104974851Y-108075017D01*
X104860916Y-108288176D01*
X104790755Y-108519466D01*
X104767064Y-108760000D01*
X100477000Y-108760000D01*
X100477000Y-30477000D01*
X112797454Y-30477000D01*
X111819525Y-31454930D01*
G36*
X127133001Y-107848557D02*
G01*
X127022479Y-107753992D01*
X126812719Y-107636275D01*
X126584024Y-107561742D01*
X126534628Y-107551918D01*
X126343000Y-107639986D01*
X126343000Y-108737000D01*
X126363000Y-108737000D01*
X126363000Y-108783000D01*
X126343000Y-108783000D01*
X126343000Y-109880014D01*
X126534628Y-109968082D01*
X126584024Y-109958258D01*
X126812719Y-109883725D01*
X127022479Y-109766008D01*
X127133001Y-109671443D01*
X127133001Y-116592584D01*
X127130330Y-116619700D01*
X127140989Y-116727910D01*
X127172552Y-116831962D01*
X127223809Y-116927857D01*
X127223810Y-116927858D01*
X127292790Y-117011911D01*
X127313852Y-117029196D01*
X133257942Y-122973288D01*
X133255017Y-122974851D01*
X133068183Y-123128183D01*
X132914851Y-123315017D01*
X132800916Y-123528176D01*
X132730755Y-123759466D01*
X132707064Y-124000000D01*
X132730755Y-124240534D01*
X132743024Y-124280979D01*
X132617614Y-124155569D01*
X132632936Y-124000000D01*
X132609245Y-123759466D01*
X132539084Y-123528176D01*
X132425149Y-123315017D01*
X132271817Y-123128183D01*
X132084983Y-122974851D01*
X131952000Y-122903771D01*
X131952000Y-122901808D01*
X131954670Y-122874700D01*
X131944012Y-122766489D01*
X131912448Y-122662437D01*
X131861191Y-122566542D01*
X131809492Y-122503546D01*
X131809491Y-122503545D01*
X131792211Y-122482489D01*
X131771154Y-122465208D01*
X125697000Y-116391056D01*
X125697000Y-109810611D01*
X125827281Y-109883725D01*
X126055976Y-109958258D01*
X126105372Y-109968082D01*
X126297000Y-109880014D01*
X126297000Y-108783000D01*
X126277000Y-108783000D01*
X126277000Y-108737000D01*
X126297000Y-108737000D01*
X126297000Y-107639986D01*
X126105372Y-107551918D01*
X126055976Y-107561742D01*
X125827281Y-107636275D01*
X125697000Y-107709389D01*
X125697000Y-101058279D01*
X125848176Y-101139084D01*
X126079466Y-101209245D01*
X126259732Y-101227000D01*
X126380268Y-101227000D01*
X126560534Y-101209245D01*
X126791824Y-101139084D01*
X127004983Y-101025149D01*
X127133000Y-100920087D01*
X127133001Y-107848557D01*
X127133001Y-107848557D01*
G37*
X127133001Y-107848557D02*
X127022479Y-107753992D01*
X126812719Y-107636275D01*
X126584024Y-107561742D01*
X126534628Y-107551918D01*
X126343000Y-107639986D01*
X126343000Y-108737000D01*
X126363000Y-108737000D01*
X126363000Y-108783000D01*
X126343000Y-108783000D01*
X126343000Y-109880014D01*
X126534628Y-109968082D01*
X126584024Y-109958258D01*
X126812719Y-109883725D01*
X127022479Y-109766008D01*
X127133001Y-109671443D01*
X127133001Y-116592584D01*
X127130330Y-116619700D01*
X127140989Y-116727910D01*
X127172552Y-116831962D01*
X127223809Y-116927857D01*
X127223810Y-116927858D01*
X127292790Y-117011911D01*
X127313852Y-117029196D01*
X133257942Y-122973288D01*
X133255017Y-122974851D01*
X133068183Y-123128183D01*
X132914851Y-123315017D01*
X132800916Y-123528176D01*
X132730755Y-123759466D01*
X132707064Y-124000000D01*
X132730755Y-124240534D01*
X132743024Y-124280979D01*
X132617614Y-124155569D01*
X132632936Y-124000000D01*
X132609245Y-123759466D01*
X132539084Y-123528176D01*
X132425149Y-123315017D01*
X132271817Y-123128183D01*
X132084983Y-122974851D01*
X131952000Y-122903771D01*
X131952000Y-122901808D01*
X131954670Y-122874700D01*
X131944012Y-122766489D01*
X131912448Y-122662437D01*
X131861191Y-122566542D01*
X131809492Y-122503546D01*
X131809491Y-122503545D01*
X131792211Y-122482489D01*
X131771154Y-122465208D01*
X125697000Y-116391056D01*
X125697000Y-109810611D01*
X125827281Y-109883725D01*
X126055976Y-109958258D01*
X126105372Y-109968082D01*
X126297000Y-109880014D01*
X126297000Y-108783000D01*
X126277000Y-108783000D01*
X126277000Y-108737000D01*
X126297000Y-108737000D01*
X126297000Y-107639986D01*
X126105372Y-107551918D01*
X126055976Y-107561742D01*
X125827281Y-107636275D01*
X125697000Y-107709389D01*
X125697000Y-101058279D01*
X125848176Y-101139084D01*
X126079466Y-101209245D01*
X126259732Y-101227000D01*
X126380268Y-101227000D01*
X126560534Y-101209245D01*
X126791824Y-101139084D01*
X127004983Y-101025149D01*
X127133000Y-100920087D01*
X127133001Y-107848557D01*
G36*
X146702601Y-122240253D02*
G01*
X145275041Y-123667814D01*
X145242998Y-123553811D01*
X145133988Y-123339397D01*
X144985243Y-123150369D01*
X144802479Y-122993992D01*
X144592719Y-122876275D01*
X144364024Y-122801742D01*
X144314628Y-122791918D01*
X144123000Y-122879986D01*
X144123000Y-123977000D01*
X144143000Y-123977000D01*
X144143000Y-124023000D01*
X144123000Y-124023000D01*
X144123000Y-124043000D01*
X144077000Y-124043000D01*
X144077000Y-124023000D01*
X144057000Y-124023000D01*
X144057000Y-123977000D01*
X144077000Y-123977000D01*
X144077000Y-122879986D01*
X143885372Y-122791918D01*
X143835976Y-122801742D01*
X143607281Y-122876275D01*
X143397521Y-122993992D01*
X143308100Y-123070503D01*
X143308100Y-112569844D01*
X146702600Y-109175345D01*
X146702601Y-122240253D01*
X146702601Y-122240253D01*
G37*
X146702601Y-122240253D02*
X145275041Y-123667814D01*
X145242998Y-123553811D01*
X145133988Y-123339397D01*
X144985243Y-123150369D01*
X144802479Y-122993992D01*
X144592719Y-122876275D01*
X144364024Y-122801742D01*
X144314628Y-122791918D01*
X144123000Y-122879986D01*
X144123000Y-123977000D01*
X144143000Y-123977000D01*
X144143000Y-124023000D01*
X144123000Y-124023000D01*
X144123000Y-124043000D01*
X144077000Y-124043000D01*
X144077000Y-124023000D01*
X144057000Y-124023000D01*
X144057000Y-123977000D01*
X144077000Y-123977000D01*
X144077000Y-122879986D01*
X143885372Y-122791918D01*
X143835976Y-122801742D01*
X143607281Y-122876275D01*
X143397521Y-122993992D01*
X143308100Y-123070503D01*
X143308100Y-112569844D01*
X146702600Y-109175345D01*
X146702601Y-122240253D01*
G36*
X153439000Y-110340000D02*
G01*
X153459000Y-110340000D01*
X153459000Y-110386000D01*
X153439000Y-110386000D01*
X153439000Y-110406000D01*
X153393000Y-110406000D01*
X153393000Y-110386000D01*
X153373000Y-110386000D01*
X153373000Y-110340000D01*
X153393000Y-110340000D01*
X153393000Y-110320000D01*
X153439000Y-110320000D01*
X153439000Y-110340000D01*
X153439000Y-110340000D01*
G37*
X153439000Y-110340000D02*
X153459000Y-110340000D01*
X153459000Y-110386000D01*
X153439000Y-110386000D01*
X153439000Y-110406000D01*
X153393000Y-110406000D01*
X153393000Y-110386000D01*
X153373000Y-110386000D01*
X153373000Y-110340000D01*
X153393000Y-110340000D01*
X153393000Y-110320000D01*
X153439000Y-110320000D01*
X153439000Y-110340000D01*
G36*
X143397521Y-101006008D02*
G01*
X143607281Y-101123725D01*
X143835976Y-101198258D01*
X143875447Y-101206108D01*
X143152156Y-101929400D01*
X143131089Y-101946689D01*
X143062109Y-102030742D01*
X143010852Y-102126638D01*
X142979288Y-102230690D01*
X142971954Y-102305152D01*
X142968630Y-102338900D01*
X142971300Y-102366006D01*
X142971301Y-107462154D01*
X142482958Y-107950498D01*
X142431817Y-107888183D01*
X142244983Y-107734851D01*
X142112000Y-107663771D01*
X142112000Y-107661809D01*
X142114670Y-107634700D01*
X142108294Y-107569959D01*
X142104012Y-107526489D01*
X142072448Y-107422437D01*
X142063171Y-107405082D01*
X142133572Y-107334681D01*
X142224077Y-107199231D01*
X142286418Y-107048727D01*
X142318200Y-106888952D01*
X142318200Y-106726048D01*
X142286418Y-106566273D01*
X142224077Y-106415769D01*
X142133572Y-106280319D01*
X142043200Y-106189947D01*
X142043200Y-102340744D01*
X143201154Y-101182792D01*
X143222211Y-101165511D01*
X143291191Y-101081458D01*
X143342448Y-100985563D01*
X143348873Y-100964383D01*
X143397521Y-101006008D01*
X143397521Y-101006008D01*
G37*
X143397521Y-101006008D02*
X143607281Y-101123725D01*
X143835976Y-101198258D01*
X143875447Y-101206108D01*
X143152156Y-101929400D01*
X143131089Y-101946689D01*
X143062109Y-102030742D01*
X143010852Y-102126638D01*
X142979288Y-102230690D01*
X142971954Y-102305152D01*
X142968630Y-102338900D01*
X142971300Y-102366006D01*
X142971301Y-107462154D01*
X142482958Y-107950498D01*
X142431817Y-107888183D01*
X142244983Y-107734851D01*
X142112000Y-107663771D01*
X142112000Y-107661809D01*
X142114670Y-107634700D01*
X142108294Y-107569959D01*
X142104012Y-107526489D01*
X142072448Y-107422437D01*
X142063171Y-107405082D01*
X142133572Y-107334681D01*
X142224077Y-107199231D01*
X142286418Y-107048727D01*
X142318200Y-106888952D01*
X142318200Y-106726048D01*
X142286418Y-106566273D01*
X142224077Y-106415769D01*
X142133572Y-106280319D01*
X142043200Y-106189947D01*
X142043200Y-102340744D01*
X143201154Y-101182792D01*
X143222211Y-101165511D01*
X143291191Y-101081458D01*
X143342448Y-100985563D01*
X143348873Y-100964383D01*
X143397521Y-101006008D01*
G36*
X144679200Y-91521246D02*
G01*
X144679201Y-98924808D01*
X144592719Y-98876275D01*
X144364024Y-98801742D01*
X144314628Y-98791918D01*
X144123000Y-98879986D01*
X144123000Y-99977000D01*
X144143000Y-99977000D01*
X144143000Y-100023000D01*
X144123000Y-100023000D01*
X144123000Y-100043000D01*
X144077000Y-100043000D01*
X144077000Y-100023000D01*
X144057000Y-100023000D01*
X144057000Y-99977000D01*
X144077000Y-99977000D01*
X144077000Y-98879986D01*
X143885372Y-98791918D01*
X143835976Y-98801742D01*
X143607281Y-98876275D01*
X143397521Y-98993992D01*
X143382000Y-99007272D01*
X143382000Y-98496944D01*
X144190754Y-97688192D01*
X144211811Y-97670911D01*
X144280791Y-97586858D01*
X144332048Y-97490963D01*
X144363612Y-97386911D01*
X144371600Y-97305809D01*
X144374270Y-97278700D01*
X144371600Y-97251592D01*
X144371600Y-91213645D01*
X144679200Y-91521246D01*
X144679200Y-91521246D01*
G37*
X144679200Y-91521246D02*
X144679201Y-98924808D01*
X144592719Y-98876275D01*
X144364024Y-98801742D01*
X144314628Y-98791918D01*
X144123000Y-98879986D01*
X144123000Y-99977000D01*
X144143000Y-99977000D01*
X144143000Y-100023000D01*
X144123000Y-100023000D01*
X144123000Y-100043000D01*
X144077000Y-100043000D01*
X144077000Y-100023000D01*
X144057000Y-100023000D01*
X144057000Y-99977000D01*
X144077000Y-99977000D01*
X144077000Y-98879986D01*
X143885372Y-98791918D01*
X143835976Y-98801742D01*
X143607281Y-98876275D01*
X143397521Y-98993992D01*
X143382000Y-99007272D01*
X143382000Y-98496944D01*
X144190754Y-97688192D01*
X144211811Y-97670911D01*
X144280791Y-97586858D01*
X144332048Y-97490963D01*
X144363612Y-97386911D01*
X144371600Y-97305809D01*
X144374270Y-97278700D01*
X144371600Y-97251592D01*
X144371600Y-91213645D01*
X144679200Y-91521246D01*
G36*
X167094348Y-64006700D02*
G01*
X167222156Y-64006700D01*
X171731200Y-68515746D01*
X171731201Y-74236184D01*
X171728530Y-74263300D01*
X171738184Y-74361309D01*
X171739189Y-74371511D01*
X171741686Y-74379742D01*
X171770752Y-74475562D01*
X171822009Y-74571457D01*
X171822010Y-74571458D01*
X171890990Y-74655511D01*
X171912052Y-74672796D01*
X176243800Y-79004546D01*
X176243800Y-79132352D01*
X176275582Y-79292127D01*
X176337923Y-79442631D01*
X176428428Y-79578081D01*
X176518801Y-79668454D01*
X176518800Y-85863934D01*
X176509823Y-85877369D01*
X176447482Y-86027873D01*
X176415700Y-86187648D01*
X176415700Y-86350552D01*
X176447482Y-86510327D01*
X176509823Y-86660831D01*
X176600328Y-86796281D01*
X176715519Y-86911472D01*
X176793427Y-86963529D01*
X176675852Y-87081104D01*
X176654790Y-87098389D01*
X176611480Y-87151163D01*
X176585809Y-87182443D01*
X176534552Y-87278338D01*
X176519209Y-87328918D01*
X176503566Y-87380489D01*
X176502989Y-87382390D01*
X176492330Y-87490600D01*
X176495001Y-87517716D01*
X176495000Y-96256454D01*
X175848956Y-96902500D01*
X175670845Y-96902500D01*
X171291300Y-92522956D01*
X171291300Y-90193853D01*
X171381672Y-90103481D01*
X171472177Y-89968031D01*
X171534518Y-89817527D01*
X171566300Y-89657752D01*
X171566300Y-89494848D01*
X171534518Y-89335073D01*
X171472177Y-89184569D01*
X171381672Y-89049119D01*
X171266481Y-88933928D01*
X171131031Y-88843423D01*
X170980527Y-88781082D01*
X170820752Y-88749300D01*
X170657848Y-88749300D01*
X170563900Y-88767988D01*
X170563900Y-84702444D01*
X173054446Y-82211900D01*
X173182252Y-82211900D01*
X173342027Y-82180118D01*
X173492531Y-82117777D01*
X173627981Y-82027272D01*
X173640301Y-82014952D01*
X173640300Y-88938647D01*
X173549928Y-89029019D01*
X173459423Y-89164469D01*
X173397082Y-89314973D01*
X173365300Y-89474748D01*
X173365300Y-89637652D01*
X173397082Y-89797427D01*
X173459423Y-89947931D01*
X173549928Y-90083381D01*
X173665119Y-90198572D01*
X173800569Y-90289077D01*
X173951073Y-90351418D01*
X174110848Y-90383200D01*
X174273752Y-90383200D01*
X174433527Y-90351418D01*
X174584031Y-90289077D01*
X174719481Y-90198572D01*
X174775900Y-90142153D01*
X174837219Y-90203472D01*
X174972669Y-90293977D01*
X175123173Y-90356318D01*
X175282948Y-90388100D01*
X175445852Y-90388100D01*
X175605627Y-90356318D01*
X175756131Y-90293977D01*
X175891581Y-90203472D01*
X176006772Y-90088281D01*
X176097277Y-89952831D01*
X176159618Y-89802327D01*
X176191400Y-89642552D01*
X176191400Y-89479648D01*
X176159618Y-89319873D01*
X176097277Y-89169369D01*
X176006772Y-89033919D01*
X175891581Y-88918728D01*
X175756131Y-88828223D01*
X175605627Y-88765882D01*
X175445852Y-88734100D01*
X175318045Y-88734100D01*
X175254200Y-88670255D01*
X175254200Y-80307197D01*
X175256869Y-80280099D01*
X175254200Y-80253001D01*
X175254200Y-80252991D01*
X175246212Y-80171889D01*
X175214648Y-80067837D01*
X175163391Y-79971942D01*
X175094411Y-79887889D01*
X175073354Y-79870608D01*
X174305900Y-79103155D01*
X174305900Y-78975348D01*
X174274118Y-78815573D01*
X174211777Y-78665069D01*
X174121272Y-78529619D01*
X174006081Y-78414428D01*
X173870631Y-78323923D01*
X173720127Y-78261582D01*
X173560352Y-78229800D01*
X173397448Y-78229800D01*
X173237673Y-78261582D01*
X173087169Y-78323923D01*
X172951719Y-78414428D01*
X172836528Y-78529619D01*
X172746023Y-78665069D01*
X172718687Y-78731065D01*
X172700877Y-78688069D01*
X172610372Y-78552619D01*
X172495181Y-78437428D01*
X172359731Y-78346923D01*
X172209227Y-78284582D01*
X172049452Y-78252800D01*
X171886548Y-78252800D01*
X171726773Y-78284582D01*
X171576269Y-78346923D01*
X171440819Y-78437428D01*
X171325628Y-78552619D01*
X171235123Y-78688069D01*
X171172782Y-78838573D01*
X171141000Y-78998348D01*
X171141000Y-79161252D01*
X171172782Y-79321027D01*
X171235123Y-79471531D01*
X171325628Y-79606981D01*
X171440819Y-79722172D01*
X171576269Y-79812677D01*
X171726773Y-79875018D01*
X171886548Y-79906800D01*
X172014356Y-79906800D01*
X172744784Y-80637229D01*
X172709069Y-80652023D01*
X172573619Y-80742528D01*
X172458428Y-80857719D01*
X172367923Y-80993169D01*
X172305582Y-81143673D01*
X172273800Y-81303448D01*
X172273800Y-81431254D01*
X169640756Y-84064299D01*
X169619689Y-84081589D01*
X169550709Y-84165642D01*
X169499452Y-84261538D01*
X169467888Y-84365590D01*
X169462811Y-84417137D01*
X169457230Y-84473800D01*
X169459900Y-84500906D01*
X169459901Y-99253846D01*
X169382200Y-99331547D01*
X169382200Y-83679653D01*
X169472572Y-83589281D01*
X169563077Y-83453831D01*
X169625418Y-83303327D01*
X169657200Y-83143552D01*
X169657200Y-82980648D01*
X169625418Y-82820873D01*
X169563077Y-82670369D01*
X169472572Y-82534919D01*
X169357381Y-82419728D01*
X169221931Y-82329223D01*
X169071427Y-82266882D01*
X168911652Y-82235100D01*
X168748748Y-82235100D01*
X168705039Y-82243794D01*
X168546833Y-82085588D01*
X168624681Y-82033572D01*
X168739872Y-81918381D01*
X168830377Y-81782931D01*
X168892718Y-81632427D01*
X168924500Y-81472652D01*
X168924500Y-81309748D01*
X168892718Y-81149973D01*
X168830377Y-80999469D01*
X168739872Y-80864019D01*
X168649500Y-80773647D01*
X168649500Y-68881905D01*
X168652170Y-68854799D01*
X168646728Y-68799547D01*
X168641512Y-68746589D01*
X168609948Y-68642537D01*
X168558691Y-68546642D01*
X168489711Y-68462589D01*
X168468654Y-68445308D01*
X167001700Y-66978356D01*
X167001700Y-63988271D01*
X167094348Y-64006700D01*
X167094348Y-64006700D01*
G37*
X167094348Y-64006700D02*
X167222156Y-64006700D01*
X171731200Y-68515746D01*
X171731201Y-74236184D01*
X171728530Y-74263300D01*
X171738184Y-74361309D01*
X171739189Y-74371511D01*
X171741686Y-74379742D01*
X171770752Y-74475562D01*
X171822009Y-74571457D01*
X171822010Y-74571458D01*
X171890990Y-74655511D01*
X171912052Y-74672796D01*
X176243800Y-79004546D01*
X176243800Y-79132352D01*
X176275582Y-79292127D01*
X176337923Y-79442631D01*
X176428428Y-79578081D01*
X176518801Y-79668454D01*
X176518800Y-85863934D01*
X176509823Y-85877369D01*
X176447482Y-86027873D01*
X176415700Y-86187648D01*
X176415700Y-86350552D01*
X176447482Y-86510327D01*
X176509823Y-86660831D01*
X176600328Y-86796281D01*
X176715519Y-86911472D01*
X176793427Y-86963529D01*
X176675852Y-87081104D01*
X176654790Y-87098389D01*
X176611480Y-87151163D01*
X176585809Y-87182443D01*
X176534552Y-87278338D01*
X176519209Y-87328918D01*
X176503566Y-87380489D01*
X176502989Y-87382390D01*
X176492330Y-87490600D01*
X176495001Y-87517716D01*
X176495000Y-96256454D01*
X175848956Y-96902500D01*
X175670845Y-96902500D01*
X171291300Y-92522956D01*
X171291300Y-90193853D01*
X171381672Y-90103481D01*
X171472177Y-89968031D01*
X171534518Y-89817527D01*
X171566300Y-89657752D01*
X171566300Y-89494848D01*
X171534518Y-89335073D01*
X171472177Y-89184569D01*
X171381672Y-89049119D01*
X171266481Y-88933928D01*
X171131031Y-88843423D01*
X170980527Y-88781082D01*
X170820752Y-88749300D01*
X170657848Y-88749300D01*
X170563900Y-88767988D01*
X170563900Y-84702444D01*
X173054446Y-82211900D01*
X173182252Y-82211900D01*
X173342027Y-82180118D01*
X173492531Y-82117777D01*
X173627981Y-82027272D01*
X173640301Y-82014952D01*
X173640300Y-88938647D01*
X173549928Y-89029019D01*
X173459423Y-89164469D01*
X173397082Y-89314973D01*
X173365300Y-89474748D01*
X173365300Y-89637652D01*
X173397082Y-89797427D01*
X173459423Y-89947931D01*
X173549928Y-90083381D01*
X173665119Y-90198572D01*
X173800569Y-90289077D01*
X173951073Y-90351418D01*
X174110848Y-90383200D01*
X174273752Y-90383200D01*
X174433527Y-90351418D01*
X174584031Y-90289077D01*
X174719481Y-90198572D01*
X174775900Y-90142153D01*
X174837219Y-90203472D01*
X174972669Y-90293977D01*
X175123173Y-90356318D01*
X175282948Y-90388100D01*
X175445852Y-90388100D01*
X175605627Y-90356318D01*
X175756131Y-90293977D01*
X175891581Y-90203472D01*
X176006772Y-90088281D01*
X176097277Y-89952831D01*
X176159618Y-89802327D01*
X176191400Y-89642552D01*
X176191400Y-89479648D01*
X176159618Y-89319873D01*
X176097277Y-89169369D01*
X176006772Y-89033919D01*
X175891581Y-88918728D01*
X175756131Y-88828223D01*
X175605627Y-88765882D01*
X175445852Y-88734100D01*
X175318045Y-88734100D01*
X175254200Y-88670255D01*
X175254200Y-80307197D01*
X175256869Y-80280099D01*
X175254200Y-80253001D01*
X175254200Y-80252991D01*
X175246212Y-80171889D01*
X175214648Y-80067837D01*
X175163391Y-79971942D01*
X175094411Y-79887889D01*
X175073354Y-79870608D01*
X174305900Y-79103155D01*
X174305900Y-78975348D01*
X174274118Y-78815573D01*
X174211777Y-78665069D01*
X174121272Y-78529619D01*
X174006081Y-78414428D01*
X173870631Y-78323923D01*
X173720127Y-78261582D01*
X173560352Y-78229800D01*
X173397448Y-78229800D01*
X173237673Y-78261582D01*
X173087169Y-78323923D01*
X172951719Y-78414428D01*
X172836528Y-78529619D01*
X172746023Y-78665069D01*
X172718687Y-78731065D01*
X172700877Y-78688069D01*
X172610372Y-78552619D01*
X172495181Y-78437428D01*
X172359731Y-78346923D01*
X172209227Y-78284582D01*
X172049452Y-78252800D01*
X171886548Y-78252800D01*
X171726773Y-78284582D01*
X171576269Y-78346923D01*
X171440819Y-78437428D01*
X171325628Y-78552619D01*
X171235123Y-78688069D01*
X171172782Y-78838573D01*
X171141000Y-78998348D01*
X171141000Y-79161252D01*
X171172782Y-79321027D01*
X171235123Y-79471531D01*
X171325628Y-79606981D01*
X171440819Y-79722172D01*
X171576269Y-79812677D01*
X171726773Y-79875018D01*
X171886548Y-79906800D01*
X172014356Y-79906800D01*
X172744784Y-80637229D01*
X172709069Y-80652023D01*
X172573619Y-80742528D01*
X172458428Y-80857719D01*
X172367923Y-80993169D01*
X172305582Y-81143673D01*
X172273800Y-81303448D01*
X172273800Y-81431254D01*
X169640756Y-84064299D01*
X169619689Y-84081589D01*
X169550709Y-84165642D01*
X169499452Y-84261538D01*
X169467888Y-84365590D01*
X169462811Y-84417137D01*
X169457230Y-84473800D01*
X169459900Y-84500906D01*
X169459901Y-99253846D01*
X169382200Y-99331547D01*
X169382200Y-83679653D01*
X169472572Y-83589281D01*
X169563077Y-83453831D01*
X169625418Y-83303327D01*
X169657200Y-83143552D01*
X169657200Y-82980648D01*
X169625418Y-82820873D01*
X169563077Y-82670369D01*
X169472572Y-82534919D01*
X169357381Y-82419728D01*
X169221931Y-82329223D01*
X169071427Y-82266882D01*
X168911652Y-82235100D01*
X168748748Y-82235100D01*
X168705039Y-82243794D01*
X168546833Y-82085588D01*
X168624681Y-82033572D01*
X168739872Y-81918381D01*
X168830377Y-81782931D01*
X168892718Y-81632427D01*
X168924500Y-81472652D01*
X168924500Y-81309748D01*
X168892718Y-81149973D01*
X168830377Y-80999469D01*
X168739872Y-80864019D01*
X168649500Y-80773647D01*
X168649500Y-68881905D01*
X168652170Y-68854799D01*
X168646728Y-68799547D01*
X168641512Y-68746589D01*
X168609948Y-68642537D01*
X168558691Y-68546642D01*
X168489711Y-68462589D01*
X168468654Y-68445308D01*
X167001700Y-66978356D01*
X167001700Y-63988271D01*
X167094348Y-64006700D01*
G36*
X137310501Y-92886784D02*
G01*
X137307830Y-92913900D01*
X137317484Y-93011909D01*
X137318489Y-93022111D01*
X137327340Y-93051289D01*
X137350052Y-93126162D01*
X137397140Y-93214257D01*
X137401310Y-93222058D01*
X137470290Y-93306111D01*
X137491352Y-93323396D01*
X139593300Y-95425346D01*
X139593300Y-98915156D01*
X139491824Y-98860916D01*
X139260534Y-98790755D01*
X139080268Y-98773000D01*
X138959732Y-98773000D01*
X138779466Y-98790755D01*
X138548176Y-98860916D01*
X138335017Y-98974851D01*
X138172800Y-99107980D01*
X138172800Y-98282708D01*
X138175470Y-98255600D01*
X138164812Y-98147389D01*
X138133248Y-98043337D01*
X138081991Y-97947442D01*
X138030292Y-97884446D01*
X138030291Y-97884445D01*
X138013011Y-97863389D01*
X137991954Y-97846108D01*
X137077400Y-96931556D01*
X137077400Y-96869005D01*
X137237521Y-97006008D01*
X137447281Y-97123725D01*
X137675976Y-97198258D01*
X137725372Y-97208082D01*
X137917000Y-97120014D01*
X137917000Y-96023000D01*
X137963000Y-96023000D01*
X137963000Y-97120014D01*
X138154628Y-97208082D01*
X138204024Y-97198258D01*
X138432719Y-97123725D01*
X138642479Y-97006008D01*
X138825243Y-96849631D01*
X138973988Y-96660603D01*
X139082998Y-96446189D01*
X139148083Y-96214628D01*
X139060035Y-96023000D01*
X137963000Y-96023000D01*
X137917000Y-96023000D01*
X137897000Y-96023000D01*
X137897000Y-95977000D01*
X137917000Y-95977000D01*
X137917000Y-94879986D01*
X137963000Y-94879986D01*
X137963000Y-95977000D01*
X139060035Y-95977000D01*
X139148083Y-95785372D01*
X139082998Y-95553811D01*
X138973988Y-95339397D01*
X138825243Y-95150369D01*
X138642479Y-94993992D01*
X138432719Y-94876275D01*
X138204024Y-94801742D01*
X138154628Y-94791918D01*
X137963000Y-94879986D01*
X137917000Y-94879986D01*
X137725372Y-94791918D01*
X137675976Y-94801742D01*
X137447281Y-94876275D01*
X137237521Y-94993992D01*
X137077400Y-95130995D01*
X137077400Y-91622309D01*
X137080070Y-91595200D01*
X137069412Y-91486989D01*
X137037848Y-91382937D01*
X136986591Y-91287042D01*
X136934892Y-91224046D01*
X136934891Y-91224045D01*
X136917611Y-91202989D01*
X136896554Y-91185708D01*
X135762000Y-90051156D01*
X135762000Y-85758052D01*
X135795017Y-85785149D01*
X136008176Y-85899084D01*
X136239466Y-85969245D01*
X136419732Y-85987000D01*
X136540268Y-85987000D01*
X136720534Y-85969245D01*
X136951824Y-85899084D01*
X137164983Y-85785149D01*
X137310500Y-85665725D01*
X137310501Y-92886784D01*
X137310501Y-92886784D01*
G37*
X137310501Y-92886784D02*
X137307830Y-92913900D01*
X137317484Y-93011909D01*
X137318489Y-93022111D01*
X137327340Y-93051289D01*
X137350052Y-93126162D01*
X137397140Y-93214257D01*
X137401310Y-93222058D01*
X137470290Y-93306111D01*
X137491352Y-93323396D01*
X139593300Y-95425346D01*
X139593300Y-98915156D01*
X139491824Y-98860916D01*
X139260534Y-98790755D01*
X139080268Y-98773000D01*
X138959732Y-98773000D01*
X138779466Y-98790755D01*
X138548176Y-98860916D01*
X138335017Y-98974851D01*
X138172800Y-99107980D01*
X138172800Y-98282708D01*
X138175470Y-98255600D01*
X138164812Y-98147389D01*
X138133248Y-98043337D01*
X138081991Y-97947442D01*
X138030292Y-97884446D01*
X138030291Y-97884445D01*
X138013011Y-97863389D01*
X137991954Y-97846108D01*
X137077400Y-96931556D01*
X137077400Y-96869005D01*
X137237521Y-97006008D01*
X137447281Y-97123725D01*
X137675976Y-97198258D01*
X137725372Y-97208082D01*
X137917000Y-97120014D01*
X137917000Y-96023000D01*
X137963000Y-96023000D01*
X137963000Y-97120014D01*
X138154628Y-97208082D01*
X138204024Y-97198258D01*
X138432719Y-97123725D01*
X138642479Y-97006008D01*
X138825243Y-96849631D01*
X138973988Y-96660603D01*
X139082998Y-96446189D01*
X139148083Y-96214628D01*
X139060035Y-96023000D01*
X137963000Y-96023000D01*
X137917000Y-96023000D01*
X137897000Y-96023000D01*
X137897000Y-95977000D01*
X137917000Y-95977000D01*
X137917000Y-94879986D01*
X137963000Y-94879986D01*
X137963000Y-95977000D01*
X139060035Y-95977000D01*
X139148083Y-95785372D01*
X139082998Y-95553811D01*
X138973988Y-95339397D01*
X138825243Y-95150369D01*
X138642479Y-94993992D01*
X138432719Y-94876275D01*
X138204024Y-94801742D01*
X138154628Y-94791918D01*
X137963000Y-94879986D01*
X137917000Y-94879986D01*
X137725372Y-94791918D01*
X137675976Y-94801742D01*
X137447281Y-94876275D01*
X137237521Y-94993992D01*
X137077400Y-95130995D01*
X137077400Y-91622309D01*
X137080070Y-91595200D01*
X137069412Y-91486989D01*
X137037848Y-91382937D01*
X136986591Y-91287042D01*
X136934892Y-91224046D01*
X136934891Y-91224045D01*
X136917611Y-91202989D01*
X136896554Y-91185708D01*
X135762000Y-90051156D01*
X135762000Y-85758052D01*
X135795017Y-85785149D01*
X136008176Y-85899084D01*
X136239466Y-85969245D01*
X136419732Y-85987000D01*
X136540268Y-85987000D01*
X136720534Y-85969245D01*
X136951824Y-85899084D01*
X137164983Y-85785149D01*
X137310500Y-85665725D01*
X137310501Y-92886784D01*
G36*
X186067404Y-80183549D02*
G01*
X186084689Y-80204611D01*
X186168742Y-80273591D01*
X186264637Y-80324848D01*
X186368689Y-80356412D01*
X186449791Y-80364400D01*
X186449794Y-80364400D01*
X186476900Y-80367070D01*
X186504006Y-80364400D01*
X191861294Y-80364400D01*
X191888400Y-80367070D01*
X191915506Y-80364400D01*
X191915509Y-80364400D01*
X191996611Y-80356412D01*
X192100663Y-80324848D01*
X192196558Y-80273591D01*
X192280611Y-80204611D01*
X192297900Y-80183544D01*
X192597945Y-79883500D01*
X192725752Y-79883500D01*
X192885527Y-79851718D01*
X193036031Y-79789377D01*
X193171481Y-79698872D01*
X193260601Y-79609752D01*
X193260601Y-96173746D01*
X193170228Y-96264119D01*
X193079723Y-96399569D01*
X193017382Y-96550073D01*
X192985600Y-96709848D01*
X192985600Y-96872752D01*
X193014632Y-97018700D01*
X188007246Y-97018700D01*
X180413700Y-89425156D01*
X180413700Y-84655348D01*
X190909200Y-84655348D01*
X190909200Y-84818252D01*
X190940982Y-84978027D01*
X191003323Y-85128531D01*
X191093828Y-85263981D01*
X191184200Y-85354353D01*
X191184201Y-90834846D01*
X191093828Y-90925219D01*
X191003323Y-91060669D01*
X190940982Y-91211173D01*
X190909200Y-91370948D01*
X190909200Y-91533852D01*
X190940982Y-91693627D01*
X191003323Y-91844131D01*
X191093828Y-91979581D01*
X191209019Y-92094772D01*
X191344469Y-92185277D01*
X191494973Y-92247618D01*
X191654748Y-92279400D01*
X191817652Y-92279400D01*
X191977427Y-92247618D01*
X192127931Y-92185277D01*
X192263381Y-92094772D01*
X192378572Y-91979581D01*
X192469077Y-91844131D01*
X192531418Y-91693627D01*
X192563200Y-91533852D01*
X192563200Y-91370948D01*
X192531418Y-91211173D01*
X192469077Y-91060669D01*
X192378572Y-90925219D01*
X192288200Y-90834847D01*
X192288200Y-85354353D01*
X192378572Y-85263981D01*
X192469077Y-85128531D01*
X192531418Y-84978027D01*
X192563200Y-84818252D01*
X192563200Y-84655348D01*
X192531418Y-84495573D01*
X192469077Y-84345069D01*
X192378572Y-84209619D01*
X192263381Y-84094428D01*
X192127931Y-84003923D01*
X191977427Y-83941582D01*
X191817652Y-83909800D01*
X191654748Y-83909800D01*
X191494973Y-83941582D01*
X191344469Y-84003923D01*
X191209019Y-84094428D01*
X191093828Y-84209619D01*
X191003323Y-84345069D01*
X190940982Y-84495573D01*
X190909200Y-84655348D01*
X180413700Y-84655348D01*
X180413700Y-79718753D01*
X180504072Y-79628381D01*
X180594577Y-79492931D01*
X180656918Y-79342427D01*
X180688700Y-79182652D01*
X180688700Y-79019748D01*
X180656918Y-78859973D01*
X180594577Y-78709469D01*
X180504072Y-78574019D01*
X180388881Y-78458828D01*
X180253431Y-78368323D01*
X180102927Y-78305982D01*
X179943152Y-78274200D01*
X179780248Y-78274200D01*
X179687100Y-78292729D01*
X179687100Y-75023353D01*
X179777472Y-74932981D01*
X179867977Y-74797531D01*
X179930318Y-74647027D01*
X179962100Y-74487252D01*
X179962100Y-74324348D01*
X179930318Y-74164573D01*
X179867977Y-74014069D01*
X179807672Y-73923816D01*
X186067404Y-80183549D01*
X186067404Y-80183549D01*
G37*
X186067404Y-80183549D02*
X186084689Y-80204611D01*
X186168742Y-80273591D01*
X186264637Y-80324848D01*
X186368689Y-80356412D01*
X186449791Y-80364400D01*
X186449794Y-80364400D01*
X186476900Y-80367070D01*
X186504006Y-80364400D01*
X191861294Y-80364400D01*
X191888400Y-80367070D01*
X191915506Y-80364400D01*
X191915509Y-80364400D01*
X191996611Y-80356412D01*
X192100663Y-80324848D01*
X192196558Y-80273591D01*
X192280611Y-80204611D01*
X192297900Y-80183544D01*
X192597945Y-79883500D01*
X192725752Y-79883500D01*
X192885527Y-79851718D01*
X193036031Y-79789377D01*
X193171481Y-79698872D01*
X193260601Y-79609752D01*
X193260601Y-96173746D01*
X193170228Y-96264119D01*
X193079723Y-96399569D01*
X193017382Y-96550073D01*
X192985600Y-96709848D01*
X192985600Y-96872752D01*
X193014632Y-97018700D01*
X188007246Y-97018700D01*
X180413700Y-89425156D01*
X180413700Y-84655348D01*
X190909200Y-84655348D01*
X190909200Y-84818252D01*
X190940982Y-84978027D01*
X191003323Y-85128531D01*
X191093828Y-85263981D01*
X191184200Y-85354353D01*
X191184201Y-90834846D01*
X191093828Y-90925219D01*
X191003323Y-91060669D01*
X190940982Y-91211173D01*
X190909200Y-91370948D01*
X190909200Y-91533852D01*
X190940982Y-91693627D01*
X191003323Y-91844131D01*
X191093828Y-91979581D01*
X191209019Y-92094772D01*
X191344469Y-92185277D01*
X191494973Y-92247618D01*
X191654748Y-92279400D01*
X191817652Y-92279400D01*
X191977427Y-92247618D01*
X192127931Y-92185277D01*
X192263381Y-92094772D01*
X192378572Y-91979581D01*
X192469077Y-91844131D01*
X192531418Y-91693627D01*
X192563200Y-91533852D01*
X192563200Y-91370948D01*
X192531418Y-91211173D01*
X192469077Y-91060669D01*
X192378572Y-90925219D01*
X192288200Y-90834847D01*
X192288200Y-85354353D01*
X192378572Y-85263981D01*
X192469077Y-85128531D01*
X192531418Y-84978027D01*
X192563200Y-84818252D01*
X192563200Y-84655348D01*
X192531418Y-84495573D01*
X192469077Y-84345069D01*
X192378572Y-84209619D01*
X192263381Y-84094428D01*
X192127931Y-84003923D01*
X191977427Y-83941582D01*
X191817652Y-83909800D01*
X191654748Y-83909800D01*
X191494973Y-83941582D01*
X191344469Y-84003923D01*
X191209019Y-84094428D01*
X191093828Y-84209619D01*
X191003323Y-84345069D01*
X190940982Y-84495573D01*
X190909200Y-84655348D01*
X180413700Y-84655348D01*
X180413700Y-79718753D01*
X180504072Y-79628381D01*
X180594577Y-79492931D01*
X180656918Y-79342427D01*
X180688700Y-79182652D01*
X180688700Y-79019748D01*
X180656918Y-78859973D01*
X180594577Y-78709469D01*
X180504072Y-78574019D01*
X180388881Y-78458828D01*
X180253431Y-78368323D01*
X180102927Y-78305982D01*
X179943152Y-78274200D01*
X179780248Y-78274200D01*
X179687100Y-78292729D01*
X179687100Y-75023353D01*
X179777472Y-74932981D01*
X179867977Y-74797531D01*
X179930318Y-74647027D01*
X179962100Y-74487252D01*
X179962100Y-74324348D01*
X179930318Y-74164573D01*
X179867977Y-74014069D01*
X179807672Y-73923816D01*
X186067404Y-80183549D01*
G36*
X144713501Y-74944058D02*
G01*
X144592719Y-74876275D01*
X144364024Y-74801742D01*
X144314628Y-74791918D01*
X144123000Y-74879986D01*
X144123000Y-75977000D01*
X144143000Y-75977000D01*
X144143000Y-76023000D01*
X144123000Y-76023000D01*
X144123000Y-77120014D01*
X144314628Y-77208082D01*
X144364024Y-77198258D01*
X144592719Y-77123725D01*
X144713501Y-77055942D01*
X144713501Y-78647807D01*
X144612527Y-78605982D01*
X144452752Y-78574200D01*
X144289848Y-78574200D01*
X144130073Y-78605982D01*
X143979569Y-78668323D01*
X143844119Y-78758828D01*
X143728928Y-78874019D01*
X143638423Y-79009469D01*
X143576082Y-79159973D01*
X143544300Y-79319748D01*
X143544300Y-79482652D01*
X143576082Y-79642427D01*
X143638423Y-79792931D01*
X143728928Y-79928381D01*
X143819300Y-80018753D01*
X143819301Y-82573356D01*
X143526700Y-82280756D01*
X143526700Y-77078503D01*
X143607281Y-77123725D01*
X143835976Y-77198258D01*
X143885372Y-77208082D01*
X144077000Y-77120014D01*
X144077000Y-76023000D01*
X144057000Y-76023000D01*
X144057000Y-75977000D01*
X144077000Y-75977000D01*
X144077000Y-74879986D01*
X143885372Y-74791918D01*
X143835976Y-74801742D01*
X143607281Y-74876275D01*
X143526700Y-74921497D01*
X143526700Y-63239244D01*
X144471154Y-62294792D01*
X144492211Y-62277511D01*
X144561191Y-62193458D01*
X144612448Y-62097563D01*
X144644012Y-61993511D01*
X144652000Y-61912409D01*
X144654670Y-61885300D01*
X144652000Y-61858191D01*
X144652000Y-61856229D01*
X144713500Y-61823357D01*
X144713501Y-74944058D01*
X144713501Y-74944058D01*
G37*
X144713501Y-74944058D02*
X144592719Y-74876275D01*
X144364024Y-74801742D01*
X144314628Y-74791918D01*
X144123000Y-74879986D01*
X144123000Y-75977000D01*
X144143000Y-75977000D01*
X144143000Y-76023000D01*
X144123000Y-76023000D01*
X144123000Y-77120014D01*
X144314628Y-77208082D01*
X144364024Y-77198258D01*
X144592719Y-77123725D01*
X144713501Y-77055942D01*
X144713501Y-78647807D01*
X144612527Y-78605982D01*
X144452752Y-78574200D01*
X144289848Y-78574200D01*
X144130073Y-78605982D01*
X143979569Y-78668323D01*
X143844119Y-78758828D01*
X143728928Y-78874019D01*
X143638423Y-79009469D01*
X143576082Y-79159973D01*
X143544300Y-79319748D01*
X143544300Y-79482652D01*
X143576082Y-79642427D01*
X143638423Y-79792931D01*
X143728928Y-79928381D01*
X143819300Y-80018753D01*
X143819301Y-82573356D01*
X143526700Y-82280756D01*
X143526700Y-77078503D01*
X143607281Y-77123725D01*
X143835976Y-77198258D01*
X143885372Y-77208082D01*
X144077000Y-77120014D01*
X144077000Y-76023000D01*
X144057000Y-76023000D01*
X144057000Y-75977000D01*
X144077000Y-75977000D01*
X144077000Y-74879986D01*
X143885372Y-74791918D01*
X143835976Y-74801742D01*
X143607281Y-74876275D01*
X143526700Y-74921497D01*
X143526700Y-63239244D01*
X144471154Y-62294792D01*
X144492211Y-62277511D01*
X144561191Y-62193458D01*
X144612448Y-62097563D01*
X144644012Y-61993511D01*
X144652000Y-61912409D01*
X144654670Y-61885300D01*
X144652000Y-61858191D01*
X144652000Y-61856229D01*
X144713500Y-61823357D01*
X144713501Y-74944058D01*
G36*
X177593600Y-35764548D02*
G01*
X177593600Y-35927452D01*
X177625382Y-36087227D01*
X177687723Y-36237731D01*
X177778228Y-36373181D01*
X177893419Y-36488372D01*
X178028869Y-36578877D01*
X178179373Y-36641218D01*
X178339148Y-36673000D01*
X178466956Y-36673000D01*
X181019001Y-39225047D01*
X181019000Y-62715294D01*
X181016330Y-62742400D01*
X181019000Y-62769506D01*
X181019000Y-62769508D01*
X181026988Y-62850610D01*
X181058552Y-62954662D01*
X181109809Y-63050558D01*
X181178789Y-63134611D01*
X181199856Y-63151900D01*
X183373300Y-65325346D01*
X183373300Y-65453152D01*
X183405082Y-65612927D01*
X183467423Y-65763431D01*
X183557928Y-65898881D01*
X183673119Y-66014072D01*
X183808569Y-66104577D01*
X183959073Y-66166918D01*
X184118848Y-66198700D01*
X184281752Y-66198700D01*
X184441527Y-66166918D01*
X184592031Y-66104577D01*
X184727481Y-66014072D01*
X184842672Y-65898881D01*
X184910550Y-65797295D01*
X188848500Y-69735245D01*
X188848500Y-69863052D01*
X188880282Y-70022827D01*
X188942623Y-70173331D01*
X189033128Y-70308781D01*
X189148319Y-70423972D01*
X189283769Y-70514477D01*
X189434273Y-70576818D01*
X189594048Y-70608600D01*
X189756952Y-70608600D01*
X189916727Y-70576818D01*
X190067231Y-70514477D01*
X190143100Y-70463783D01*
X190143101Y-78439246D01*
X190052728Y-78529619D01*
X190004674Y-78601537D01*
X189964772Y-78541819D01*
X189874400Y-78451447D01*
X189874400Y-75168108D01*
X189877070Y-75141000D01*
X189866412Y-75032789D01*
X189834848Y-74928737D01*
X189783591Y-74832842D01*
X189731892Y-74769846D01*
X189731891Y-74769845D01*
X189714611Y-74748789D01*
X189693554Y-74731508D01*
X185566045Y-70604000D01*
X187093447Y-70604000D01*
X187183819Y-70694372D01*
X187319269Y-70784877D01*
X187469773Y-70847218D01*
X187629548Y-70879000D01*
X187792452Y-70879000D01*
X187952227Y-70847218D01*
X188102731Y-70784877D01*
X188238181Y-70694372D01*
X188353372Y-70579181D01*
X188443877Y-70443731D01*
X188506218Y-70293227D01*
X188538000Y-70133452D01*
X188538000Y-69970548D01*
X188506218Y-69810773D01*
X188443877Y-69660269D01*
X188353372Y-69524819D01*
X188238181Y-69409628D01*
X188102731Y-69319123D01*
X187952227Y-69256782D01*
X187792452Y-69225000D01*
X187629548Y-69225000D01*
X187469773Y-69256782D01*
X187319269Y-69319123D01*
X187183819Y-69409628D01*
X187093447Y-69500000D01*
X185671246Y-69500000D01*
X180163700Y-63992456D01*
X180163700Y-63864648D01*
X180131918Y-63704873D01*
X180069577Y-63554369D01*
X179979072Y-63418919D01*
X179863881Y-63303728D01*
X179728431Y-63213223D01*
X179577927Y-63150882D01*
X179418152Y-63119100D01*
X179255248Y-63119100D01*
X179095473Y-63150882D01*
X178944969Y-63213223D01*
X178809519Y-63303728D01*
X178694328Y-63418919D01*
X178603823Y-63554369D01*
X178541482Y-63704873D01*
X178509700Y-63864648D01*
X178509700Y-64027552D01*
X178541482Y-64187327D01*
X178603823Y-64337831D01*
X178694328Y-64473281D01*
X178809519Y-64588472D01*
X178944969Y-64678977D01*
X179095473Y-64741318D01*
X179255248Y-64773100D01*
X179383056Y-64773100D01*
X180904177Y-66294221D01*
X180842369Y-66319823D01*
X180706919Y-66410328D01*
X180591728Y-66525519D01*
X180501223Y-66660969D01*
X180438882Y-66811473D01*
X180407100Y-66971248D01*
X180407100Y-67092454D01*
X178045900Y-64731256D01*
X178045900Y-60044853D01*
X178136272Y-59954481D01*
X178226777Y-59819031D01*
X178289118Y-59668527D01*
X178320900Y-59508752D01*
X178320900Y-59345848D01*
X178289118Y-59186073D01*
X178226777Y-59035569D01*
X178136272Y-58900119D01*
X178045900Y-58809747D01*
X178045900Y-55759344D01*
X178821445Y-54983800D01*
X178949252Y-54983800D01*
X179109027Y-54952018D01*
X179259531Y-54889677D01*
X179394981Y-54799172D01*
X179510172Y-54683981D01*
X179600677Y-54548531D01*
X179663018Y-54398027D01*
X179694800Y-54238252D01*
X179694800Y-54075348D01*
X179663018Y-53915573D01*
X179600677Y-53765069D01*
X179510172Y-53629619D01*
X179394981Y-53514428D01*
X179259531Y-53423923D01*
X179109027Y-53361582D01*
X178949252Y-53329800D01*
X178786348Y-53329800D01*
X178626573Y-53361582D01*
X178476069Y-53423923D01*
X178340619Y-53514428D01*
X178225428Y-53629619D01*
X178134923Y-53765069D01*
X178072582Y-53915573D01*
X178040800Y-54075348D01*
X178040800Y-54203155D01*
X177320600Y-54923356D01*
X177320600Y-36692853D01*
X177410972Y-36602481D01*
X177501477Y-36467031D01*
X177563818Y-36316527D01*
X177595600Y-36156752D01*
X177595600Y-35993848D01*
X177563818Y-35834073D01*
X177501477Y-35683569D01*
X177494215Y-35672700D01*
X177611870Y-35672700D01*
X177593600Y-35764548D01*
X177593600Y-35764548D01*
G37*
X177593600Y-35764548D02*
X177593600Y-35927452D01*
X177625382Y-36087227D01*
X177687723Y-36237731D01*
X177778228Y-36373181D01*
X177893419Y-36488372D01*
X178028869Y-36578877D01*
X178179373Y-36641218D01*
X178339148Y-36673000D01*
X178466956Y-36673000D01*
X181019001Y-39225047D01*
X181019000Y-62715294D01*
X181016330Y-62742400D01*
X181019000Y-62769506D01*
X181019000Y-62769508D01*
X181026988Y-62850610D01*
X181058552Y-62954662D01*
X181109809Y-63050558D01*
X181178789Y-63134611D01*
X181199856Y-63151900D01*
X183373300Y-65325346D01*
X183373300Y-65453152D01*
X183405082Y-65612927D01*
X183467423Y-65763431D01*
X183557928Y-65898881D01*
X183673119Y-66014072D01*
X183808569Y-66104577D01*
X183959073Y-66166918D01*
X184118848Y-66198700D01*
X184281752Y-66198700D01*
X184441527Y-66166918D01*
X184592031Y-66104577D01*
X184727481Y-66014072D01*
X184842672Y-65898881D01*
X184910550Y-65797295D01*
X188848500Y-69735245D01*
X188848500Y-69863052D01*
X188880282Y-70022827D01*
X188942623Y-70173331D01*
X189033128Y-70308781D01*
X189148319Y-70423972D01*
X189283769Y-70514477D01*
X189434273Y-70576818D01*
X189594048Y-70608600D01*
X189756952Y-70608600D01*
X189916727Y-70576818D01*
X190067231Y-70514477D01*
X190143100Y-70463783D01*
X190143101Y-78439246D01*
X190052728Y-78529619D01*
X190004674Y-78601537D01*
X189964772Y-78541819D01*
X189874400Y-78451447D01*
X189874400Y-75168108D01*
X189877070Y-75141000D01*
X189866412Y-75032789D01*
X189834848Y-74928737D01*
X189783591Y-74832842D01*
X189731892Y-74769846D01*
X189731891Y-74769845D01*
X189714611Y-74748789D01*
X189693554Y-74731508D01*
X185566045Y-70604000D01*
X187093447Y-70604000D01*
X187183819Y-70694372D01*
X187319269Y-70784877D01*
X187469773Y-70847218D01*
X187629548Y-70879000D01*
X187792452Y-70879000D01*
X187952227Y-70847218D01*
X188102731Y-70784877D01*
X188238181Y-70694372D01*
X188353372Y-70579181D01*
X188443877Y-70443731D01*
X188506218Y-70293227D01*
X188538000Y-70133452D01*
X188538000Y-69970548D01*
X188506218Y-69810773D01*
X188443877Y-69660269D01*
X188353372Y-69524819D01*
X188238181Y-69409628D01*
X188102731Y-69319123D01*
X187952227Y-69256782D01*
X187792452Y-69225000D01*
X187629548Y-69225000D01*
X187469773Y-69256782D01*
X187319269Y-69319123D01*
X187183819Y-69409628D01*
X187093447Y-69500000D01*
X185671246Y-69500000D01*
X180163700Y-63992456D01*
X180163700Y-63864648D01*
X180131918Y-63704873D01*
X180069577Y-63554369D01*
X179979072Y-63418919D01*
X179863881Y-63303728D01*
X179728431Y-63213223D01*
X179577927Y-63150882D01*
X179418152Y-63119100D01*
X179255248Y-63119100D01*
X179095473Y-63150882D01*
X178944969Y-63213223D01*
X178809519Y-63303728D01*
X178694328Y-63418919D01*
X178603823Y-63554369D01*
X178541482Y-63704873D01*
X178509700Y-63864648D01*
X178509700Y-64027552D01*
X178541482Y-64187327D01*
X178603823Y-64337831D01*
X178694328Y-64473281D01*
X178809519Y-64588472D01*
X178944969Y-64678977D01*
X179095473Y-64741318D01*
X179255248Y-64773100D01*
X179383056Y-64773100D01*
X180904177Y-66294221D01*
X180842369Y-66319823D01*
X180706919Y-66410328D01*
X180591728Y-66525519D01*
X180501223Y-66660969D01*
X180438882Y-66811473D01*
X180407100Y-66971248D01*
X180407100Y-67092454D01*
X178045900Y-64731256D01*
X178045900Y-60044853D01*
X178136272Y-59954481D01*
X178226777Y-59819031D01*
X178289118Y-59668527D01*
X178320900Y-59508752D01*
X178320900Y-59345848D01*
X178289118Y-59186073D01*
X178226777Y-59035569D01*
X178136272Y-58900119D01*
X178045900Y-58809747D01*
X178045900Y-55759344D01*
X178821445Y-54983800D01*
X178949252Y-54983800D01*
X179109027Y-54952018D01*
X179259531Y-54889677D01*
X179394981Y-54799172D01*
X179510172Y-54683981D01*
X179600677Y-54548531D01*
X179663018Y-54398027D01*
X179694800Y-54238252D01*
X179694800Y-54075348D01*
X179663018Y-53915573D01*
X179600677Y-53765069D01*
X179510172Y-53629619D01*
X179394981Y-53514428D01*
X179259531Y-53423923D01*
X179109027Y-53361582D01*
X178949252Y-53329800D01*
X178786348Y-53329800D01*
X178626573Y-53361582D01*
X178476069Y-53423923D01*
X178340619Y-53514428D01*
X178225428Y-53629619D01*
X178134923Y-53765069D01*
X178072582Y-53915573D01*
X178040800Y-54075348D01*
X178040800Y-54203155D01*
X177320600Y-54923356D01*
X177320600Y-36692853D01*
X177410972Y-36602481D01*
X177501477Y-36467031D01*
X177563818Y-36316527D01*
X177595600Y-36156752D01*
X177595600Y-35993848D01*
X177563818Y-35834073D01*
X177501477Y-35683569D01*
X177494215Y-35672700D01*
X177611870Y-35672700D01*
X177593600Y-35764548D01*
G36*
X171135500Y-41532346D02*
G01*
X171135501Y-47425193D01*
X171083327Y-47403582D01*
X170923552Y-47371800D01*
X170760648Y-47371800D01*
X170600873Y-47403582D01*
X170450369Y-47465923D01*
X170314919Y-47556428D01*
X170257700Y-47613647D01*
X170257700Y-43680842D01*
X170369427Y-43658618D01*
X170519931Y-43596277D01*
X170655381Y-43505772D01*
X170770572Y-43390581D01*
X170861077Y-43255131D01*
X170923418Y-43104627D01*
X170955200Y-42944852D01*
X170955200Y-42781948D01*
X170923418Y-42622173D01*
X170861077Y-42471669D01*
X170770572Y-42336219D01*
X170655381Y-42221028D01*
X170519931Y-42130523D01*
X170369427Y-42068182D01*
X170209652Y-42036400D01*
X170046748Y-42036400D01*
X169886973Y-42068182D01*
X169736469Y-42130523D01*
X169601019Y-42221028D01*
X169485828Y-42336219D01*
X169395323Y-42471669D01*
X169332982Y-42622173D01*
X169301200Y-42781948D01*
X169301200Y-42908663D01*
X169244509Y-42977742D01*
X169193252Y-43073638D01*
X169161688Y-43177690D01*
X169155511Y-43240410D01*
X169151030Y-43285900D01*
X169153700Y-43313006D01*
X169153701Y-57441954D01*
X161141757Y-65453899D01*
X161120689Y-65471189D01*
X161051709Y-65555242D01*
X161000452Y-65651138D01*
X160968888Y-65755190D01*
X160961235Y-65832891D01*
X160958230Y-65863400D01*
X160960900Y-65890506D01*
X160960901Y-66952146D01*
X160870528Y-67042519D01*
X160780023Y-67177969D01*
X160717682Y-67328473D01*
X160685900Y-67488248D01*
X160685900Y-67651152D01*
X160717682Y-67810927D01*
X160780023Y-67961431D01*
X160870528Y-68096881D01*
X160985719Y-68212072D01*
X161121169Y-68302577D01*
X161271673Y-68364918D01*
X161431448Y-68396700D01*
X161464554Y-68396700D01*
X155001254Y-74860002D01*
X154954711Y-74803289D01*
X154933654Y-74786008D01*
X153065944Y-72918300D01*
X163596946Y-62387300D01*
X163724752Y-62387300D01*
X163884527Y-62355518D01*
X164035031Y-62293177D01*
X164170481Y-62202672D01*
X164285672Y-62087481D01*
X164376177Y-61952031D01*
X164438518Y-61801527D01*
X164470300Y-61641752D01*
X164470300Y-61478848D01*
X164438518Y-61319073D01*
X164376177Y-61168569D01*
X164285672Y-61033119D01*
X164170481Y-60917928D01*
X164035031Y-60827423D01*
X163884527Y-60765082D01*
X163724752Y-60733300D01*
X163561848Y-60733300D01*
X163402073Y-60765082D01*
X163251569Y-60827423D01*
X163116119Y-60917928D01*
X163000928Y-61033119D01*
X162910423Y-61168569D01*
X162848082Y-61319073D01*
X162816300Y-61478848D01*
X162816300Y-61606654D01*
X161263700Y-63159254D01*
X161263700Y-36062144D01*
X162905245Y-34420600D01*
X163033052Y-34420600D01*
X163192827Y-34388818D01*
X163343331Y-34326477D01*
X163478781Y-34235972D01*
X163593972Y-34120781D01*
X163646029Y-34042873D01*
X171135500Y-41532346D01*
X171135500Y-41532346D01*
G37*
X171135500Y-41532346D02*
X171135501Y-47425193D01*
X171083327Y-47403582D01*
X170923552Y-47371800D01*
X170760648Y-47371800D01*
X170600873Y-47403582D01*
X170450369Y-47465923D01*
X170314919Y-47556428D01*
X170257700Y-47613647D01*
X170257700Y-43680842D01*
X170369427Y-43658618D01*
X170519931Y-43596277D01*
X170655381Y-43505772D01*
X170770572Y-43390581D01*
X170861077Y-43255131D01*
X170923418Y-43104627D01*
X170955200Y-42944852D01*
X170955200Y-42781948D01*
X170923418Y-42622173D01*
X170861077Y-42471669D01*
X170770572Y-42336219D01*
X170655381Y-42221028D01*
X170519931Y-42130523D01*
X170369427Y-42068182D01*
X170209652Y-42036400D01*
X170046748Y-42036400D01*
X169886973Y-42068182D01*
X169736469Y-42130523D01*
X169601019Y-42221028D01*
X169485828Y-42336219D01*
X169395323Y-42471669D01*
X169332982Y-42622173D01*
X169301200Y-42781948D01*
X169301200Y-42908663D01*
X169244509Y-42977742D01*
X169193252Y-43073638D01*
X169161688Y-43177690D01*
X169155511Y-43240410D01*
X169151030Y-43285900D01*
X169153700Y-43313006D01*
X169153701Y-57441954D01*
X161141757Y-65453899D01*
X161120689Y-65471189D01*
X161051709Y-65555242D01*
X161000452Y-65651138D01*
X160968888Y-65755190D01*
X160961235Y-65832891D01*
X160958230Y-65863400D01*
X160960900Y-65890506D01*
X160960901Y-66952146D01*
X160870528Y-67042519D01*
X160780023Y-67177969D01*
X160717682Y-67328473D01*
X160685900Y-67488248D01*
X160685900Y-67651152D01*
X160717682Y-67810927D01*
X160780023Y-67961431D01*
X160870528Y-68096881D01*
X160985719Y-68212072D01*
X161121169Y-68302577D01*
X161271673Y-68364918D01*
X161431448Y-68396700D01*
X161464554Y-68396700D01*
X155001254Y-74860002D01*
X154954711Y-74803289D01*
X154933654Y-74786008D01*
X153065944Y-72918300D01*
X163596946Y-62387300D01*
X163724752Y-62387300D01*
X163884527Y-62355518D01*
X164035031Y-62293177D01*
X164170481Y-62202672D01*
X164285672Y-62087481D01*
X164376177Y-61952031D01*
X164438518Y-61801527D01*
X164470300Y-61641752D01*
X164470300Y-61478848D01*
X164438518Y-61319073D01*
X164376177Y-61168569D01*
X164285672Y-61033119D01*
X164170481Y-60917928D01*
X164035031Y-60827423D01*
X163884527Y-60765082D01*
X163724752Y-60733300D01*
X163561848Y-60733300D01*
X163402073Y-60765082D01*
X163251569Y-60827423D01*
X163116119Y-60917928D01*
X163000928Y-61033119D01*
X162910423Y-61168569D01*
X162848082Y-61319073D01*
X162816300Y-61478848D01*
X162816300Y-61606654D01*
X161263700Y-63159254D01*
X161263700Y-36062144D01*
X162905245Y-34420600D01*
X163033052Y-34420600D01*
X163192827Y-34388818D01*
X163343331Y-34326477D01*
X163478781Y-34235972D01*
X163593972Y-34120781D01*
X163646029Y-34042873D01*
X171135500Y-41532346D01*
G36*
X137342600Y-65537694D02*
G01*
X137339930Y-65564800D01*
X137342600Y-65591906D01*
X137342600Y-65591908D01*
X137350588Y-65673010D01*
X137382152Y-65777062D01*
X137433409Y-65872958D01*
X137502389Y-65957011D01*
X137523456Y-65974300D01*
X138519401Y-66970247D01*
X138519400Y-71924920D01*
X138432719Y-71876275D01*
X138204024Y-71801742D01*
X138154628Y-71791918D01*
X137963000Y-71879986D01*
X137963000Y-72977000D01*
X137983000Y-72977000D01*
X137983000Y-73023000D01*
X137963000Y-73023000D01*
X137963000Y-73043000D01*
X137917000Y-73043000D01*
X137917000Y-73023000D01*
X137897000Y-73023000D01*
X137897000Y-72977000D01*
X137917000Y-72977000D01*
X137917000Y-71879986D01*
X137725372Y-71791918D01*
X137675976Y-71801742D01*
X137447281Y-71876275D01*
X137237521Y-71993992D01*
X137077400Y-72130995D01*
X137077400Y-61957797D01*
X137080069Y-61930699D01*
X137077400Y-61903601D01*
X137077400Y-61903591D01*
X137070698Y-61835545D01*
X137164983Y-61785149D01*
X137342601Y-61639381D01*
X137342600Y-65537694D01*
X137342600Y-65537694D01*
G37*
X137342600Y-65537694D02*
X137339930Y-65564800D01*
X137342600Y-65591906D01*
X137342600Y-65591908D01*
X137350588Y-65673010D01*
X137382152Y-65777062D01*
X137433409Y-65872958D01*
X137502389Y-65957011D01*
X137523456Y-65974300D01*
X138519401Y-66970247D01*
X138519400Y-71924920D01*
X138432719Y-71876275D01*
X138204024Y-71801742D01*
X138154628Y-71791918D01*
X137963000Y-71879986D01*
X137963000Y-72977000D01*
X137983000Y-72977000D01*
X137983000Y-73023000D01*
X137963000Y-73023000D01*
X137963000Y-73043000D01*
X137917000Y-73043000D01*
X137917000Y-73023000D01*
X137897000Y-73023000D01*
X137897000Y-72977000D01*
X137917000Y-72977000D01*
X137917000Y-71879986D01*
X137725372Y-71791918D01*
X137675976Y-71801742D01*
X137447281Y-71876275D01*
X137237521Y-71993992D01*
X137077400Y-72130995D01*
X137077400Y-61957797D01*
X137080069Y-61930699D01*
X137077400Y-61903601D01*
X137077400Y-61903591D01*
X137070698Y-61835545D01*
X137164983Y-61785149D01*
X137342601Y-61639381D01*
X137342600Y-65537694D01*
G36*
X145207500Y-51483990D02*
G01*
X145133988Y-51339397D01*
X144985243Y-51150369D01*
X144802479Y-50993992D01*
X144592719Y-50876275D01*
X144364024Y-50801742D01*
X144314628Y-50791918D01*
X144123000Y-50879986D01*
X144123000Y-51977000D01*
X144143000Y-51977000D01*
X144143000Y-52023000D01*
X144123000Y-52023000D01*
X144123000Y-53120014D01*
X144314628Y-53208082D01*
X144364024Y-53198258D01*
X144592719Y-53123725D01*
X144802479Y-53006008D01*
X144985243Y-52849631D01*
X145133988Y-52660603D01*
X145207500Y-52516010D01*
X145207500Y-54416455D01*
X143963309Y-53172264D01*
X144077000Y-53120014D01*
X144077000Y-52023000D01*
X144057000Y-52023000D01*
X144057000Y-51977000D01*
X144077000Y-51977000D01*
X144077000Y-50879986D01*
X143885372Y-50791918D01*
X143835976Y-50801742D01*
X143607281Y-50876275D01*
X143397521Y-50993992D01*
X143214757Y-51150369D01*
X143178257Y-51196754D01*
X143166491Y-51174742D01*
X143114792Y-51111746D01*
X143114791Y-51111745D01*
X143097511Y-51090689D01*
X143076454Y-51073408D01*
X141979065Y-49976021D01*
X141967777Y-49948769D01*
X141877272Y-49813319D01*
X141762081Y-49698128D01*
X141626631Y-49607623D01*
X141476127Y-49545282D01*
X141316352Y-49513500D01*
X141153448Y-49513500D01*
X140993673Y-49545282D01*
X140843169Y-49607623D01*
X140707719Y-49698128D01*
X140592528Y-49813319D01*
X140502023Y-49948769D01*
X140439682Y-50099273D01*
X140407900Y-50259048D01*
X140407900Y-50421952D01*
X140439682Y-50581727D01*
X140502023Y-50732231D01*
X140592528Y-50867681D01*
X140707719Y-50982872D01*
X140794549Y-51040890D01*
X140688183Y-51128183D01*
X140534851Y-51315017D01*
X140420916Y-51528176D01*
X140350755Y-51759466D01*
X140327064Y-52000000D01*
X140350755Y-52240534D01*
X140420916Y-52471824D01*
X140534851Y-52684983D01*
X140688183Y-52871817D01*
X140875017Y-53025149D01*
X141008001Y-53096230D01*
X141008001Y-53098185D01*
X141005330Y-53125300D01*
X141013763Y-53210911D01*
X141015989Y-53233511D01*
X141022778Y-53255891D01*
X141047552Y-53337562D01*
X141093510Y-53423543D01*
X141098810Y-53433458D01*
X141167790Y-53517511D01*
X141188852Y-53534796D01*
X142133301Y-54479247D01*
X142133300Y-59675156D01*
X142031824Y-59620916D01*
X141800534Y-59550755D01*
X141620268Y-59533000D01*
X141499732Y-59533000D01*
X141319466Y-59550755D01*
X141088176Y-59620916D01*
X140875017Y-59734851D01*
X140697300Y-59880701D01*
X140697300Y-54277709D01*
X140699970Y-54250600D01*
X140689312Y-54142389D01*
X140657748Y-54038337D01*
X140606491Y-53942442D01*
X140554792Y-53879446D01*
X140554791Y-53879445D01*
X140537511Y-53858389D01*
X140516454Y-53841108D01*
X139702057Y-53026713D01*
X139704983Y-53025149D01*
X139891817Y-52871817D01*
X140045149Y-52684983D01*
X140159084Y-52471824D01*
X140229245Y-52240534D01*
X140252936Y-52000000D01*
X140229245Y-51759466D01*
X140159084Y-51528176D01*
X140045149Y-51315017D01*
X139891817Y-51128183D01*
X139704983Y-50974851D01*
X139491824Y-50860916D01*
X139260534Y-50790755D01*
X139080268Y-50773000D01*
X138959732Y-50773000D01*
X138779466Y-50790755D01*
X138548176Y-50860916D01*
X138411400Y-50934024D01*
X138411400Y-44354544D01*
X144471155Y-38294791D01*
X144492211Y-38277511D01*
X144561191Y-38193458D01*
X144612448Y-38097563D01*
X144644012Y-37993511D01*
X144652000Y-37912409D01*
X144652000Y-37912407D01*
X144654670Y-37885301D01*
X144652000Y-37858195D01*
X144652000Y-37856229D01*
X144784983Y-37785149D01*
X144971817Y-37631817D01*
X145125149Y-37444983D01*
X145207500Y-37290914D01*
X145207500Y-51483990D01*
X145207500Y-51483990D01*
G37*
X145207500Y-51483990D02*
X145133988Y-51339397D01*
X144985243Y-51150369D01*
X144802479Y-50993992D01*
X144592719Y-50876275D01*
X144364024Y-50801742D01*
X144314628Y-50791918D01*
X144123000Y-50879986D01*
X144123000Y-51977000D01*
X144143000Y-51977000D01*
X144143000Y-52023000D01*
X144123000Y-52023000D01*
X144123000Y-53120014D01*
X144314628Y-53208082D01*
X144364024Y-53198258D01*
X144592719Y-53123725D01*
X144802479Y-53006008D01*
X144985243Y-52849631D01*
X145133988Y-52660603D01*
X145207500Y-52516010D01*
X145207500Y-54416455D01*
X143963309Y-53172264D01*
X144077000Y-53120014D01*
X144077000Y-52023000D01*
X144057000Y-52023000D01*
X144057000Y-51977000D01*
X144077000Y-51977000D01*
X144077000Y-50879986D01*
X143885372Y-50791918D01*
X143835976Y-50801742D01*
X143607281Y-50876275D01*
X143397521Y-50993992D01*
X143214757Y-51150369D01*
X143178257Y-51196754D01*
X143166491Y-51174742D01*
X143114792Y-51111746D01*
X143114791Y-51111745D01*
X143097511Y-51090689D01*
X143076454Y-51073408D01*
X141979065Y-49976021D01*
X141967777Y-49948769D01*
X141877272Y-49813319D01*
X141762081Y-49698128D01*
X141626631Y-49607623D01*
X141476127Y-49545282D01*
X141316352Y-49513500D01*
X141153448Y-49513500D01*
X140993673Y-49545282D01*
X140843169Y-49607623D01*
X140707719Y-49698128D01*
X140592528Y-49813319D01*
X140502023Y-49948769D01*
X140439682Y-50099273D01*
X140407900Y-50259048D01*
X140407900Y-50421952D01*
X140439682Y-50581727D01*
X140502023Y-50732231D01*
X140592528Y-50867681D01*
X140707719Y-50982872D01*
X140794549Y-51040890D01*
X140688183Y-51128183D01*
X140534851Y-51315017D01*
X140420916Y-51528176D01*
X140350755Y-51759466D01*
X140327064Y-52000000D01*
X140350755Y-52240534D01*
X140420916Y-52471824D01*
X140534851Y-52684983D01*
X140688183Y-52871817D01*
X140875017Y-53025149D01*
X141008001Y-53096230D01*
X141008001Y-53098185D01*
X141005330Y-53125300D01*
X141013763Y-53210911D01*
X141015989Y-53233511D01*
X141022778Y-53255891D01*
X141047552Y-53337562D01*
X141093510Y-53423543D01*
X141098810Y-53433458D01*
X141167790Y-53517511D01*
X141188852Y-53534796D01*
X142133301Y-54479247D01*
X142133300Y-59675156D01*
X142031824Y-59620916D01*
X141800534Y-59550755D01*
X141620268Y-59533000D01*
X141499732Y-59533000D01*
X141319466Y-59550755D01*
X141088176Y-59620916D01*
X140875017Y-59734851D01*
X140697300Y-59880701D01*
X140697300Y-54277709D01*
X140699970Y-54250600D01*
X140689312Y-54142389D01*
X140657748Y-54038337D01*
X140606491Y-53942442D01*
X140554792Y-53879446D01*
X140554791Y-53879445D01*
X140537511Y-53858389D01*
X140516454Y-53841108D01*
X139702057Y-53026713D01*
X139704983Y-53025149D01*
X139891817Y-52871817D01*
X140045149Y-52684983D01*
X140159084Y-52471824D01*
X140229245Y-52240534D01*
X140252936Y-52000000D01*
X140229245Y-51759466D01*
X140159084Y-51528176D01*
X140045149Y-51315017D01*
X139891817Y-51128183D01*
X139704983Y-50974851D01*
X139491824Y-50860916D01*
X139260534Y-50790755D01*
X139080268Y-50773000D01*
X138959732Y-50773000D01*
X138779466Y-50790755D01*
X138548176Y-50860916D01*
X138411400Y-50934024D01*
X138411400Y-44354544D01*
X144471155Y-38294791D01*
X144492211Y-38277511D01*
X144561191Y-38193458D01*
X144612448Y-38097563D01*
X144644012Y-37993511D01*
X144652000Y-37912409D01*
X144652000Y-37912407D01*
X144654670Y-37885301D01*
X144652000Y-37858195D01*
X144652000Y-37856229D01*
X144784983Y-37785149D01*
X144971817Y-37631817D01*
X145125149Y-37444983D01*
X145207500Y-37290914D01*
X145207500Y-51483990D01*
M02*
