M48
; DRILL file {KiCad (5.1.2-1)-1} date Thursday, 02 April 2020 at 23:09:30
; FORMAT={-:-/ absolute / metric / decimal}
; #@! TF.CreationDate,2020-04-02T23:09:30+01:00
; #@! TF.GenerationSoftware,Kicad,Pcbnew,(5.1.2-1)-1
; #@! TF.FileFunction,Plated,1,2,PTH
FMAT,2
METRIC
T1C0.400
T2C0.800
T3C1.000
%
G90
G05
T1
X104.5Y-56.518
X104.56Y-94.461
X104.681Y-70.157
X105.35Y-71.367
X106.069Y-43.063
X106.702Y-56.671
X106.751Y-70.54
X107.34Y-55.297
X107.926Y-86.534
X108.11Y-70.655
X109.724Y-63.95
X110.865Y-110.409
X116.482Y-88.53
X117.477Y-79.209
X119.38Y-79.367
X120.566Y-87.564
X121.556Y-86.406
X122.284Y-53.578
X122.51Y-101.503
X125.986Y-79.419
X128.252Y-86.839
X128.47Y-79.362
X133.762Y-102.012
X134.348Y-94.636
X136.625Y-101.69
X138.201Y-102.224
X140.965Y-98.332
X141.235Y-50.34
X141.491Y-106.807
X142.733Y-107.386
X144.371Y-79.401
X144.699Y-105.534
X145.593Y-82.417
X145.781Y-102.261
X145.986Y-87.603
X146.112Y-89.658
X146.382Y-80.88
X146.908Y-104.809
X147.135Y-62.632
X147.406Y-91.998
X147.941Y-101.492
X148.193Y-43.557
X148.254Y-62.616
X148.829Y-82.732
X149.898Y-83.041
X150.009Y-40.375
X150.302Y-97.435
X150.373Y-55.305
X151.022Y-71.82
X152.139Y-100.198
X152.194Y-71.802
X153.078Y-62.453
X153.211Y-99.935
X153.288Y-102.499
X153.642Y-78.689
X153.763Y-86.981
X153.837Y-84.629
X154.46Y-40.656
X155.575Y-40.425
X155.939Y-95.906
X156.861Y-80.499
X157.008Y-90.714
X157.089Y-83.649
X157.631Y-75.398
X158.249Y-93.805
X158.251Y-91.26
X158.701Y-74.965
X159.298Y-52.167
X159.701Y-74.789
X159.733Y-96.803
X160.097Y-84.855
X160.959Y-73.226
X161.513Y-67.57
X162.376Y-39.633
X162.377Y-51.317
X162.952Y-33.594
X163.638Y-69.355
X163.643Y-61.56
X163.651Y-70.673
X164.516Y-40.368
X164.842Y-67.412
X165.394Y-73.159
X166.93Y-70.498
X167.176Y-63.18
X167.22Y-65.307
X167.26Y-49.758
X167.384Y-66.962
X167.918Y-90.327
X168.097Y-81.391
X168.83Y-83.062
X170.012Y-99.871
X170.128Y-42.863
X170.199Y-105.078
X170.739Y-89.576
X170.842Y-48.199
X171.349Y-106.345
X171.404Y-100.602
X171.558Y-74.495
X171.688Y-53.056
X171.968Y-79.08
X172.573Y-45.085
X173.101Y-81.385
X173.479Y-79.057
X173.636Y-59.754
X173.771Y-53.356
X174.192Y-89.556
X174.871Y-35.863
X175.007Y-71.102
X175.043Y-44.778
X175.043Y-52.969
X175.364Y-89.561
X175.442Y-85.523
X175.444Y-68.175
X175.824Y-63.273
X176.265Y-96.242
X176.769Y-36.075
X176.864Y-100.089
X177.071Y-79.051
X177.243Y-86.269
X177.494Y-59.427
X177.772Y-92.003
X178.115Y-49.783
X178.214Y-68.676
X178.421Y-35.846
X178.868Y-54.157
X179.135Y-74.406
X179.337Y-63.946
X179.862Y-79.101
X180.17Y-51.28
X180.219Y-70.734
X180.86Y-77.475
X181.234Y-67.053
X183.266Y-78.119
X184.2Y-65.372
X184.361Y-54.681
X185.504Y-77.081
X186.767Y-57.413
X186.786Y-76.706
X186.984Y-85.728
X187.249Y-96.012
X187.711Y-70.052
X188.212Y-58.506
X189.322Y-79.069
X189.555Y-67.934
X189.641Y-59.892
X189.675Y-69.782
X190.695Y-63.214
X190.695Y-79.057
X191.472Y-68.064
X191.736Y-84.737
X191.736Y-91.452
X192.644Y-74.216
X192.644Y-79.056
X193.037Y-54.897
X193.087Y-63.105
X193.813Y-96.791
X194.675Y-67.879
X195.263Y-74.371
X199.263Y-129.286
T2
X110.0Y-57.76
X110.0Y-73.0
X112.54Y-57.76
X112.54Y-73.0
X115.08Y-57.76
X115.08Y-73.0
X117.62Y-57.76
X117.62Y-73.0
X120.16Y-57.76
X120.16Y-73.0
X122.7Y-57.76
X122.7Y-73.0
X125.24Y-57.76
X125.24Y-73.0
X127.78Y-57.76
X127.78Y-73.0
X130.32Y-57.76
X130.32Y-73.0
X132.86Y-57.76
X132.86Y-73.0
X135.4Y-57.76
X135.4Y-73.0
X137.94Y-57.76
X137.94Y-73.0
X106.0Y-108.76
X106.0Y-124.0
X108.54Y-108.76
X108.54Y-124.0
X111.08Y-108.76
X111.08Y-124.0
X113.62Y-108.76
X113.62Y-124.0
X116.16Y-108.76
X116.16Y-124.0
X118.7Y-108.76
X118.7Y-124.0
X121.24Y-108.76
X121.24Y-124.0
X123.78Y-108.76
X123.78Y-124.0
X126.32Y-108.76
X126.32Y-124.0
X128.86Y-108.76
X128.86Y-124.0
X131.4Y-108.76
X131.4Y-124.0
X133.94Y-108.76
X133.94Y-124.0
X136.48Y-108.76
X136.48Y-124.0
X139.02Y-108.76
X139.02Y-124.0
X141.56Y-108.76
X141.56Y-124.0
X144.1Y-108.76
X144.1Y-124.0
X106.0Y-36.76
X106.0Y-52.0
X108.54Y-36.76
X108.54Y-52.0
X111.08Y-36.76
X111.08Y-52.0
X113.62Y-36.76
X113.62Y-52.0
X116.16Y-36.76
X116.16Y-52.0
X118.7Y-36.76
X118.7Y-52.0
X121.24Y-36.76
X121.24Y-52.0
X123.78Y-36.76
X123.78Y-52.0
X126.32Y-36.76
X126.32Y-52.0
X128.86Y-36.76
X128.86Y-52.0
X131.4Y-36.76
X131.4Y-52.0
X133.94Y-36.76
X133.94Y-52.0
X136.48Y-36.76
X136.48Y-52.0
X139.02Y-36.76
X139.02Y-52.0
X141.56Y-36.76
X141.56Y-52.0
X144.1Y-36.76
X144.1Y-52.0
X106.0Y-60.76
X106.0Y-76.0
X108.54Y-60.76
X108.54Y-76.0
X111.08Y-60.76
X111.08Y-76.0
X113.62Y-60.76
X113.62Y-76.0
X116.16Y-60.76
X116.16Y-76.0
X118.7Y-60.76
X118.7Y-76.0
X121.24Y-60.76
X121.24Y-76.0
X123.78Y-60.76
X123.78Y-76.0
X126.32Y-60.76
X126.32Y-76.0
X128.86Y-60.76
X128.86Y-76.0
X131.4Y-60.76
X131.4Y-76.0
X133.94Y-60.76
X133.94Y-76.0
X136.48Y-60.76
X136.48Y-76.0
X139.02Y-60.76
X139.02Y-76.0
X141.56Y-60.76
X141.56Y-76.0
X144.1Y-60.76
X144.1Y-76.0
X106.0Y-84.76
X106.0Y-100.0
X108.54Y-84.76
X108.54Y-100.0
X111.08Y-84.76
X111.08Y-100.0
X113.62Y-84.76
X113.62Y-100.0
X116.16Y-84.76
X116.16Y-100.0
X118.7Y-84.76
X118.7Y-100.0
X121.24Y-84.76
X121.24Y-100.0
X123.78Y-84.76
X123.78Y-100.0
X126.32Y-84.76
X126.32Y-100.0
X128.86Y-84.76
X128.86Y-100.0
X131.4Y-84.76
X131.4Y-100.0
X133.94Y-84.76
X133.94Y-100.0
X136.48Y-84.76
X136.48Y-100.0
X139.02Y-84.76
X139.02Y-100.0
X141.56Y-84.76
X141.56Y-100.0
X144.1Y-84.76
X144.1Y-100.0
X110.0Y-80.76
X110.0Y-96.0
X112.54Y-80.76
X112.54Y-96.0
X115.08Y-80.76
X115.08Y-96.0
X117.62Y-80.76
X117.62Y-96.0
X120.16Y-80.76
X120.16Y-96.0
X122.7Y-80.76
X122.7Y-96.0
X125.24Y-80.76
X125.24Y-96.0
X127.78Y-80.76
X127.78Y-96.0
X130.32Y-80.76
X130.32Y-96.0
X132.86Y-80.76
X132.86Y-96.0
X135.4Y-80.76
X135.4Y-96.0
X137.94Y-80.76
X137.94Y-96.0
T3
X106.0Y-32.5
X108.54Y-32.5
X111.08Y-32.5
X138.0Y-32.5
X140.54Y-32.5
X143.08Y-32.5
X153.416Y-110.363
X153.416Y-112.903
X153.416Y-115.443
X153.416Y-117.983
X153.416Y-120.523
X153.416Y-123.063
X122.0Y-32.5
X124.54Y-32.5
X127.08Y-32.5
T0
M30
