G04 #@! TF.GenerationSoftware,KiCad,Pcbnew,(5.1.2-1)-1*
G04 #@! TF.CreationDate,2020-04-02T23:09:06+01:00*
G04 #@! TF.ProjectId,MZ80-ROMPG,4d5a3830-2d52-44f4-9d50-472e6b696361,rev?*
G04 #@! TF.SameCoordinates,Original*
G04 #@! TF.FileFunction,Other,User*
%FSLAX46Y46*%
G04 Gerber Fmt 4.6, Leading zero omitted, Abs format (unit mm)*
G04 Created by KiCad (PCBNEW (5.1.2-1)-1) date 2020-04-02 23:09:06*
%MOMM*%
%LPD*%
G04 APERTURE LIST*
%ADD10C,0.050000*%
G04 APERTURE END LIST*
D10*
X189108000Y-37594000D02*
X189108000Y-44194000D01*
X192908000Y-37594000D02*
X189108000Y-37594000D01*
X192908000Y-44194000D02*
X192908000Y-37594000D01*
X189108000Y-44194000D02*
X192908000Y-44194000D01*
X179766000Y-58238000D02*
X177866000Y-58238000D01*
X177866000Y-58238000D02*
X177866000Y-54538000D01*
X177866000Y-54538000D02*
X179766000Y-54538000D01*
X179766000Y-54538000D02*
X179766000Y-58238000D01*
X150350000Y-59570000D02*
X150350000Y-71430000D01*
X163650000Y-59570000D02*
X150350000Y-59570000D01*
X163650000Y-71430000D02*
X163650000Y-59570000D01*
X150350000Y-71430000D02*
X163650000Y-71430000D01*
X150350000Y-44070000D02*
X150350000Y-55930000D01*
X163650000Y-44070000D02*
X150350000Y-44070000D01*
X163650000Y-55930000D02*
X163650000Y-44070000D01*
X150350000Y-55930000D02*
X163650000Y-55930000D01*
X150350000Y-87870000D02*
X150350000Y-99730000D01*
X163650000Y-87870000D02*
X150350000Y-87870000D01*
X163650000Y-99730000D02*
X163650000Y-87870000D01*
X150350000Y-99730000D02*
X163650000Y-99730000D01*
X169800000Y-32800000D02*
X169800000Y-40200000D01*
X180200000Y-32800000D02*
X169800000Y-32800000D01*
X180200000Y-40200000D02*
X180200000Y-32800000D01*
X169800000Y-40200000D02*
X180200000Y-40200000D01*
X148275000Y-81352000D02*
X148275000Y-77652000D01*
X150175000Y-81352000D02*
X148275000Y-81352000D01*
X150175000Y-77652000D02*
X150175000Y-81352000D01*
X148275000Y-77652000D02*
X150175000Y-77652000D01*
X172105000Y-58038000D02*
X172105000Y-54738000D01*
X172105000Y-58038000D02*
X174605000Y-58038000D01*
X174605000Y-54738000D02*
X172105000Y-54738000D01*
X174605000Y-54738000D02*
X174605000Y-58038000D01*
X169920000Y-92300000D02*
X169920000Y-99700000D01*
X179080000Y-92300000D02*
X169920000Y-92300000D01*
X179080000Y-99700000D02*
X179080000Y-92300000D01*
X169920000Y-99700000D02*
X179080000Y-99700000D01*
X177058000Y-103631000D02*
X177058000Y-100331000D01*
X177058000Y-103631000D02*
X179558000Y-103631000D01*
X179558000Y-100331000D02*
X177058000Y-100331000D01*
X179558000Y-100331000D02*
X179558000Y-103631000D01*
X172994000Y-103631000D02*
X172994000Y-100331000D01*
X172994000Y-103631000D02*
X175494000Y-103631000D01*
X175494000Y-100331000D02*
X172994000Y-100331000D01*
X175494000Y-100331000D02*
X175494000Y-103631000D01*
X168803000Y-103631000D02*
X168803000Y-100331000D01*
X168803000Y-103631000D02*
X171303000Y-103631000D01*
X171303000Y-100331000D02*
X168803000Y-100331000D01*
X171303000Y-100331000D02*
X171303000Y-103631000D01*
X151666000Y-108613000D02*
X151666000Y-124863000D01*
X163966000Y-108613000D02*
X151666000Y-108613000D01*
X163966000Y-124863000D02*
X163966000Y-108613000D01*
X151666000Y-124863000D02*
X163966000Y-124863000D01*
X104400000Y-35200000D02*
X104400000Y-53550000D01*
X145700000Y-35200000D02*
X104400000Y-35200000D01*
X145700000Y-53550000D02*
X145700000Y-35200000D01*
X104400000Y-53550000D02*
X145700000Y-53550000D01*
X104400000Y-59200000D02*
X104400000Y-77550000D01*
X145700000Y-59200000D02*
X104400000Y-59200000D01*
X145700000Y-77550000D02*
X145700000Y-59200000D01*
X104400000Y-77550000D02*
X145700000Y-77550000D01*
X104400000Y-83200000D02*
X104400000Y-101550000D01*
X145700000Y-83200000D02*
X104400000Y-83200000D01*
X145700000Y-101550000D02*
X145700000Y-83200000D01*
X104400000Y-101550000D02*
X145700000Y-101550000D01*
X108400000Y-56200000D02*
X108400000Y-74550000D01*
X139550000Y-56200000D02*
X108400000Y-56200000D01*
X139550000Y-74550000D02*
X139550000Y-56200000D01*
X108400000Y-74550000D02*
X139550000Y-74550000D01*
X108400000Y-79200000D02*
X108400000Y-97550000D01*
X139550000Y-79200000D02*
X108400000Y-79200000D01*
X139550000Y-97550000D02*
X139550000Y-79200000D01*
X108400000Y-97550000D02*
X139550000Y-97550000D01*
X104400000Y-107200000D02*
X104400000Y-125550000D01*
X145700000Y-107200000D02*
X104400000Y-107200000D01*
X145700000Y-125550000D02*
X145700000Y-107200000D01*
X104400000Y-125550000D02*
X145700000Y-125550000D01*
X184724000Y-86940000D02*
X184724000Y-83240000D01*
X186624000Y-86940000D02*
X184724000Y-86940000D01*
X186624000Y-83240000D02*
X186624000Y-86940000D01*
X184724000Y-83240000D02*
X186624000Y-83240000D01*
X169800000Y-71300000D02*
X169800000Y-78700000D01*
X180200000Y-71300000D02*
X169800000Y-71300000D01*
X180200000Y-78700000D02*
X180200000Y-71300000D01*
X169800000Y-78700000D02*
X180200000Y-78700000D01*
X186920000Y-89200000D02*
X196080000Y-89200000D01*
X196080000Y-89200000D02*
X196080000Y-81800000D01*
X196080000Y-81800000D02*
X186920000Y-81800000D01*
X186920000Y-81800000D02*
X186920000Y-89200000D01*
X186800000Y-99700000D02*
X197200000Y-99700000D01*
X197200000Y-99700000D02*
X197200000Y-92300000D01*
X197200000Y-92300000D02*
X186800000Y-92300000D01*
X186800000Y-92300000D02*
X186800000Y-99700000D01*
X169800000Y-81800000D02*
X169800000Y-89200000D01*
X180200000Y-81800000D02*
X169800000Y-81800000D01*
X180200000Y-89200000D02*
X180200000Y-81800000D01*
X169800000Y-89200000D02*
X180200000Y-89200000D01*
X150400000Y-32800000D02*
X150400000Y-40200000D01*
X160800000Y-32800000D02*
X150400000Y-32800000D01*
X160800000Y-40200000D02*
X160800000Y-32800000D01*
X150400000Y-40200000D02*
X160800000Y-40200000D01*
X169800000Y-60300000D02*
X169800000Y-67700000D01*
X180200000Y-60300000D02*
X169800000Y-60300000D01*
X180200000Y-67700000D02*
X180200000Y-60300000D01*
X169800000Y-67700000D02*
X180200000Y-67700000D01*
X186920000Y-71300000D02*
X186920000Y-78700000D01*
X196080000Y-71300000D02*
X186920000Y-71300000D01*
X196080000Y-78700000D02*
X196080000Y-71300000D01*
X186920000Y-78700000D02*
X196080000Y-78700000D01*
X186920000Y-60300000D02*
X186920000Y-67700000D01*
X196080000Y-60300000D02*
X186920000Y-60300000D01*
X196080000Y-67700000D02*
X196080000Y-60300000D01*
X186920000Y-67700000D02*
X196080000Y-67700000D01*
X186920000Y-50300000D02*
X186920000Y-57700000D01*
X196080000Y-50300000D02*
X186920000Y-50300000D01*
X196080000Y-57700000D02*
X196080000Y-50300000D01*
X186920000Y-57700000D02*
X196080000Y-57700000D01*
X169920000Y-45300000D02*
X169920000Y-52700000D01*
X179080000Y-45300000D02*
X169920000Y-45300000D01*
X179080000Y-52700000D02*
X179080000Y-45300000D01*
X169920000Y-52700000D02*
X179080000Y-52700000D01*
X150420000Y-83200000D02*
X159580000Y-83200000D01*
X159580000Y-83200000D02*
X159580000Y-75800000D01*
X159580000Y-75800000D02*
X150420000Y-75800000D01*
X150420000Y-75800000D02*
X150420000Y-83200000D01*
X149950000Y-123150000D02*
X149950000Y-126850000D01*
X148050000Y-123150000D02*
X149950000Y-123150000D01*
X148050000Y-126850000D02*
X148050000Y-123150000D01*
X149950000Y-126850000D02*
X148050000Y-126850000D01*
X149950000Y-119150000D02*
X149950000Y-122850000D01*
X148050000Y-119150000D02*
X149950000Y-119150000D01*
X148050000Y-122850000D02*
X148050000Y-119150000D01*
X149950000Y-122850000D02*
X148050000Y-122850000D01*
X149950000Y-115150000D02*
X149950000Y-118850000D01*
X148050000Y-115150000D02*
X149950000Y-115150000D01*
X148050000Y-118850000D02*
X148050000Y-115150000D01*
X149950000Y-118850000D02*
X148050000Y-118850000D01*
X185359000Y-45919000D02*
X185359000Y-42219000D01*
X187259000Y-45919000D02*
X185359000Y-45919000D01*
X187259000Y-42219000D02*
X187259000Y-45919000D01*
X185359000Y-42219000D02*
X187259000Y-42219000D01*
X191958000Y-45140000D02*
X191958000Y-48840000D01*
X190058000Y-45140000D02*
X191958000Y-45140000D01*
X190058000Y-48840000D02*
X190058000Y-45140000D01*
X191958000Y-48840000D02*
X190058000Y-48840000D01*
X196657000Y-42337000D02*
X196657000Y-46037000D01*
X194757000Y-42337000D02*
X196657000Y-42337000D01*
X194757000Y-46037000D02*
X194757000Y-42337000D01*
X196657000Y-46037000D02*
X194757000Y-46037000D01*
X194757000Y-41347000D02*
X194757000Y-37647000D01*
X196657000Y-41347000D02*
X194757000Y-41347000D01*
X196657000Y-37647000D02*
X196657000Y-41347000D01*
X194757000Y-37647000D02*
X196657000Y-37647000D01*
X167579000Y-54538000D02*
X169479000Y-54538000D01*
X169479000Y-54538000D02*
X169479000Y-58238000D01*
X169479000Y-58238000D02*
X167579000Y-58238000D01*
X167579000Y-58238000D02*
X167579000Y-54538000D01*
X154158000Y-102602000D02*
X154158000Y-107202000D01*
X154158000Y-102602000D02*
X151658000Y-102602000D01*
X151658000Y-107202000D02*
X154158000Y-107202000D01*
X151658000Y-107202000D02*
X151658000Y-102602000D01*
X136200000Y-30700000D02*
X136200000Y-34300000D01*
X144850000Y-30700000D02*
X136200000Y-30700000D01*
X144850000Y-34300000D02*
X144850000Y-30700000D01*
X136200000Y-34300000D02*
X144850000Y-34300000D01*
X104200000Y-30700000D02*
X104200000Y-34300000D01*
X112850000Y-30700000D02*
X104200000Y-30700000D01*
X112850000Y-34300000D02*
X112850000Y-30700000D01*
X104200000Y-34300000D02*
X112850000Y-34300000D01*
X120200000Y-30700000D02*
X120200000Y-34300000D01*
X128850000Y-30700000D02*
X120200000Y-30700000D01*
X128850000Y-34300000D02*
X128850000Y-30700000D01*
X120200000Y-34300000D02*
X128850000Y-34300000D01*
X150120000Y-109550000D02*
X150120000Y-114450000D01*
X147880000Y-109550000D02*
X150120000Y-109550000D01*
X147880000Y-114450000D02*
X147880000Y-109550000D01*
X150120000Y-114450000D02*
X147880000Y-114450000D01*
X148050000Y-108850000D02*
X148050000Y-105150000D01*
X149950000Y-108850000D02*
X148050000Y-108850000D01*
X149950000Y-105150000D02*
X149950000Y-108850000D01*
X148050000Y-105150000D02*
X149950000Y-105150000D01*
X167579000Y-76780000D02*
X167579000Y-73080000D01*
X169479000Y-76780000D02*
X167579000Y-76780000D01*
X169479000Y-73080000D02*
X169479000Y-76780000D01*
X167579000Y-73080000D02*
X169479000Y-73080000D01*
X167579000Y-87321000D02*
X167579000Y-83621000D01*
X169479000Y-87321000D02*
X167579000Y-87321000D01*
X169479000Y-83621000D02*
X169479000Y-87321000D01*
X167579000Y-83621000D02*
X169479000Y-83621000D01*
X184597000Y-97735000D02*
X184597000Y-94035000D01*
X186497000Y-97735000D02*
X184597000Y-97735000D01*
X186497000Y-94035000D02*
X186497000Y-97735000D01*
X184597000Y-94035000D02*
X186497000Y-94035000D01*
X167579000Y-38299000D02*
X167579000Y-34599000D01*
X169479000Y-38299000D02*
X167579000Y-38299000D01*
X169479000Y-34599000D02*
X169479000Y-38299000D01*
X167579000Y-34599000D02*
X169479000Y-34599000D01*
X187259000Y-37647000D02*
X187259000Y-41347000D01*
X185359000Y-37647000D02*
X187259000Y-37647000D01*
X185359000Y-41347000D02*
X185359000Y-37647000D01*
X187259000Y-41347000D02*
X185359000Y-41347000D01*
X167579000Y-65985000D02*
X167579000Y-62285000D01*
X169479000Y-65985000D02*
X167579000Y-65985000D01*
X169479000Y-62285000D02*
X169479000Y-65985000D01*
X167579000Y-62285000D02*
X169479000Y-62285000D01*
X167706000Y-97989000D02*
X167706000Y-94289000D01*
X169606000Y-97989000D02*
X167706000Y-97989000D01*
X169606000Y-94289000D02*
X169606000Y-97989000D01*
X167706000Y-94289000D02*
X169606000Y-94289000D01*
X184724000Y-76653000D02*
X184724000Y-72953000D01*
X186624000Y-76653000D02*
X184724000Y-76653000D01*
X186624000Y-72953000D02*
X186624000Y-76653000D01*
X184724000Y-72953000D02*
X186624000Y-72953000D01*
X184724000Y-65858000D02*
X184724000Y-62158000D01*
X186624000Y-65858000D02*
X184724000Y-65858000D01*
X186624000Y-62158000D02*
X186624000Y-65858000D01*
X184724000Y-62158000D02*
X186624000Y-62158000D01*
X167706000Y-50745000D02*
X167706000Y-47045000D01*
X169606000Y-50745000D02*
X167706000Y-50745000D01*
X169606000Y-47045000D02*
X169606000Y-50745000D01*
X167706000Y-47045000D02*
X169606000Y-47045000D01*
X148148000Y-38299000D02*
X148148000Y-34599000D01*
X150048000Y-38299000D02*
X148148000Y-38299000D01*
X150048000Y-34599000D02*
X150048000Y-38299000D01*
X148148000Y-34599000D02*
X150048000Y-34599000D01*
X148148000Y-67382000D02*
X148148000Y-63682000D01*
X150048000Y-67382000D02*
X148148000Y-67382000D01*
X150048000Y-63682000D02*
X150048000Y-67382000D01*
X148148000Y-63682000D02*
X150048000Y-63682000D01*
X148021000Y-51888000D02*
X148021000Y-48188000D01*
X149921000Y-51888000D02*
X148021000Y-51888000D01*
X149921000Y-48188000D02*
X149921000Y-51888000D01*
X148021000Y-48188000D02*
X149921000Y-48188000D01*
X148148000Y-95576000D02*
X148148000Y-91876000D01*
X150048000Y-95576000D02*
X148148000Y-95576000D01*
X150048000Y-91876000D02*
X150048000Y-95576000D01*
X148148000Y-91876000D02*
X150048000Y-91876000D01*
X184724000Y-55825000D02*
X184724000Y-52125000D01*
X186624000Y-55825000D02*
X184724000Y-55825000D01*
X186624000Y-52125000D02*
X186624000Y-55825000D01*
X184724000Y-52125000D02*
X186624000Y-52125000D01*
X101793000Y-46046000D02*
X101793000Y-42346000D01*
X103693000Y-46046000D02*
X101793000Y-46046000D01*
X103693000Y-42346000D02*
X103693000Y-46046000D01*
X101793000Y-42346000D02*
X103693000Y-42346000D01*
X101666000Y-70049000D02*
X101666000Y-66349000D01*
X103566000Y-70049000D02*
X101666000Y-70049000D01*
X103566000Y-66349000D02*
X103566000Y-70049000D01*
X101666000Y-66349000D02*
X103566000Y-66349000D01*
X101666000Y-94433000D02*
X101666000Y-90733000D01*
X103566000Y-94433000D02*
X101666000Y-94433000D01*
X103566000Y-90733000D02*
X103566000Y-94433000D01*
X101666000Y-90733000D02*
X103566000Y-90733000D01*
X101920000Y-118563000D02*
X101920000Y-114863000D01*
X103820000Y-118563000D02*
X101920000Y-118563000D01*
X103820000Y-114863000D02*
X103820000Y-118563000D01*
X101920000Y-114863000D02*
X103820000Y-114863000D01*
M02*
