G04 #@! TF.GenerationSoftware,KiCad,Pcbnew,(5.1.2-1)-1*
G04 #@! TF.CreationDate,2020-04-02T23:09:06+01:00*
G04 #@! TF.ProjectId,MZ80-ROMPG,4d5a3830-2d52-44f4-9d50-472e6b696361,rev?*
G04 #@! TF.SameCoordinates,Original*
G04 #@! TF.FileFunction,Legend,Bot*
G04 #@! TF.FilePolarity,Positive*
%FSLAX46Y46*%
G04 Gerber Fmt 4.6, Leading zero omitted, Abs format (unit mm)*
G04 Created by KiCad (PCBNEW (5.1.2-1)-1) date 2020-04-02 23:09:06*
%MOMM*%
%LPD*%
G04 APERTURE LIST*
%ADD10C,0.120000*%
%ADD11C,0.300000*%
G04 APERTURE END LIST*
D10*
X139319000Y-56515000D02*
X108585000Y-56515000D01*
X139319000Y-74295000D02*
X139319000Y-56515000D01*
X108585000Y-74295000D02*
X139319000Y-74295000D01*
X108585000Y-56515000D02*
X108585000Y-74295000D01*
X139319000Y-79502000D02*
X108585000Y-79502000D01*
X139319000Y-97282000D02*
X139319000Y-79502000D01*
X108585000Y-97282000D02*
X139319000Y-97282000D01*
X108585000Y-79502000D02*
X108585000Y-97282000D01*
D11*
X135305142Y-89769000D02*
X135376571Y-89697571D01*
X135519428Y-89483285D01*
X135590857Y-89340428D01*
X135662285Y-89126142D01*
X135733714Y-88769000D01*
X135733714Y-88483285D01*
X135662285Y-88126142D01*
X135590857Y-87911857D01*
X135519428Y-87769000D01*
X135376571Y-87554714D01*
X135305142Y-87483285D01*
X134733714Y-89197571D02*
X134733714Y-87697571D01*
X134233714Y-88769000D01*
X133733714Y-87697571D01*
X133733714Y-89197571D01*
X132805142Y-89197571D02*
X132948000Y-89126142D01*
X133019428Y-89054714D01*
X133090857Y-88911857D01*
X133090857Y-88483285D01*
X133019428Y-88340428D01*
X132948000Y-88269000D01*
X132805142Y-88197571D01*
X132590857Y-88197571D01*
X132448000Y-88269000D01*
X132376571Y-88340428D01*
X132305142Y-88483285D01*
X132305142Y-88911857D01*
X132376571Y-89054714D01*
X132448000Y-89126142D01*
X132590857Y-89197571D01*
X132805142Y-89197571D01*
X131662285Y-88197571D02*
X131662285Y-89197571D01*
X131662285Y-88340428D02*
X131590857Y-88269000D01*
X131448000Y-88197571D01*
X131233714Y-88197571D01*
X131090857Y-88269000D01*
X131019428Y-88411857D01*
X131019428Y-89197571D01*
X130305142Y-89197571D02*
X130305142Y-88197571D01*
X130305142Y-87697571D02*
X130376571Y-87769000D01*
X130305142Y-87840428D01*
X130233714Y-87769000D01*
X130305142Y-87697571D01*
X130305142Y-87840428D01*
X129805142Y-88197571D02*
X129233714Y-88197571D01*
X129590857Y-87697571D02*
X129590857Y-88983285D01*
X129519428Y-89126142D01*
X129376571Y-89197571D01*
X129233714Y-89197571D01*
X128519428Y-89197571D02*
X128662285Y-89126142D01*
X128733714Y-89054714D01*
X128805142Y-88911857D01*
X128805142Y-88483285D01*
X128733714Y-88340428D01*
X128662285Y-88269000D01*
X128519428Y-88197571D01*
X128305142Y-88197571D01*
X128162285Y-88269000D01*
X128090857Y-88340428D01*
X128019428Y-88483285D01*
X128019428Y-88911857D01*
X128090857Y-89054714D01*
X128162285Y-89126142D01*
X128305142Y-89197571D01*
X128519428Y-89197571D01*
X127376571Y-89197571D02*
X127376571Y-88197571D01*
X127376571Y-88483285D02*
X127305142Y-88340428D01*
X127233714Y-88269000D01*
X127090857Y-88197571D01*
X126948000Y-88197571D01*
X124448000Y-89197571D02*
X124948000Y-88483285D01*
X125305142Y-89197571D02*
X125305142Y-87697571D01*
X124733714Y-87697571D01*
X124590857Y-87769000D01*
X124519428Y-87840428D01*
X124448000Y-87983285D01*
X124448000Y-88197571D01*
X124519428Y-88340428D01*
X124590857Y-88411857D01*
X124733714Y-88483285D01*
X125305142Y-88483285D01*
X123519428Y-87697571D02*
X123233714Y-87697571D01*
X123090857Y-87769000D01*
X122948000Y-87911857D01*
X122876571Y-88197571D01*
X122876571Y-88697571D01*
X122948000Y-88983285D01*
X123090857Y-89126142D01*
X123233714Y-89197571D01*
X123519428Y-89197571D01*
X123662285Y-89126142D01*
X123805142Y-88983285D01*
X123876571Y-88697571D01*
X123876571Y-88197571D01*
X123805142Y-87911857D01*
X123662285Y-87769000D01*
X123519428Y-87697571D01*
X122233714Y-89197571D02*
X122233714Y-87697571D01*
X121733714Y-88769000D01*
X121233714Y-87697571D01*
X121233714Y-89197571D01*
X119448000Y-89126142D02*
X119233714Y-89197571D01*
X118876571Y-89197571D01*
X118733714Y-89126142D01*
X118662285Y-89054714D01*
X118590857Y-88911857D01*
X118590857Y-88769000D01*
X118662285Y-88626142D01*
X118733714Y-88554714D01*
X118876571Y-88483285D01*
X119162285Y-88411857D01*
X119305142Y-88340428D01*
X119376571Y-88269000D01*
X119448000Y-88126142D01*
X119448000Y-87983285D01*
X119376571Y-87840428D01*
X119305142Y-87769000D01*
X119162285Y-87697571D01*
X118805142Y-87697571D01*
X118590857Y-87769000D01*
X117733714Y-89197571D02*
X117876571Y-89126142D01*
X117948000Y-89054714D01*
X118019428Y-88911857D01*
X118019428Y-88483285D01*
X117948000Y-88340428D01*
X117876571Y-88269000D01*
X117733714Y-88197571D01*
X117519428Y-88197571D01*
X117376571Y-88269000D01*
X117305142Y-88340428D01*
X117233714Y-88483285D01*
X117233714Y-88911857D01*
X117305142Y-89054714D01*
X117376571Y-89126142D01*
X117519428Y-89197571D01*
X117733714Y-89197571D01*
X115948000Y-89126142D02*
X116090857Y-89197571D01*
X116376571Y-89197571D01*
X116519428Y-89126142D01*
X116590857Y-89054714D01*
X116662285Y-88911857D01*
X116662285Y-88483285D01*
X116590857Y-88340428D01*
X116519428Y-88269000D01*
X116376571Y-88197571D01*
X116090857Y-88197571D01*
X115948000Y-88269000D01*
X115305142Y-89197571D02*
X115305142Y-87697571D01*
X115162285Y-88626142D02*
X114733714Y-89197571D01*
X114733714Y-88197571D02*
X115305142Y-88769000D01*
X113519428Y-89126142D02*
X113662285Y-89197571D01*
X113948000Y-89197571D01*
X114090857Y-89126142D01*
X114162285Y-88983285D01*
X114162285Y-88411857D01*
X114090857Y-88269000D01*
X113948000Y-88197571D01*
X113662285Y-88197571D01*
X113519428Y-88269000D01*
X113448000Y-88411857D01*
X113448000Y-88554714D01*
X114162285Y-88697571D01*
X113019428Y-88197571D02*
X112448000Y-88197571D01*
X112805142Y-87697571D02*
X112805142Y-88983285D01*
X112733714Y-89126142D01*
X112590857Y-89197571D01*
X112448000Y-89197571D01*
X112090857Y-89769000D02*
X112019428Y-89697571D01*
X111876571Y-89483285D01*
X111805142Y-89340428D01*
X111733714Y-89126142D01*
X111662285Y-88769000D01*
X111662285Y-88483285D01*
X111733714Y-88126142D01*
X111805142Y-87911857D01*
X111876571Y-87769000D01*
X112019428Y-87554714D01*
X112090857Y-87483285D01*
X132773285Y-66401000D02*
X132844714Y-66329571D01*
X132987571Y-66115285D01*
X133059000Y-65972428D01*
X133130428Y-65758142D01*
X133201857Y-65401000D01*
X133201857Y-65115285D01*
X133130428Y-64758142D01*
X133059000Y-64543857D01*
X132987571Y-64401000D01*
X132844714Y-64186714D01*
X132773285Y-64115285D01*
X132201857Y-64329571D02*
X132201857Y-65543857D01*
X132130428Y-65686714D01*
X132059000Y-65758142D01*
X131916142Y-65829571D01*
X131630428Y-65829571D01*
X131487571Y-65758142D01*
X131416142Y-65686714D01*
X131344714Y-65543857D01*
X131344714Y-64329571D01*
X130701857Y-65758142D02*
X130559000Y-65829571D01*
X130273285Y-65829571D01*
X130130428Y-65758142D01*
X130059000Y-65615285D01*
X130059000Y-65543857D01*
X130130428Y-65401000D01*
X130273285Y-65329571D01*
X130487571Y-65329571D01*
X130630428Y-65258142D01*
X130701857Y-65115285D01*
X130701857Y-65043857D01*
X130630428Y-64901000D01*
X130487571Y-64829571D01*
X130273285Y-64829571D01*
X130130428Y-64901000D01*
X128844714Y-65758142D02*
X128987571Y-65829571D01*
X129273285Y-65829571D01*
X129416142Y-65758142D01*
X129487571Y-65615285D01*
X129487571Y-65043857D01*
X129416142Y-64901000D01*
X129273285Y-64829571D01*
X128987571Y-64829571D01*
X128844714Y-64901000D01*
X128773285Y-65043857D01*
X128773285Y-65186714D01*
X129487571Y-65329571D01*
X128130428Y-65829571D02*
X128130428Y-64829571D01*
X128130428Y-65115285D02*
X128059000Y-64972428D01*
X127987571Y-64901000D01*
X127844714Y-64829571D01*
X127701857Y-64829571D01*
X125201857Y-65829571D02*
X125701857Y-65115285D01*
X126059000Y-65829571D02*
X126059000Y-64329571D01*
X125487571Y-64329571D01*
X125344714Y-64401000D01*
X125273285Y-64472428D01*
X125201857Y-64615285D01*
X125201857Y-64829571D01*
X125273285Y-64972428D01*
X125344714Y-65043857D01*
X125487571Y-65115285D01*
X126059000Y-65115285D01*
X124273285Y-64329571D02*
X123987571Y-64329571D01*
X123844714Y-64401000D01*
X123701857Y-64543857D01*
X123630428Y-64829571D01*
X123630428Y-65329571D01*
X123701857Y-65615285D01*
X123844714Y-65758142D01*
X123987571Y-65829571D01*
X124273285Y-65829571D01*
X124416142Y-65758142D01*
X124559000Y-65615285D01*
X124630428Y-65329571D01*
X124630428Y-64829571D01*
X124559000Y-64543857D01*
X124416142Y-64401000D01*
X124273285Y-64329571D01*
X122987571Y-65829571D02*
X122987571Y-64329571D01*
X122487571Y-65401000D01*
X121987571Y-64329571D01*
X121987571Y-65829571D01*
X120201857Y-65758142D02*
X119987571Y-65829571D01*
X119630428Y-65829571D01*
X119487571Y-65758142D01*
X119416142Y-65686714D01*
X119344714Y-65543857D01*
X119344714Y-65401000D01*
X119416142Y-65258142D01*
X119487571Y-65186714D01*
X119630428Y-65115285D01*
X119916142Y-65043857D01*
X120059000Y-64972428D01*
X120130428Y-64901000D01*
X120201857Y-64758142D01*
X120201857Y-64615285D01*
X120130428Y-64472428D01*
X120059000Y-64401000D01*
X119916142Y-64329571D01*
X119559000Y-64329571D01*
X119344714Y-64401000D01*
X118487571Y-65829571D02*
X118630428Y-65758142D01*
X118701857Y-65686714D01*
X118773285Y-65543857D01*
X118773285Y-65115285D01*
X118701857Y-64972428D01*
X118630428Y-64901000D01*
X118487571Y-64829571D01*
X118273285Y-64829571D01*
X118130428Y-64901000D01*
X118059000Y-64972428D01*
X117987571Y-65115285D01*
X117987571Y-65543857D01*
X118059000Y-65686714D01*
X118130428Y-65758142D01*
X118273285Y-65829571D01*
X118487571Y-65829571D01*
X116701857Y-65758142D02*
X116844714Y-65829571D01*
X117130428Y-65829571D01*
X117273285Y-65758142D01*
X117344714Y-65686714D01*
X117416142Y-65543857D01*
X117416142Y-65115285D01*
X117344714Y-64972428D01*
X117273285Y-64901000D01*
X117130428Y-64829571D01*
X116844714Y-64829571D01*
X116701857Y-64901000D01*
X116059000Y-65829571D02*
X116059000Y-64329571D01*
X115916142Y-65258142D02*
X115487571Y-65829571D01*
X115487571Y-64829571D02*
X116059000Y-65401000D01*
X114273285Y-65758142D02*
X114416142Y-65829571D01*
X114701857Y-65829571D01*
X114844714Y-65758142D01*
X114916142Y-65615285D01*
X114916142Y-65043857D01*
X114844714Y-64901000D01*
X114701857Y-64829571D01*
X114416142Y-64829571D01*
X114273285Y-64901000D01*
X114201857Y-65043857D01*
X114201857Y-65186714D01*
X114916142Y-65329571D01*
X113773285Y-64829571D02*
X113201857Y-64829571D01*
X113559000Y-64329571D02*
X113559000Y-65615285D01*
X113487571Y-65758142D01*
X113344714Y-65829571D01*
X113201857Y-65829571D01*
X112844714Y-66401000D02*
X112773285Y-66329571D01*
X112630428Y-66115285D01*
X112559000Y-65972428D01*
X112487571Y-65758142D01*
X112416142Y-65401000D01*
X112416142Y-65115285D01*
X112487571Y-64758142D01*
X112559000Y-64543857D01*
X112630428Y-64401000D01*
X112773285Y-64186714D01*
X112844714Y-64115285D01*
M02*
