G04 #@! TF.GenerationSoftware,KiCad,Pcbnew,(5.1.2-1)-1*
G04 #@! TF.CreationDate,2020-04-02T23:09:06+01:00*
G04 #@! TF.ProjectId,MZ80-ROMPG,4d5a3830-2d52-44f4-9d50-472e6b696361,rev?*
G04 #@! TF.SameCoordinates,Original*
G04 #@! TF.FileFunction,Other,Fab,Top*
%FSLAX46Y46*%
G04 Gerber Fmt 4.6, Leading zero omitted, Abs format (unit mm)*
G04 Created by KiCad (PCBNEW (5.1.2-1)-1) date 2020-04-02 23:09:06*
%MOMM*%
%LPD*%
G04 APERTURE LIST*
%ADD10C,0.100000*%
%ADD11C,0.080000*%
%ADD12C,0.150000*%
G04 APERTURE END LIST*
D10*
X191608000Y-43394000D02*
X192608000Y-42394000D01*
X189608000Y-43394000D02*
X189408000Y-43194000D01*
X192408000Y-43394000D02*
X189608000Y-43394000D01*
X192608000Y-43194000D02*
X192408000Y-43394000D01*
X192608000Y-38594000D02*
X192608000Y-43194000D01*
X192408000Y-38394000D02*
X192608000Y-38594000D01*
X189608000Y-38394000D02*
X192408000Y-38394000D01*
X189408000Y-38594000D02*
X189608000Y-38394000D01*
X189408000Y-43194000D02*
X189408000Y-38594000D01*
X179416000Y-57388000D02*
X178216000Y-57388000D01*
X178216000Y-57388000D02*
X178216000Y-55388000D01*
X178216000Y-55388000D02*
X179416000Y-55388000D01*
X179416000Y-55388000D02*
X179416000Y-57388000D01*
X151600000Y-69250000D02*
X150600000Y-68250000D01*
X163400000Y-69250000D02*
X151600000Y-69250000D01*
X163400000Y-61750000D02*
X163400000Y-69250000D01*
X150600000Y-61750000D02*
X163400000Y-61750000D01*
X150600000Y-68250000D02*
X150600000Y-61750000D01*
X151600000Y-53750000D02*
X150600000Y-52750000D01*
X163400000Y-53750000D02*
X151600000Y-53750000D01*
X163400000Y-46250000D02*
X163400000Y-53750000D01*
X150600000Y-46250000D02*
X163400000Y-46250000D01*
X150600000Y-52750000D02*
X150600000Y-46250000D01*
X151600000Y-97550000D02*
X150600000Y-96550000D01*
X163400000Y-97550000D02*
X151600000Y-97550000D01*
X163400000Y-90050000D02*
X163400000Y-97550000D01*
X150600000Y-90050000D02*
X163400000Y-90050000D01*
X150600000Y-96550000D02*
X150600000Y-90050000D01*
X171025000Y-38450000D02*
X170050000Y-37475000D01*
X179950000Y-38450000D02*
X171025000Y-38450000D01*
X179950000Y-34550000D02*
X179950000Y-38450000D01*
X170050000Y-34550000D02*
X179950000Y-34550000D01*
X170050000Y-37475000D02*
X170050000Y-34550000D01*
X148625000Y-80502000D02*
X148625000Y-78502000D01*
X149825000Y-80502000D02*
X148625000Y-80502000D01*
X149825000Y-78502000D02*
X149825000Y-80502000D01*
X148625000Y-78502000D02*
X149825000Y-78502000D01*
X171150000Y-97950000D02*
X170175000Y-96975000D01*
X178825000Y-97950000D02*
X171150000Y-97950000D01*
X178825000Y-94050000D02*
X178825000Y-97950000D01*
X170175000Y-94050000D02*
X178825000Y-94050000D01*
X170175000Y-96975000D02*
X170175000Y-94050000D01*
X153416000Y-110063000D02*
X153416000Y-110663000D01*
X154936000Y-110063000D02*
X153416000Y-110063000D01*
X153416000Y-110663000D02*
X154936000Y-110663000D01*
X153416000Y-112603000D02*
X153416000Y-113203000D01*
X154936000Y-112603000D02*
X153416000Y-112603000D01*
X153416000Y-113203000D02*
X154936000Y-113203000D01*
X153416000Y-115143000D02*
X153416000Y-115743000D01*
X154936000Y-115143000D02*
X153416000Y-115143000D01*
X153416000Y-115743000D02*
X154936000Y-115743000D01*
X153416000Y-117683000D02*
X153416000Y-118283000D01*
X154936000Y-117683000D02*
X153416000Y-117683000D01*
X153416000Y-118283000D02*
X154936000Y-118283000D01*
X153416000Y-120223000D02*
X153416000Y-120823000D01*
X154936000Y-120223000D02*
X153416000Y-120223000D01*
X153416000Y-120823000D02*
X154936000Y-120823000D01*
X153416000Y-122763000D02*
X153416000Y-123363000D01*
X154936000Y-122763000D02*
X153416000Y-122763000D01*
X153416000Y-123363000D02*
X154936000Y-123363000D01*
X163446000Y-109093000D02*
X163446000Y-124333000D01*
X154936000Y-109093000D02*
X163446000Y-109093000D01*
X154936000Y-123363000D02*
X154936000Y-109093000D01*
X155906000Y-124333000D02*
X154936000Y-123363000D01*
X163446000Y-124333000D02*
X155906000Y-124333000D01*
X104670000Y-35490000D02*
X104670000Y-53270000D01*
X145430000Y-35490000D02*
X104670000Y-35490000D01*
X145430000Y-53270000D02*
X145430000Y-35490000D01*
X104670000Y-53270000D02*
X145430000Y-53270000D01*
X105730000Y-51745000D02*
X104730000Y-50745000D01*
X145370000Y-51745000D02*
X105730000Y-51745000D01*
X145370000Y-37015000D02*
X145370000Y-51745000D01*
X104730000Y-37015000D02*
X145370000Y-37015000D01*
X104730000Y-50745000D02*
X104730000Y-37015000D01*
X104670000Y-59490000D02*
X104670000Y-77270000D01*
X145430000Y-59490000D02*
X104670000Y-59490000D01*
X145430000Y-77270000D02*
X145430000Y-59490000D01*
X104670000Y-77270000D02*
X145430000Y-77270000D01*
X105730000Y-75745000D02*
X104730000Y-74745000D01*
X145370000Y-75745000D02*
X105730000Y-75745000D01*
X145370000Y-61015000D02*
X145370000Y-75745000D01*
X104730000Y-61015000D02*
X145370000Y-61015000D01*
X104730000Y-74745000D02*
X104730000Y-61015000D01*
X104670000Y-83490000D02*
X104670000Y-101270000D01*
X145430000Y-83490000D02*
X104670000Y-83490000D01*
X145430000Y-101270000D02*
X145430000Y-83490000D01*
X104670000Y-101270000D02*
X145430000Y-101270000D01*
X105730000Y-99745000D02*
X104730000Y-98745000D01*
X145370000Y-99745000D02*
X105730000Y-99745000D01*
X145370000Y-85015000D02*
X145370000Y-99745000D01*
X104730000Y-85015000D02*
X145370000Y-85015000D01*
X104730000Y-98745000D02*
X104730000Y-85015000D01*
X108670000Y-56490000D02*
X108670000Y-74270000D01*
X139270000Y-56490000D02*
X108670000Y-56490000D01*
X139270000Y-74270000D02*
X139270000Y-56490000D01*
X108670000Y-74270000D02*
X139270000Y-74270000D01*
X109730000Y-72745000D02*
X108730000Y-71745000D01*
X139210000Y-72745000D02*
X109730000Y-72745000D01*
X139210000Y-58015000D02*
X139210000Y-72745000D01*
X108730000Y-58015000D02*
X139210000Y-58015000D01*
X108730000Y-71745000D02*
X108730000Y-58015000D01*
X108670000Y-79490000D02*
X108670000Y-97270000D01*
X139270000Y-79490000D02*
X108670000Y-79490000D01*
X139270000Y-97270000D02*
X139270000Y-79490000D01*
X108670000Y-97270000D02*
X139270000Y-97270000D01*
X109730000Y-95745000D02*
X108730000Y-94745000D01*
X139210000Y-95745000D02*
X109730000Y-95745000D01*
X139210000Y-81015000D02*
X139210000Y-95745000D01*
X108730000Y-81015000D02*
X139210000Y-81015000D01*
X108730000Y-94745000D02*
X108730000Y-81015000D01*
X104670000Y-107490000D02*
X104670000Y-125270000D01*
X145430000Y-107490000D02*
X104670000Y-107490000D01*
X145430000Y-125270000D02*
X145430000Y-107490000D01*
X104670000Y-125270000D02*
X145430000Y-125270000D01*
X105730000Y-123745000D02*
X104730000Y-122745000D01*
X145370000Y-123745000D02*
X105730000Y-123745000D01*
X145370000Y-109015000D02*
X145370000Y-123745000D01*
X104730000Y-109015000D02*
X145370000Y-109015000D01*
X104730000Y-122745000D02*
X104730000Y-109015000D01*
X185074000Y-86090000D02*
X185074000Y-84090000D01*
X186274000Y-86090000D02*
X185074000Y-86090000D01*
X186274000Y-84090000D02*
X186274000Y-86090000D01*
X185074000Y-84090000D02*
X186274000Y-84090000D01*
X171025000Y-76950000D02*
X170050000Y-75975000D01*
X179950000Y-76950000D02*
X171025000Y-76950000D01*
X179950000Y-73050000D02*
X179950000Y-76950000D01*
X170050000Y-73050000D02*
X179950000Y-73050000D01*
X170050000Y-75975000D02*
X170050000Y-73050000D01*
X187175000Y-86475000D02*
X187175000Y-83550000D01*
X187175000Y-83550000D02*
X195825000Y-83550000D01*
X195825000Y-83550000D02*
X195825000Y-87450000D01*
X195825000Y-87450000D02*
X188150000Y-87450000D01*
X188150000Y-87450000D02*
X187175000Y-86475000D01*
X187050000Y-96975000D02*
X187050000Y-94050000D01*
X187050000Y-94050000D02*
X196950000Y-94050000D01*
X196950000Y-94050000D02*
X196950000Y-97950000D01*
X196950000Y-97950000D02*
X188025000Y-97950000D01*
X188025000Y-97950000D02*
X187050000Y-96975000D01*
X171025000Y-87450000D02*
X170050000Y-86475000D01*
X179950000Y-87450000D02*
X171025000Y-87450000D01*
X179950000Y-83550000D02*
X179950000Y-87450000D01*
X170050000Y-83550000D02*
X179950000Y-83550000D01*
X170050000Y-86475000D02*
X170050000Y-83550000D01*
X151625000Y-38450000D02*
X150650000Y-37475000D01*
X160550000Y-38450000D02*
X151625000Y-38450000D01*
X160550000Y-34550000D02*
X160550000Y-38450000D01*
X150650000Y-34550000D02*
X160550000Y-34550000D01*
X150650000Y-37475000D02*
X150650000Y-34550000D01*
X171025000Y-65950000D02*
X170050000Y-64975000D01*
X179950000Y-65950000D02*
X171025000Y-65950000D01*
X179950000Y-62050000D02*
X179950000Y-65950000D01*
X170050000Y-62050000D02*
X179950000Y-62050000D01*
X170050000Y-64975000D02*
X170050000Y-62050000D01*
X188150000Y-76950000D02*
X187175000Y-75975000D01*
X195825000Y-76950000D02*
X188150000Y-76950000D01*
X195825000Y-73050000D02*
X195825000Y-76950000D01*
X187175000Y-73050000D02*
X195825000Y-73050000D01*
X187175000Y-75975000D02*
X187175000Y-73050000D01*
X188150000Y-65950000D02*
X187175000Y-64975000D01*
X195825000Y-65950000D02*
X188150000Y-65950000D01*
X195825000Y-62050000D02*
X195825000Y-65950000D01*
X187175000Y-62050000D02*
X195825000Y-62050000D01*
X187175000Y-64975000D02*
X187175000Y-62050000D01*
X188150000Y-55950000D02*
X187175000Y-54975000D01*
X195825000Y-55950000D02*
X188150000Y-55950000D01*
X195825000Y-52050000D02*
X195825000Y-55950000D01*
X187175000Y-52050000D02*
X195825000Y-52050000D01*
X187175000Y-54975000D02*
X187175000Y-52050000D01*
X171150000Y-50950000D02*
X170175000Y-49975000D01*
X178825000Y-50950000D02*
X171150000Y-50950000D01*
X178825000Y-47050000D02*
X178825000Y-50950000D01*
X170175000Y-47050000D02*
X178825000Y-47050000D01*
X170175000Y-49975000D02*
X170175000Y-47050000D01*
X150675000Y-80475000D02*
X150675000Y-77550000D01*
X150675000Y-77550000D02*
X159325000Y-77550000D01*
X159325000Y-77550000D02*
X159325000Y-81450000D01*
X159325000Y-81450000D02*
X151650000Y-81450000D01*
X151650000Y-81450000D02*
X150675000Y-80475000D01*
X149600000Y-124000000D02*
X149600000Y-126000000D01*
X148400000Y-124000000D02*
X149600000Y-124000000D01*
X148400000Y-126000000D02*
X148400000Y-124000000D01*
X149600000Y-126000000D02*
X148400000Y-126000000D01*
X149600000Y-120000000D02*
X149600000Y-122000000D01*
X148400000Y-120000000D02*
X149600000Y-120000000D01*
X148400000Y-122000000D02*
X148400000Y-120000000D01*
X149600000Y-122000000D02*
X148400000Y-122000000D01*
X149600000Y-116000000D02*
X149600000Y-118000000D01*
X148400000Y-116000000D02*
X149600000Y-116000000D01*
X148400000Y-118000000D02*
X148400000Y-116000000D01*
X149600000Y-118000000D02*
X148400000Y-118000000D01*
X185709000Y-45069000D02*
X185709000Y-43069000D01*
X186909000Y-45069000D02*
X185709000Y-45069000D01*
X186909000Y-43069000D02*
X186909000Y-45069000D01*
X185709000Y-43069000D02*
X186909000Y-43069000D01*
X191608000Y-45990000D02*
X191608000Y-47990000D01*
X190408000Y-45990000D02*
X191608000Y-45990000D01*
X190408000Y-47990000D02*
X190408000Y-45990000D01*
X191608000Y-47990000D02*
X190408000Y-47990000D01*
X196307000Y-43187000D02*
X196307000Y-45187000D01*
X195107000Y-43187000D02*
X196307000Y-43187000D01*
X195107000Y-45187000D02*
X195107000Y-43187000D01*
X196307000Y-45187000D02*
X195107000Y-45187000D01*
X195107000Y-40497000D02*
X195107000Y-38497000D01*
X196307000Y-40497000D02*
X195107000Y-40497000D01*
X196307000Y-38497000D02*
X196307000Y-40497000D01*
X195107000Y-38497000D02*
X196307000Y-38497000D01*
X167929000Y-55388000D02*
X169129000Y-55388000D01*
X169129000Y-55388000D02*
X169129000Y-57388000D01*
X169129000Y-57388000D02*
X167929000Y-57388000D01*
X167929000Y-57388000D02*
X167929000Y-55388000D01*
X137365000Y-33770000D02*
X136730000Y-33135000D01*
X144350000Y-33770000D02*
X137365000Y-33770000D01*
X144350000Y-31230000D02*
X144350000Y-33770000D01*
X136730000Y-31230000D02*
X144350000Y-31230000D01*
X136730000Y-33135000D02*
X136730000Y-31230000D01*
X105365000Y-33770000D02*
X104730000Y-33135000D01*
X112350000Y-33770000D02*
X105365000Y-33770000D01*
X112350000Y-31230000D02*
X112350000Y-33770000D01*
X104730000Y-31230000D02*
X112350000Y-31230000D01*
X104730000Y-33135000D02*
X104730000Y-31230000D01*
X121365000Y-33770000D02*
X120730000Y-33135000D01*
X128350000Y-33770000D02*
X121365000Y-33770000D01*
X128350000Y-31230000D02*
X128350000Y-33770000D01*
X120730000Y-31230000D02*
X128350000Y-31230000D01*
X120730000Y-33135000D02*
X120730000Y-31230000D01*
X149800000Y-110400000D02*
X149800000Y-113600000D01*
X148200000Y-110400000D02*
X149800000Y-110400000D01*
X148200000Y-113600000D02*
X148200000Y-110400000D01*
X149800000Y-113600000D02*
X148200000Y-113600000D01*
X148400000Y-108000000D02*
X148400000Y-106000000D01*
X149600000Y-108000000D02*
X148400000Y-108000000D01*
X149600000Y-106000000D02*
X149600000Y-108000000D01*
X148400000Y-106000000D02*
X149600000Y-106000000D01*
X167929000Y-75930000D02*
X167929000Y-73930000D01*
X169129000Y-75930000D02*
X167929000Y-75930000D01*
X169129000Y-73930000D02*
X169129000Y-75930000D01*
X167929000Y-73930000D02*
X169129000Y-73930000D01*
X167929000Y-86471000D02*
X167929000Y-84471000D01*
X169129000Y-86471000D02*
X167929000Y-86471000D01*
X169129000Y-84471000D02*
X169129000Y-86471000D01*
X167929000Y-84471000D02*
X169129000Y-84471000D01*
X184947000Y-96885000D02*
X184947000Y-94885000D01*
X186147000Y-96885000D02*
X184947000Y-96885000D01*
X186147000Y-94885000D02*
X186147000Y-96885000D01*
X184947000Y-94885000D02*
X186147000Y-94885000D01*
X167929000Y-37449000D02*
X167929000Y-35449000D01*
X169129000Y-37449000D02*
X167929000Y-37449000D01*
X169129000Y-35449000D02*
X169129000Y-37449000D01*
X167929000Y-35449000D02*
X169129000Y-35449000D01*
X186909000Y-38497000D02*
X186909000Y-40497000D01*
X185709000Y-38497000D02*
X186909000Y-38497000D01*
X185709000Y-40497000D02*
X185709000Y-38497000D01*
X186909000Y-40497000D02*
X185709000Y-40497000D01*
X167929000Y-65135000D02*
X167929000Y-63135000D01*
X169129000Y-65135000D02*
X167929000Y-65135000D01*
X169129000Y-63135000D02*
X169129000Y-65135000D01*
X167929000Y-63135000D02*
X169129000Y-63135000D01*
X168056000Y-97139000D02*
X168056000Y-95139000D01*
X169256000Y-97139000D02*
X168056000Y-97139000D01*
X169256000Y-95139000D02*
X169256000Y-97139000D01*
X168056000Y-95139000D02*
X169256000Y-95139000D01*
X185074000Y-75803000D02*
X185074000Y-73803000D01*
X186274000Y-75803000D02*
X185074000Y-75803000D01*
X186274000Y-73803000D02*
X186274000Y-75803000D01*
X185074000Y-73803000D02*
X186274000Y-73803000D01*
X185074000Y-65008000D02*
X185074000Y-63008000D01*
X186274000Y-65008000D02*
X185074000Y-65008000D01*
X186274000Y-63008000D02*
X186274000Y-65008000D01*
X185074000Y-63008000D02*
X186274000Y-63008000D01*
X168056000Y-49895000D02*
X168056000Y-47895000D01*
X169256000Y-49895000D02*
X168056000Y-49895000D01*
X169256000Y-47895000D02*
X169256000Y-49895000D01*
X168056000Y-47895000D02*
X169256000Y-47895000D01*
X148498000Y-37449000D02*
X148498000Y-35449000D01*
X149698000Y-37449000D02*
X148498000Y-37449000D01*
X149698000Y-35449000D02*
X149698000Y-37449000D01*
X148498000Y-35449000D02*
X149698000Y-35449000D01*
X148498000Y-66532000D02*
X148498000Y-64532000D01*
X149698000Y-66532000D02*
X148498000Y-66532000D01*
X149698000Y-64532000D02*
X149698000Y-66532000D01*
X148498000Y-64532000D02*
X149698000Y-64532000D01*
X148371000Y-51038000D02*
X148371000Y-49038000D01*
X149571000Y-51038000D02*
X148371000Y-51038000D01*
X149571000Y-49038000D02*
X149571000Y-51038000D01*
X148371000Y-49038000D02*
X149571000Y-49038000D01*
X148498000Y-94726000D02*
X148498000Y-92726000D01*
X149698000Y-94726000D02*
X148498000Y-94726000D01*
X149698000Y-92726000D02*
X149698000Y-94726000D01*
X148498000Y-92726000D02*
X149698000Y-92726000D01*
X185074000Y-54975000D02*
X185074000Y-52975000D01*
X186274000Y-54975000D02*
X185074000Y-54975000D01*
X186274000Y-52975000D02*
X186274000Y-54975000D01*
X185074000Y-52975000D02*
X186274000Y-52975000D01*
X102143000Y-45196000D02*
X102143000Y-43196000D01*
X103343000Y-45196000D02*
X102143000Y-45196000D01*
X103343000Y-43196000D02*
X103343000Y-45196000D01*
X102143000Y-43196000D02*
X103343000Y-43196000D01*
X102016000Y-69199000D02*
X102016000Y-67199000D01*
X103216000Y-69199000D02*
X102016000Y-69199000D01*
X103216000Y-67199000D02*
X103216000Y-69199000D01*
X102016000Y-67199000D02*
X103216000Y-67199000D01*
X102016000Y-93583000D02*
X102016000Y-91583000D01*
X103216000Y-93583000D02*
X102016000Y-93583000D01*
X103216000Y-91583000D02*
X103216000Y-93583000D01*
X102016000Y-91583000D02*
X103216000Y-91583000D01*
X102270000Y-117713000D02*
X102270000Y-115713000D01*
X103470000Y-117713000D02*
X102270000Y-117713000D01*
X103470000Y-115713000D02*
X103470000Y-117713000D01*
X102270000Y-115713000D02*
X103470000Y-115713000D01*
D11*
X179042190Y-56471333D02*
X178804095Y-56638000D01*
X179042190Y-56757047D02*
X178542190Y-56757047D01*
X178542190Y-56566571D01*
X178566000Y-56518952D01*
X178589809Y-56495142D01*
X178637428Y-56471333D01*
X178708857Y-56471333D01*
X178756476Y-56495142D01*
X178780285Y-56518952D01*
X178804095Y-56566571D01*
X178804095Y-56757047D01*
X179042190Y-56233238D02*
X179042190Y-56138000D01*
X179018380Y-56090380D01*
X178994571Y-56066571D01*
X178923142Y-56018952D01*
X178827904Y-55995142D01*
X178637428Y-55995142D01*
X178589809Y-56018952D01*
X178566000Y-56042761D01*
X178542190Y-56090380D01*
X178542190Y-56185619D01*
X178566000Y-56233238D01*
X178589809Y-56257047D01*
X178637428Y-56280857D01*
X178756476Y-56280857D01*
X178804095Y-56257047D01*
X178827904Y-56233238D01*
X178851714Y-56185619D01*
X178851714Y-56090380D01*
X178827904Y-56042761D01*
X178804095Y-56018952D01*
X178756476Y-55995142D01*
D12*
X139706666Y-31952380D02*
X139706666Y-32666666D01*
X139659047Y-32809523D01*
X139563809Y-32904761D01*
X139420952Y-32952380D01*
X139325714Y-32952380D01*
X140182857Y-32952380D02*
X140182857Y-31952380D01*
X140563809Y-31952380D01*
X140659047Y-32000000D01*
X140706666Y-32047619D01*
X140754285Y-32142857D01*
X140754285Y-32285714D01*
X140706666Y-32380952D01*
X140659047Y-32428571D01*
X140563809Y-32476190D01*
X140182857Y-32476190D01*
X141087619Y-31952380D02*
X141706666Y-31952380D01*
X141373333Y-32333333D01*
X141516190Y-32333333D01*
X141611428Y-32380952D01*
X141659047Y-32428571D01*
X141706666Y-32523809D01*
X141706666Y-32761904D01*
X141659047Y-32857142D01*
X141611428Y-32904761D01*
X141516190Y-32952380D01*
X141230476Y-32952380D01*
X141135238Y-32904761D01*
X141087619Y-32857142D01*
X107706666Y-31952380D02*
X107706666Y-32666666D01*
X107659047Y-32809523D01*
X107563809Y-32904761D01*
X107420952Y-32952380D01*
X107325714Y-32952380D01*
X108182857Y-32952380D02*
X108182857Y-31952380D01*
X108563809Y-31952380D01*
X108659047Y-32000000D01*
X108706666Y-32047619D01*
X108754285Y-32142857D01*
X108754285Y-32285714D01*
X108706666Y-32380952D01*
X108659047Y-32428571D01*
X108563809Y-32476190D01*
X108182857Y-32476190D01*
X109135238Y-32047619D02*
X109182857Y-32000000D01*
X109278095Y-31952380D01*
X109516190Y-31952380D01*
X109611428Y-32000000D01*
X109659047Y-32047619D01*
X109706666Y-32142857D01*
X109706666Y-32238095D01*
X109659047Y-32380952D01*
X109087619Y-32952380D01*
X109706666Y-32952380D01*
X123706666Y-31952380D02*
X123706666Y-32666666D01*
X123659047Y-32809523D01*
X123563809Y-32904761D01*
X123420952Y-32952380D01*
X123325714Y-32952380D01*
X124182857Y-32952380D02*
X124182857Y-31952380D01*
X124563809Y-31952380D01*
X124659047Y-32000000D01*
X124706666Y-32047619D01*
X124754285Y-32142857D01*
X124754285Y-32285714D01*
X124706666Y-32380952D01*
X124659047Y-32428571D01*
X124563809Y-32476190D01*
X124182857Y-32476190D01*
X125706666Y-32952380D02*
X125135238Y-32952380D01*
X125420952Y-32952380D02*
X125420952Y-31952380D01*
X125325714Y-32095238D01*
X125230476Y-32190476D01*
X125135238Y-32238095D01*
D11*
X149276571Y-93809333D02*
X149300380Y-93833142D01*
X149324190Y-93904571D01*
X149324190Y-93952190D01*
X149300380Y-94023619D01*
X149252761Y-94071238D01*
X149205142Y-94095047D01*
X149109904Y-94118857D01*
X149038476Y-94118857D01*
X148943238Y-94095047D01*
X148895619Y-94071238D01*
X148848000Y-94023619D01*
X148824190Y-93952190D01*
X148824190Y-93904571D01*
X148848000Y-93833142D01*
X148871809Y-93809333D01*
X149038476Y-93523619D02*
X149014666Y-93571238D01*
X148990857Y-93595047D01*
X148943238Y-93618857D01*
X148919428Y-93618857D01*
X148871809Y-93595047D01*
X148848000Y-93571238D01*
X148824190Y-93523619D01*
X148824190Y-93428380D01*
X148848000Y-93380761D01*
X148871809Y-93356952D01*
X148919428Y-93333142D01*
X148943238Y-93333142D01*
X148990857Y-93356952D01*
X149014666Y-93380761D01*
X149038476Y-93428380D01*
X149038476Y-93523619D01*
X149062285Y-93571238D01*
X149086095Y-93595047D01*
X149133714Y-93618857D01*
X149228952Y-93618857D01*
X149276571Y-93595047D01*
X149300380Y-93571238D01*
X149324190Y-93523619D01*
X149324190Y-93428380D01*
X149300380Y-93380761D01*
X149276571Y-93356952D01*
X149228952Y-93333142D01*
X149133714Y-93333142D01*
X149086095Y-93356952D01*
X149062285Y-93380761D01*
X149038476Y-93428380D01*
X102794571Y-68282333D02*
X102818380Y-68306142D01*
X102842190Y-68377571D01*
X102842190Y-68425190D01*
X102818380Y-68496619D01*
X102770761Y-68544238D01*
X102723142Y-68568047D01*
X102627904Y-68591857D01*
X102556476Y-68591857D01*
X102461238Y-68568047D01*
X102413619Y-68544238D01*
X102366000Y-68496619D01*
X102342190Y-68425190D01*
X102342190Y-68377571D01*
X102366000Y-68306142D01*
X102389809Y-68282333D01*
X102342190Y-68115666D02*
X102342190Y-67806142D01*
X102532666Y-67972809D01*
X102532666Y-67901380D01*
X102556476Y-67853761D01*
X102580285Y-67829952D01*
X102627904Y-67806142D01*
X102746952Y-67806142D01*
X102794571Y-67829952D01*
X102818380Y-67853761D01*
X102842190Y-67901380D01*
X102842190Y-68044238D01*
X102818380Y-68091857D01*
X102794571Y-68115666D01*
M02*
